<?xml version="1.0" standalone="yes"?>

<svg version="1.1" viewBox="0.0 0.0 960.0 720.0" fill="none" stroke="none" stroke-linecap="square" stroke-miterlimit="10" xmlns="http://www.w3.org/2000/svg" xmlns:xlink="http://www.w3.org/1999/xlink"><clipPath id="p.0"><path d="m0 0l960.0 0l0 720.0l-960.0 0l0 -720.0z" clip-rule="nonzero"></path></clipPath><g clip-path="url(#p.0)"><path fill="#000000" fill-opacity="0.0" d="m0 0l960.0 0l0 720.0l-960.0 0z" fill-rule="evenodd"></path><path fill="#ffffff" d="m59.354332 26.666666l529.03937 0l0 658.92914l-529.03937 0z" fill-rule="evenodd"></path><path stroke="#000000" stroke-width="1.0" stroke-linejoin="round" stroke-linecap="butt" d="m59.354332 26.666666l529.03937 0l0 658.92914l-529.03937 0z" fill-rule="evenodd"></path><path fill="#ffffff" d="m75.35433 42.666668l157.73227 0l0 112.188965l-157.73227 0z" fill-rule="evenodd"></path><path stroke="#000000" stroke-width="1.0" stroke-linejoin="round" stroke-linecap="butt" d="m75.35433 42.666668l157.73227 0l0 112.188965l-157.73227 0z" fill-rule="evenodd"></path><path fill="#ffffff" d="m244.83076 42.666668l157.73228 0l0 112.188965l-157.73228 0z" fill-rule="evenodd"></path><path stroke="#000000" stroke-width="1.0" stroke-linejoin="round" stroke-linecap="butt" d="m244.83076 42.666668l157.73228 0l0 112.188965l-157.73228 0z" fill-rule="evenodd"></path><path fill="#ffffff" d="m414.30722 42.666668l157.73227 0l0 112.188965l-157.73227 0z" fill-rule="evenodd"></path><path stroke="#000000" stroke-width="1.0" stroke-linejoin="round" stroke-linecap="butt" d="m414.30722 42.666668l157.73227 0l0 112.188965l-157.73227 0z" fill-rule="evenodd"></path><path fill="#ffffff" d="m244.8309 471.41794l157.73227 0l0 200.40945l-157.73227 0z" fill-rule="evenodd"></path><path stroke="#000000" stroke-width="1.0" stroke-linejoin="round" stroke-linecap="butt" d="m244.8309 471.41794l157.73227 0l0 200.40945l-157.73227 0z" fill-rule="evenodd"></path><path fill="#ffffff" d="m414.30746 471.41794l157.73227 0l0 200.40945l-157.73227 0z" fill-rule="evenodd"></path><path stroke="#000000" stroke-width="1.0" stroke-linejoin="round" stroke-linecap="butt" d="m414.30746 471.41794l157.73227 0l0 200.40945l-157.73227 0z" fill-rule="evenodd"></path><path fill="#d9ead3" d="m244.83202 168.12862l327.2126 0l0 290.01575l-327.2126 0z" fill-rule="evenodd"></path><path stroke="#000000" stroke-width="1.0" stroke-linejoin="round" stroke-linecap="butt" d="m244.83202 168.12862l327.2126 0l0 290.01575l-327.2126 0z" fill-rule="evenodd"></path><path fill="#000000" d="m362.12714 317.85336l-8.75 -3.84375l0 -0.890625l8.75 -4.375l0 1.359375l-7.125 3.390625l7.125 2.984375l0 1.375zm15.292236 2.203125l0 -6.5q0 -1.1875 -0.515625 -1.78125q-0.5 -0.59375 -1.578125 -0.59375q-1.40625 0 -2.09375 0.8125q-0.671875 0.796875 -0.671875 2.484375l0 5.578125l-1.5 0l0 -6.5q0 -1.1875 -0.515625 -1.78125q-0.515625 -0.59375 -1.59375 -0.59375q-1.421875 0 -2.09375 0.859375q-0.65625 0.84375 -0.65625 2.78125l0 5.234375l-1.5 0l0 -9.984375l1.21875 0l0.25 1.359375l0.078125 0q0.421875 -0.71875 1.203125 -1.125q0.78125 -0.421875 1.75 -0.421875q2.328125 0 3.0625 1.703125l0.0625 0q0.453125 -0.78125 1.296875 -1.234375q0.84375 -0.46875 1.9375 -0.46875q1.6875 0 2.53125 0.875q0.84375 0.875 0.84375 2.78125l0 6.515625l-1.515625 0zm3.0410767 -9.984375l1.625 0l2.1875 5.6875q0.71875 1.953125 0.890625 2.828125l0.078125 0q0.109375 -0.46875 0.484375 -1.59375q0.390625 -1.125 2.484375 -6.921875l1.609375 0l-4.28125 11.375q-0.640625 1.671875 -1.5 2.375q-0.84375 0.71875 -2.078125 0.71875q-0.703125 0 -1.375 -0.15625l0 -1.21875q0.5 0.109375 1.125 0.109375q1.5625 0 2.21875 -1.75l0.5625 -1.421875l-4.03125 -10.03125zm10.151001 5.671875l0 -1.375l4.46875 0l0 1.375l-4.46875 0zm14.987549 4.3125l-1.828125 -5.859375q-0.171875 -0.53125 -0.640625 -2.4375l-0.078125 0q-0.359375 1.59375 -0.640625 2.453125l-1.875 5.84375l-1.75 0l-2.734375 -9.984375l1.59375 0q0.96875 3.765625 1.46875 5.734375q0.5 1.96875 0.578125 2.640625l0.078125 0q0.09375 -0.515625 0.3125 -1.328125q0.234375 -0.828125 0.390625 -1.3125l1.828125 -5.734375l1.640625 0l1.796875 5.734375q0.5 1.5625 0.6875 2.625l0.078125 0q0.03125 -0.328125 0.1875 -1.0q0.15625 -0.6875 1.90625 -7.359375l1.5625 0l-2.765625 9.984375l-1.796875 0zm7.8707886 0l-1.5 0l0 -9.984375l1.5 0l0 9.984375zm-1.640625 -12.6875q0 -0.515625 0.25 -0.75q0.265625 -0.25 0.65625 -0.25q0.359375 0 0.625 0.25q0.265625 0.234375 0.265625 0.75q0 0.515625 -0.265625 0.765625q-0.265625 0.25 -0.625 0.25q-0.390625 0 -0.65625 -0.25q-0.25 -0.25 -0.25 -0.765625zm11.6562195 11.34375l-0.09375 0q-1.046875 1.53125 -3.125 1.53125q-1.96875 0 -3.0625 -1.34375q-1.078125 -1.34375 -1.078125 -3.8125q0 -2.46875 1.09375 -3.828125q1.09375 -1.375 3.046875 -1.375q2.03125 0 3.109375 1.484375l0.125 0l-0.0625 -0.71875l-0.046875 -0.703125l0 -4.0625l1.515625 0l0 14.171875l-1.234375 0l-0.1875 -1.34375zm-3.03125 0.265625q1.546875 0 2.234375 -0.84375q0.703125 -0.84375 0.703125 -2.71875l0 -0.328125q0 -2.125 -0.703125 -3.03125q-0.703125 -0.90625 -2.25 -0.90625q-1.328125 0 -2.046875 1.046875q-0.703125 1.03125 -0.703125 2.90625q0 1.921875 0.703125 2.90625q0.703125 0.96875 2.0625 0.96875zm15.838684 -8.90625l0 0.953125l-1.859375 0.21875q0.265625 0.328125 0.453125 0.84375q0.203125 0.515625 0.203125 1.15625q0 1.46875 -1.0 2.34375q-1.0 0.875 -2.75 0.875q-0.453125 0 -0.84375 -0.078125q-0.953125 0.515625 -0.953125 1.28125q0 0.40625 0.328125 0.609375q0.34375 0.203125 1.15625 0.203125l1.765625 0q1.625 0 2.484375 0.6875q0.875 0.671875 0.875 1.96875q0 1.65625 -1.328125 2.53125q-1.328125 0.875 -3.875 0.875q-1.953125 0 -3.015625 -0.734375q-1.0625 -0.71875 -1.0625 -2.0625q0 -0.90625 0.578125 -1.578125q0.578125 -0.65625 1.640625 -0.890625q-0.375 -0.171875 -0.640625 -0.53125q-0.265625 -0.375 -0.265625 -0.859375q0 -0.546875 0.296875 -0.953125q0.296875 -0.40625 0.921875 -0.796875q-0.78125 -0.3125 -1.265625 -1.078125q-0.484375 -0.765625 -0.484375 -1.75q0 -1.640625 0.984375 -2.53125q0.984375 -0.890625 2.78125 -0.890625q0.78125 0 1.421875 0.1875l3.453125 0zm-7.96875 11.65625q0 0.8125 0.671875 1.234375q0.6875 0.421875 1.96875 0.421875q1.90625 0 2.8125 -0.578125q0.921875 -0.5625 0.921875 -1.53125q0 -0.8125 -0.5 -1.140625q-0.5 -0.3125 -1.890625 -0.3125l-1.8125 0q-1.03125 0 -1.609375 0.484375q-0.5625 0.5 -0.5625 1.421875zm0.8125 -8.453125q0 1.046875 0.59375 1.578125q0.59375 0.53125 1.65625 0.53125q2.21875 0 2.21875 -2.140625q0 -2.25 -2.25 -2.25q-1.0625 0 -1.640625 0.578125q-0.578125 0.5625 -0.578125 1.703125zm13.423981 6.96875q-2.21875 0 -3.5 -1.34375q-1.28125 -1.359375 -1.28125 -3.75q0 -2.421875 1.1875 -3.84375q1.1875 -1.421875 3.1875 -1.421875q1.890625 0 2.96875 1.234375q1.09375 1.234375 1.09375 3.265625l0 0.953125l-6.875 0q0.046875 1.765625 0.890625 2.671875q0.84375 0.90625 2.375 0.90625q1.609375 0 3.1875 -0.671875l0 1.34375q-0.796875 0.34375 -1.515625 0.5q-0.71875 0.15625 -1.71875 0.15625zm-0.421875 -9.09375q-1.203125 0 -1.921875 0.796875q-0.703125 0.78125 -0.828125 2.15625l5.21875 0q0 -1.421875 -0.640625 -2.1875q-0.640625 -0.765625 -1.828125 -0.765625zm9.888672 7.84375q0.40625 0 0.765625 -0.0625q0.375 -0.0625 0.59375 -0.125l0 1.15625q-0.234375 0.125 -0.71875 0.203125q-0.484375 0.078125 -0.859375 0.078125q-2.890625 0 -2.890625 -3.0625l0 -5.9375l-1.4375 0l0 -0.71875l1.4375 -0.640625l0.625 -2.125l0.875 0l0 2.3125l2.90625 0l0 1.171875l-2.90625 0l0 5.875q0 0.90625 0.421875 1.390625q0.4375 0.484375 1.1875 0.484375zm2.7111816 -2.515625l7.125 -2.96875l-7.125 -3.40625l0 -1.359375l8.75 4.375l0 0.890625l-8.75 3.84375l0 -1.375z" fill-rule="nonzero"></path><path fill="#d9ead3" d="m75.35433 168.12862l157.73227 0l0 503.68506l-157.73227 0z" fill-rule="evenodd"></path><path stroke="#000000" stroke-width="1.0" stroke-linejoin="round" stroke-linecap="butt" d="m75.35433 168.12862l157.73227 0l0 503.68506l-157.73227 0z" fill-rule="evenodd"></path><path fill="#000000" d="m108.08694 336.688l-8.75 -3.84375l0 -0.890625l8.75 -4.375l0 1.359375l-7.125 3.390625l7.125 2.984375l0 1.375zm5.792221 1.140625q0.40625 0 0.765625 -0.0625q0.375 -0.0625 0.59375 -0.125l0 1.15625q-0.234375 0.125 -0.71875 0.203125q-0.484375 0.078125 -0.859375 0.078125q-2.890625 0 -2.890625 -3.0625l0 -5.9375l-1.4375 0l0 -0.71875l1.4375 -0.640625l0.625 -2.125l0.875 0l0 2.3125l2.90625 0l0 1.171875l-2.90625 0l0 5.875q0 0.90625 0.421875 1.390625q0.4375 0.484375 1.1875 0.484375zm9.508041 1.0625l-0.3125 -1.421875l-0.0625 0q-0.75 0.9375 -1.5 1.28125q-0.734375 0.328125 -1.84375 0.328125q-1.484375 0 -2.328125 -0.765625q-0.84375 -0.765625 -0.84375 -2.1875q0 -3.015625 4.828125 -3.171875l1.703125 -0.046875l0 -0.625q0 -1.171875 -0.515625 -1.734375q-0.5 -0.5625 -1.609375 -0.5625q-1.25 0 -2.828125 0.765625l-0.453125 -1.15625q0.734375 -0.390625 1.609375 -0.609375q0.875 -0.234375 1.765625 -0.234375q1.78125 0 2.640625 0.796875q0.859375 0.78125 0.859375 2.53125l0 6.8125l-1.109375 0zm-3.421875 -1.0625q1.40625 0 2.203125 -0.765625q0.8125 -0.78125 0.8125 -2.1875l0 -0.890625l-1.5 0.0625q-1.8125 0.0625 -2.609375 0.5625q-0.796875 0.484375 -0.796875 1.546875q0 0.8125 0.5 1.25q0.5 0.421875 1.390625 0.421875zm9.15696 1.0625l-1.4999924 0l0 -14.171875l1.4999924 0l0 14.171875zm4.7187195 0l-1.5 0l0 -14.171875l1.5 0l0 14.171875zm2.3749695 -4.3125l0 -1.375l4.46875 0l0 1.375l-4.46875 0zm14.987534 4.3125l-1.828125 -5.859375q-0.171875 -0.53125 -0.640625 -2.4375l-0.078125 0q-0.359375 1.59375 -0.640625 2.453125l-1.875 5.84375l-1.75 0l-2.734375 -9.984375l1.59375 0q0.96875 3.765625 1.46875 5.734375q0.5 1.96875 0.578125 2.640625l0.078125 0q0.09375 -0.515625 0.3125 -1.328125q0.234375 -0.828125 0.390625 -1.3125l1.828125 -5.734375l1.640625 0l1.796875 5.734375q0.5 1.5625 0.6875 2.625l0.078125 0q0.03125 -0.328125 0.1875 -1.0q0.15625 -0.6875 1.90625 -7.359375l1.5625 0l-2.765625 9.984375l-1.796875 0zm7.870804 0l-1.5 0l0 -9.984375l1.5 0l0 9.984375zm-1.640625 -12.6875q0 -0.515625 0.25 -0.75q0.265625 -0.25 0.65625 -0.25q0.359375 0 0.625 0.25q0.265625 0.234375 0.265625 0.75q0 0.515625 -0.265625 0.765625q-0.265625 0.25 -0.625 0.25q-0.390625 0 -0.65625 -0.25q-0.25 -0.25 -0.25 -0.765625zm11.6562195 11.34375l-0.09375 0q-1.046875 1.53125 -3.125 1.53125q-1.96875 0 -3.0625 -1.34375q-1.078125 -1.34375 -1.078125 -3.8125q0 -2.46875 1.09375 -3.828125q1.09375 -1.375 3.046875 -1.375q2.03125 0 3.109375 1.484375l0.125 0l-0.0625 -0.71875l-0.046875 -0.703125l0 -4.0625l1.515625 0l0 14.171875l-1.234375 0l-0.1875 -1.34375zm-3.03125 0.265625q1.546875 0 2.234375 -0.84375q0.703125 -0.84375 0.703125 -2.71875l0 -0.328125q0 -2.125 -0.703125 -3.03125q-0.703125 -0.90625 -2.25 -0.90625q-1.328125 0 -2.046875 1.046875q-0.703125 1.03125 -0.703125 2.90625q0 1.921875 0.703125 2.90625q0.703125 0.96875 2.0625 0.96875zm15.838669 -8.90625l0 0.953125l-1.859375 0.21875q0.265625 0.328125 0.453125 0.84375q0.203125 0.515625 0.203125 1.15625q0 1.46875 -1.0 2.34375q-1.0 0.875 -2.75 0.875q-0.453125 0 -0.84375 -0.078125q-0.953125 0.515625 -0.953125 1.28125q0 0.40625 0.328125 0.609375q0.34375 0.203125 1.15625 0.203125l1.765625 0q1.625 0 2.484375 0.6875q0.875 0.671875 0.875 1.96875q0 1.65625 -1.328125 2.53125q-1.328125 0.875 -3.875 0.875q-1.953125 0 -3.015625 -0.734375q-1.0625 -0.71875 -1.0625 -2.0625q0 -0.90625 0.578125 -1.578125q0.578125 -0.65625 1.640625 -0.890625q-0.375 -0.171875 -0.640625 -0.53125q-0.265625 -0.375 -0.265625 -0.859375q0 -0.546875 0.296875 -0.953125q0.296875 -0.40625 0.921875 -0.796875q-0.78125 -0.3125 -1.265625 -1.078125q-0.484375 -0.765625 -0.484375 -1.75q0 -1.640625 0.984375 -2.53125q0.984375 -0.890625 2.78125 -0.890625q0.78125 0 1.421875 0.1875l3.453125 0zm-7.96875 11.65625q0 0.8125 0.671875 1.234375q0.6875 0.421875 1.96875 0.421875q1.90625 0 2.8125 -0.578125q0.921875 -0.5625 0.921875 -1.53125q0 -0.8125 -0.5 -1.140625q-0.5 -0.3125 -1.890625 -0.3125l-1.8125 0q-1.03125 0 -1.609375 0.484375q-0.5625 0.5 -0.5625 1.421875zm0.8125 -8.453125q0 1.046875 0.59375 1.578125q0.59375 0.53125 1.65625 0.53125q2.21875 0 2.21875 -2.140625q0 -2.25 -2.25 -2.25q-1.0625 0 -1.640625 0.578125q-0.578125 0.5625 -0.578125 1.703125zm13.423981 6.96875q-2.21875 0 -3.5 -1.34375q-1.28125 -1.359375 -1.28125 -3.75q0 -2.421875 1.1875 -3.84375q1.1875 -1.421875 3.1875 -1.421875q1.890625 0 2.96875 1.234375q1.09375 1.234375 1.09375 3.265625l0 0.953125l-6.875 0q0.046875 1.765625 0.890625 2.671875q0.84375 0.90625 2.375 0.90625q1.609375 0 3.1875 -0.671875l0 1.34375q-0.796875 0.34375 -1.515625 0.5q-0.71875 0.15625 -1.71875 0.15625zm-0.421875 -9.09375q-1.203125 0 -1.921875 0.796875q-0.703125 0.78125 -0.828125 2.15625l5.21875 0q0 -1.421875 -0.640625 -2.1875q-0.640625 -0.765625 -1.828125 -0.765625zm9.888687 7.84375q0.40625 0 0.765625 -0.0625q0.375 -0.0625 0.59375 -0.125l0 1.15625q-0.234375 0.125 -0.71875 0.203125q-0.484375 0.078125 -0.859375 0.078125q-2.890625 0 -2.890625 -3.0625l0 -5.9375l-1.4375 0l0 -0.71875l1.4375 -0.640625l0.625 -2.125l0.875 0l0 2.3125l2.90625 0l0 1.171875l-2.90625 0l0 5.875q0 0.90625 0.421875 1.390625q0.4375 0.484375 1.1875 0.484375zm2.7111664 -2.515625l7.125 -2.96875l-7.125 -3.40625l0 -1.359375l8.75 4.375l0 0.890625l-8.75 3.84375l0 -1.375z" fill-rule="nonzero"></path><path fill="#000000" d="m88.68246 426.78174q0 0.921875 0.53125 1.34375q0.53125 0.421875 1.5625 0.4375l0 1.28125q-1.734375 -0.015625 -2.6875 -0.796875q-0.9375 -0.765625 -0.9375 -2.171875l0 -2.765625q0 -0.9375 -0.578125 -1.34375q-0.5625 -0.40625 -1.65625 -0.40625l0 -1.296875q1.171875 -0.015625 1.703125 -0.421875q0.53125 -0.421875 0.53125 -1.296875l0 -2.796875q0 -1.40625 0.984375 -2.1875q0.984375 -0.78125 2.640625 -0.78125l0 1.265625q-2.09375 0.046875 -2.09375 1.8125l0 2.6875q0 1.953125 -2.03125 2.3125l0 0.109375q2.03125 0.359375 2.03125 2.3125l0 2.703125z" fill-rule="nonzero"></path><path fill="#000000" d="m92.76058 447.54736l-0.09375 0q-1.046875 1.53125 -3.125 1.53125q-1.96875 0 -3.0625 -1.34375q-1.078125 -1.34375 -1.078125 -3.8125q0 -2.46875 1.09375 -3.828125q1.09375 -1.375 3.046875 -1.375q2.03125 0 3.109375 1.484375l0.125 0l-0.0625 -0.71875l-0.046875 -0.703125l0 -4.0625l1.515625 0l0 14.171875l-1.234375 0l-0.1875 -1.34375zm-3.03125 0.265625q1.546875 0 2.234375 -0.84375q0.703125 -0.84375 0.703125 -2.71875l0 -0.328125q0 -2.125 -0.703125 -3.03125q-0.703125 -0.90625 -2.25 -0.90625q-1.328125 0 -2.046875 1.046875q-0.703125 1.03125 -0.703125 2.90625q0 1.921875 0.703125 2.90625q0.703125 0.96875 2.0625 0.96875zm9.166794 1.078125l-1.5 0l0 -9.984375l1.5 0l0 9.984375zm-1.640625 -12.6875q0 -0.515625 0.25 -0.75q0.265625 -0.25 0.65625 -0.25q0.359375 0 0.625 0.25q0.265625 0.234375 0.265625 0.75q0 0.515625 -0.265625 0.765625q-0.265625 0.25 -0.625 0.25q-0.390625 0 -0.65625 -0.25q-0.25 -0.25 -0.25 -0.765625zm11.2968445 9.96875q0 1.390625 -1.046875 2.15625q-1.03125 0.75 -2.90625 0.75q-1.984375 0 -3.09375 -0.640625l0 -1.390625q0.71875 0.359375 1.53125 0.578125q0.828125 0.203125 1.59375 0.203125q1.1875 0 1.828125 -0.375q0.640625 -0.390625 0.640625 -1.15625q0 -0.578125 -0.515625 -1.0q-0.5 -0.421875 -1.96875 -0.984375q-1.390625 -0.515625 -1.984375 -0.890625q-0.578125 -0.390625 -0.875 -0.875q-0.28125 -0.5 -0.28125 -1.1875q0 -1.21875 0.984375 -1.921875q1.0 -0.71875 2.734375 -0.71875q1.609375 0 3.140625 0.65625l-0.53125 1.234375q-1.5 -0.625 -2.71875 -0.625q-1.078125 0 -1.625 0.34375q-0.546875 0.34375 -0.546875 0.921875q0 0.40625 0.203125 0.6875q0.203125 0.28125 0.65625 0.546875q0.453125 0.25 1.75 0.734375q1.78125 0.640625 2.40625 1.296875q0.625 0.65625 0.625 1.65625zm7.1031036 2.90625q-0.96875 0 -1.78125 -0.359375q-0.8125 -0.359375 -1.359375 -1.109375l-0.109375 0q0.109375 0.875 0.109375 1.65625l0 4.109375l-1.5 0l0 -14.46875l1.21875 0l0.21875 1.359375l0.0625 0q0.59375 -0.8125 1.359375 -1.171875q0.78125 -0.375 1.78125 -0.375q1.984375 0 3.0625 1.359375q1.078125 1.359375 1.078125 3.8125q0 2.453125 -1.09375 3.828125q-1.09375 1.359375 -3.046875 1.359375zm-0.21875 -9.0625q-1.53125 0 -2.21875 0.84375q-0.671875 0.84375 -0.703125 2.6875l0 0.34375q0 2.109375 0.703125 3.015625q0.703125 0.90625 2.25 0.90625q1.296875 0 2.03125 -1.046875q0.734375 -1.046875 0.734375 -2.890625q0 -1.875 -0.734375 -2.859375q-0.734375 -1.0 -2.0625 -1.0zm8.510544 8.875l-1.5 0l0 -14.171875l1.5 0l0 14.171875zm9.359337 0l-0.3125 -1.421875l-0.0625 0q-0.75 0.9375 -1.5 1.28125q-0.734375 0.328125 -1.84375 0.328125q-1.484375 0 -2.3281174 -0.765625q-0.84375 -0.765625 -0.84375 -2.1875q0 -3.015625 4.8281174 -3.171875l1.703125 -0.046875l0 -0.625q0 -1.171875 -0.515625 -1.734375q-0.5 -0.5625 -1.609375 -0.5625q-1.25 0 -2.8281174 0.765625l-0.453125 -1.15625q0.7343674 -0.390625 1.6093674 -0.609375q0.875 -0.234375 1.765625 -0.234375q1.78125 0 2.640625 0.796875q0.859375 0.78125 0.859375 2.53125l0 6.8125l-1.109375 0zm-3.421875 -1.0625q1.40625 0 2.203125 -0.765625q0.8125 -0.78125 0.8125 -2.1875l0 -0.890625l-1.5 0.0625q-1.8125 0.0625 -2.609375 0.5625q-0.7968674 0.484375 -0.7968674 1.546875q0 0.8125 0.49999237 1.25q0.5 0.421875 1.390625 0.421875zm6.063217 -8.921875l1.625 0l2.1875 5.6875q0.71875 1.953125 0.890625 2.828125l0.078125 0q0.109375 -0.46875 0.484375 -1.59375q0.390625 -1.125 2.484375 -6.921875l1.609375 0l-4.28125 11.375q-0.640625 1.671875 -1.5 2.375q-0.84375 0.71875 -2.078125 0.71875q-0.703125 0 -1.375 -0.15625l0 -1.21875q0.5 0.109375 1.125 0.109375q1.5625 0 2.21875 -1.75l0.5625 -1.421875l-4.03125 -10.03125zm10.776001 9.015625q0 -0.609375 0.265625 -0.921875q0.28125 -0.3125 0.796875 -0.3125q0.53125 0 0.828125 0.3125q0.296875 0.3125 0.296875 0.921875q0 0.59375 -0.296875 0.921875q-0.296875 0.3125 -0.828125 0.3125q-0.453125 0 -0.765625 -0.28125q-0.296875 -0.296875 -0.296875 -0.953125zm0 -8.046875q0 -1.21875 1.0625 -1.21875q1.125 0 1.125 1.21875q0 0.59375 -0.296875 0.921875q-0.296875 0.3125 -0.828125 0.3125q-0.453125 0 -0.765625 -0.28125q-0.296875 -0.296875 -0.296875 -0.953125zm9.683426 0.203125l-2.546875 0l0 8.8125l-1.515625 0l0 -8.8125l-1.78125 0l0 -0.671875l1.78125 -0.546875l0 -0.5625q0 -3.6875 3.21875 -3.6875q0.796875 0 1.859375 0.328125l-0.390625 1.203125q-0.875 -0.28125 -1.5 -0.28125q-0.859375 0 -1.265625 0.578125q-0.40625 0.5625 -0.40625 1.828125l0 0.640625l2.546875 0l0 1.171875zm3.321991 8.8125l-1.5 0l0 -14.171875l1.5 0l0 14.171875zm7.4374695 0.1875q-2.21875 0 -3.5 -1.34375q-1.28125 -1.359375 -1.28125 -3.75q0 -2.421875 1.1875 -3.84375q1.1875 -1.421875 3.1875 -1.421875q1.890625 0 2.96875 1.234375q1.09375 1.234375 1.09375 3.265625l0 0.953125l-6.875 0q0.046875 1.765625 0.890625 2.671875q0.84375 0.90625 2.375 0.90625q1.609375 0 3.1875 -0.671875l0 1.34375q-0.796875 0.34375 -1.515625 0.5q-0.71875 0.15625 -1.71875 0.15625zm-0.421875 -9.09375q-1.203125 0 -1.921875 0.796875q-0.703125 0.78125 -0.828125 2.15625l5.21875 0q0 -1.421875 -0.640625 -2.1875q-0.640625 -0.765625 -1.828125 -0.765625zm9.076187 3.796875l-3.484375 -4.875l1.734375 0l2.625 3.828125l2.625 -3.828125l1.703125 0l-3.46875 4.875l3.65625 5.109375l-1.71875 0l-2.796875 -4.046875l-2.828125 4.046875l-1.703125 0l3.65625 -5.109375zm8.946365 2.9375l0.140625 0.21875q-0.234375 0.90625 -0.6875 2.109375q-0.4375 1.203125 -0.921875 2.25l-1.140625 0q0.234375 -0.953125 0.53125 -2.34375q0.296875 -1.390625 0.421875 -2.234375l1.65625 0zm-1.84375 -6.84375q0 -1.21875 1.078125 -1.21875q1.125 0 1.125 1.21875q0 0.59375 -0.3125 0.921875q-0.296875 0.3125 -0.8125 0.3125q-0.53125 0 -0.8125 -0.3125q-0.265625 -0.328125 -0.265625 -0.921875z" fill-rule="nonzero"></path><path fill="#000000" d="m90.46371 462.0786l-2.546875 0l0 8.8125l-1.515625 0l0 -8.8125l-1.78125 0l0 -0.671875l1.78125 -0.546875l0 -0.5625q0 -3.6875 3.21875 -3.6875q0.796875 0 1.859375 0.328125l-0.390625 1.203125q-0.875 -0.28125 -1.5 -0.28125q-0.859375 0 -1.265625 0.578125q-0.40625 0.5625 -0.40625 1.828125l0 0.640625l2.546875 0l0 1.171875zm3.321991 8.8125l-1.5 0l0 -14.171875l1.5 0l0 14.171875zm7.4374695 0.1875q-2.21875 0 -3.5 -1.34375q-1.28125 -1.359375 -1.28125 -3.75q0 -2.421875 1.1875 -3.84375q1.1875 -1.421875 3.1875 -1.421875q1.890625 0 2.96875 1.234375q1.09375 1.234375 1.09375 3.265625l0 0.953125l-6.875 0q0.046875 1.765625 0.890625 2.671875q0.84375 0.90625 2.375 0.90625q1.609375 0 3.1875 -0.671875l0 1.34375q-0.796875 0.34375 -1.515625 0.5q-0.71875 0.15625 -1.71875 0.15625zm-0.421875 -9.09375q-1.203125 0 -1.921875 0.796875q-0.703125 0.78125 -0.828125 2.15625l5.21875 0q0 -1.421875 -0.640625 -2.1875q-0.640625 -0.765625 -1.828125 -0.765625zm9.076187 3.796875l-3.484375 -4.875l1.734375 0l2.625 3.828125l2.625 -3.828125l1.703125 0l-3.46875 4.875l3.65625 5.109375l-1.71875 0l-2.796875 -4.046875l-2.828125 4.046875l-1.703125 0l3.65625 -5.109375zm6.5244904 0.796875l0 -1.375l4.46875 0l0 1.375l-4.46875 0zm13.643776 2.96875l-0.09375 0q-1.046875 1.53125 -3.1249924 1.53125q-1.96875 0 -3.0625 -1.34375q-1.078125 -1.34375 -1.078125 -3.8125q0 -2.46875 1.09375 -3.828125q1.09375 -1.375 3.046875 -1.375q2.0312424 0 3.1093674 1.484375l0.125 0l-0.0625 -0.71875l-0.046875 -0.703125l0 -4.0625l1.515625 0l0 14.171875l-1.234375 0l-0.1875 -1.34375zm-3.0312424 0.265625q1.5468674 0 2.2343674 -0.84375q0.703125 -0.84375 0.703125 -2.71875l0 -0.328125q0 -2.125 -0.703125 -3.03125q-0.703125 -0.90625 -2.2499924 -0.90625q-1.328125 0 -2.046875 1.046875q-0.703125 1.03125 -0.703125 2.90625q0 1.921875 0.703125 2.90625q0.703125 0.96875 2.0625 0.96875zm9.166786 1.078125l-1.5 0l0 -9.984375l1.5 0l0 9.984375zm-1.640625 -12.6875q0 -0.515625 0.25 -0.75q0.265625 -0.25 0.65625 -0.25q0.359375 0 0.625 0.25q0.265625 0.234375 0.265625 0.75q0 0.515625 -0.265625 0.765625q-0.265625 0.25 -0.625 0.25q-0.390625 0 -0.65625 -0.25q-0.25 -0.25 -0.25 -0.765625zm9.4062195 2.515625q0.671875 0 1.1875 0.109375l-0.203125 1.40625q-0.625 -0.140625 -1.09375 -0.140625q-1.203125 0 -2.078125 0.984375q-0.859375 0.984375 -0.859375 2.453125l0 5.359375l-1.5 0l0 -9.984375l1.234375 0l0.1875 1.84375l0.0625 0q0.5625 -0.96875 1.34375 -1.5q0.78125 -0.53125 1.71875 -0.53125zm7.2874146 10.359375q-2.21875 0 -3.5 -1.34375q-1.28125 -1.359375 -1.28125 -3.75q0 -2.421875 1.1875 -3.84375q1.1875 -1.421875 3.1875 -1.421875q1.890625 0 2.96875 1.234375q1.09375 1.234375 1.09375 3.265625l0 0.953125l-6.875 0q0.046875 1.765625 0.890625 2.671875q0.84375 0.90625 2.375 0.90625q1.609375 0 3.1875 -0.671875l0 1.34375q-0.796875 0.34375 -1.515625 0.5q-0.71875 0.15625 -1.71875 0.15625zm-0.421875 -9.09375q-1.203125 0 -1.921875 0.796875q-0.703125 0.78125 -0.828125 2.15625l5.21875 0q0 -1.421875 -0.640625 -2.1875q-0.640625 -0.765625 -1.828125 -0.765625zm10.654312 9.09375q-2.171875 0 -3.359375 -1.328125q-1.1875 -1.34375 -1.1875 -3.78125q0 -2.515625 1.203125 -3.875q1.21875 -1.375 3.4375 -1.375q0.71875 0 1.4375 0.15625q0.734375 0.15625 1.140625 0.375l-0.46875 1.28125q-0.5 -0.203125 -1.09375 -0.328125q-0.59375 -0.140625 -1.046875 -0.140625q-3.046875 0 -3.046875 3.875q0 1.84375 0.734375 2.828125q0.75 0.984375 2.21875 0.984375q1.25 0 2.546875 -0.53125l0 1.328125q-1.0 0.53125 -2.515625 0.53125zm8.116135 -1.25q0.40625 0 0.765625 -0.0625q0.375 -0.0625 0.59375 -0.125l0 1.15625q-0.234375 0.125 -0.71875 0.203125q-0.484375 0.078125 -0.859375 0.078125q-2.890625 0 -2.890625 -3.0625l0 -5.9375l-1.4375 0l0 -0.71875l1.4375 -0.640625l0.625 -2.125l0.875 0l0 2.3125l2.90625 0l0 1.171875l-2.90625 0l0 5.875q0 0.90625 0.421875 1.390625q0.4375 0.484375 1.1875 0.484375zm4.8674164 1.0625l-1.5 0l0 -9.984375l1.5 0l0 9.984375zm-1.640625 -12.6875q0 -0.515625 0.25 -0.75q0.265625 -0.25 0.65625 -0.25q0.359375 0 0.625 0.25q0.265625 0.234375 0.265625 0.75q0 0.515625 -0.265625 0.765625q-0.265625 0.25 -0.625 0.25q-0.390625 0 -0.65625 -0.25q-0.25 -0.25 -0.25 -0.765625zm13.4687195 7.6875q0 2.4375 -1.234375 3.8125q-1.21875 1.375 -3.390625 1.375q-1.34375 0 -2.390625 -0.625q-1.03125 -0.640625 -1.59375 -1.8125q-0.5625 -1.171875 -0.5625 -2.75q0 -2.4375 1.21875 -3.796875q1.21875 -1.375 3.390625 -1.375q2.09375 0 3.328125 1.40625q1.234375 1.390625 1.234375 3.765625zm-7.609375 0q0 1.90625 0.765625 2.921875q0.765625 1.0 2.25 1.0q1.484375 0 2.25 -1.0q0.78125 -1.0 0.78125 -2.921875q0 -1.90625 -0.78125 -2.890625q-0.765625 -0.984375 -2.265625 -0.984375q-1.484375 0 -2.25 0.96875q-0.75 0.96875 -0.75 2.90625zm17.096573 5.0l0 -6.453125q0 -1.21875 -0.5625 -1.8125q-0.546875 -0.609375 -1.734375 -0.609375q-1.5625 0 -2.296875 0.84375q-0.734375 0.84375 -0.734375 2.796875l0 5.234375l-1.5 0l0 -9.984375l1.21875 0l0.25 1.359375l0.078125 0q0.453125 -0.734375 1.296875 -1.140625q0.84375 -0.40625 1.875 -0.40625q1.796875 0 2.703125 0.875q0.921875 0.875 0.921875 2.78125l0 6.515625l-1.515625 0zm4.403763 -0.96875q0 -0.609375 0.265625 -0.921875q0.28125 -0.3125 0.796875 -0.3125q0.53125 0 0.828125 0.3125q0.296875 0.3125 0.296875 0.921875q0 0.59375 -0.296875 0.921875q-0.296875 0.3125 -0.828125 0.3125q-0.453125 0 -0.765625 -0.28125q-0.296875 -0.296875 -0.296875 -0.953125zm0 -8.046875q0 -1.21875 1.0625 -1.21875q1.125 0 1.125 1.21875q0 0.59375 -0.296875 0.921875q-0.296875 0.3125 -0.828125 0.3125q-0.453125 0 -0.765625 -0.28125q-0.296875 -0.296875 -0.296875 -0.953125z" fill-rule="nonzero"></path><path fill="#000000" d="m89.94808 493.0786q-2.171875 0 -3.359375 -1.328125q-1.1875 -1.34375 -1.1875 -3.78125q0 -2.515625 1.203125 -3.875q1.21875 -1.375 3.4375 -1.375q0.71875 0 1.4375 0.15625q0.734375 0.15625 1.140625 0.375l-0.46875 1.28125q-0.5 -0.203125 -1.09375 -0.328125q-0.59375 -0.140625 -1.046875 -0.140625q-3.046875 0 -3.046875 3.875q0 1.84375 0.734375 2.828125q0.75 0.984375 2.21875 0.984375q1.25 0 2.546875 -0.53125l0 1.328125q-1.0 0.53125 -2.515625 0.53125zm13.50676 -5.1875q0 2.4375 -1.234375 3.8125q-1.21875 1.375 -3.390625 1.375q-1.34375 0 -2.390625 -0.625q-1.03125 -0.640625 -1.59375 -1.8125q-0.5625 -1.171875 -0.5625 -2.75q0 -2.4375 1.21875 -3.796875q1.21875 -1.375 3.390625 -1.375q2.09375 0 3.328125 1.40625q1.234375 1.390625 1.234375 3.765625zm-7.609375 0q0 1.90625 0.765625 2.921875q0.765625 1.0 2.25 1.0q1.484375 0 2.25 -1.0q0.78125 -1.0 0.78125 -2.921875q0 -1.90625 -0.78125 -2.890625q-0.765625 -0.984375 -2.265625 -0.984375q-1.484375 0 -2.25 0.96875q-0.75 0.96875 -0.75 2.90625zm11.768448 5.0l-1.5 0l0 -14.171875l1.5 0l0 14.171875zm4.6405945 -9.984375l0 6.484375q0 1.21875 0.546875 1.828125q0.5625 0.59375 1.734375 0.59375q1.578125 0 2.296875 -0.859375q0.71875 -0.859375 0.71875 -2.796875l0 -5.25l1.515625 0l0 9.984375l-1.25 0l-0.21875 -1.34375l-0.078125 0q-0.46875 0.75 -1.296875 1.140625q-0.8125 0.390625 -1.875 0.390625q-1.8125 0 -2.71875 -0.859375q-0.90625 -0.875 -0.90625 -2.78125l0 -6.53125l1.53125 0zm22.747505 9.984375l0 -6.5q0 -1.1875 -0.515625 -1.78125q-0.5 -0.59375 -1.578125 -0.59375q-1.40625 0 -2.09375 0.8125q-0.671875 0.796875 -0.671875 2.484375l0 5.578125l-1.5 0l0 -6.5q0 -1.1875 -0.515625 -1.78125q-0.5156174 -0.59375 -1.5937424 -0.59375q-1.421875 0 -2.09375 0.859375q-0.65625 0.84375 -0.65625 2.78125l0 5.234375l-1.5 0l0 -9.984375l1.21875 0l0.25 1.359375l0.078125 0q0.421875 -0.71875 1.203125 -1.125q0.78125 -0.421875 1.75 -0.421875q2.3281174 0 3.0624924 1.703125l0.0625 0q0.453125 -0.78125 1.296875 -1.234375q0.84375 -0.46875 1.9375 -0.46875q1.6875 0 2.53125 0.875q0.84375 0.875 0.84375 2.78125l0 6.515625l-1.515625 0zm11.462967 0l0 -6.453125q0 -1.21875 -0.5625 -1.8125q-0.546875 -0.609375 -1.734375 -0.609375q-1.5625 0 -2.296875 0.84375q-0.734375 0.84375 -0.734375 2.796875l0 5.234375l-1.5 0l0 -9.984375l1.21875 0l0.25 1.359375l0.078125 0q0.453125 -0.734375 1.296875 -1.140625q0.84375 -0.40625 1.875 -0.40625q1.796875 0 2.703125 0.875q0.921875 0.875 0.921875 2.78125l0 6.515625l-1.515625 0zm6.200638 -2.171875l0.140625 0.21875q-0.234375 0.90625 -0.6875 2.109375q-0.4375 1.203125 -0.921875 2.25l-1.140625 0q0.234375 -0.953125 0.53125 -2.34375q0.296875 -1.390625 0.421875 -2.234375l1.65625 0zm-1.84375 -6.84375q0 -1.21875 1.078125 -1.21875q1.125 0 1.125 1.21875q0 0.59375 -0.3125 0.921875q-0.296875 0.3125 -0.8125 0.3125q-0.53125 0 -0.8125 -0.3125q-0.265625 -0.328125 -0.265625 -0.921875z" fill-rule="nonzero"></path><path fill="#000000" d="m89.10433 509.65674q-2.03125 -0.359375 -2.03125 -2.3125l0 -2.6875q0 -1.765625 -2.0625 -1.8125l0 -1.265625q1.671875 0 2.625 0.796875q0.96875 0.78125 0.96875 2.171875l0 2.796875q0 0.875 0.53125 1.296875q0.546875 0.40625 1.734375 0.421875l0 1.296875q-1.109375 0 -1.6875 0.40625q-0.578125 0.40625 -0.578125 1.34375l0 2.765625q0 1.390625 -0.9375 2.171875q-0.921875 0.78125 -2.65625 0.796875l0 -1.28125q1.015625 -0.015625 1.53125 -0.4375q0.53125 -0.421875 0.53125 -1.34375l0 -2.703125q0 -1.046875 0.5 -1.59375q0.5 -0.546875 1.53125 -0.71875l0 -0.109375z" fill-rule="nonzero"></path><path fill="#000000" fill-opacity="0.0" d="m598.3753 129.8924l327.21265 0l0 458.48816l-327.21265 0z" fill-rule="evenodd"></path><path fill="#000000" d="m628.9378 177.29239l-19.953125 0l0 -4.203125l7.15625 -7.25q3.1875 -3.25 4.15625 -4.515625q0.984375 -1.265625 1.40625 -2.328125q0.4375 -1.078125 0.4375 -2.234375q0 -1.71875 -0.953125 -2.546875q-0.9375 -0.84375 -2.515625 -0.84375q-1.671875 0 -3.234375 0.765625q-1.5625 0.75 -3.25 2.15625l-3.28125 -3.890625q2.109375 -1.796875 3.484375 -2.53125q1.390625 -0.75 3.03125 -1.140625q1.640625 -0.40625 3.671875 -0.40625q2.671875 0 4.71875 0.984375q2.0625 0.96875 3.1875 2.734375q1.140625 1.75 1.140625 4.015625q0 1.96875 -0.703125 3.703125q-0.6875 1.734375 -2.140625 3.546875q-1.453125 1.8125 -5.125 5.171875l-3.671875 3.453125l0 0.28125l12.4375 0l0 5.078125zm28.550781 -14.546875q0 7.046875 -4.015625 10.796875q-4.0 3.75 -11.578125 3.75l-8.09375 0l0 -28.5625l8.96875 0q6.984375 0 10.84375 3.703125q3.875 3.6875 3.875 10.3125zm-6.28125 0.15625q0 -9.203125 -8.125 -9.203125l-3.21875 0l0 18.59375l2.59375 0q8.75 0 8.75 -9.390625zm22.59375 14.390625l0 -28.5625l6.0625 0l0 23.5625l11.578125 0l0 5.0l-17.640625 0zm36.003906 0l-1.15625 -2.96875l-0.15625 0q-1.5 1.890625 -3.09375 2.625q-1.59375 0.734375 -4.15625 0.734375q-3.140625 0 -4.953125 -1.796875q-1.796875 -1.796875 -1.796875 -5.125q0 -3.46875 2.421875 -5.109375q2.4375 -1.65625 7.34375 -1.84375l3.78125 -0.109375l0 -0.953125q0 -3.328125 -3.390625 -3.328125q-2.625 0 -6.15625 1.578125l-1.96875 -4.015625q3.765625 -1.96875 8.359375 -1.96875q4.390625 0 6.734375 1.921875q2.34375 1.90625 2.34375 5.8125l0 14.546875l-4.15625 0zm-1.765625 -10.125l-2.296875 0.078125q-2.609375 0.078125 -3.875 0.9375q-1.265625 0.859375 -1.265625 2.625q0 2.515625 2.890625 2.515625q2.0625 0 3.296875 -1.1875q1.25 -1.1875 1.25 -3.171875l0 -1.796875zm8.925781 -11.71875l6.53125 0l4.109375 12.296875q0.53125 1.59375 0.734375 3.78125l0.109375 0q0.21875 -2.015625 0.84375 -3.78125l4.046875 -12.296875l6.375 0l-9.234375 24.640625q-1.265625 3.421875 -3.625 5.109375q-2.34375 1.703125 -5.5 1.703125q-1.53125 0 -3.015625 -0.328125l0 -4.734375q1.0625 0.265625 2.34375 0.265625q1.578125 0 2.75 -0.96875q1.1875 -0.96875 1.859375 -2.921875l0.34375 -1.078125l-8.671875 -21.6875zm30.628906 10.890625q0 3.234375 1.0625 4.90625q1.0625 1.65625 3.46875 1.65625q2.375 0 3.421875 -1.65625q1.046875 -1.65625 1.046875 -4.90625q0 -3.25 -1.0625 -4.859375q-1.046875 -1.625 -3.453125 -1.625q-2.375 0 -3.4375 1.609375q-1.046875 1.609375 -1.046875 4.875zm15.09375 0q0 5.328125 -2.8125 8.34375q-2.8125 3.0 -7.828125 3.0q-3.140625 0 -5.546875 -1.375q-2.40625 -1.375 -3.703125 -3.953125q-1.28125 -2.578125 -1.28125 -6.015625q0 -5.359375 2.796875 -8.328125q2.796875 -2.96875 7.84375 -2.96875q3.15625 0 5.546875 1.375q2.40625 1.359375 3.6875 3.921875q1.296875 2.5625 1.296875 6.0zm20.390625 10.953125l-0.796875 -2.796875l-0.3125 0q-0.953125 1.53125 -2.71875 2.359375q-1.75 0.828125 -4.0 0.828125q-3.84375 0 -5.796875 -2.0625q-1.953125 -2.0625 -1.953125 -5.921875l0 -14.25l5.953125 0l0 12.765625q0 2.359375 0.828125 3.546875q0.84375 1.171875 2.6875 1.171875q2.5 0 3.609375 -1.671875q1.109375 -1.671875 1.109375 -5.53125l0 -10.28125l5.96875 0l0 21.84375l-4.578125 0zm20.023438 -4.359375q1.5625 0 3.75 -0.6875l0 4.4375q-2.234375 1.0 -5.46875 1.0q-3.578125 0 -5.21875 -1.796875q-1.625 -1.8125 -1.625 -5.4375l0 -10.515625l-2.84375 0l0 -2.53125l3.28125 -1.984375l1.71875 -4.609375l3.8125 0l0 4.640625l6.109375 0l0 4.484375l-6.109375 0l0 10.515625q0 1.28125 0.703125 1.890625q0.71875 0.59375 1.890625 0.59375zm23.394531 -2.125q0 3.359375 -2.34375 5.125q-2.328125 1.75 -6.96875 1.75q-2.390625 0 -4.078125 -0.328125q-1.671875 -0.3125 -3.125 -0.9375l0 -4.921875q1.65625 0.78125 3.734375 1.3125q2.078125 0.515625 3.65625 0.515625q3.25 0 3.25 -1.875q0 -0.703125 -0.4375 -1.140625q-0.421875 -0.4375 -1.484375 -0.984375q-1.046875 -0.5625 -2.8125 -1.3125q-2.515625 -1.046875 -3.703125 -1.9375q-1.171875 -0.90625 -1.71875 -2.0625q-0.53125 -1.171875 -0.53125 -2.875q0 -2.90625 2.25 -4.5q2.265625 -1.59375 6.40625 -1.59375q3.9375 0 7.671875 1.71875l-1.796875 4.296875q-1.640625 -0.703125 -3.0625 -1.140625q-1.421875 -0.453125 -2.90625 -0.453125q-2.640625 0 -2.640625 1.421875q0 0.796875 0.84375 1.390625q0.859375 0.578125 3.71875 1.734375q2.5625 1.03125 3.75 1.9375q1.203125 0.890625 1.765625 2.0625q0.5625 1.171875 0.5625 2.796875zm3.8046875 3.6875q0 -1.640625 0.875 -2.46875q0.890625 -0.84375 2.5625 -0.84375q1.625 0 2.515625 0.859375q0.890625 0.859375 0.890625 2.453125q0 1.546875 -0.90625 2.4375q-0.890625 0.890625 -2.5 0.890625q-1.640625 0 -2.546875 -0.875q-0.890625 -0.875 -0.890625 -2.453125zm0 -16.125q0 -1.640625 0.875 -2.484375q0.890625 -0.84375 2.5625 -0.84375q1.625 0 2.515625 0.859375q0.890625 0.859375 0.890625 2.46875q0 1.578125 -0.90625 2.453125q-0.90625 0.859375 -2.5 0.859375q-1.640625 0 -2.546875 -0.859375q-0.890625 -0.859375 -0.890625 -2.453125z" fill-rule="nonzero"></path><path fill="#000000" d="m623.09406 201.37051q-3.40625 0 -5.28125 2.5625q-1.875 2.5625 -1.875 7.15625q0 9.546875 7.15625 9.546875q3.015625 0 7.296875 -1.5l0 5.078125q-3.515625 1.46875 -7.859375 1.46875q-6.234375 0 -9.53125 -3.78125q-3.296875 -3.78125 -3.296875 -10.84375q0 -4.453125 1.609375 -7.796875q1.625 -3.359375 4.65625 -5.140625q3.046875 -1.796875 7.125 -1.796875q4.171875 0 8.359375 2.015625l-1.953125 4.921875q-1.59375 -0.765625 -3.21875 -1.328125q-1.625 -0.5625 -3.1875 -0.5625zm30.222656 15.984375q0 3.875 -2.78125 6.109375q-2.78125 2.21875 -7.75 2.21875q-4.5625 0 -8.078125 -1.71875l0 -5.625q2.890625 1.28125 4.890625 1.8125q2.0 0.53125 3.65625 0.53125q2.0 0 3.0625 -0.765625q1.0625 -0.765625 1.0625 -2.265625q0 -0.84375 -0.46875 -1.484375q-0.46875 -0.65625 -1.375 -1.265625q-0.90625 -0.609375 -3.703125 -1.9375q-2.625 -1.234375 -3.9375 -2.359375q-1.296875 -1.140625 -2.078125 -2.640625q-0.78125 -1.5 -0.78125 -3.515625q0 -3.78125 2.5625 -5.953125q2.578125 -2.171875 7.109375 -2.171875q2.21875 0 4.234375 0.53125q2.03125 0.53125 4.234375 1.484375l-1.953125 4.703125q-2.28125 -0.9375 -3.78125 -1.296875q-1.484375 -0.375 -2.9375 -0.375q-1.71875 0 -2.640625 0.796875q-0.90625 0.796875 -0.90625 2.09375q0 0.796875 0.359375 1.390625q0.375 0.59375 1.1875 1.15625q0.8125 0.546875 3.84375 2.0q4.0 1.90625 5.484375 3.84375q1.484375 1.921875 1.484375 4.703125zm22.03125 0q0 3.875 -2.78125 6.109375q-2.78125 2.21875 -7.75 2.21875q-4.5625 0 -8.078125 -1.71875l0 -5.625q2.890625 1.28125 4.890625 1.8125q2.0 0.53125 3.65625 0.53125q2.0 0 3.0625 -0.765625q1.0625 -0.765625 1.0625 -2.265625q0 -0.84375 -0.46875 -1.484375q-0.46875 -0.65625 -1.375 -1.265625q-0.90625 -0.609375 -3.703125 -1.9375q-2.625 -1.234375 -3.9375 -2.359375q-1.296875 -1.140625 -2.078125 -2.640625q-0.78125 -1.5 -0.78125 -3.515625q0 -3.78125 2.5625 -5.953125q2.578125 -2.171875 7.109375 -2.171875q2.21875 0 4.234375 0.53125q2.03125 0.53125 4.234375 1.484375l-1.953125 4.703125q-2.28125 -0.9375 -3.78125 -1.296875q-1.484375 -0.375 -2.9375 -0.375q-1.71875 0 -2.640625 0.796875q-0.90625 0.796875 -0.90625 2.09375q0 0.796875 0.359375 1.390625q0.375 0.59375 1.1875 1.15625q0.8125 0.546875 3.84375 2.0q4.0 1.90625 5.484375 3.84375q1.484375 1.921875 1.484375 4.703125zm26.40625 -8.09375l11.328125 0l0 14.796875q-2.75 0.90625 -5.1875 1.265625q-2.4375 0.359375 -4.96875 0.359375q-6.46875 0 -9.875 -3.796875q-3.40625 -3.796875 -3.40625 -10.90625q0 -6.921875 3.953125 -10.78125q3.953125 -3.875 10.96875 -3.875q4.390625 0 8.46875 1.765625l-2.0 4.84375q-3.125 -1.5625 -6.515625 -1.5625q-3.921875 0 -6.28125 2.640625q-2.359375 2.625 -2.359375 7.078125q0 4.65625 1.890625 7.109375q1.90625 2.4375 5.546875 2.4375q1.890625 0 3.84375 -0.390625l0 -5.953125l-5.40625 0l0 -5.03125zm29.839844 -6.21875q1.21875 0 2.015625 0.171875l-0.453125 5.59375q-0.71875 -0.203125 -1.75 -0.203125q-2.859375 0 -4.453125 1.46875q-1.59375 1.46875 -1.59375 4.109375l0 11.109375l-5.953125 0l0 -21.84375l4.515625 0l0.875 3.671875l0.296875 0q1.015625 -1.828125 2.734375 -2.953125q1.734375 -1.125 3.765625 -1.125zm5.7265625 -5.234375q0 -2.90625 3.234375 -2.90625q3.25 0 3.25 2.90625q0 1.390625 -0.8125 2.171875q-0.8125 0.765625 -2.4375 0.765625q-3.234375 0 -3.234375 -2.9375zm6.203125 27.484375l-5.953125 0l0 -21.84375l5.953125 0l0 21.84375zm13.175781 0.390625q-3.859375 0 -6.0625 -2.984375q-2.1875 -3.0 -2.1875 -8.28125q0 -5.375 2.234375 -8.375q2.234375 -3.0 6.171875 -3.0q4.109375 0 6.28125 3.203125l0.203125 0q-0.453125 -2.4375 -0.453125 -4.359375l0 -6.984375l5.96875 0l0 30.390625l-4.5625 0l-1.15625 -2.828125l-0.25 0q-2.03125 3.21875 -6.1875 3.21875zm2.078125 -4.75q2.296875 0 3.359375 -1.328125q1.0625 -1.328125 1.15625 -4.515625l0 -0.640625q0 -3.515625 -1.09375 -5.03125q-1.078125 -1.53125 -3.515625 -1.53125q-1.984375 0 -3.09375 1.6875q-1.109375 1.6875 -1.109375 4.921875q0 3.21875 1.109375 4.828125q1.125 1.609375 3.1875 1.609375z" fill-rule="nonzero"></path><path fill="#000000" d="m623.90656 321.2924l-6.046875 0l0 -16.53125l0.0625 -2.703125l0.09375 -2.96875q-1.5 1.5 -2.078125 1.96875l-3.28125 2.640625l-2.921875 -3.640625l9.203125 -7.328125l4.96875 0l0 28.5625zm33.58203 -14.546875q0 7.046875 -4.015625 10.796875q-4.0 3.75 -11.578125 3.75l-8.09375 0l0 -28.5625l8.96875 0q6.984375 0 10.84375 3.703125q3.875 3.6875 3.875 10.3125zm-6.28125 0.15625q0 -9.203125 -8.125 -9.203125l-3.21875 0l0 18.59375l2.59375 0q8.75 0 8.75 -9.390625zm22.59375 14.390625l0 -28.5625l6.0625 0l0 23.5625l11.578125 0l0 5.0l-17.640625 0zm36.003906 0l-1.15625 -2.96875l-0.15625 0q-1.5 1.890625 -3.09375 2.625q-1.59375 0.734375 -4.15625 0.734375q-3.140625 0 -4.953125 -1.796875q-1.796875 -1.796875 -1.796875 -5.125q0 -3.46875 2.421875 -5.109375q2.4375 -1.65625 7.34375 -1.84375l3.78125 -0.109375l0 -0.953125q0 -3.328125 -3.390625 -3.328125q-2.625 0 -6.15625 1.578125l-1.96875 -4.015625q3.765625 -1.96875 8.359375 -1.96875q4.390625 0 6.734375 1.921875q2.34375 1.90625 2.34375 5.8125l0 14.546875l-4.15625 0zm-1.765625 -10.125l-2.296875 0.078125q-2.609375 0.078125 -3.875 0.9375q-1.265625 0.859375 -1.265625 2.625q0 2.515625 2.890625 2.515625q2.0625 0 3.296875 -1.1875q1.25 -1.1875 1.25 -3.171875l0 -1.796875zm8.925781 -11.71875l6.53125 0l4.109375 12.296875q0.53125 1.59375 0.734375 3.78125l0.109375 0q0.21875 -2.015625 0.84375 -3.78125l4.046875 -12.296875l6.375 0l-9.234375 24.640625q-1.265625 3.421875 -3.625 5.109375q-2.34375 1.703125 -5.5 1.703125q-1.53125 0 -3.015625 -0.328125l0 -4.734375q1.0625 0.265625 2.34375 0.265625q1.578125 0 2.75 -0.96875q1.1875 -0.96875 1.859375 -2.921875l0.34375 -1.078125l-8.671875 -21.6875zm30.628906 10.890625q0 3.234375 1.0625 4.90625q1.0625 1.65625 3.46875 1.65625q2.375 0 3.421875 -1.65625q1.046875 -1.65625 1.046875 -4.90625q0 -3.25 -1.0625 -4.859375q-1.046875 -1.625 -3.453125 -1.625q-2.375 0 -3.4375 1.609375q-1.046875 1.609375 -1.046875 4.875zm15.09375 0q0 5.328125 -2.8125 8.34375q-2.8125 3.0 -7.828125 3.0q-3.140625 0 -5.546875 -1.375q-2.40625 -1.375 -3.703125 -3.953125q-1.28125 -2.578125 -1.28125 -6.015625q0 -5.359375 2.796875 -8.328125q2.796875 -2.96875 7.84375 -2.96875q3.15625 0 5.546875 1.375q2.40625 1.359375 3.6875 3.921875q1.296875 2.5625 1.296875 6.0zm20.390625 10.953125l-0.796875 -2.796875l-0.3125 0q-0.953125 1.53125 -2.71875 2.359375q-1.75 0.828125 -4.0 0.828125q-3.84375 0 -5.796875 -2.0625q-1.953125 -2.0625 -1.953125 -5.921875l0 -14.25l5.953125 0l0 12.765625q0 2.359375 0.828125 3.546875q0.84375 1.171875 2.6875 1.171875q2.5 0 3.609375 -1.671875q1.109375 -1.671875 1.109375 -5.53125l0 -10.28125l5.96875 0l0 21.84375l-4.578125 0zm20.023438 -4.359375q1.5625 0 3.75 -0.6875l0 4.4375q-2.234375 1.0 -5.46875 1.0q-3.578125 0 -5.21875 -1.796875q-1.625 -1.8125 -1.625 -5.4375l0 -10.515625l-2.84375 0l0 -2.53125l3.28125 -1.984375l1.71875 -4.609375l3.8125 0l0 4.640625l6.109375 0l0 4.484375l-6.109375 0l0 10.515625q0 1.28125 0.703125 1.890625q0.71875 0.59375 1.890625 0.59375zm23.394531 -2.125q0 3.359375 -2.34375 5.125q-2.328125 1.75 -6.96875 1.75q-2.390625 0 -4.078125 -0.328125q-1.671875 -0.3125 -3.125 -0.9375l0 -4.921875q1.65625 0.78125 3.734375 1.3125q2.078125 0.515625 3.65625 0.515625q3.25 0 3.25 -1.875q0 -0.703125 -0.4375 -1.140625q-0.421875 -0.4375 -1.484375 -0.984375q-1.046875 -0.5625 -2.8125 -1.3125q-2.515625 -1.046875 -3.703125 -1.9375q-1.171875 -0.90625 -1.71875 -2.0625q-0.53125 -1.171875 -0.53125 -2.875q0 -2.90625 2.25 -4.5q2.265625 -1.59375 6.40625 -1.59375q3.9375 0 7.671875 1.71875l-1.796875 4.296875q-1.640625 -0.703125 -3.0625 -1.140625q-1.421875 -0.453125 -2.90625 -0.453125q-2.640625 0 -2.640625 1.421875q0 0.796875 0.84375 1.390625q0.859375 0.578125 3.71875 1.734375q2.5625 1.03125 3.75 1.9375q1.203125 0.890625 1.765625 2.0625q0.5625 1.171875 0.5625 2.796875zm3.8046875 3.6875q0 -1.640625 0.875 -2.46875q0.890625 -0.84375 2.5625 -0.84375q1.625 0 2.515625 0.859375q0.890625 0.859375 0.890625 2.453125q0 1.546875 -0.90625 2.4375q-0.890625 0.890625 -2.5 0.890625q-1.640625 0 -2.546875 -0.875q-0.890625 -0.875 -0.890625 -2.453125zm0 -16.125q0 -1.640625 0.875 -2.484375q0.890625 -0.84375 2.5625 -0.84375q1.625 0 2.515625 0.859375q0.890625 0.859375 0.890625 2.46875q0 1.578125 -0.90625 2.453125q-0.90625 0.859375 -2.5 0.859375q-1.640625 0 -2.546875 -0.859375q-0.890625 -0.859375 -0.890625 -2.453125z" fill-rule="nonzero"></path><path fill="#000000" d="m616.9222 369.2924l-5.953125 0l0 -28.5625l16.375 0l0 4.96875l-10.421875 0l0 7.359375l9.6875 0l0 4.9375l-9.6875 0l0 11.296875zm21.484375 0l-5.953125 0l0 -30.390625l5.953125 0l0 30.390625zm15.300781 -18.015625q-1.890625 0 -2.96875 1.203125q-1.078125 1.203125 -1.234375 3.40625l8.359375 0q-0.03125 -2.203125 -1.15625 -3.40625q-1.109375 -1.203125 -3.0 -1.203125zm0.84375 18.40625q-5.28125 0 -8.25 -2.90625q-2.96875 -2.921875 -2.96875 -8.25q0 -5.484375 2.734375 -8.484375q2.75 -3.0 7.59375 -3.0q4.640625 0 7.21875 2.640625q2.578125 2.640625 2.578125 7.28125l0 2.890625l-14.09375 0q0.109375 2.546875 1.515625 3.96875q1.40625 1.421875 3.9375 1.421875q1.96875 0 3.71875 -0.40625q1.765625 -0.40625 3.6875 -1.3125l0 4.609375q-1.5625 0.78125 -3.34375 1.15625q-1.78125 0.390625 -4.328125 0.390625zm18.210938 -11.546875l-7.03125 -10.6875l6.765625 0l4.234375 6.953125l4.28125 -6.953125l6.75 0l-7.109375 10.6875l7.453125 11.15625l-6.78125 0l-4.59375 -7.484375l-4.609375 7.484375l-6.75 0l7.390625 -11.15625zm29.515625 -17.40625l8.890625 0q6.078125 0 8.8125 1.734375q2.75 1.734375 2.75 5.5q0 2.5625 -1.203125 4.203125q-1.203125 1.640625 -3.1875 1.96875l0 0.1875q2.703125 0.609375 3.90625 2.28125q1.203125 1.65625 1.203125 4.40625q0 3.90625 -2.828125 6.09375q-2.8125 2.1875 -7.65625 2.1875l-10.6875 0l0 -28.5625zm6.0625 11.3125l3.515625 0q2.453125 0 3.546875 -0.75q1.109375 -0.765625 1.109375 -2.53125q0 -1.640625 -1.203125 -2.34375q-1.1875 -0.71875 -3.796875 -0.71875l-3.171875 0l0 6.34375zm0 4.8125l0 7.4375l3.9375 0q2.5 0 3.6875 -0.953125q1.203125 -0.96875 1.203125 -2.9375q0 -3.546875 -5.078125 -3.546875l-3.75 0zm25.09375 1.484375q0 3.234375 1.0625 4.90625q1.0625 1.65625 3.46875 1.65625q2.375 0 3.421875 -1.65625q1.046875 -1.65625 1.046875 -4.90625q0 -3.25 -1.0625 -4.859375q-1.046875 -1.625 -3.453125 -1.625q-2.375 0 -3.4375 1.609375q-1.046875 1.609375 -1.046875 4.875zm15.09375 0q0 5.328125 -2.8125 8.34375q-2.8125 3.0 -7.828125 3.0q-3.140625 0 -5.546875 -1.375q-2.40625 -1.375 -3.703125 -3.953125q-1.28125 -2.578125 -1.28125 -6.015625q0 -5.359375 2.796875 -8.328125q2.796875 -2.96875 7.84375 -2.96875q3.15625 0 5.546875 1.375q2.40625 1.359375 3.6875 3.921875q1.296875 2.5625 1.296875 6.0zm9.390625 -0.203125l-7.03125 -10.6875l6.765625 0l4.234375 6.953125l4.28125 -6.953125l6.75 0l-7.109375 10.6875l7.453125 11.15625l-6.78125 0l-4.59375 -7.484375l-4.609375 7.484375l-6.75 0l7.390625 -11.15625z" fill-rule="nonzero"></path></g></svg>

