<?xml version="1.0" standalone="yes"?>

<svg version="1.1" viewBox="0.0 0.0 960.0 720.0" fill="none" stroke="none" stroke-linecap="square" stroke-miterlimit="10" xmlns="http://www.w3.org/2000/svg" xmlns:xlink="http://www.w3.org/1999/xlink"><clipPath id="p.0"><path d="m0 0l960.0 0l0 720.0l-960.0 0l0 -720.0z" clip-rule="nonzero"></path></clipPath><g clip-path="url(#p.0)"><path fill="#000000" fill-opacity="0.0" d="m0 0l960.0 0l0 720.0l-960.0 0z" fill-rule="evenodd"></path><path fill="#ffe599" d="m144.6588 166.5748l189.57478 0l0 496.44095l-189.57478 0z" fill-rule="evenodd"></path><path stroke="#000000" stroke-width="1.0" stroke-linejoin="round" stroke-linecap="butt" d="m144.6588 166.5748l189.57478 0l0 496.44095l-189.57478 0z" fill-rule="evenodd"></path><path fill="#000000" d="m179.30753 183.02106q-2.8125 0 -4.453125 1.875q-1.640625 1.875 -1.640625 5.15625q0 3.359375 1.578125 5.203125q1.578125 1.828125 4.5 1.828125q1.796875 0 4.09375 -0.65625l0 1.75q-1.78125 0.671875 -4.40625 0.671875q-3.78125 0 -5.84375 -2.296875q-2.046875 -2.296875 -2.046875 -6.53125q0 -2.640625 0.984375 -4.625q1.0 -2.0 2.859375 -3.078125q1.875 -1.078125 4.40625 -1.078125q2.6875 0 4.703125 0.984375l-0.84375 1.703125q-1.9375 -0.90625 -3.890625 -0.90625zm17.484375 11.03125q0 2.265625 -1.640625 3.53125q-1.640625 1.265625 -4.453125 1.265625q-3.046875 0 -4.6875 -0.78125l0 -1.921875q1.046875 0.4375 2.28125 0.703125q1.25 0.25 2.46875 0.25q2.0 0 3.0 -0.75q1.015625 -0.765625 1.015625 -2.109375q0 -0.890625 -0.359375 -1.453125q-0.359375 -0.578125 -1.203125 -1.046875q-0.828125 -0.484375 -2.546875 -1.09375q-2.390625 -0.859375 -3.421875 -2.03125q-1.015625 -1.171875 -1.015625 -3.0625q0 -1.96875 1.484375 -3.140625q1.484375 -1.171875 3.9375 -1.171875q2.5625 0 4.703125 0.9375l-0.625 1.734375q-2.125 -0.890625 -4.125 -0.890625q-1.578125 0 -2.46875 0.6875q-0.890625 0.671875 -0.890625 1.875q0 0.890625 0.328125 1.46875q0.328125 0.5625 1.109375 1.03125q0.78125 0.46875 2.375 1.046875q2.703125 0.96875 3.71875 2.078125q1.015625 1.09375 1.015625 2.84375zm13.171875 0q0 2.265625 -1.640625 3.53125q-1.640625 1.265625 -4.453125 1.265625q-3.046875 0 -4.6875 -0.78125l0 -1.921875q1.046875 0.4375 2.28125 0.703125q1.25 0.25 2.46875 0.25q2.0 0 3.0 -0.75q1.015625 -0.765625 1.015625 -2.109375q0 -0.890625 -0.359375 -1.453125q-0.359375 -0.578125 -1.203125 -1.046875q-0.828125 -0.484375 -2.546875 -1.09375q-2.390625 -0.859375 -3.421875 -2.03125q-1.015625 -1.171875 -1.015625 -3.0625q0 -1.96875 1.484375 -3.140625q1.484375 -1.171875 3.9375 -1.171875q2.5625 0 4.703125 0.9375l-0.625 1.734375q-2.125 -0.890625 -4.125 -0.890625q-1.578125 0 -2.46875 0.6875q-0.890625 0.671875 -0.890625 1.875q0 0.890625 0.328125 1.46875q0.328125 0.5625 1.109375 1.03125q0.78125 0.46875 2.375 1.046875q2.703125 0.96875 3.71875 2.078125q1.015625 1.09375 1.015625 2.84375zm15.234375 -6.765625l-3.28125 0l0 11.328125l-1.9375 0l0 -11.328125l-2.296875 0l0 -0.890625l2.296875 -0.703125l0 -0.703125q0 -4.734375 4.140625 -4.734375q1.015625 0 2.390625 0.40625l-0.515625 1.5625q-1.125 -0.375 -1.921875 -0.375q-1.09375 0 -1.625 0.734375q-0.53125 0.734375 -0.53125 2.359375l0 0.828125l3.28125 0l0 1.515625zm13.4296875 4.890625q0 3.140625 -1.59375 4.90625q-1.578125 1.765625 -4.359375 1.765625q-1.734375 0 -3.078125 -0.8125q-1.328125 -0.8125 -2.0625 -2.3125q-0.71875 -1.515625 -0.71875 -3.546875q0 -3.140625 1.5625 -4.890625q1.578125 -1.75 4.375 -1.75q2.6875 0 4.28125 1.796875q1.59375 1.78125 1.59375 4.84375zm-9.796875 0q0 2.46875 0.984375 3.765625q0.984375 1.28125 2.90625 1.28125q1.90625 0 2.890625 -1.28125q1.0 -1.296875 1.0 -3.765625q0 -2.453125 -1.0 -3.71875q-0.984375 -1.265625 -2.921875 -1.265625q-1.90625 0 -2.890625 1.25q-0.96875 1.25 -0.96875 3.734375zm19.058594 -6.640625q0.859375 0 1.53125 0.140625l-0.265625 1.796875q-0.796875 -0.171875 -1.40625 -0.171875q-1.5625 0 -2.671875 1.265625q-1.09375 1.265625 -1.09375 3.15625l0 6.890625l-1.953125 0l0 -12.84375l1.609375 0l0.21875 2.375l0.09375 0q0.71875 -1.25 1.71875 -1.921875q1.015625 -0.6875 2.21875 -0.6875zm20.140625 8.515625q0 2.265625 -1.640625 3.53125q-1.640625 1.265625 -4.453125 1.265625q-3.046875 0 -4.6875 -0.78125l0 -1.921875q1.046875 0.4375 2.28125 0.703125q1.25 0.25 2.46875 0.25q2.0 0 3.0 -0.75q1.015625 -0.765625 1.015625 -2.109375q0 -0.890625 -0.359375 -1.453125q-0.359375 -0.578125 -1.203125 -1.046875q-0.828125 -0.484375 -2.546875 -1.09375q-2.390625 -0.859375 -3.421875 -2.03125q-1.015625 -1.171875 -1.015625 -3.0625q0 -1.96875 1.484375 -3.140625q1.484375 -1.171875 3.9375 -1.171875q2.5625 0 4.703125 0.9375l-0.625 1.734375q-2.125 -0.890625 -4.125 -0.890625q-1.578125 0 -2.46875 0.6875q-0.890625 0.671875 -0.890625 1.875q0 0.890625 0.328125 1.46875q0.328125 0.5625 1.109375 1.03125q0.78125 0.46875 2.375 1.046875q2.703125 0.96875 3.71875 2.078125q1.015625 1.09375 1.015625 2.84375zm7.359375 3.1875q0.515625 0 0.984375 -0.078125q0.484375 -0.078125 0.765625 -0.15625l0 1.484375q-0.3125 0.15625 -0.9375 0.25q-0.609375 0.109375 -1.09375 0.109375q-3.734375 0 -3.734375 -3.921875l0 -7.640625l-1.84375 0l0 -0.9375l1.84375 -0.8125l0.828125 -2.75l1.125 0l0 2.984375l3.71875 0l0 1.515625l-3.71875 0l0 7.546875q0 1.171875 0.546875 1.796875q0.546875 0.609375 1.515625 0.609375zm2.2851562 -11.46875l2.078125 0l2.8125 7.328125q0.921875 2.5 1.15625 3.609375l0.09375 0q0.140625 -0.59375 0.625 -2.03125q0.5 -1.453125 3.1875 -8.90625l2.09375 0l-5.53125 14.625q-0.8125 2.171875 -1.90625 3.078125q-1.09375 0.90625 -2.6875 0.90625q-0.890625 0 -1.765625 -0.203125l0 -1.546875q0.640625 0.140625 1.4375 0.140625q2.015625 0 2.859375 -2.25l0.71875 -1.828125l-5.171875 -12.921875zm16.078125 12.84375l-1.953125 0l0 -18.234375l1.953125 0l0 18.234375zm9.5390625 0.234375q-2.84375 0 -4.5 -1.734375q-1.640625 -1.734375 -1.640625 -4.8125q0 -3.109375 1.53125 -4.9375q1.53125 -1.828125 4.109375 -1.828125q2.421875 0 3.828125 1.59375q1.40625 1.578125 1.40625 4.1875l0 1.21875l-8.859375 0q0.0625 2.265625 1.140625 3.4375q1.09375 1.171875 3.0625 1.171875q2.078125 0 4.09375 -0.859375l0 1.734375q-1.03125 0.4375 -1.953125 0.625q-0.90625 0.203125 -2.21875 0.203125zm-0.515625 -11.6875q-1.546875 0 -2.46875 1.015625q-0.921875 1.0 -1.09375 2.78125l6.71875 0q0 -1.84375 -0.828125 -2.8125q-0.8125 -0.984375 -2.328125 -0.984375z" fill-rule="nonzero"></path><path fill="#cfe2f3" d="m360.65878 166.5748l189.5748 0l0 496.44095l-189.5748 0z" fill-rule="evenodd"></path><path stroke="#000000" stroke-width="1.0" stroke-linejoin="round" stroke-linecap="butt" d="m360.65878 166.5748l189.5748 0l0 496.44095l-189.5748 0z" fill-rule="evenodd"></path><path fill="#000000" d="m418.9208 198.6148l-1.984375 0l0 -8.0625l-9.03125 0l0 8.0625l-1.984375 0l0 -17.140625l1.984375 0l0 7.296875l9.03125 0l0 -7.296875l1.984375 0l0 17.140625zm9.972656 0l-1.984375 0l0 -15.359375l-5.421875 0l0 -1.78125l12.84375 0l0 1.78125l-5.4375 0l0 15.359375zm15.589844 0l-5.8125 -15.1875l-0.09375 0q0.171875 1.796875 0.171875 4.28125l0 10.90625l-1.84375 0l0 -17.140625l3.0 0l5.421875 14.140625l0.09375 0l5.46875 -14.140625l2.984375 0l0 17.140625l-2.0 0l0 -11.046875q0 -1.890625 0.171875 -4.125l-0.09375 0l-5.859375 15.171875l-1.609375 0zm14.089844 0l0 -17.140625l1.984375 0l0 15.328125l7.5625 0l0 1.8125l-9.546875 0zm24.191406 -11.328125l-3.28125 0l0 11.328125l-1.9375 0l0 -11.328125l-2.296875 0l0 -0.890625l2.296875 -0.703125l0 -0.703125q0 -4.734375 4.140625 -4.734375q1.015625 0 2.390625 0.40625l-0.515625 1.5625q-1.125 -0.375 -1.921875 -0.375q-1.09375 0 -1.625 0.734375q-0.53125 0.734375 -0.53125 2.359375l0 0.828125l3.28125 0l0 1.515625zm13.4296875 4.890625q0 3.140625 -1.59375 4.90625q-1.578125 1.765625 -4.359375 1.765625q-1.734375 0 -3.078125 -0.8125q-1.328125 -0.8125 -2.0625 -2.3125q-0.71875 -1.515625 -0.71875 -3.546875q0 -3.140625 1.5625 -4.890625q1.578125 -1.75 4.375 -1.75q2.6875 0 4.28125 1.796875q1.59375 1.78125 1.59375 4.84375zm-9.796875 0q0 2.46875 0.984375 3.765625q0.984375 1.28125 2.90625 1.28125q1.90625 0 2.890625 -1.28125q1.0 -1.296875 1.0 -3.765625q0 -2.453125 -1.0 -3.71875q-0.984375 -1.265625 -2.921875 -1.265625q-1.90625 0 -2.890625 1.25q-0.96875 1.25 -0.96875 3.734375zm19.058594 -6.640625q0.859375 0 1.53125 0.140625l-0.265625 1.796875q-0.796875 -0.171875 -1.40625 -0.171875q-1.5625 0 -2.671875 1.265625q-1.09375 1.265625 -1.09375 3.15625l0 6.890625l-1.953125 0l0 -12.84375l1.609375 0l0.21875 2.375l0.09375 0q0.71875 -1.25 1.71875 -1.921875q1.015625 -0.6875 2.21875 -0.6875z" fill-rule="nonzero"></path><path fill="#000000" d="m420.3798 212.02106q-2.8125 0 -4.453125 1.875q-1.640625 1.875 -1.640625 5.15625q0 3.359375 1.578125 5.203125q1.578125 1.828125 4.5 1.828125q1.796875 0 4.09375 -0.65625l0 1.75q-1.78125 0.671875 -4.40625 0.671875q-3.78125 0 -5.84375 -2.296875q-2.046875 -2.296875 -2.046875 -6.53125q0 -2.640625 0.984375 -4.625q1.0 -2.0 2.859375 -3.078125q1.875 -1.078125 4.40625 -1.078125q2.6875 0 4.703125 0.984375l-0.84375 1.703125q-1.9375 -0.90625 -3.890625 -0.90625zm18.609375 9.15625q0 3.140625 -1.59375 4.90625q-1.578125 1.765625 -4.359375 1.765625q-1.734375 0 -3.078125 -0.8125q-1.328125 -0.8125 -2.0625 -2.3125q-0.71875 -1.515625 -0.71875 -3.546875q0 -3.140625 1.5625 -4.890625q1.578125 -1.75 4.375 -1.75q2.6875 0 4.28125 1.796875q1.59375 1.78125 1.59375 4.84375zm-9.796875 0q0 2.46875 0.984375 3.765625q0.984375 1.28125 2.90625 1.28125q1.90625 0 2.890625 -1.28125q1.0 -1.296875 1.0 -3.765625q0 -2.453125 -1.0 -3.71875q-0.984375 -1.265625 -2.921875 -1.265625q-1.90625 0 -2.890625 1.25q-0.96875 1.25 -0.96875 3.734375zm21.996094 6.4375l0 -8.3125q0 -1.5625 -0.71875 -2.328125q-0.71875 -0.78125 -2.234375 -0.78125q-2.015625 0 -2.953125 1.09375q-0.9375 1.078125 -0.9375 3.59375l0 6.734375l-1.953125 0l0 -12.84375l1.578125 0l0.328125 1.75l0.09375 0q0.59375 -0.9375 1.671875 -1.453125q1.078125 -0.53125 2.40625 -0.53125q2.3125 0 3.484375 1.125q1.171875 1.109375 1.171875 3.578125l0 8.375l-1.9375 0zm10.089844 -1.375q0.515625 0 0.984375 -0.078125q0.484375 -0.078125 0.765625 -0.15625l0 1.484375q-0.3125 0.15625 -0.9375 0.25q-0.609375 0.109375 -1.09375 0.109375q-3.734375 0 -3.734375 -3.921875l0 -7.640625l-1.84375 0l0 -0.9375l1.84375 -0.8125l0.828125 -2.75l1.125 0l0 2.984375l3.71875 0l0 1.515625l-3.71875 0l0 7.546875q0 1.171875 0.546875 1.796875q0.546875 0.609375 1.515625 0.609375zm9.738281 1.609375q-2.84375 0 -4.5 -1.734375q-1.640625 -1.734375 -1.640625 -4.8125q0 -3.109375 1.53125 -4.9375q1.53125 -1.828125 4.109375 -1.828125q2.421875 0 3.828125 1.59375q1.40625 1.578125 1.40625 4.1875l0 1.21875l-8.859375 0q0.0625 2.265625 1.140625 3.4375q1.09375 1.171875 3.0625 1.171875q2.078125 0 4.09375 -0.859375l0 1.734375q-1.03125 0.4375 -1.953125 0.625q-0.90625 0.203125 -2.21875 0.203125zm-0.515625 -11.6875q-1.546875 0 -2.46875 1.015625q-0.921875 1.0 -1.09375 2.78125l6.71875 0q0 -1.84375 -0.828125 -2.8125q-0.8125 -0.984375 -2.328125 -0.984375zm17.355469 11.453125l0 -8.3125q0 -1.5625 -0.71875 -2.328125q-0.71875 -0.78125 -2.234375 -0.78125q-2.015625 0 -2.953125 1.09375q-0.9375 1.078125 -0.9375 3.59375l0 6.734375l-1.953125 0l0 -12.84375l1.578125 0l0.328125 1.75l0.09375 0q0.59375 -0.9375 1.671875 -1.453125q1.078125 -0.53125 2.40625 -0.53125q2.3125 0 3.484375 1.125q1.171875 1.109375 1.171875 3.578125l0 8.375l-1.9375 0zm10.089844 -1.375q0.515625 0 0.984375 -0.078125q0.484375 -0.078125 0.765625 -0.15625l0 1.484375q-0.3125 0.15625 -0.9375 0.25q-0.609375 0.109375 -1.09375 0.109375q-3.734375 0 -3.734375 -3.921875l0 -7.640625l-1.84375 0l0 -0.9375l1.84375 -0.8125l0.828125 -2.75l1.125 0l0 2.984375l3.71875 0l0 1.515625l-3.71875 0l0 7.546875q0 1.171875 0.546875 1.796875q0.546875 0.609375 1.515625 0.609375z" fill-rule="nonzero"></path><path fill="#ead1dc" d="m576.6588 166.5748l189.57477 0l0 496.44095l-189.57477 0z" fill-rule="evenodd"></path><path stroke="#000000" stroke-width="1.0" stroke-linejoin="round" stroke-linecap="butt" d="m576.6588 166.5748l189.57477 0l0 496.44095l-189.57477 0z" fill-rule="evenodd"></path><path fill="#000000" d="m597.58875 203.13043q-1.109375 0 -1.734375 -0.3125l0 -1.703125q0.828125 0.234375 1.734375 0.234375q1.15625 0 1.765625 -0.703125q0.609375 -0.703125 0.609375 -2.03125l0 -17.140625l1.984375 0l0 16.96875q0 2.234375 -1.125 3.453125q-1.125 1.234375 -3.234375 1.234375zm16.519531 -4.515625l-0.390625 -1.828125l-0.09375 0q-0.96875 1.203125 -1.921875 1.640625q-0.953125 0.421875 -2.375 0.421875q-1.921875 0 -3.0 -0.984375q-1.078125 -0.984375 -1.078125 -2.796875q0 -3.890625 6.21875 -4.078125l2.171875 -0.078125l0 -0.796875q0 -1.515625 -0.65625 -2.234375q-0.640625 -0.71875 -2.0625 -0.71875q-1.609375 0 -3.640625 0.984375l-0.59375 -1.484375q0.953125 -0.515625 2.078125 -0.8125q1.125 -0.296875 2.265625 -0.296875q2.296875 0 3.40625 1.03125q1.109375 1.015625 1.109375 3.265625l0 8.765625l-1.4375 0zm-4.40625 -1.375q1.828125 0 2.859375 -0.984375q1.03125 -1.0 1.03125 -2.796875l0 -1.15625l-1.9375 0.078125q-2.328125 0.078125 -3.359375 0.71875q-1.015625 0.640625 -1.015625 1.984375q0 1.0625 0.640625 1.609375q0.640625 0.546875 1.78125 0.546875zm12.660156 1.375l-4.875 -12.84375l2.09375 0l2.765625 7.609375q0.9375 2.671875 1.09375 3.46875l0.09375 0q0.125 -0.609375 0.8125 -2.5625q0.6875 -1.953125 3.078125 -8.515625l2.09375 0l-4.875 12.84375l-2.28125 0zm17.117188 0l-0.390625 -1.828125l-0.09375 0q-0.96875 1.203125 -1.921875 1.640625q-0.953125 0.421875 -2.375 0.421875q-1.921875 0 -3.0 -0.984375q-1.078125 -0.984375 -1.078125 -2.796875q0 -3.890625 6.21875 -4.078125l2.171875 -0.078125l0 -0.796875q0 -1.515625 -0.65625 -2.234375q-0.640625 -0.71875 -2.0625 -0.71875q-1.609375 0 -3.640625 0.984375l-0.59375 -1.484375q0.953125 -0.515625 2.078125 -0.8125q1.125 -0.296875 2.265625 -0.296875q2.296875 0 3.40625 1.03125q1.109375 1.015625 1.109375 3.265625l0 8.765625l-1.4375 0zm-4.40625 -1.375q1.828125 0 2.859375 -0.984375q1.03125 -1.0 1.03125 -2.796875l0 -1.15625l-1.9375 0.078125q-2.328125 0.078125 -3.359375 0.71875q-1.015625 0.640625 -1.015625 1.984375q0 1.0625 0.640625 1.609375q0.640625 0.546875 1.78125 0.546875zm19.816406 -3.1875q0 2.265625 -1.640625 3.53125q-1.640625 1.265625 -4.453125 1.265625q-3.046875 0 -4.6875 -0.78125l0 -1.921875q1.046875 0.4375 2.28125 0.703125q1.25 0.25 2.46875 0.25q2.0 0 3.0 -0.75q1.015625 -0.765625 1.015625 -2.109375q0 -0.890625 -0.359375 -1.453125q-0.359375 -0.578125 -1.203125 -1.046875q-0.828125 -0.484375 -2.546875 -1.09375q-2.390625 -0.859375 -3.421875 -2.03125q-1.015625 -1.171875 -1.015625 -3.0625q0 -1.96875 1.484375 -3.140625q1.484375 -1.171875 3.9375 -1.171875q2.5625 0 4.703125 0.9375l-0.625 1.734375q-2.125 -0.890625 -4.125 -0.890625q-1.578125 0 -2.46875 0.6875q-0.890625 0.671875 -0.890625 1.875q0 0.890625 0.328125 1.46875q0.328125 0.5625 1.109375 1.03125q0.78125 0.46875 2.375 1.046875q2.703125 0.96875 3.71875 2.078125q1.015625 1.09375 1.015625 2.84375zm8.34375 4.796875q-2.796875 0 -4.328125 -1.71875q-1.53125 -1.71875 -1.53125 -4.859375q0 -3.21875 1.546875 -4.96875q1.5625 -1.765625 4.4375 -1.765625q0.921875 0 1.84375 0.203125q0.9375 0.1875 1.453125 0.46875l-0.59375 1.640625q-0.640625 -0.25 -1.40625 -0.421875q-0.765625 -0.171875 -1.34375 -0.171875q-3.921875 0 -3.921875 5.0q0 2.359375 0.953125 3.625q0.96875 1.265625 2.84375 1.265625q1.59375 0 3.28125 -0.6875l0 1.71875q-1.28125 0.671875 -3.234375 0.671875zm12.144531 -13.3125q0.859375 0 1.53125 0.140625l-0.265625 1.796875q-0.796875 -0.171875 -1.40625 -0.171875q-1.5625 0 -2.671875 1.265625q-1.09375 1.265625 -1.09375 3.15625l0 6.890625l-1.953125 0l0 -12.84375l1.609375 0l0.21875 2.375l0.09375 0q0.71875 -1.25 1.71875 -1.921875q1.015625 -0.6875 2.21875 -0.6875zm5.890625 13.078125l-1.953125 0l0 -12.84375l1.953125 0l0 12.84375zm-2.109375 -16.328125q0 -0.671875 0.328125 -0.96875q0.328125 -0.3125 0.8125 -0.3125q0.46875 0 0.8125 0.3125q0.34375 0.3125 0.34375 0.96875q0 0.65625 -0.34375 0.984375q-0.34375 0.3125 -0.8125 0.3125q-0.484375 0 -0.8125 -0.3125q-0.328125 -0.328125 -0.328125 -0.984375zm12.2109375 16.5625q-1.265625 0 -2.296875 -0.453125q-1.03125 -0.46875 -1.734375 -1.4375l-0.140625 0q0.140625 1.125 0.140625 2.140625l0 5.28125l-1.953125 0l0 -18.609375l1.578125 0l0.28125 1.75l0.09375 0q0.75 -1.046875 1.734375 -1.515625q1.0 -0.46875 2.296875 -0.46875q2.546875 0 3.9375 1.75q1.390625 1.734375 1.390625 4.890625q0 3.171875 -1.421875 4.921875q-1.40625 1.75 -3.90625 1.75zm-0.28125 -11.65625q-1.96875 0 -2.859375 1.09375q-0.875 1.078125 -0.890625 3.453125l0 0.4375q0 2.703125 0.890625 3.875q0.90625 1.171875 2.90625 1.171875q1.65625 0 2.59375 -1.34375q0.953125 -1.359375 0.953125 -3.71875q0 -2.40625 -0.953125 -3.6875q-0.9375 -1.28125 -2.640625 -1.28125zm13.160156 10.046875q0.515625 0 0.984375 -0.078125q0.484375 -0.078125 0.765625 -0.15625l0 1.484375q-0.3125 0.15625 -0.9375 0.25q-0.609375 0.109375 -1.09375 0.109375q-3.734375 0 -3.734375 -3.921875l0 -7.640625l-1.84375 0l0 -0.9375l1.84375 -0.8125l0.828125 -2.75l1.125 0l0 2.984375l3.71875 0l0 1.515625l-3.71875 0l0 7.546875q0 1.171875 0.546875 1.796875q0.546875 0.609375 1.515625 0.609375zm16.347656 -9.953125l-3.28125 0l0 11.328125l-1.9375 0l0 -11.328125l-2.296875 0l0 -0.890625l2.296875 -0.703125l0 -0.703125q0 -4.734375 4.140625 -4.734375q1.015625 0 2.390625 0.40625l-0.515625 1.5625q-1.125 -0.375 -1.921875 -0.375q-1.09375 0 -1.625 0.734375q-0.53125 0.734375 -0.53125 2.359375l0 0.828125l3.28125 0l0 1.515625zm13.4296875 4.890625q0 3.140625 -1.59375 4.90625q-1.578125 1.765625 -4.359375 1.765625q-1.734375 0 -3.078125 -0.8125q-1.328125 -0.8125 -2.0625 -2.3125q-0.71875 -1.515625 -0.71875 -3.546875q0 -3.140625 1.5625 -4.890625q1.578125 -1.75 4.375 -1.75q2.6875 0 4.28125 1.796875q1.59375 1.78125 1.59375 4.84375zm-9.796875 0q0 2.46875 0.984375 3.765625q0.984375 1.28125 2.90625 1.28125q1.90625 0 2.890625 -1.28125q1.0 -1.296875 1.0 -3.765625q0 -2.453125 -1.0 -3.71875q-0.984375 -1.265625 -2.921875 -1.265625q-1.90625 0 -2.890625 1.25q-0.96875 1.25 -0.96875 3.734375zm19.058594 -6.640625q0.859375 0 1.53125 0.140625l-0.265625 1.796875q-0.796875 -0.171875 -1.40625 -0.171875q-1.5625 0 -2.671875 1.265625q-1.09375 1.265625 -1.09375 3.15625l0 6.890625l-1.953125 0l0 -12.84375l1.609375 0l0.21875 2.375l0.09375 0q0.71875 -1.25 1.71875 -1.921875q1.015625 -0.6875 2.21875 -0.6875z" fill-rule="nonzero"></path><path fill="#000000" d="m638.7333 218.88043q0 4.25 -2.3125 6.5q-2.296875 2.234375 -6.609375 2.234375l-4.75 0l0 -17.140625l5.25 0q4.0 0 6.203125 2.21875q2.21875 2.21875 2.21875 6.1875zm-2.109375 0.078125q0 -3.359375 -1.6875 -5.046875q-1.671875 -1.703125 -4.984375 -1.703125l-2.90625 0l0 13.6875l2.4375 0q3.5625 0 5.34375 -1.75q1.796875 -1.765625 1.796875 -5.1875zm3.6054688 -4.1875l2.078125 0l2.8125 7.328125q0.921875 2.5 1.15625 3.609375l0.09375 0q0.140625 -0.59375 0.625 -2.03125q0.5 -1.453125 3.1875 -8.90625l2.09375 0l-5.53125 14.625q-0.8125 2.171875 -1.90625 3.078125q-1.09375 0.90625 -2.6875 0.90625q-0.890625 0 -1.765625 -0.203125l0 -1.546875q0.640625 0.140625 1.4375 0.140625q2.015625 0 2.859375 -2.25l0.71875 -1.828125l-5.171875 -12.921875zm22.921875 12.84375l0 -8.3125q0 -1.5625 -0.71875 -2.328125q-0.71875 -0.78125 -2.234375 -0.78125q-2.015625 0 -2.953125 1.09375q-0.9375 1.078125 -0.9375 3.59375l0 6.734375l-1.953125 0l0 -12.84375l1.578125 0l0.328125 1.75l0.09375 0q0.59375 -0.9375 1.671875 -1.453125q1.078125 -0.53125 2.40625 -0.53125q2.3125 0 3.484375 1.125q1.171875 1.109375 1.171875 3.578125l0 8.375l-1.9375 0zm13.839844 0l-0.390625 -1.828125l-0.09375 0q-0.96875 1.203125 -1.921875 1.640625q-0.953125 0.421875 -2.375 0.421875q-1.921875 0 -3.0 -0.984375q-1.078125 -0.984375 -1.078125 -2.796875q0 -3.890625 6.21875 -4.078125l2.171875 -0.078125l0 -0.796875q0 -1.515625 -0.65625 -2.234375q-0.640625 -0.71875 -2.0625 -0.71875q-1.609375 0 -3.640625 0.984375l-0.59375 -1.484375q0.953125 -0.515625 2.078125 -0.8125q1.125 -0.296875 2.265625 -0.296875q2.296875 0 3.40625 1.03125q1.109375 1.015625 1.109375 3.265625l0 8.765625l-1.4375 0zm-4.40625 -1.375q1.828125 0 2.859375 -0.984375q1.03125 -1.0 1.03125 -2.796875l0 -1.15625l-1.9375 0.078125q-2.328125 0.078125 -3.359375 0.71875q-1.015625 0.640625 -1.015625 1.984375q0 1.0625 0.640625 1.609375q0.640625 0.546875 1.78125 0.546875zm26.222656 1.375l0 -8.359375q0 -1.53125 -0.65625 -2.296875q-0.65625 -0.765625 -2.046875 -0.765625q-1.8125 0 -2.6875 1.046875q-0.859375 1.03125 -0.859375 3.203125l0 7.171875l-1.9375 0l0 -8.359375q0 -1.53125 -0.65625 -2.296875q-0.65625 -0.765625 -2.0625 -0.765625q-1.828125 0 -2.671875 1.09375q-0.84375 1.09375 -0.84375 3.59375l0 6.734375l-1.953125 0l0 -12.84375l1.578125 0l0.328125 1.75l0.09375 0q0.546875 -0.9375 1.546875 -1.453125q1.0 -0.53125 2.25 -0.53125q3.0 0 3.9375 2.171875l0.09375 0q0.5625 -1.0 1.65625 -1.578125q1.09375 -0.59375 2.484375 -0.59375q2.1875 0 3.265625 1.125q1.078125 1.109375 1.078125 3.578125l0 8.375l-1.9375 0zm7.9023438 0l-1.953125 0l0 -12.84375l1.953125 0l0 12.84375zm-2.109375 -16.328125q0 -0.671875 0.328125 -0.96875q0.328125 -0.3125 0.8125 -0.3125q0.46875 0 0.8125 0.3125q0.34375 0.3125 0.34375 0.96875q0 0.65625 -0.34375 0.984375q-0.34375 0.3125 -0.8125 0.3125q-0.484375 0 -0.8125 -0.3125q-0.328125 -0.328125 -0.328125 -0.984375zm11.3671875 16.5625q-2.796875 0 -4.328125 -1.71875q-1.53125 -1.71875 -1.53125 -4.859375q0 -3.21875 1.546875 -4.96875q1.5625 -1.765625 4.4375 -1.765625q0.921875 0 1.84375 0.203125q0.9375 0.1875 1.453125 0.46875l-0.59375 1.640625q-0.640625 -0.25 -1.40625 -0.421875q-0.765625 -0.171875 -1.34375 -0.171875q-3.921875 0 -3.921875 5.0q0 2.359375 0.953125 3.625q0.96875 1.265625 2.84375 1.265625q1.59375 0 3.28125 -0.6875l0 1.71875q-1.28125 0.671875 -3.234375 0.671875z" fill-rule="nonzero"></path><path fill="#000000" d="m616.7001 239.47418l4.84375 0q3.40625 0 4.921875 1.03125q1.53125 1.015625 1.53125 3.21875q0 1.515625 -0.859375 2.515625q-0.84375 0.984375 -2.46875 1.28125l0 0.109375q3.90625 0.671875 3.90625 4.109375q0 2.296875 -1.5625 3.59375q-1.546875 1.28125 -4.34375 1.28125l-5.96875 0l0 -17.140625zm1.984375 7.34375l3.28125 0q2.109375 0 3.03125 -0.65625q0.9375 -0.671875 0.9375 -2.234375q0 -1.453125 -1.03125 -2.078125q-1.03125 -0.640625 -3.28125 -0.640625l-2.9375 0l0 5.609375zm0 1.6875l0 6.40625l3.578125 0q2.078125 0 3.125 -0.796875q1.046875 -0.8125 1.046875 -2.515625q0 -1.59375 -1.078125 -2.34375q-1.0625 -0.75 -3.25 -0.75l-3.421875 0zm18.691406 8.34375q-2.84375 0 -4.5 -1.734375q-1.640625 -1.734375 -1.640625 -4.8125q0 -3.109375 1.53125 -4.9375q1.53125 -1.828125 4.109375 -1.828125q2.421875 0 3.828125 1.59375q1.40625 1.578125 1.40625 4.1875l0 1.21875l-8.859375 0q0.0625 2.265625 1.140625 3.4375q1.09375 1.171875 3.0625 1.171875q2.078125 0 4.09375 -0.859375l0 1.734375q-1.03125 0.4375 -1.953125 0.625q-0.90625 0.203125 -2.21875 0.203125zm-0.515625 -11.6875q-1.546875 0 -2.46875 1.015625q-0.921875 1.0 -1.09375 2.78125l6.71875 0q0 -1.84375 -0.828125 -2.8125q-0.8125 -0.984375 -2.328125 -0.984375zm17.355469 11.453125l0 -8.3125q0 -1.5625 -0.71875 -2.328125q-0.71875 -0.78125 -2.234375 -0.78125q-2.03125 0 -2.96875 1.109375q-0.921875 1.09375 -0.921875 3.59375l0 6.71875l-1.953125 0l0 -18.234375l1.953125 0l0 5.515625q0 1.0 -0.09375 1.65625l0.109375 0q0.578125 -0.921875 1.640625 -1.453125q1.0625 -0.546875 2.421875 -0.546875q2.34375 0 3.515625 1.125q1.1875 1.125 1.1875 3.5625l0 8.375l-1.9375 0zm13.839844 0l-0.390625 -1.828125l-0.09375 0q-0.96875 1.203125 -1.921875 1.640625q-0.953125 0.421875 -2.375 0.421875q-1.921875 0 -3.0 -0.984375q-1.078125 -0.984375 -1.078125 -2.796875q0 -3.890625 6.21875 -4.078125l2.171875 -0.078125l0 -0.796875q0 -1.515625 -0.65625 -2.234375q-0.640625 -0.71875 -2.0625 -0.71875q-1.609375 0 -3.640625 0.984375l-0.59375 -1.484375q0.953125 -0.515625 2.078125 -0.8125q1.125 -0.296875 2.265625 -0.296875q2.296875 0 3.40625 1.03125q1.109375 1.015625 1.109375 3.265625l0 8.765625l-1.4375 0zm-4.40625 -1.375q1.828125 0 2.859375 -0.984375q1.03125 -1.0 1.03125 -2.796875l0 -1.15625l-1.9375 0.078125q-2.328125 0.078125 -3.359375 0.71875q-1.015625 0.640625 -1.015625 1.984375q0 1.0625 0.640625 1.609375q0.640625 0.546875 1.78125 0.546875zm12.660156 1.375l-4.875 -12.84375l2.09375 0l2.765625 7.609375q0.9375 2.671875 1.09375 3.46875l0.09375 0q0.125 -0.609375 0.8125 -2.5625q0.6875 -1.953125 3.078125 -8.515625l2.09375 0l-4.875 12.84375l-2.28125 0zm11.1640625 0l-1.953125 0l0 -12.84375l1.953125 0l0 12.84375zm-2.109375 -16.328125q0 -0.671875 0.328125 -0.96875q0.328125 -0.3125 0.8125 -0.3125q0.46875 0 0.8125 0.3125q0.34375 0.3125 0.34375 0.96875q0 0.65625 -0.34375 0.984375q-0.34375 0.3125 -0.8125 0.3125q-0.484375 0 -0.8125 -0.3125q-0.328125 -0.328125 -0.328125 -0.984375zm17.320312 9.890625q0 3.140625 -1.59375 4.90625q-1.578125 1.765625 -4.359375 1.765625q-1.734375 0 -3.078125 -0.8125q-1.328125 -0.8125 -2.0625 -2.3125q-0.71875 -1.515625 -0.71875 -3.546875q0 -3.140625 1.5625 -4.890625q1.578125 -1.75 4.375 -1.75q2.6875 0 4.28125 1.796875q1.59375 1.78125 1.59375 4.84375zm-9.796875 0q0 2.46875 0.984375 3.765625q0.984375 1.28125 2.90625 1.28125q1.90625 0 2.890625 -1.28125q1.0 -1.296875 1.0 -3.765625q0 -2.453125 -1.0 -3.71875q-0.984375 -1.265625 -2.921875 -1.265625q-1.90625 0 -2.890625 1.25q-0.96875 1.25 -0.96875 3.734375zm15.027344 -6.40625l0 8.328125q0 1.578125 0.71875 2.359375q0.71875 0.765625 2.234375 0.765625q2.015625 0 2.9375 -1.09375q0.9375 -1.109375 0.9375 -3.609375l0 -6.75l1.953125 0l0 12.84375l-1.609375 0l-0.28125 -1.71875l-0.109375 0q-0.59375 0.9375 -1.65625 1.453125q-1.0625 0.5 -2.421875 0.5q-2.34375 0 -3.515625 -1.109375q-1.15625 -1.125 -1.15625 -3.5625l0 -8.40625l1.96875 0zm18.761719 -0.234375q0.859375 0 1.53125 0.140625l-0.265625 1.796875q-0.796875 -0.171875 -1.40625 -0.171875q-1.5625 0 -2.671875 1.265625q-1.09375 1.265625 -1.09375 3.15625l0 6.890625l-1.953125 0l0 -12.84375l1.609375 0l0.21875 2.375l0.09375 0q0.71875 -1.25 1.71875 -1.921875q1.015625 -0.6875 2.21875 -0.6875z" fill-rule="nonzero"></path><path fill="#000000" fill-opacity="0.0" d="m152.32808 30.68504l609.3229 0l0 109.5748l-609.3229 0z" fill-rule="evenodd"></path><path fill="#000000" d="m173.01558 70.40504l-4.84375 0l0 -18.812496l-6.203125 0l0 -4.03125l17.25 0l0 4.03125l-6.203125 0l0 18.812496zm19.09375 -17.796871q0.96875 0 1.609375 0.140625l-0.359375 4.46875q-0.578125 -0.15625 -1.40625 -0.15625q-2.28125 0 -3.5625 1.171875q-1.265625 1.171875 -1.265625 3.28125l0 8.890621l-4.765625 0l0 -17.468746l3.609375 0l0.703125 2.9375l0.234375 0q0.8125 -1.46875 2.1875 -2.359375q1.390625 -0.90625 3.015625 -0.90625zm15.875 17.796871l-0.921875 -2.375l-0.125 0q-1.203125 1.515625 -2.484375 2.109375q-1.265625 0.578125 -3.3125 0.578125q-2.515625 0 -3.96875 -1.4375q-1.4375 -1.4375 -1.4375 -4.09375q0 -2.7812462 1.9375 -4.093746q1.953125 -1.328125 5.875 -1.46875l3.03125 -0.09375l0 -0.765625q0 -2.65625 -2.71875 -2.65625q-2.09375 0 -4.921875 1.265625l-1.578125 -3.21875q3.015625 -1.578125 6.6875 -1.578125q3.515625 0 5.390625 1.53125q1.875 1.53125 1.875 4.65625l0 11.640621l-3.328125 0zm-1.40625 -8.093746l-1.84375 0.0625q-2.078125 0.0625 -3.09375 0.75q-1.015625 0.6875 -1.015625 2.0937462q0 2.015625 2.3125 2.015625q1.65625 0 2.640625 -0.953125q1.0 -0.953125 1.0 -2.5312462l0 -1.4375zm15.171875 8.406246q-3.078125 0 -4.84375 -2.390625q-1.75 -2.390625 -1.75 -6.624996q0 -4.296875 1.78125 -6.6875q1.796875 -2.40625 4.9375 -2.40625q3.296875 0 5.03125 2.5625l0.15625 0q-0.359375 -1.953125 -0.359375 -3.484375l0 -5.59375l4.78125 0l0 24.312496l-3.65625 0l-0.921875 -2.265625l-0.203125 0q-1.625 2.578125 -4.953125 2.578125zm1.671875 -3.796875q1.828125 0 2.671875 -1.0625q0.859375 -1.0625 0.9375 -3.6093712l0 -0.515625q0 -2.8125 -0.875 -4.03125q-0.859375 -1.21875 -2.8125 -1.21875q-1.59375 0 -2.484375 1.359375q-0.875 1.34375 -0.875 3.921875q0 2.5781212 0.890625 3.8749962q0.890625 1.28125 2.546875 1.28125zm12.84375 -18.499996q0 -2.328125 2.59375 -2.328125q2.59375 0 2.59375 2.328125q0 1.109375 -0.65625 1.734375q-0.640625 0.609375 -1.9375 0.609375q-2.59375 0 -2.59375 -2.34375zm4.96875 21.984371l-4.765625 0l0 -17.468746l4.765625 0l0 17.468746zm12.359375 -3.484375q1.25 0 3.0000153 -0.546875l0 3.546875q-1.7812653 0.796875 -4.3750153 0.796875q-2.859375 0 -4.171875 -1.4375q-1.296875 -1.453125 -1.296875 -4.34375l0 -8.421871l-2.28125 0l0 -2.015625l2.625 -1.59375l1.375 -3.6875l3.046875 0l0 3.71875l4.8906403 0l0 3.578125l-4.8906403 0l0 8.421871q0 1.015625 0.5625 1.5q0.578125 0.484375 1.515625 0.484375zm6.3281403 -18.499996q0 -2.328125 2.59375 -2.328125q2.59375 0 2.59375 2.328125q0 1.109375 -0.65625 1.734375q-0.640625 0.609375 -1.9375 0.609375q-2.59375 0 -2.59375 -2.34375zm4.96875 21.984371l-4.765625 0l0 -17.468746l4.765625 0l0 17.468746zm8.796875 -8.765621q0 2.5937462 0.84375 3.9218712q0.859375 1.328125 2.78125 1.328125q1.90625 0 2.734375 -1.3125q0.84375 -1.328125 0.84375 -3.9374962q0 -2.59375 -0.84375 -3.890625q-0.84375 -1.296875 -2.765625 -1.296875q-1.90625 0 -2.75 1.296875q-0.84375 1.28125 -0.84375 3.890625zm12.078125 0q0 4.265621 -2.25 6.671871q-2.25 2.40625 -6.265625 2.40625q-2.515625 0 -4.4375 -1.09375q-1.921875 -1.109375 -2.953125 -3.171875q-1.03125 -2.0625 -1.03125 -4.812496q0 -4.28125 2.234375 -6.65625q2.234375 -2.375 6.28125 -2.375q2.515625 0 4.4375 1.09375q1.921875 1.09375 2.953125 3.140625q1.03125 2.046875 1.03125 4.796875zm20.0625 8.765621l-4.765625 0l0 -10.203121q0 -1.890625 -0.671875 -2.828125q-0.671875 -0.953125 -2.140625 -0.953125q-2.0 0 -2.890625 1.34375q-0.890625 1.328125 -0.890625 4.421875l0 8.218746l-4.765625 0l0 -17.468746l3.640625 0l0.640625 2.234375l0.265625 0q0.796875 -1.265625 2.1875 -1.90625q1.40625 -0.65625 3.1875 -0.65625q3.046875 0 4.625 1.65625q1.578125 1.640625 1.578125 4.75l0 11.390621zm16.0 0l-0.921875 -2.375l-0.125 0q-1.203125 1.515625 -2.484375 2.109375q-1.265625 0.578125 -3.3125 0.578125q-2.515625 0 -3.96875 -1.4375q-1.4375 -1.4375 -1.4375 -4.09375q0 -2.7812462 1.9375 -4.093746q1.953125 -1.328125 5.875 -1.46875l3.03125 -0.09375l0 -0.765625q0 -2.65625 -2.71875 -2.65625q-2.09375 0 -4.921875 1.265625l-1.578125 -3.21875q3.015625 -1.578125 6.6875 -1.578125q3.515625 0 5.390625 1.53125q1.875 1.53125 1.875 4.65625l0 11.640621l-3.328125 0zm-1.40625 -8.093746l-1.84375 0.0625q-2.078125 0.0625 -3.09375 0.75q-1.015625 0.6875 -1.015625 2.0937462q0 2.015625 2.3125 2.015625q1.65625 0 2.640625 -0.953125q1.0 -0.953125 1.0 -2.5312462l0 -1.4375zm14.40625 8.093746l-4.765625 0l0 -24.312496l4.765625 0l0 24.312496zm27.171875 -6.34375q0 3.09375 -2.234375 4.875q-2.21875 1.78125 -6.1875 1.78125q-3.65625 0 -6.46875 -1.375l0 -4.5q2.3125 1.03125 3.90625 1.453125q1.609375 0.421875 2.9375 0.421875q1.59375 0 2.4375 -0.609375q0.859375 -0.609375 0.859375 -1.8125q0 -0.6718712 -0.375 -1.1874962q-0.375 -0.53125 -1.109375 -1.015625q-0.71875 -0.484375 -2.953125 -1.546875q-2.09375 -0.984375 -3.140625 -1.890625q-1.046875 -0.90625 -1.671875 -2.109375q-0.625 -1.203125 -0.625 -2.8125q0 -3.03125 2.046875 -4.765625q2.0625 -1.734375 5.6875 -1.734375q1.78125 0 3.390625 0.421875q1.625 0.421875 3.390625 1.1875l-1.5625 3.765625q-1.828125 -0.75 -3.03125 -1.046875q-1.1875 -0.296875 -2.34375 -0.296875q-1.375 0 -2.109375 0.640625q-0.734375 0.640625 -0.734375 1.671875q0 0.640625 0.296875 1.125q0.296875 0.46875 0.9375 0.921875q0.65625 0.4375 3.078125 1.59375q3.203125 1.53125 4.390625 3.078125q1.1875 1.53125 1.1875 3.7656212zm11.0 -8.062496q-1.515625 0 -2.375 0.96875q-0.859375 0.953125 -0.984375 2.71875l6.6875 0q-0.03125 -1.765625 -0.921875 -2.71875q-0.890625 -0.96875 -2.40625 -0.96875zm0.671875 14.718746q-4.21875 0 -6.59375 -2.328125q-2.375 -2.328125 -2.375 -6.593746q0 -4.390625 2.1875 -6.78125q2.203125 -2.40625 6.078125 -2.40625q3.703125 0 5.765625 2.109375q2.0625 2.109375 2.0625 5.828125l0 2.3125l-11.265625 0q0.078125 2.0312462 1.203125 3.1718712q1.125 1.140625 3.15625 1.140625q1.578125 0 2.984375 -0.328125q1.40625 -0.328125 2.9375 -1.046875l0 3.6875q-1.25 0.625 -2.671875 0.921875q-1.421875 0.3125 -3.46875 0.3125zm20.59375 0q-3.078125 0 -4.828125 -2.234375l-0.25 0q0.25 2.1875 0.25 2.53125l0 7.078125l-4.765625 0l0 -25.156246l3.875 0l0.671875 2.265625l0.21875 0q1.671875 -2.59375 4.953125 -2.59375q3.09375 0 4.84375 2.390625q1.75 2.390625 1.75 6.640625q0 2.7968712 -0.828125 4.859371q-0.8125 2.0625 -2.328125 3.140625q-1.515625 1.078125 -3.5625 1.078125zm-1.40625 -14.296871q-1.765625 0 -2.578125 1.09375q-0.8125 1.078125 -0.84375 3.578125l0 0.515625q0 2.8124962 0.828125 4.031246q0.84375 1.21875 2.65625 1.21875q3.203125 0 3.203125 -5.281246q0 -2.578125 -0.796875 -3.859375q-0.78125 -1.296875 -2.46875 -1.296875zm23.15625 13.984371l-0.921875 -2.375l-0.125 0q-1.203125 1.515625 -2.484375 2.109375q-1.265625 0.578125 -3.3125 0.578125q-2.515625 0 -3.96875 -1.4375q-1.4375 -1.4375 -1.4375 -4.09375q0 -2.7812462 1.9375 -4.093746q1.953125 -1.328125 5.875 -1.46875l3.03125 -0.09375l0 -0.765625q0 -2.65625 -2.71875 -2.65625q-2.09375 0 -4.921875 1.265625l-1.578125 -3.21875q3.015625 -1.578125 6.6875 -1.578125q3.515625 0 5.390625 1.53125q1.875 1.53125 1.875 4.65625l0 11.640621l-3.328125 0zm-1.40625 -8.093746l-1.84375 0.0625q-2.078125 0.0625 -3.09375 0.75q-1.015625 0.6875 -1.015625 2.0937462q0 2.015625 2.3125 2.015625q1.65625 0 2.640625 -0.953125q1.0 -0.953125 1.0 -2.5312462l0 -1.4375zm19.390625 -9.703125q0.96875 0 1.609375 0.140625l-0.359375 4.46875q-0.578125 -0.15625 -1.40625 -0.15625q-2.28125 0 -3.5625 1.171875q-1.265625 1.171875 -1.265625 3.28125l0 8.890621l-4.765625 0l0 -17.468746l3.609375 0l0.703125 2.9375l0.234375 0q0.8125 -1.46875 2.1875 -2.359375q1.390625 -0.90625 3.015625 -0.90625zm15.875 17.796871l-0.921875 -2.375l-0.125 0q-1.203125 1.515625 -2.484375 2.109375q-1.265625 0.578125 -3.3125 0.578125q-2.515625 0 -3.96875 -1.4375q-1.4375 -1.4375 -1.4375 -4.09375q0 -2.7812462 1.9375 -4.093746q1.953125 -1.328125 5.875 -1.46875l3.03125 -0.09375l0 -0.765625q0 -2.65625 -2.71875 -2.65625q-2.09375 0 -4.921875 1.265625l-1.578125 -3.21875q3.015625 -1.578125 6.6875 -1.578125q3.515625 0 5.390625 1.53125q1.875 1.53125 1.875 4.65625l0 11.640621l-3.328125 0zm-1.40625 -8.093746l-1.84375 0.0625q-2.078125 0.0625 -3.09375 0.75q-1.015625 0.6875 -1.015625 2.0937462q0 2.015625 2.3125 2.015625q1.65625 0 2.640625 -0.953125q1.0 -0.953125 1.0 -2.5312462l0 -1.4375zm17.0 4.609371q1.25 0 3.0 -0.546875l0 3.546875q-1.78125 0.796875 -4.375 0.796875q-2.859375 0 -4.171875 -1.4375q-1.296875 -1.453125 -1.296875 -4.34375l0 -8.421871l-2.28125 0l0 -2.015625l2.625 -1.59375l1.375 -3.6875l3.046875 0l0 3.71875l4.890625 0l0 3.578125l-4.890625 0l0 8.421871q0 1.015625 0.5625 1.5q0.578125 0.484375 1.515625 0.484375zm6.328125 -18.499996q0 -2.328125 2.59375 -2.328125q2.59375 0 2.59375 2.328125q0 1.109375 -0.65625 1.734375q-0.640625 0.609375 -1.9375 0.609375q-2.59375 0 -2.59375 -2.34375zm4.96875 21.984371l-4.765625 0l0 -17.468746l4.765625 0l0 17.468746zm8.796875 -8.765621q0 2.5937462 0.84375 3.9218712q0.859375 1.328125 2.78125 1.328125q1.90625 0 2.734375 -1.3125q0.84375 -1.328125 0.84375 -3.9374962q0 -2.59375 -0.84375 -3.890625q-0.84375 -1.296875 -2.765625 -1.296875q-1.90625 0 -2.75 1.296875q-0.84375 1.28125 -0.84375 3.890625zm12.078125 0q0 4.265621 -2.25 6.671871q-2.25 2.40625 -6.265625 2.40625q-2.515625 0 -4.4375 -1.09375q-1.921875 -1.109375 -2.953125 -3.171875q-1.03125 -2.0625 -1.03125 -4.812496q0 -4.28125 2.234375 -6.65625q2.234375 -2.375 6.28125 -2.375q2.515625 0 4.4375 1.09375q1.921875 1.09375 2.953125 3.140625q1.03125 2.046875 1.03125 4.796875zm20.06247 8.765621l-4.765625 0l0 -10.203121q0 -1.890625 -0.671875 -2.828125q-0.6718445 -0.953125 -2.1405945 -0.953125q-2.0 0 -2.890625 1.34375q-0.890625 1.328125 -0.890625 4.421875l0 8.218746l-4.765625 0l0 -17.468746l3.640625 0l0.640625 2.234375l0.265625 0q0.796875 -1.265625 2.1875 -1.90625q1.40625 -0.65625 3.1875 -0.65625q3.0468445 0 4.6249695 1.65625q1.578125 1.640625 1.578125 4.75l0 11.390621zm17.015625 -8.765621q0 2.5937462 0.84375 3.9218712q0.859375 1.328125 2.78125 1.328125q1.90625 0 2.734375 -1.3125q0.84375 -1.328125 0.84375 -3.9374962q0 -2.59375 -0.84375 -3.890625q-0.84375 -1.296875 -2.765625 -1.296875q-1.90625 0 -2.75 1.296875q-0.84375 1.28125 -0.84375 3.890625zm12.078125 0q0 4.265621 -2.25 6.671871q-2.25 2.40625 -6.265625 2.40625q-2.515625 0 -4.4375 -1.09375q-1.921875 -1.109375 -2.953125 -3.171875q-1.03125 -2.0625 -1.03125 -4.812496q0 -4.28125 2.234375 -6.65625q2.234375 -2.375 6.28125 -2.375q2.515625 0 4.4375 1.09375q1.921875 1.09375 2.953125 3.140625q1.03125 2.046875 1.03125 4.796875zm13.59375 -5.125l-4.125 0l0 13.890621l-4.765625 0l0 -13.890621l-2.625 0l0 -2.296875l2.625 -1.28125l0 -1.28125q0 -2.984375 1.46875 -4.359375q1.46875 -1.375 4.703125 -1.375q2.46875 0 4.390625 0.734375l-1.21875 3.5q-1.4375 -0.453125 -2.65625 -0.453125q-1.015625 0 -1.46875 0.609375q-0.453125 0.59375 -0.453125 1.53125l0 1.09375l4.125 0l0 3.578125zm21.125 -5.25q-2.734375 0 -4.234375 2.0625q-1.5 2.046875 -1.5 5.71875q0 7.640621 5.734375 7.640621q2.40625 0 5.828125 -1.203125l0 4.0625q-2.8125 1.171875 -6.28125 1.171875q-4.984375 0 -7.625 -3.015625q-2.640625 -3.03125 -2.640625 -8.687496q0 -3.5625 1.296875 -6.234375q1.296875 -2.6875 3.71875 -4.109375q2.4375 -1.4375 5.703125 -1.4375q3.328125 0 6.6875 1.609375l-1.5625 3.9375q-1.28125 -0.609375 -2.578125 -1.0625q-1.296875 -0.453125 -2.546875 -0.453125zm14.109375 10.375q0 2.5937462 0.84375 3.9218712q0.859375 1.328125 2.78125 1.328125q1.90625 0 2.734375 -1.3125q0.84375 -1.328125 0.84375 -3.9374962q0 -2.59375 -0.84375 -3.890625q-0.84375 -1.296875 -2.765625 -1.296875q-1.90625 0 -2.75 1.296875q-0.84375 1.28125 -0.84375 3.890625zm12.078125 0q0 4.265621 -2.25 6.671871q-2.25 2.40625 -6.265625 2.40625q-2.515625 0 -4.4375 -1.09375q-1.921875 -1.109375 -2.953125 -3.171875q-1.03125 -2.0625 -1.03125 -4.812496q0 -4.28125 2.234375 -6.65625q2.234375 -2.375 6.28125 -2.375q2.515625 0 4.4375 1.09375q1.921875 1.09375 2.953125 3.140625q1.03125 2.046875 1.03125 4.796875zm20.0625 8.765621l-4.765625 0l0 -10.203121q0 -1.890625 -0.671875 -2.828125q-0.671875 -0.953125 -2.140625 -0.953125q-2.0 0 -2.890625 1.34375q-0.890625 1.328125 -0.890625 4.421875l0 8.218746l-4.765625 0l0 -17.468746l3.640625 0l0.640625 2.234375l0.265625 0q0.796875 -1.265625 2.1875 -1.90625q1.40625 -0.65625 3.1875 -0.65625q3.046875 0 4.625 1.65625q1.578125 1.640625 1.578125 4.75l0 11.390621zm12.0 0.3125q-8.15625 0 -8.15625 -8.953121q0 -4.453125 2.21875 -6.796875q2.21875 -2.359375 6.359375 -2.359375q3.03125 0 5.4375 1.1875l-1.40625 3.6875q-1.125 -0.453125 -2.09375 -0.734375q-0.96875 -0.296875 -1.9375 -0.296875q-3.71875 0 -3.71875 5.28125q0 5.124996 3.71875 5.124996q1.375 0 2.546875 -0.359375q1.171875 -0.375 2.34375 -1.15625l0 4.078125q-1.15625 0.734375 -2.34375 1.015625q-1.171875 0.28125 -2.96875 0.28125zm16.59375 -14.718746q-1.515625 0 -2.375 0.96875q-0.859375 0.953125 -0.984375 2.71875l6.6875 0q-0.03125 -1.765625 -0.921875 -2.71875q-0.890625 -0.96875 -2.40625 -0.96875zm0.671875 14.718746q-4.21875 0 -6.59375 -2.328125q-2.375 -2.328125 -2.375 -6.593746q0 -4.390625 2.1875 -6.78125q2.203125 -2.40625 6.078125 -2.40625q3.703125 0 5.765625 2.109375q2.0625 2.109375 2.0625 5.828125l0 2.3125l-11.265625 0q0.078125 2.0312462 1.203125 3.1718712q1.125 1.140625 3.15625 1.140625q1.578125 0 2.984375 -0.328125q1.40625 -0.328125 2.9375 -1.046875l0 3.6875q-1.25 0.625 -2.671875 0.921875q-1.421875 0.3125 -3.46875 0.3125zm20.75 -18.109371q0.96875 0 1.609375 0.140625l-0.359375 4.46875q-0.578125 -0.15625 -1.40625 -0.15625q-2.28125 0 -3.5625 1.171875q-1.265625 1.171875 -1.265625 3.28125l0 8.890621l-4.765625 0l0 -17.468746l3.609375 0l0.703125 2.9375l0.234375 0q0.8125 -1.46875 2.1875 -2.359375q1.390625 -0.90625 3.015625 -0.90625zm20.90625 17.796871l-4.765625 0l0 -10.203121q0 -1.890625 -0.671875 -2.828125q-0.671875 -0.953125 -2.140625 -0.953125q-2.0 0 -2.890625 1.34375q-0.890625 1.328125 -0.890625 4.421875l0 8.218746l-4.765625 0l0 -17.468746l3.640625 0l0.640625 2.234375l0.265625 0q0.796875 -1.265625 2.1875 -1.90625q1.40625 -0.65625 3.1875 -0.65625q3.046875 0 4.625 1.65625q1.578125 1.640625 1.578125 4.75l0 11.390621zm17.09375 -5.1875q0 2.6875 -1.875 4.09375q-1.859375 1.40625 -5.578125 1.40625q-1.90625 0 -3.25 -0.265625q-1.34375 -0.25 -2.515625 -0.75l0 -3.9375q1.328125 0.625 2.984375 1.046875q1.671875 0.421875 2.9375 0.421875q2.59375 0 2.59375 -1.5q0 -0.5625 -0.34375 -0.90625q-0.34375 -0.359375 -1.1875 -0.796875q-0.84375 -0.4531212 -2.25 -1.0468712q-2.015625 -0.84375 -2.96875 -1.5625q-0.9375 -0.71875 -1.375 -1.640625q-0.421875 -0.9375 -0.421875 -2.296875q0 -2.328125 1.796875 -3.59375q1.8125 -1.28125 5.125 -1.28125q3.15625 0 6.140625 1.375l-1.4375 3.4375q-1.3125 -0.5625 -2.453125 -0.921875q-1.140625 -0.359375 -2.328125 -0.359375q-2.109375 0 -2.109375 1.140625q0 0.640625 0.671875 1.109375q0.6875 0.46875 2.984375 1.390625q2.046875 0.828125 3.0 1.546875q0.953125 0.71875 1.40625 1.65625q0.453125 0.9375 0.453125 2.2343712z" fill-rule="nonzero"></path><path fill="#000000" d="m163.62495 86.42066q0 -2.328125 2.59375 -2.328125q2.59375 0 2.59375 2.328125q0 1.109375 -0.65625 1.734375q-0.640625 0.609375 -1.9375 0.609375q-2.59375 0 -2.59375 -2.34375zm4.96875 21.984375l-4.765625 0l0 -17.46875l4.765625 0l0 17.46875zm21.125 0l-4.765625 0l0 -10.203125q0 -1.890625 -0.671875 -2.828125q-0.671875 -0.953125 -2.140625 -0.953125q-2.0 0 -2.890625 1.34375q-0.890625 1.328125 -0.890625 4.421875l0 8.21875l-4.765625 0l0 -17.46875l3.640625 0l0.640625 2.234375l0.265625 0q0.796875 -1.265625 2.1875 -1.90625q1.40625 -0.65625 3.1875 -0.65625q3.046875 0 4.625 1.65625q1.578125 1.640625 1.578125 4.75l0 11.390625zm20.578125 -3.484375q1.25 0 3.0 -0.546875l0 3.546875q-1.78125 0.796875 -4.375 0.796875q-2.859375 0 -4.171875 -1.4375q-1.296875 -1.453125 -1.296875 -4.34375l0 -8.421875l-2.28125 0l0 -2.015625l2.625 -1.59375l1.375 -3.6875l3.046875 0l0 3.71875l4.890625 0l0 3.578125l-4.890625 0l0 8.421875q0 1.015625 0.5625 1.5q0.578125 0.484375 1.515625 0.484375zm22.65625 3.484375l-4.765625 0l0 -10.203125q0 -3.78125 -2.8125 -3.78125q-2.0 0 -2.890625 1.359375q-0.890625 1.359375 -0.890625 4.40625l0 8.21875l-4.765625 0l0 -24.3125l4.765625 0l0 4.953125q0 0.578125 -0.109375 2.71875l-0.109375 1.40625l0.25 0q1.59375 -2.5625 5.0625 -2.5625q3.078125 0 4.671875 1.65625q1.59375 1.65625 1.59375 4.75l0 11.390625zm12.140625 -14.40625q-1.515625 0 -2.375 0.96875q-0.859375 0.953125 -0.984375 2.71875l6.6875 0q-0.03125 -1.765625 -0.921875 -2.71875q-0.890625 -0.96875 -2.40625 -0.96875zm0.671875 14.71875q-4.21875 0 -6.59375 -2.328125q-2.375 -2.328125 -2.375 -6.59375q0 -4.390625 2.1875 -6.78125q2.203125 -2.40625 6.078125 -2.40625q3.703125 0 5.765625 2.109375q2.0625 2.109375 2.0625 5.828125l0 2.3125l-11.265625 0q0.078125 2.03125 1.203125 3.171875q1.125 1.140625 3.15625 1.140625q1.578125 0 2.984375 -0.328125q1.40625 -0.328125 2.9375 -1.046875l0 3.6875q-1.25 0.625 -2.671875 0.921875q-1.421875 0.3125 -3.46875 0.3125zm41.937515 -0.3125l-5.515625 0l-3.09375 -12.0q-0.171875 -0.640625 -0.59375 -2.640625q-0.40625 -2.015625 -0.46875 -2.703125q-0.09375 0.84375 -0.46875 2.71875q-0.375 1.859375 -0.578125 2.65625l-3.078125 11.96875l-5.5 0l-5.828125 -22.84375l4.765625 0l2.921875 12.46875q0.765625 3.453125 1.109375 5.984375q0.09375 -0.890625 0.421875 -2.75q0.34375 -1.875 0.640625 -2.90625l3.328125 -12.796875l4.578125 0l3.328125 12.796875q0.21875 0.859375 0.546875 2.625q0.328125 1.765625 0.5 3.03125q0.15625 -1.21875 0.5 -3.03125q0.34375 -1.828125 0.625 -2.953125l2.90625 -12.46875l4.765625 0l-5.8125 22.84375zm15.546875 -14.40625q-1.515625 0 -2.375 0.96875q-0.859375 0.953125 -0.984375 2.71875l6.6875 0q-0.03125 -1.765625 -0.921875 -2.71875q-0.890625 -0.96875 -2.40625 -0.96875zm0.671875 14.71875q-4.21875 0 -6.59375 -2.328125q-2.375 -2.328125 -2.375 -6.59375q0 -4.390625 2.1875 -6.78125q2.203125 -2.40625 6.078125 -2.40625q3.703125 0 5.765625 2.109375q2.0625 2.109375 2.0625 5.828125l0 2.3125l-11.265625 0q0.078125 2.03125 1.203125 3.171875q1.125 1.140625 3.15625 1.140625q1.578125 0 2.984375 -0.328125q1.40625 -0.328125 2.9375 -1.046875l0 3.6875q-1.25 0.625 -2.671875 0.921875q-1.421875 0.3125 -3.46875 0.3125zm20.71875 -18.109375q3.09375 0 4.84375 2.421875q1.75 2.40625 1.75 6.609375q0 4.328125 -1.8125 6.703125q-1.796875 2.375 -4.90625 2.375q-3.078125 0 -4.828125 -2.234375l-0.328125 0l-0.796875 1.921875l-3.640625 0l0 -24.3125l4.765625 0l0 5.65625q0 1.078125 -0.1875 3.453125l0.1875 0q1.671875 -2.59375 4.953125 -2.59375zm-1.53125 3.8125q-1.765625 0 -2.578125 1.09375q-0.8125 1.078125 -0.84375 3.578125l0 0.515625q0 2.8125 0.828125 4.03125q0.84375 1.21875 2.65625 1.21875q1.46875 0 2.328125 -1.34375q0.875 -1.359375 0.875 -3.9375q0 -2.578125 -0.875 -3.859375q-0.875 -1.296875 -2.390625 -1.296875z" fill-rule="nonzero"></path></g></svg>

