<?xml version="1.0" standalone="yes"?>

<svg version="1.1" viewBox="0.0 0.0 960.0 720.0" fill="none" stroke="none" stroke-linecap="square" stroke-miterlimit="10" xmlns="http://www.w3.org/2000/svg" xmlns:xlink="http://www.w3.org/1999/xlink"><clipPath id="p.0"><path d="m0 0l960.0 0l0 720.0l-960.0 0l0 -720.0z" clip-rule="nonzero"></path></clipPath><g clip-path="url(#p.0)"><path fill="#000000" fill-opacity="0.0" d="m0 0l960.0 0l0 720.0l-960.0 0z" fill-rule="evenodd"></path><path fill="#cfe2f3" d="m493.01837 69.019684l0 0c0 -16.530128 25.684265 -29.930447 57.36743 -29.930447c31.683167 0 57.367493 13.400318 57.367493 29.930447l0 119.72179c0 16.53012 -25.684326 29.93045 -57.367493 29.93045c-31.683167 0 -57.36743 -13.40033 -57.36743 -29.93045z" fill-rule="evenodd"></path><path fill="#000000" fill-opacity="0.0" d="m607.7533 69.019684l0 0c0 16.530128 -25.684326 29.93045 -57.367493 29.93045c-31.683167 0 -57.36743 -13.400322 -57.36743 -29.93045" fill-rule="evenodd"></path><path fill="#000000" fill-opacity="0.0" d="m493.01837 69.019684l0 0c0 -16.530128 25.684265 -29.930447 57.36743 -29.930447c31.683167 0 57.367493 13.400318 57.367493 29.930447l0 119.72179c0 16.53012 -25.684326 29.93045 -57.367493 29.93045c-31.683167 0 -57.36743 -13.40033 -57.36743 -29.93045z" fill-rule="evenodd"></path><path stroke="#000000" stroke-width="1.0" stroke-linejoin="round" stroke-linecap="butt" d="m607.7533 69.019684l0 0c0 16.530128 -25.684326 29.93045 -57.367493 29.93045c-31.683167 0 -57.36743 -13.400322 -57.36743 -29.93045" fill-rule="evenodd"></path><path stroke="#000000" stroke-width="1.0" stroke-linejoin="round" stroke-linecap="butt" d="m493.01837 69.019684l0 0c0 -16.530128 25.684265 -29.930447 57.36743 -29.930447c31.683167 0 57.367493 13.400318 57.367493 29.930447l0 119.72179c0 16.53012 -25.684326 29.93045 -57.367493 29.93045c-31.683167 0 -57.36743 -13.40033 -57.36743 -29.93045z" fill-rule="evenodd"></path><path fill="#b6d7a8" d="m674.2402 401.66928c2.4505005 0 4.4370117 -1.9865112 4.4370117 -4.4370117l-4.4370117 0c1.2252197 0 2.2185059 -0.9932556 2.2185059 -2.2184753c0 -1.2252502 -0.99328613 -2.2185059 -2.2185059 -2.2185059l4.4370117 0l0 -57.68112l0 0c0 -2.45047 1.9865112 -4.4370117 4.4370117 -4.4370117l131.88977 0c2.4504395 0 4.4369507 1.9865417 4.4369507 4.4370117c0 2.4505005 -1.9865112 4.4370117 -4.4369507 4.4370117l-4.4370117 0l0 57.68109c0 2.4505005 -1.9865723 4.4370117 -4.4370117 4.4370117zm13.311035 -66.555115l0 0c0 2.4505005 -1.9865723 4.4370117 -4.4370117 4.4370117c-1.2252808 0 -2.2185059 -0.9932556 -2.2185059 -2.2185059c0 -1.2252502 0.9932251 -2.2185059 2.2185059 -2.2185059z" fill-rule="evenodd"></path><path fill="#91ab86" d="m687.5512 335.11417l0 0c0 2.4505005 -1.9865723 4.4370117 -4.4370117 4.4370117c-1.2252808 0 -2.2185059 -0.9932556 -2.2185059 -2.2185059c0 -1.2252502 0.9932251 -2.2185059 2.2185059 -2.2185059zm-8.874023 62.118103c0 2.4505005 -1.9865112 4.4370117 -4.4370117 4.4370117c-2.4505005 0 -4.4370117 -1.9865112 -4.4370117 -4.4370117c0 -2.45047 1.9865112 -4.436981 4.4370117 -4.436981l0 0c1.2252197 0 2.2185059 0.9932556 2.2185059 2.2185059c0 1.2252197 -0.99328613 2.2184753 -2.2185059 2.2184753z" fill-rule="evenodd"></path><path fill="#000000" fill-opacity="0.0" d="m678.6772 392.7953l0 -57.68112l0 0c0 -2.45047 1.9865112 -4.4370117 4.4370117 -4.4370117l131.88977 0c2.4504395 0 4.4369507 1.9865417 4.4369507 4.4370117c0 2.4505005 -1.9865112 4.4370117 -4.4369507 4.4370117l-4.4370117 0l0 57.68109c0 2.4505005 -1.9865723 4.4370117 -4.4370117 4.4370117l-131.88977 0c-2.4505005 0 -4.4370117 -1.9865112 -4.4370117 -4.4370117c0 -2.45047 1.9865112 -4.436981 4.4370117 -4.436981zm4.4370117 -62.118134l0 0c2.4504395 0 4.4370117 1.9865417 4.4370117 4.4370117c0 2.4505005 -1.9865723 4.4370117 -4.4370117 4.4370117c-1.2252808 0 -2.2185059 -0.9932556 -2.2185059 -2.2185059c0 -1.2252502 0.9932251 -2.2185059 2.2185059 -2.2185059l4.4370117 0m123.01575 4.4370117l-127.45276 0m-8.874023 53.24411l0 0c1.2252197 0 2.2185059 0.9932556 2.2185059 2.2185059c0 1.2252197 -0.99328613 2.2184753 -2.2185059 2.2184753l4.4370117 0m-4.4370117 4.4370117c2.4505005 0 4.4370117 -1.9865112 4.4370117 -4.4370117l0 -4.436981" fill-rule="evenodd"></path><path stroke="#000000" stroke-width="1.0" stroke-linejoin="round" stroke-linecap="butt" d="m678.6772 392.7953l0 -57.68112l0 0c0 -2.45047 1.9865112 -4.4370117 4.4370117 -4.4370117l131.88977 0c2.4504395 0 4.4369507 1.9865417 4.4369507 4.4370117c0 2.4505005 -1.9865112 4.4370117 -4.4369507 4.4370117l-4.4370117 0l0 57.68109c0 2.4505005 -1.9865723 4.4370117 -4.4370117 4.4370117l-131.88977 0c-2.4505005 0 -4.4370117 -1.9865112 -4.4370117 -4.4370117c0 -2.45047 1.9865112 -4.436981 4.4370117 -4.436981zm4.4370117 -62.118134l0 0c2.4504395 0 4.4370117 1.9865417 4.4370117 4.4370117c0 2.4505005 -1.9865723 4.4370117 -4.4370117 4.4370117c-1.2252808 0 -2.2185059 -0.9932556 -2.2185059 -2.2185059c0 -1.2252502 0.9932251 -2.2185059 2.2185059 -2.2185059l4.4370117 0m123.01575 4.4370117l-127.45276 0m-8.874023 53.24411l0 0c1.2252197 0 2.2185059 0.9932556 2.2185059 2.2185059c0 1.2252197 -0.99328613 2.2184753 -2.2185059 2.2184753l4.4370117 0m-4.4370117 4.4370117c2.4505005 0 4.4370117 -1.9865112 4.4370117 -4.4370117l0 -4.436981" fill-rule="evenodd"></path><path fill="#000000" d="m718.9429 375.31174l-1.65625 -4.234375l-5.34375 0l-1.640625 4.234375l-1.5625 0l5.265625 -13.375l1.296875 0l5.25 13.375l-1.609375 0zm-2.140625 -5.625l-1.546875 -4.125q-0.296875 -0.796875 -0.625 -1.921875q-0.203125 0.875 -0.578125 1.921875l-1.5625 4.125l4.3125 0zm9.993408 5.8125q-0.96875 0 -1.78125 -0.359375q-0.8125 -0.359375 -1.359375 -1.109375l-0.109375 0q0.109375 0.875 0.109375 1.65625l0 4.109375l-1.5 0l0 -14.46875l1.21875 0l0.21875 1.359375l0.0625 0q0.59375 -0.8125 1.359375 -1.171875q0.78125 -0.375 1.78125 -0.375q1.984375 0 3.0625 1.359375q1.078125 1.359375 1.078125 3.8125q0 2.453125 -1.09375 3.828125q-1.09375 1.359375 -3.046875 1.359375zm-0.21875 -9.0625q-1.53125 0 -2.21875 0.84375q-0.671875 0.84375 -0.703125 2.6875l0 0.34375q0 2.109375 0.703125 3.015625q0.703125 0.90625 2.25 0.90625q1.296875 0 2.03125 -1.046875q0.734375 -1.046875 0.734375 -2.890625q0 -1.875 -0.734375 -2.859375q-0.734375 -1.0 -2.0625 -1.0zm11.651184 9.0625q-0.96875 0 -1.78125 -0.359375q-0.8125 -0.359375 -1.359375 -1.109375l-0.109375 0q0.109375 0.875 0.109375 1.65625l0 4.109375l-1.5 0l0 -14.46875l1.21875 0l0.21875 1.359375l0.0625 0q0.59375 -0.8125 1.359375 -1.171875q0.78125 -0.375 1.78125 -0.375q1.984375 0 3.0625 1.359375q1.078125 1.359375 1.078125 3.8125q0 2.453125 -1.09375 3.828125q-1.09375 1.359375 -3.046875 1.359375zm-0.21875 -9.0625q-1.53125 0 -2.21875 0.84375q-0.671875 0.84375 -0.703125 2.6875l0 0.34375q0 2.109375 0.703125 3.015625q0.703125 0.90625 2.25 0.90625q1.296875 0 2.03125 -1.046875q0.734375 -1.046875 0.734375 -2.890625q0 -1.875 -0.734375 -2.859375q-0.734375 -1.0 -2.0625 -1.0zm17.778625 -3.25q-2.1875 0 -3.46875 1.46875q-1.265625 1.453125 -1.265625 4.0q0 2.609375 1.21875 4.046875q1.234375 1.421875 3.5 1.421875q1.390625 0 3.171875 -0.5l0 1.34375q-1.375 0.53125 -3.40625 0.53125q-2.9375 0 -4.546875 -1.78125q-1.59375 -1.796875 -1.59375 -5.078125q0 -2.0625 0.765625 -3.609375q0.765625 -1.546875 2.21875 -2.390625q1.453125 -0.84375 3.421875 -0.84375q2.09375 0 3.671875 0.765625l-0.65625 1.328125q-1.515625 -0.703125 -3.03125 -0.703125zm13.58197 8.578125q0 1.765625 -1.28125 2.75q-1.265625 0.984375 -3.453125 0.984375q-2.375 0 -3.640625 -0.609375l0 -1.5q0.8125 0.34375 1.78125 0.546875q0.96875 0.203125 1.921875 0.203125q1.546875 0 2.328125 -0.578125q0.78125 -0.59375 0.78125 -1.640625q0 -0.703125 -0.28125 -1.140625q-0.28125 -0.4375 -0.9375 -0.8125q-0.640625 -0.375 -1.96875 -0.84375q-1.859375 -0.671875 -2.65625 -1.578125q-0.796875 -0.921875 -0.796875 -2.375q0 -1.546875 1.15625 -2.453125q1.15625 -0.921875 3.0625 -0.921875q1.984375 0 3.65625 0.734375l-0.484375 1.34375q-1.65625 -0.6875 -3.21875 -0.6875q-1.21875 0 -1.921875 0.53125q-0.6875 0.53125 -0.6875 1.46875q0 0.6875 0.25 1.140625q0.265625 0.4375 0.859375 0.8125q0.609375 0.359375 1.859375 0.796875q2.09375 0.75 2.875 1.609375q0.796875 0.859375 0.796875 2.21875zm10.239075 0q0 1.765625 -1.28125 2.75q-1.265625 0.984375 -3.453125 0.984375q-2.375 0 -3.640625 -0.609375l0 -1.5q0.8125 0.34375 1.78125 0.546875q0.96875 0.203125 1.921875 0.203125q1.546875 0 2.328125 -0.578125q0.78125 -0.59375 0.78125 -1.640625q0 -0.703125 -0.28125 -1.140625q-0.28125 -0.4375 -0.9375 -0.8125q-0.640625 -0.375 -1.96875 -0.84375q-1.859375 -0.671875 -2.65625 -1.578125q-0.796875 -0.921875 -0.796875 -2.375q0 -1.546875 1.15625 -2.453125q1.15625 -0.921875 3.0625 -0.921875q1.984375 0 3.65625 0.734375l-0.484375 1.34375q-1.65625 -0.6875 -3.21875 -0.6875q-1.21875 0 -1.921875 0.53125q-0.6875 0.53125 -0.6875 1.46875q0 0.6875 0.25 1.140625q0.265625 0.4375 0.859375 0.8125q0.609375 0.359375 1.859375 0.796875q2.09375 0.75 2.875 1.609375q0.796875 0.859375 0.796875 2.21875z" fill-rule="nonzero"></path><path fill="#ffe599" d="m224.10892 462.26773c6.1990814 0 11.224411 -5.02536 11.224411 -11.224426l-11.224411 0c3.0995483 0 5.612213 -2.5126648 5.612213 -5.612213c0 -3.0995178 -2.5126648 -5.6121826 -5.612213 -5.6121826l11.224411 0l0 -145.91733l0 0c0 -6.199066 5.025345 -11.224426 11.224411 -11.224426l137.3071 0c6.199066 0 11.224396 5.02536 11.224396 11.224426c0 6.199066 -5.0253296 11.224396 -11.224396 11.224396l-11.224426 0l0 145.91733c0 6.199066 -5.0253296 11.224426 -11.224396 11.224426zm33.67325 -168.36615l0 0c0 6.199066 -5.02536 11.224396 -11.224426 11.224396c-3.099533 0 -5.612198 -2.5126648 -5.612198 -5.6121826c0 -3.0995483 2.5126648 -5.612213 5.612198 -5.612213z" fill-rule="evenodd"></path><path fill="#cbb77a" d="m257.78217 293.90158l0 0c0 6.199066 -5.02536 11.224396 -11.224426 11.224396c-3.099533 0 -5.612198 -2.5126648 -5.612198 -5.6121826c0 -3.0995483 2.5126648 -5.612213 5.612198 -5.612213zm-22.448837 157.14172c0 6.199066 -5.0253296 11.224426 -11.224411 11.224426c-6.199066 0 -11.224396 -5.02536 -11.224396 -11.224426c0 -6.199066 5.0253296 -11.224396 11.224396 -11.224396l0 0c3.0995483 0 5.612213 2.5126648 5.612213 5.6121826c0 3.0995483 -2.5126648 5.612213 -5.612213 5.612213z" fill-rule="evenodd"></path><path fill="#000000" fill-opacity="0.0" d="m235.33333 439.8189l0 -145.91733l0 0c0 -6.199066 5.025345 -11.224426 11.224411 -11.224426l137.3071 0c6.199066 0 11.224396 5.02536 11.224396 11.224426c0 6.199066 -5.0253296 11.224396 -11.224396 11.224396l-11.224426 0l0 145.91733c0 6.199066 -5.0253296 11.224426 -11.224396 11.224426l-137.3071 0c-6.199066 0 -11.224396 -5.02536 -11.224396 -11.224426c0 -6.199066 5.0253296 -11.224396 11.224396 -11.224396zm11.224411 -157.14175l0 0c6.199066 0 11.224426 5.02536 11.224426 11.224426c0 6.199066 -5.02536 11.224396 -11.224426 11.224396c-3.099533 0 -5.612198 -2.5126648 -5.612198 -5.6121826c0 -3.0995483 2.5126648 -5.612213 5.612198 -5.612213l11.224426 0m114.858246 11.224396l-126.08267 0m-22.448822 134.69293l0 0c3.0995483 0 5.612213 2.5126648 5.612213 5.6121826c0 3.0995483 -2.5126648 5.612213 -5.612213 5.612213l11.224411 0m-11.224411 11.224426c6.1990814 0 11.224411 -5.02536 11.224411 -11.224426l0 -11.224396" fill-rule="evenodd"></path><path stroke="#000000" stroke-width="1.0" stroke-linejoin="round" stroke-linecap="butt" d="m235.33333 439.8189l0 -145.91733l0 0c0 -6.199066 5.025345 -11.224426 11.224411 -11.224426l137.3071 0c6.199066 0 11.224396 5.02536 11.224396 11.224426c0 6.199066 -5.0253296 11.224396 -11.224396 11.224396l-11.224426 0l0 145.91733c0 6.199066 -5.0253296 11.224426 -11.224396 11.224426l-137.3071 0c-6.199066 0 -11.224396 -5.02536 -11.224396 -11.224426c0 -6.199066 5.0253296 -11.224396 11.224396 -11.224396zm11.224411 -157.14175l0 0c6.199066 0 11.224426 5.02536 11.224426 11.224426c0 6.199066 -5.02536 11.224396 -11.224426 11.224396c-3.099533 0 -5.612198 -2.5126648 -5.612198 -5.6121826c0 -3.0995483 2.5126648 -5.612213 5.612198 -5.612213l11.224426 0m114.858246 11.224396l-126.08267 0m-22.448822 134.69293l0 0c3.0995483 0 5.612213 2.5126648 5.612213 5.6121826c0 3.0995483 -2.5126648 5.612213 -5.612213 5.612213l11.224411 0m-11.224411 11.224426c6.1990814 0 11.224411 -5.02536 11.224411 -11.224426l0 -11.224396" fill-rule="evenodd"></path><path fill="#000000" d="m259.9948 372.87964q-2.1875 0 -3.46875 1.46875q-1.265625 1.453125 -1.265625 4.0q0 2.609375 1.21875 4.046875q1.234375 1.421875 3.5 1.421875q1.390625 0 3.171875 -0.5l0 1.34375q-1.375 0.53125 -3.40625 0.53125q-2.9375 0 -4.546875 -1.78125q-1.59375 -1.796875 -1.59375 -5.078125q0 -2.0625 0.765625 -3.609375q0.765625 -1.546875 2.21875 -2.390625q1.453125 -0.84375 3.421875 -0.84375q2.09375 0 3.671875 0.765625l-0.65625 1.328125q-1.515625 -0.703125 -3.03125 -0.703125zm14.45697 7.125q0 2.4375 -1.234375 3.8125q-1.21875 1.375 -3.390625 1.375q-1.34375 0 -2.390625 -0.625q-1.03125 -0.640625 -1.59375 -1.8125q-0.5625 -1.171875 -0.5625 -2.75q0 -2.4375 1.21875 -3.796875q1.21875 -1.375 3.390625 -1.375q2.09375 0 3.328125 1.40625q1.234375 1.390625 1.234375 3.765625zm-7.609375 0q0 1.90625 0.765625 2.921875q0.765625 1.0 2.25 1.0q1.484375 0 2.25 -1.0q0.78125 -1.0 0.78125 -2.921875q0 -1.90625 -0.78125 -2.890625q-0.765625 -0.984375 -2.265625 -0.984375q-1.484375 0 -2.25 0.96875q-0.75 0.96875 -0.75 2.90625zm22.987183 5.0l0 -6.5q0 -1.1875 -0.515625 -1.78125q-0.5 -0.59375 -1.578125 -0.59375q-1.40625 0 -2.09375 0.8125q-0.671875 0.796875 -0.671875 2.484375l0 5.578125l-1.5 0l0 -6.5q0 -1.1875 -0.515625 -1.78125q-0.515625 -0.59375 -1.59375 -0.59375q-1.421875 0 -2.09375 0.859375q-0.65625 0.84375 -0.65625 2.78125l0 5.234375l-1.5 0l0 -9.984375l1.21875 0l0.25 1.359375l0.078125 0q0.421875 -0.71875 1.203125 -1.125q0.78125 -0.421875 1.75 -0.421875q2.328125 0 3.0625 1.703125l0.0625 0q0.453125 -0.78125 1.296875 -1.234375q0.84375 -0.46875 1.9375 -0.46875q1.6875 0 2.53125 0.875q0.84375 0.875 0.84375 2.78125l0 6.515625l-1.515625 0zm9.275482 0.1875q-0.96875 0 -1.78125 -0.359375q-0.8125 -0.359375 -1.359375 -1.109375l-0.109375 0q0.109375 0.875 0.109375 1.65625l0 4.109375l-1.5 0l0 -14.46875l1.21875 0l0.21875 1.359375l0.0625 0q0.59375 -0.8125 1.359375 -1.171875q0.78125 -0.375 1.78125 -0.375q1.984375 0 3.0625 1.359375q1.078125 1.359375 1.078125 3.8125q0 2.453125 -1.09375 3.828125q-1.09375 1.359375 -3.046875 1.359375zm-0.21875 -9.0625q-1.53125 0 -2.21875 0.84375q-0.671875 0.84375 -0.703125 2.6875l0 0.34375q0 2.109375 0.703125 3.015625q0.703125 0.90625 2.25 0.90625q1.296875 0 2.03125 -1.046875q0.734375 -1.046875 0.734375 -2.890625q0 -1.875 -0.734375 -2.859375q-0.734375 -1.0 -2.0625 -1.0zm15.619904 3.875q0 2.4375 -1.234375 3.8125q-1.21875 1.375 -3.390625 1.375q-1.34375 0 -2.390625 -0.625q-1.03125 -0.640625 -1.59375 -1.8125q-0.5625 -1.171875 -0.5625 -2.75q0 -2.4375 1.21875 -3.796875q1.21875 -1.375 3.390625 -1.375q2.09375 0 3.328125 1.40625q1.234375 1.390625 1.234375 3.765625zm-7.609375 0q0 1.90625 0.765625 2.921875q0.765625 1.0 2.25 1.0q1.484375 0 2.25 -1.0q0.78125 -1.0 0.78125 -2.921875q0 -1.90625 -0.78125 -2.890625q-0.765625 -0.984375 -2.265625 -0.984375q-1.484375 0 -2.25 0.96875q-0.75 0.96875 -0.75 2.90625zm17.096588 5.0l0 -6.453125q0 -1.21875 -0.5625 -1.8125q-0.546875 -0.609375 -1.734375 -0.609375q-1.5625 0 -2.296875 0.84375q-0.734375 0.84375 -0.734375 2.796875l0 5.234375l-1.5 0l0 -9.984375l1.21875 0l0.25 1.359375l0.078125 0q0.453125 -0.734375 1.296875 -1.140625q0.84375 -0.40625 1.875 -0.40625q1.796875 0 2.703125 0.875q0.921875 0.875 0.921875 2.78125l0 6.515625l-1.515625 0zm8.841248 0.1875q-2.21875 0 -3.5 -1.34375q-1.28125 -1.359375 -1.28125 -3.75q0 -2.421875 1.1875 -3.84375q1.1875 -1.421875 3.1875 -1.421875q1.890625 0 2.96875 1.234375q1.09375 1.234375 1.09375 3.265625l0 0.953125l-6.875 0q0.046875 1.765625 0.890625 2.671875q0.84375 0.90625 2.375 0.90625q1.609375 0 3.1875 -0.671875l0 1.34375q-0.796875 0.34375 -1.515625 0.5q-0.71875 0.15625 -1.71875 0.15625zm-0.421875 -9.09375q-1.203125 0 -1.921875 0.796875q-0.703125 0.78125 -0.828125 2.15625l5.21875 0q0 -1.421875 -0.640625 -2.1875q-0.640625 -0.765625 -1.828125 -0.765625zm13.498077 8.90625l0 -6.453125q0 -1.21875 -0.5625 -1.8125q-0.546875 -0.609375 -1.734375 -0.609375q-1.5625 0 -2.296875 0.84375q-0.734375 0.84375 -0.734375 2.796875l0 5.234375l-1.5 0l0 -9.984375l1.21875 0l0.25 1.359375l0.078125 0q0.453125 -0.734375 1.296875 -1.140625q0.84375 -0.40625 1.875 -0.40625q1.796875 0 2.703125 0.875q0.921875 0.875 0.921875 2.78125l0 6.515625l-1.515625 0zm7.8412476 -1.0625q0.40625 0 0.765625 -0.0625q0.375 -0.0625 0.59375 -0.125l0 1.15625q-0.234375 0.125 -0.71875 0.203125q-0.484375 0.078125 -0.859375 0.078125q-2.890625 0 -2.890625 -3.0625l0 -5.9375l-1.4375 0l0 -0.71875l1.4375 -0.640625l0.625 -2.125l0.875 0l0 2.3125l2.90625 0l0 1.171875l-2.90625 0l0 5.875q0 0.90625 0.421875 1.390625q0.4375 0.484375 1.1875 0.484375z" fill-rule="nonzero"></path><path fill="#000000" fill-opacity="0.0" d="m550.3858 218.67192l0 79.999985" fill-rule="evenodd"></path><path stroke="#000000" stroke-width="4.0" stroke-linejoin="round" stroke-linecap="butt" d="m550.3858 218.67192l0 55.999985" fill-rule="evenodd"></path><path fill="#000000" stroke="#000000" stroke-width="4.0" stroke-linecap="butt" d="m543.7789 274.6719l6.6069336 18.152405l6.6069336 -18.152405z" fill-rule="evenodd"></path><path fill="#000000" fill-opacity="0.0" d="m679.34644 364.47244l-54.141724 0" fill-rule="evenodd"></path><path stroke="#000000" stroke-width="4.0" stroke-linejoin="round" stroke-linecap="butt" d="m679.34644 364.47244l-30.141724 0" fill-rule="evenodd"></path><path fill="#000000" stroke="#000000" stroke-width="4.0" stroke-linecap="butt" d="m649.2047 357.8655l-18.152405 6.6069336l18.152405 6.6069336z" fill-rule="evenodd"></path><path fill="#000000" fill-opacity="0.0" d="m415.34647 388.47244l58.2677 0" fill-rule="evenodd"></path><path stroke="#000000" stroke-width="4.0" stroke-linejoin="round" stroke-linecap="butt" d="m415.34647 388.47244l34.2677 0" fill-rule="evenodd"></path><path fill="#000000" stroke="#000000" stroke-width="4.0" stroke-linecap="butt" d="m449.61417 395.07938l18.152405 -6.6069336l-18.152405 -6.6069336z" fill-rule="evenodd"></path><path fill="#cfe2f3" d="m547.96063 531.8284l56.747192 -44.623444l-4.5186157 59.371185l59.373108 -26.772034l-27.742676 34.53131l89.008545 1.1613159l-78.692444 28.334167l21.911133 19.40326l-32.227234 10.482727l42.577454 34.140747l-72.24695 -13.175354l5.149536 31.037048l-47.09613 -14.747742l-9.685181 29.875732l-29.669556 -15.127991l-19.984253 24.069092l-20.001343 -16.309814l-44.504272 35.713135l-1.9097595 -34.53131l-60.021088 -4.2650146l34.87021 -25.230408l-56.78131 -25.620972l67.09741 -13.206177l-47.11313 -34.140747l71.61606 -4.6555176l-14.834747 -43.08191l69.02423 28.334167l19.984314 -46.195892z" fill-rule="evenodd"></path><path stroke="#000000" stroke-width="1.0" stroke-linejoin="round" stroke-linecap="butt" d="m547.96063 531.8284l56.747192 -44.623444l-4.5186157 59.371185l59.373108 -26.772034l-27.742676 34.53131l89.008545 1.1613159l-78.692444 28.334167l21.911133 19.40326l-32.227234 10.482727l42.577454 34.140747l-72.24695 -13.175354l5.149536 31.037048l-47.09613 -14.747742l-9.685181 29.875732l-29.669556 -15.127991l-19.984253 24.069092l-20.001343 -16.309814l-44.504272 35.713135l-1.9097595 -34.53131l-60.021088 -4.2650146l34.87021 -25.230408l-56.78131 -25.620972l67.09741 -13.206177l-47.11313 -34.140747l71.61606 -4.6555176l-14.834747 -43.08191l69.02423 28.334167l19.984314 -46.195892z" fill-rule="evenodd"></path><path fill="#000000" d="m474.00214 597.80273l-1.65625 -4.234375l-5.34375 0l-1.640625 4.234375l-1.5625 0l5.265625 -13.375l1.296875 0l5.25 13.375l-1.609375 0zm-2.140625 -5.625l-1.546875 -4.125q-0.296875 -0.796875 -0.625 -1.921875q-0.203125 0.875 -0.578125 1.921875l-1.5625 4.125l4.3125 0zm18.071533 5.625l0 -6.5q0 -1.1875 -0.515625 -1.78125q-0.5 -0.59375 -1.578125 -0.59375q-1.40625 0 -2.09375 0.8125q-0.671875 0.796875 -0.671875 2.484375l0 5.578125l-1.5 0l0 -6.5q0 -1.1875 -0.515625 -1.78125q-0.515625 -0.59375 -1.59375 -0.59375q-1.421875 0 -2.09375 0.859375q-0.65625 0.84375 -0.65625 2.78125l0 5.234375l-1.5 0l0 -9.984375l1.21875 0l0.25 1.359375l0.078125 0q0.421875 -0.71875 1.203125 -1.125q0.78125 -0.421875 1.75 -0.421875q2.328125 0 3.0625 1.703125l0.0625 0q0.453125 -0.78125 1.296875 -1.234375q0.84375 -0.46875 1.9375 -0.46875q1.6875 0 2.53125 0.875q0.84375 0.875 0.84375 2.78125l0 6.515625l-1.515625 0zm10.775482 0l-0.3125 -1.421875l-0.0625 0q-0.75 0.9375 -1.5 1.28125q-0.734375 0.328125 -1.84375 0.328125q-1.484375 0 -2.328125 -0.765625q-0.84375 -0.765625 -0.84375 -2.1875q0 -3.015625 4.828125 -3.171875l1.703125 -0.046875l0 -0.625q0 -1.171875 -0.515625 -1.734375q-0.5 -0.5625 -1.609375 -0.5625q-1.25 0 -2.828125 0.765625l-0.453125 -1.15625q0.734375 -0.390625 1.609375 -0.609375q0.875 -0.234375 1.765625 -0.234375q1.78125 0 2.640625 0.796875q0.859375 0.78125 0.859375 2.53125l0 6.8125l-1.109375 0zm-3.421875 -1.0625q1.40625 0 2.203125 -0.765625q0.8125 -0.78125 0.8125 -2.1875l0 -0.890625l-1.5 0.0625q-1.8125 0.0625 -2.609375 0.5625q-0.796875 0.484375 -0.796875 1.546875q0 0.8125 0.5 1.25q0.5 0.421875 1.390625 0.421875zm14.031952 1.0625l-7.234375 0l0 -1.03125l5.4375 -7.78125l-5.109375 0l0 -1.171875l6.78125 0l0 1.171875l-5.375 7.640625l5.5 0l0 1.171875zm3.8519287 0l-1.5 0l0 -9.984375l1.5 0l0 9.984375zm-1.640625 -12.6875q0 -0.515625 0.25 -0.75q0.265625 -0.25 0.65625 -0.25q0.359375 0 0.625 0.25q0.265625 0.234375 0.265625 0.75q0 0.515625 -0.265625 0.765625q-0.265625 0.25 -0.625 0.25q-0.390625 0 -0.65625 -0.25q-0.25 -0.25 -0.25 -0.765625zm11.687439 12.6875l0 -6.453125q0 -1.21875 -0.5625 -1.8125q-0.546875 -0.609375 -1.734375 -0.609375q-1.5625 0 -2.296875 0.84375q-0.734375 0.84375 -0.734375 2.796875l0 5.234375l-1.5 0l0 -9.984375l1.21875 0l0.25 1.359375l0.078125 0q0.453125 -0.734375 1.296875 -1.140625q0.84375 -0.40625 1.875 -0.40625q1.796875 0 2.703125 0.875q0.921875 0.875 0.921875 2.78125l0 6.515625l-1.515625 0zm12.794373 -9.984375l0 0.953125l-1.859375 0.21875q0.265625 0.328125 0.453125 0.84375q0.203125 0.515625 0.203125 1.15625q0 1.46875 -1.0 2.34375q-1.0 0.875 -2.75 0.875q-0.453125 0 -0.84375 -0.078125q-0.953125 0.515625 -0.953125 1.28125q0 0.40625 0.328125 0.609375q0.34375 0.203125 1.15625 0.203125l1.765625 0q1.625 0 2.484375 0.6875q0.875 0.671875 0.875 1.96875q0 1.65625 -1.328125 2.53125q-1.328125 0.875 -3.875 0.875q-1.953125 0 -3.015625 -0.734375q-1.0625 -0.71875 -1.0625 -2.0625q0 -0.90625 0.578125 -1.578125q0.578125 -0.65625 1.640625 -0.890625q-0.375 -0.171875 -0.640625 -0.53125q-0.265625 -0.375 -0.265625 -0.859375q0 -0.546875 0.296875 -0.953125q0.296875 -0.40625 0.921875 -0.796875q-0.78125 -0.3125 -1.265625 -1.078125q-0.484375 -0.765625 -0.484375 -1.75q0 -1.640625 0.984375 -2.53125q0.984375 -0.890625 2.78125 -0.890625q0.78125 0 1.421875 0.1875l3.453125 0zm-7.96875 11.65625q0 0.8125 0.671875 1.234375q0.6875 0.421875 1.96875 0.421875q1.90625 0 2.8125 -0.578125q0.921875 -0.5625 0.921875 -1.53125q0 -0.8125 -0.5 -1.140625q-0.5 -0.3125 -1.890625 -0.3125l-1.8125 0q-1.03125 0 -1.609375 0.484375q-0.5625 0.5 -0.5625 1.421875zm0.8125 -8.453125q0 1.046875 0.59375 1.578125q0.59375 0.53125 1.65625 0.53125q2.21875 0 2.21875 -2.140625q0 -2.25 -2.25 -2.25q-1.0625 0 -1.640625 0.578125q-0.578125 0.5625 -0.578125 1.703125zm25.895264 6.78125l-1.53125 0l-2.6875 -8.921875q-0.1875 -0.59375 -0.421875 -1.484375q-0.234375 -0.90625 -0.25 -1.09375q-0.203125 1.203125 -0.640625 2.640625l-2.609375 8.859375l-1.515625 0l-3.546875 -13.3125l1.640625 0l2.09375 8.21875q0.4375 1.734375 0.640625 3.140625q0.25 -1.671875 0.734375 -3.265625l2.390625 -8.09375l1.625 0l2.515625 8.171875q0.4375 1.40625 0.734375 3.1875q0.171875 -1.296875 0.65625 -3.15625l2.09375 -8.203125l1.640625 0l-3.5625 13.3125zm9.646606 0.1875q-2.21875 0 -3.5 -1.34375q-1.28125 -1.359375 -1.28125 -3.75q0 -2.421875 1.1875 -3.84375q1.1875 -1.421875 3.1875 -1.421875q1.890625 0 2.96875 1.234375q1.09375 1.234375 1.09375 3.265625l0 0.953125l-6.875 0q0.046875 1.765625 0.890625 2.671875q0.84375 0.90625 2.375 0.90625q1.609375 0 3.1875 -0.671875l0 1.34375q-0.796875 0.34375 -1.515625 0.5q-0.71875 0.15625 -1.71875 0.15625zm-0.421875 -9.09375q-1.203125 0 -1.921875 0.796875q-0.703125 0.78125 -0.828125 2.15625l5.21875 0q0 -1.421875 -0.640625 -2.1875q-0.640625 -0.765625 -1.828125 -0.765625zm11.310547 -1.234375q1.96875 0 3.046875 1.34375q1.09375 1.34375 1.09375 3.796875q0 2.453125 -1.09375 3.828125q-1.09375 1.359375 -3.046875 1.359375q-0.96875 0 -1.78125 -0.359375q-0.8125 -0.359375 -1.359375 -1.109375l-0.109375 0l-0.3125 1.28125l-1.078125 0l0 -14.171875l1.5 0l0 3.4375q0 1.15625 -0.0625 2.078125l0.0625 0q1.0625 -1.484375 3.140625 -1.484375zm-0.21875 1.265625q-1.546875 0 -2.234375 0.890625q-0.6875 0.875 -0.6875 2.984375q0 2.109375 0.703125 3.015625q0.703125 0.90625 2.25 0.90625q1.390625 0 2.078125 -1.015625q0.6875 -1.015625 0.6875 -2.921875q0 -1.953125 -0.6875 -2.90625q-0.6875 -0.953125 -2.109375 -0.953125z" fill-rule="nonzero"></path><path fill="#000000" d="m516.00146 619.80273l-1.65625 -4.234375l-5.3437195 0l-1.640625 4.234375l-1.5625 0l5.265625 -13.375l1.2968445 0l5.25 13.375l-1.609375 0zm-2.140625 -5.625l-1.546875 -4.125q-0.296875 -0.796875 -0.6249695 -1.921875q-0.203125 0.875 -0.578125 1.921875l-1.5625 4.125l4.3124695 0zm9.993408 5.8125q-0.96875 0 -1.78125 -0.359375q-0.8125 -0.359375 -1.359375 -1.109375l-0.109375 0q0.109375 0.875 0.109375 1.65625l0 4.109375l-1.5 0l0 -14.46875l1.21875 0l0.21875 1.359375l0.0625 0q0.59375 -0.8125 1.359375 -1.171875q0.78125 -0.375 1.78125 -0.375q1.984375 0 3.0625 1.359375q1.078125 1.359375 1.078125 3.8125q0 2.453125 -1.09375 3.828125q-1.09375 1.359375 -3.046875 1.359375zm-0.21875 -9.0625q-1.53125 0 -2.21875 0.84375q-0.671875 0.84375 -0.703125 2.6875l0 0.34375q0 2.109375 0.703125 3.015625q0.703125 0.90625 2.25 0.90625q1.296875 0 2.03125 -1.046875q0.734375 -1.046875 0.734375 -2.890625q0 -1.875 -0.734375 -2.859375q-0.734375 -1.0 -2.0625 -1.0zm11.651184 9.0625q-0.96875 0 -1.78125 -0.359375q-0.8125 -0.359375 -1.359375 -1.109375l-0.109375 0q0.109375 0.875 0.109375 1.65625l0 4.109375l-1.5 0l0 -14.46875l1.21875 0l0.21875 1.359375l0.0625 0q0.59375 -0.8125 1.359375 -1.171875q0.78125 -0.375 1.78125 -0.375q1.984375 0 3.0625 1.359375q1.078125 1.359375 1.078125 3.8125q0 2.453125 -1.09375 3.828125q-1.09375 1.359375 -3.046875 1.359375zm-0.21875 -9.0625q-1.53125 0 -2.21875 0.84375q-0.671875 0.84375 -0.703125 2.6875l0 0.34375q0 2.109375 0.703125 3.015625q0.703125 0.90625 2.25 0.90625q1.296875 0 2.03125 -1.046875q0.734375 -1.046875 0.734375 -2.890625q0 -1.875 -0.734375 -2.859375q-0.734375 -1.0 -2.0625 -1.0z" fill-rule="nonzero"></path><path fill="#000000" fill-opacity="0.0" d="m527.7559 474.21783l0 68.188965" fill-rule="evenodd"></path><path stroke="#000000" stroke-width="4.0" stroke-linejoin="round" stroke-linecap="butt" d="m527.7559 474.21783l0 44.188965" fill-rule="evenodd"></path><path fill="#000000" stroke="#000000" stroke-width="4.0" stroke-linecap="butt" d="m521.149 518.4068l6.6069336 18.152405l6.6069336 -18.152405z" fill-rule="evenodd"></path><path fill="#ffffff" d="m475.56693 298.67715l149.63779 0l0 154.65042l-24.940125 24.940155l-124.69766 0z" fill-rule="evenodd"></path><path fill="#cbcbcb" d="m600.2646 478.26773l4.988037 -19.952118l19.952087 -4.988037z" fill-rule="evenodd"></path><path fill="#000000" fill-opacity="0.0" d="m600.2646 478.26773l4.988037 -19.952118l19.952087 -4.988037l-24.940125 24.940155l-124.69766 0l0 -179.59058l149.63779 0l0 154.65042" fill-rule="evenodd"></path><path stroke="#000000" stroke-width="1.0" stroke-linejoin="round" stroke-linecap="butt" d="m600.2646 478.26773l4.988037 -19.952118l19.952087 -4.988037l-24.940125 24.940155l-124.69766 0l0 -179.59058l149.63779 0l0 154.65042" fill-rule="evenodd"></path><path fill="#000000" d="m530.1258 360.92236l-1.546875 0l0 -6.265625l-7.015625 0l0 6.265625l-1.546875 0l0 -13.3125l1.546875 0l0 5.65625l7.015625 0l0 -5.65625l1.546875 0l0 13.3125zm4.8582153 -9.984375l0 6.484375q0 1.21875 0.546875 1.828125q0.5625 0.59375 1.734375 0.59375q1.578125 0 2.296875 -0.859375q0.71875 -0.859375 0.71875 -2.796875l0 -5.25l1.515625 0l0 9.984375l-1.25 0l-0.21875 -1.34375l-0.078125 0q-0.46875 0.75 -1.296875 1.140625q-0.8125 0.390625 -1.875 0.390625q-1.8125 0 -2.71875 -0.859375q-0.90625 -0.875 -0.90625 -2.78125l0 -6.53125l1.53125 0zm22.747498 9.984375l0 -6.5q0 -1.1875 -0.515625 -1.78125q-0.5 -0.59375 -1.578125 -0.59375q-1.40625 0 -2.09375 0.8125q-0.671875 0.796875 -0.671875 2.484375l0 5.578125l-1.5 0l0 -6.5q0 -1.1875 -0.515625 -1.78125q-0.515625 -0.59375 -1.59375 -0.59375q-1.421875 0 -2.09375 0.859375q-0.65625 0.84375 -0.65625 2.78125l0 5.234375l-1.5 0l0 -9.984375l1.21875 0l0.25 1.359375l0.078125 0q0.421875 -0.71875 1.203125 -1.125q0.78125 -0.421875 1.75 -0.421875q2.328125 0 3.0625 1.703125l0.0625 0q0.453125 -0.78125 1.296875 -1.234375q0.84375 -0.46875 1.9375 -0.46875q1.6875 0 2.53125 0.875q0.84375 0.875 0.84375 2.78125l0 6.515625l-1.515625 0zm10.775513 0l-0.3125 -1.421875l-0.0625 0q-0.75 0.9375 -1.5 1.28125q-0.734375 0.328125 -1.84375 0.328125q-1.484375 0 -2.328125 -0.765625q-0.84375 -0.765625 -0.84375 -2.1875q0 -3.015625 4.828125 -3.171875l1.703125 -0.046875l0 -0.625q0 -1.171875 -0.515625 -1.734375q-0.5 -0.5625 -1.609375 -0.5625q-1.25 0 -2.828125 0.765625l-0.453125 -1.15625q0.734375 -0.390625 1.609375 -0.609375q0.875 -0.234375 1.765625 -0.234375q1.78125 0 2.640625 0.796875q0.859375 0.78125 0.859375 2.53125l0 6.8125l-1.109375 0zm-3.421875 -1.0625q1.40625 0 2.203125 -0.765625q0.8125 -0.78125 0.8125 -2.1875l0 -0.890625l-1.5 0.0625q-1.8125 0.0625 -2.609375 0.5625q-0.796875 0.484375 -0.796875 1.546875q0 0.8125 0.5 1.25q0.5 0.421875 1.390625 0.421875zm14.485046 1.0625l0 -6.453125q0 -1.21875 -0.5625 -1.8125q-0.546875 -0.609375 -1.734375 -0.609375q-1.5625 0 -2.296875 0.84375q-0.734375 0.84375 -0.734375 2.796875l0 5.234375l-1.5 0l0 -9.984375l1.21875 0l0.25 1.359375l0.078125 0q0.453125 -0.734375 1.296875 -1.140625q0.84375 -0.40625 1.875 -0.40625q1.796875 0 2.703125 0.875q0.921875 0.875 0.921875 2.78125l0 6.515625l-1.515625 0z" fill-rule="nonzero"></path><path fill="#000000" d="m524.58246 382.92236l-7.421875 0l0 -13.3125l7.421875 0l0 1.375l-5.875 0l0 4.28125l5.53125 0l0 1.375l-5.53125 0l0 4.890625l5.875 0l0 1.390625zm9.531982 -1.34375l-0.09375 0q-1.046875 1.53125 -3.125 1.53125q-1.96875 0 -3.0625 -1.34375q-1.078125 -1.34375 -1.078125 -3.8125q0 -2.46875 1.09375 -3.828125q1.09375 -1.375 3.046875 -1.375q2.03125 0 3.109375 1.484375l0.125 0l-0.0625 -0.71875l-0.046875 -0.703125l0 -4.0625l1.515625 0l0 14.171875l-1.234375 0l-0.1875 -1.34375zm-3.03125 0.265625q1.546875 0 2.234375 -0.84375q0.703125 -0.84375 0.703125 -2.71875l0 -0.328125q0 -2.125 -0.703125 -3.03125q-0.703125 -0.90625 -2.25 -0.90625q-1.328125 0 -2.046875 1.046875q-0.703125 1.03125 -0.703125 2.90625q0 1.921875 0.703125 2.90625q0.703125 0.96875 2.0625 0.96875zm9.166809 1.078125l-1.5 0l0 -9.984375l1.5 0l0 9.984375zm-1.640625 -12.6875q0 -0.515625 0.25 -0.75q0.265625 -0.25 0.65625 -0.25q0.359375 0 0.625 0.25q0.265625 0.234375 0.265625 0.75q0 0.515625 -0.265625 0.765625q-0.265625 0.25 -0.625 0.25q-0.390625 0 -0.65625 -0.25q-0.25 -0.25 -0.25 -0.765625zm8.078064 11.625q0.40625 0 0.765625 -0.0625q0.375 -0.0625 0.59375 -0.125l0 1.15625q-0.234375 0.125 -0.71875 0.203125q-0.484375 0.078125 -0.859375 0.078125q-2.890625 0 -2.890625 -3.0625l0 -5.9375l-1.4375 0l0 -0.71875l1.4375 -0.640625l0.625 -2.125l0.875 0l0 2.3125l2.90625 0l0 1.171875l-2.90625 0l0 5.875q0 0.90625 0.421875 1.390625q0.4375 0.484375 1.1875 0.484375zm9.508057 1.0625l-0.3125 -1.421875l-0.0625 0q-0.75 0.9375 -1.5 1.28125q-0.734375 0.328125 -1.84375 0.328125q-1.484375 0 -2.328125 -0.765625q-0.84375 -0.765625 -0.84375 -2.1875q0 -3.015625 4.828125 -3.171875l1.703125 -0.046875l0 -0.625q0 -1.171875 -0.515625 -1.734375q-0.5 -0.5625 -1.609375 -0.5625q-1.25 0 -2.828125 0.765625l-0.453125 -1.15625q0.734375 -0.390625 1.609375 -0.609375q0.875 -0.234375 1.765625 -0.234375q1.78125 0 2.640625 0.796875q0.859375 0.78125 0.859375 2.53125l0 6.8125l-1.109375 0zm-3.421875 -1.0625q1.40625 0 2.203125 -0.765625q0.8125 -0.78125 0.8125 -2.1875l0 -0.890625l-1.5 0.0625q-1.8125 0.0625 -2.609375 0.5625q-0.796875 0.484375 -0.796875 1.546875q0 0.8125 0.5 1.25q0.5 0.421875 1.390625 0.421875zm12.297607 -9.078125q1.96875 0 3.046875 1.34375q1.09375 1.34375 1.09375 3.796875q0 2.453125 -1.09375 3.828125q-1.09375 1.359375 -3.046875 1.359375q-0.96875 0 -1.78125 -0.359375q-0.8125 -0.359375 -1.359375 -1.109375l-0.109375 0l-0.3125 1.28125l-1.078125 0l0 -14.171875l1.5 0l0 3.4375q0 1.15625 -0.0625 2.078125l0.0625 0q1.0625 -1.484375 3.140625 -1.484375zm-0.21875 1.265625q-1.546875 0 -2.234375 0.890625q-0.6875 0.875 -0.6875 2.984375q0 2.109375 0.703125 3.015625q0.703125 0.90625 2.25 0.90625q1.390625 0 2.078125 -1.015625q0.6875 -1.015625 0.6875 -2.921875q0 -1.953125 -0.6875 -2.90625q-0.6875 -0.953125 -2.109375 -0.953125zm8.510559 8.875l-1.5 0l0 -14.171875l1.5 0l0 14.171875zm7.437439 0.1875q-2.21875 0 -3.5 -1.34375q-1.28125 -1.359375 -1.28125 -3.75q0 -2.421875 1.1875 -3.84375q1.1875 -1.421875 3.1875 -1.421875q1.890625 0 2.96875 1.234375q1.09375 1.234375 1.09375 3.265625l0 0.953125l-6.875 0q0.046875 1.765625 0.890625 2.671875q0.84375 0.90625 2.375 0.90625q1.609375 0 3.1875 -0.671875l0 1.34375q-0.796875 0.34375 -1.515625 0.5q-0.71875 0.15625 -1.71875 0.15625zm-0.421875 -9.09375q-1.203125 0 -1.921875 0.796875q-0.703125 0.78125 -0.828125 2.15625l5.21875 0q0 -1.421875 -0.640625 -2.1875q-0.640625 -0.765625 -1.828125 -0.765625z" fill-rule="nonzero"></path><path fill="#000000" d="m537.01715 404.92236l-1.546875 0l0 -6.265625l-7.015625 0l0 6.265625l-1.546875 0l0 -13.3125l1.546875 0l0 5.65625l7.015625 0l0 -5.65625l1.546875 0l0 13.3125zm7.7644653 0l-1.5625 0l0 -11.9375l-4.21875 0l0 -1.375l9.984375 0l0 1.375l-4.203125 0l0 11.9375zm12.102295 0l-4.515625 -11.8125l-0.0625 0q0.125 1.40625 0.125 3.34375l0 8.46875l-1.4375 0l0 -13.3125l2.328125 0l4.21875 10.984375l0.078125 0l4.25 -10.984375l2.3125 0l0 13.3125l-1.546875 0l0 -8.578125q0 -1.484375 0.125 -3.203125l-0.0625 0l-4.5625 11.78125l-1.25 0zm10.95282 0l0 -13.3125l1.546875 0l0 11.90625l5.875 0l0 1.40625l-7.421875 0z" fill-rule="nonzero"></path><path fill="#ffe599" d="m243.59126 478.26773c6.199066 0 11.224411 -5.02536 11.224411 -11.224426l-11.224411 0c3.099533 0 5.612213 -2.5126648 5.612213 -5.612213c0 -3.0995178 -2.51268 -5.6121826 -5.612213 -5.6121826l11.224411 0l0 -145.91733l0 0c0 -6.199066 5.0253296 -11.224426 11.224396 -11.224426l137.3071 0c6.199066 0 11.224426 5.02536 11.224426 11.224426c0 6.199066 -5.02536 11.224396 -11.224426 11.224396l-11.224396 0l0 145.91733c0 6.199066 -5.02536 11.224426 -11.224426 11.224426zm33.673233 -168.36615l0 0c0 6.199066 -5.0253296 11.224396 -11.224426 11.224396c-3.0995178 0 -5.6121826 -2.5126648 -5.6121826 -5.6121826c0 -3.0995483 2.5126648 -5.612213 5.6121826 -5.612213z" fill-rule="evenodd"></path><path fill="#cbb77a" d="m277.2645 309.90158l0 0c0 6.199066 -5.0253296 11.224396 -11.224426 11.224396c-3.0995178 0 -5.6121826 -2.5126648 -5.6121826 -5.6121826c0 -3.0995483 2.5126648 -5.612213 5.6121826 -5.612213zm-22.448822 157.14172c0 6.199066 -5.025345 11.224426 -11.224411 11.224426c-6.199066 0 -11.224411 -5.02536 -11.224411 -11.224426c0 -6.199066 5.025345 -11.224396 11.224411 -11.224396l0 0c3.099533 0 5.612213 2.5126648 5.612213 5.6121826c0 3.0995483 -2.51268 5.612213 -5.612213 5.612213z" fill-rule="evenodd"></path><path fill="#000000" fill-opacity="0.0" d="m254.81567 455.8189l0 -145.91733l0 0c0 -6.199066 5.0253296 -11.224426 11.224396 -11.224426l137.3071 0c6.199066 0 11.224426 5.02536 11.224426 11.224426c0 6.199066 -5.02536 11.224396 -11.224426 11.224396l-11.224396 0l0 145.91733c0 6.199066 -5.02536 11.224426 -11.224426 11.224426l-137.30708 0c-6.199066 0 -11.224411 -5.02536 -11.224411 -11.224426c0 -6.199066 5.025345 -11.224396 11.224411 -11.224396zm11.224396 -157.14175l0 0c6.1990967 0 11.224426 5.02536 11.224426 11.224426c0 6.199066 -5.0253296 11.224396 -11.224426 11.224396c-3.0995178 0 -5.6121826 -2.5126648 -5.6121826 -5.6121826c0 -3.0995483 2.5126648 -5.612213 5.6121826 -5.612213l11.224426 0m114.85828 11.224396l-126.0827 0m-22.448807 134.69293l0 0c3.099533 0 5.612213 2.5126648 5.612213 5.6121826c0 3.0995483 -2.51268 5.612213 -5.612213 5.612213l11.224411 0m-11.224411 11.224426c6.199066 0 11.224411 -5.02536 11.224411 -11.224426l0 -11.224396" fill-rule="evenodd"></path><path stroke="#000000" stroke-width="1.0" stroke-linejoin="round" stroke-linecap="butt" d="m254.81567 455.8189l0 -145.91733l0 0c0 -6.199066 5.0253296 -11.224426 11.224396 -11.224426l137.3071 0c6.199066 0 11.224426 5.02536 11.224426 11.224426c0 6.199066 -5.02536 11.224396 -11.224426 11.224396l-11.224396 0l0 145.91733c0 6.199066 -5.02536 11.224426 -11.224426 11.224426l-137.30708 0c-6.199066 0 -11.224411 -5.02536 -11.224411 -11.224426c0 -6.199066 5.025345 -11.224396 11.224411 -11.224396zm11.224396 -157.14175l0 0c6.1990967 0 11.224426 5.02536 11.224426 11.224426c0 6.199066 -5.0253296 11.224396 -11.224426 11.224396c-3.0995178 0 -5.6121826 -2.5126648 -5.6121826 -5.6121826c0 -3.0995483 2.5126648 -5.612213 5.6121826 -5.612213l11.224426 0m114.85828 11.224396l-126.0827 0m-22.448807 134.69293l0 0c3.099533 0 5.612213 2.5126648 5.612213 5.6121826c0 3.0995483 -2.51268 5.612213 -5.612213 5.612213l11.224411 0m-11.224411 11.224426c6.199066 0 11.224411 -5.02536 11.224411 -11.224426l0 -11.224396" fill-rule="evenodd"></path><path fill="#000000" d="m279.47714 388.87964q-2.1875 0 -3.46875 1.46875q-1.265625 1.453125 -1.265625 4.0q0 2.609375 1.21875 4.046875q1.234375 1.421875 3.5 1.421875q1.390625 0 3.171875 -0.5l0 1.34375q-1.375 0.53125 -3.40625 0.53125q-2.9375 0 -4.546875 -1.78125q-1.59375 -1.796875 -1.59375 -5.078125q0 -2.0625 0.765625 -3.609375q0.765625 -1.546875 2.21875 -2.390625q1.453125 -0.84375 3.421875 -0.84375q2.09375 0 3.671875 0.765625l-0.65625 1.328125q-1.515625 -0.703125 -3.03125 -0.703125zm14.45697 7.125q0 2.4375 -1.234375 3.8125q-1.21875 1.375 -3.390625 1.375q-1.34375 0 -2.390625 -0.625q-1.03125 -0.640625 -1.59375 -1.8125q-0.5625 -1.171875 -0.5625 -2.75q0 -2.4375 1.21875 -3.796875q1.21875 -1.375 3.390625 -1.375q2.09375 0 3.328125 1.40625q1.234375 1.390625 1.234375 3.765625zm-7.609375 0q0 1.90625 0.765625 2.921875q0.765625 1.0 2.25 1.0q1.484375 0 2.25 -1.0q0.78125 -1.0 0.78125 -2.921875q0 -1.90625 -0.78125 -2.890625q-0.765625 -0.984375 -2.265625 -0.984375q-1.484375 0 -2.25 0.96875q-0.75 0.96875 -0.75 2.90625zm22.987213 5.0l0 -6.5q0 -1.1875 -0.515625 -1.78125q-0.5 -0.59375 -1.578125 -0.59375q-1.40625 0 -2.09375 0.8125q-0.671875 0.796875 -0.671875 2.484375l0 5.578125l-1.5 0l0 -6.5q0 -1.1875 -0.515625 -1.78125q-0.515625 -0.59375 -1.59375 -0.59375q-1.421875 0 -2.09375 0.859375q-0.65625 0.84375 -0.65625 2.78125l0 5.234375l-1.5 0l0 -9.984375l1.21875 0l0.25 1.359375l0.078125 0q0.421875 -0.71875 1.203125 -1.125q0.78125 -0.421875 1.75 -0.421875q2.328125 0 3.0625 1.703125l0.0625 0q0.453125 -0.78125 1.296875 -1.234375q0.84375 -0.46875 1.9375 -0.46875q1.6875 0 2.53125 0.875q0.84375 0.875 0.84375 2.78125l0 6.515625l-1.515625 0zm9.275452 0.1875q-0.96875 0 -1.78125 -0.359375q-0.8125 -0.359375 -1.359375 -1.109375l-0.109375 0q0.109375 0.875 0.109375 1.65625l0 4.109375l-1.5 0l0 -14.46875l1.21875 0l0.21875 1.359375l0.0625 0q0.59375 -0.8125 1.359375 -1.171875q0.78125 -0.375 1.78125 -0.375q1.984375 0 3.0625 1.359375q1.078125 1.359375 1.078125 3.8125q0 2.453125 -1.09375 3.828125q-1.09375 1.359375 -3.046875 1.359375zm-0.21875 -9.0625q-1.53125 0 -2.21875 0.84375q-0.671875 0.84375 -0.703125 2.6875l0 0.34375q0 2.109375 0.703125 3.015625q0.703125 0.90625 2.25 0.90625q1.296875 0 2.03125 -1.046875q0.734375 -1.046875 0.734375 -2.890625q0 -1.875 -0.734375 -2.859375q-0.734375 -1.0 -2.0625 -1.0zm15.619934 3.875q0 2.4375 -1.234375 3.8125q-1.21875 1.375 -3.390625 1.375q-1.34375 0 -2.390625 -0.625q-1.03125 -0.640625 -1.59375 -1.8125q-0.5625 -1.171875 -0.5625 -2.75q0 -2.4375 1.21875 -3.796875q1.21875 -1.375 3.390625 -1.375q2.09375 0 3.328125 1.40625q1.234375 1.390625 1.234375 3.765625zm-7.609375 0q0 1.90625 0.765625 2.921875q0.765625 1.0 2.25 1.0q1.484375 0 2.25 -1.0q0.78125 -1.0 0.78125 -2.921875q0 -1.90625 -0.78125 -2.890625q-0.765625 -0.984375 -2.265625 -0.984375q-1.484375 0 -2.25 0.96875q-0.75 0.96875 -0.75 2.90625zm17.096558 5.0l0 -6.453125q0 -1.21875 -0.5625 -1.8125q-0.546875 -0.609375 -1.734375 -0.609375q-1.5625 0 -2.296875 0.84375q-0.734375 0.84375 -0.734375 2.796875l0 5.234375l-1.5 0l0 -9.984375l1.21875 0l0.25 1.359375l0.078125 0q0.453125 -0.734375 1.296875 -1.140625q0.84375 -0.40625 1.875 -0.40625q1.796875 0 2.703125 0.875q0.921875 0.875 0.921875 2.78125l0 6.515625l-1.515625 0zm8.841278 0.1875q-2.21875 0 -3.5 -1.34375q-1.28125 -1.359375 -1.28125 -3.75q0 -2.421875 1.1875 -3.84375q1.1875 -1.421875 3.1875 -1.421875q1.890625 0 2.96875 1.234375q1.09375 1.234375 1.09375 3.265625l0 0.953125l-6.875 0q0.046875 1.765625 0.890625 2.671875q0.84375 0.90625 2.375 0.90625q1.609375 0 3.1875 -0.671875l0 1.34375q-0.796875 0.34375 -1.515625 0.5q-0.71875 0.15625 -1.71875 0.15625zm-0.421875 -9.09375q-1.203125 0 -1.921875 0.796875q-0.703125 0.78125 -0.828125 2.15625l5.21875 0q0 -1.421875 -0.640625 -2.1875q-0.640625 -0.765625 -1.828125 -0.765625zm13.498047 8.90625l0 -6.453125q0 -1.21875 -0.5625 -1.8125q-0.546875 -0.609375 -1.734375 -0.609375q-1.5625 0 -2.296875 0.84375q-0.734375 0.84375 -0.734375 2.796875l0 5.234375l-1.5 0l0 -9.984375l1.21875 0l0.25 1.359375l0.078125 0q0.453125 -0.734375 1.296875 -1.140625q0.84375 -0.40625 1.875 -0.40625q1.796875 0 2.703125 0.875q0.921875 0.875 0.921875 2.78125l0 6.515625l-1.515625 0zm7.841278 -1.0625q0.40625 0 0.765625 -0.0625q0.375 -0.0625 0.59375 -0.125l0 1.15625q-0.234375 0.125 -0.71875 0.203125q-0.484375 0.078125 -0.859375 0.078125q-2.890625 0 -2.890625 -3.0625l0 -5.9375l-1.4375 0l0 -0.71875l1.4375 -0.640625l0.625 -2.125l0.875 0l0 2.3125l2.90625 0l0 1.171875l-2.90625 0l0 5.875q0 0.90625 0.421875 1.390625q0.4375 0.484375 1.1875 0.484375z" fill-rule="nonzero"></path><path fill="#ffe599" d="m263.0736 494.26773c6.199066 0 11.224396 -5.02536 11.224396 -11.224426l-11.224396 0c3.0995483 0 5.612213 -2.5126648 5.612213 -5.612213c0 -3.0995178 -2.5126648 -5.6121826 -5.612213 -5.6121826l11.224396 0l0 -145.91733l0 0c0 -6.199066 5.02536 -11.224426 11.224426 -11.224426l137.3071 0c6.199066 0 11.224396 5.02536 11.224396 11.224426c0 6.199066 -5.0253296 11.224396 -11.224396 11.224396l-11.224426 0l0 145.91733c0 6.199066 -5.0253296 11.224426 -11.224396 11.224426zm33.673218 -168.36615l0 0c0 6.199066 -5.0253296 11.224396 -11.224396 11.224396c-3.0995483 0 -5.612213 -2.5126648 -5.612213 -5.6121826c0 -3.0995483 2.5126648 -5.612213 5.612213 -5.612213z" fill-rule="evenodd"></path><path fill="#cbb77a" d="m296.74683 325.90158l0 0c0 6.199066 -5.0253296 11.224396 -11.224396 11.224396c-3.0995483 0 -5.612213 -2.5126648 -5.612213 -5.6121826c0 -3.0995483 2.5126648 -5.612213 5.612213 -5.612213zm-22.448822 157.14172c0 6.199066 -5.0253296 11.224426 -11.224396 11.224426c-6.199066 0 -11.224411 -5.02536 -11.224411 -11.224426c0 -6.199066 5.025345 -11.224396 11.224411 -11.224396l0 0c3.0995483 0 5.612213 2.5126648 5.612213 5.6121826c0 3.0995483 -2.5126648 5.612213 -5.612213 5.612213z" fill-rule="evenodd"></path><path fill="#000000" fill-opacity="0.0" d="m274.298 471.8189l0 -145.91733l0 0c0 -6.199066 5.02536 -11.224426 11.224426 -11.224426l137.3071 0c6.199066 0 11.224396 5.02536 11.224396 11.224426c0 6.199066 -5.0253296 11.224396 -11.224396 11.224396l-11.224426 0l0 145.91733c0 6.199066 -5.0253296 11.224426 -11.224396 11.224426l-137.3071 0c-6.199066 0 -11.224411 -5.02536 -11.224411 -11.224426c0 -6.199066 5.025345 -11.224396 11.224411 -11.224396zm11.224426 -157.14175l0 0c6.199066 0 11.224396 5.02536 11.224396 11.224426c0 6.199066 -5.0253296 11.224396 -11.224396 11.224396c-3.0995483 0 -5.612213 -2.5126648 -5.612213 -5.6121826c0 -3.0995483 2.5126648 -5.612213 5.612213 -5.612213l11.224396 0m114.85828 11.224396l-126.08267 0m-22.448822 134.69293l0 0c3.0995483 0 5.612213 2.5126648 5.612213 5.6121826c0 3.0995483 -2.5126648 5.612213 -5.612213 5.612213l11.224396 0m-11.224396 11.224426c6.199066 0 11.224396 -5.02536 11.224396 -11.224426l0 -11.224396" fill-rule="evenodd"></path><path stroke="#000000" stroke-width="1.0" stroke-linejoin="round" stroke-linecap="butt" d="m274.298 471.8189l0 -145.91733l0 0c0 -6.199066 5.02536 -11.224426 11.224426 -11.224426l137.3071 0c6.199066 0 11.224396 5.02536 11.224396 11.224426c0 6.199066 -5.0253296 11.224396 -11.224396 11.224396l-11.224426 0l0 145.91733c0 6.199066 -5.0253296 11.224426 -11.224396 11.224426l-137.3071 0c-6.199066 0 -11.224411 -5.02536 -11.224411 -11.224426c0 -6.199066 5.025345 -11.224396 11.224411 -11.224396zm11.224426 -157.14175l0 0c6.199066 0 11.224396 5.02536 11.224396 11.224426c0 6.199066 -5.0253296 11.224396 -11.224396 11.224396c-3.0995483 0 -5.612213 -2.5126648 -5.612213 -5.6121826c0 -3.0995483 2.5126648 -5.612213 5.612213 -5.612213l11.224396 0m114.85828 11.224396l-126.08267 0m-22.448822 134.69293l0 0c3.0995483 0 5.612213 2.5126648 5.612213 5.6121826c0 3.0995483 -2.5126648 5.612213 -5.612213 5.612213l11.224396 0m-11.224396 11.224426c6.199066 0 11.224396 -5.02536 11.224396 -11.224426l0 -11.224396" fill-rule="evenodd"></path><path fill="#000000" d="m336.81927 406.00464l-1.53125 0l-2.6875 -8.921875q-0.1875 -0.59375 -0.421875 -1.484375q-0.234375 -0.90625 -0.25 -1.09375q-0.203125 1.203125 -0.640625 2.640625l-2.609375 8.859375l-1.515625 0l-3.546875 -13.3125l1.640625 0l2.09375 8.21875q0.4375 1.734375 0.640625 3.140625q0.25 -1.671875 0.734375 -3.265625l2.390625 -8.09375l1.625 0l2.515625 8.171875q0.4375 1.40625 0.734375 3.1875q0.171875 -1.296875 0.65625 -3.15625l2.09375 -8.203125l1.640625 0l-3.5625 13.3125zm9.646606 0.1875q-2.21875 0 -3.5 -1.34375q-1.28125 -1.359375 -1.28125 -3.75q0 -2.421875 1.1875 -3.84375q1.1875 -1.421875 3.1875 -1.421875q1.890625 0 2.96875 1.234375q1.09375 1.234375 1.09375 3.265625l0 0.953125l-6.875 0q0.046875 1.765625 0.890625 2.671875q0.84375 0.90625 2.375 0.90625q1.609375 0 3.1875 -0.671875l0 1.34375q-0.796875 0.34375 -1.515625 0.5q-0.71875 0.15625 -1.71875 0.15625zm-0.421875 -9.09375q-1.203125 0 -1.921875 0.796875q-0.703125 0.78125 -0.828125 2.15625l5.21875 0q0 -1.421875 -0.640625 -2.1875q-0.640625 -0.765625 -1.828125 -0.765625zm11.310547 -1.234375q1.96875 0 3.046875 1.34375q1.09375 1.34375 1.09375 3.796875q0 2.453125 -1.09375 3.828125q-1.09375 1.359375 -3.046875 1.359375q-0.96875 0 -1.78125 -0.359375q-0.8125 -0.359375 -1.359375 -1.109375l-0.109375 0l-0.3125 1.28125l-1.078125 0l0 -14.171875l1.5 0l0 3.4375q0 1.15625 -0.0625 2.078125l0.0625 0q1.0625 -1.484375 3.140625 -1.484375zm-0.21875 1.265625q-1.546875 0 -2.234375 0.890625q-0.6875 0.875 -0.6875 2.984375q0 2.109375 0.703125 3.015625q0.703125 0.90625 2.25 0.90625q1.390625 0 2.078125 -1.015625q0.6875 -1.015625 0.6875 -2.921875q0 -1.953125 -0.6875 -2.90625q-0.6875 -0.953125 -2.109375 -0.953125z" fill-rule="nonzero"></path><path fill="#000000" d="m294.5095 415.87964q-2.1875 0 -3.46875 1.46875q-1.265625 1.453125 -1.265625 4.0q0 2.609375 1.21875 4.046875q1.234375 1.421875 3.5 1.421875q1.390625 0 3.171875 -0.5l0 1.34375q-1.375 0.53125 -3.40625 0.53125q-2.9375 0 -4.546875 -1.78125q-1.59375 -1.796875 -1.59375 -5.078125q0 -2.0625 0.765625 -3.609375q0.765625 -1.546875 2.21875 -2.390625q1.453125 -0.84375 3.421875 -0.84375q2.09375 0 3.671875 0.765625l-0.65625 1.328125q-1.515625 -0.703125 -3.03125 -0.703125zm14.45697 7.125q0 2.4375 -1.234375 3.8125q-1.21875 1.375 -3.390625 1.375q-1.34375 0 -2.390625 -0.625q-1.03125 -0.640625 -1.59375 -1.8125q-0.5625 -1.171875 -0.5625 -2.75q0 -2.4375 1.21875 -3.796875q1.21875 -1.375 3.390625 -1.375q2.09375 0 3.328125 1.40625q1.234375 1.390625 1.234375 3.765625zm-7.609375 0q0 1.90625 0.765625 2.921875q0.765625 1.0 2.25 1.0q1.484375 0 2.25 -1.0q0.78125 -1.0 0.78125 -2.921875q0 -1.90625 -0.78125 -2.890625q-0.765625 -0.984375 -2.265625 -0.984375q-1.484375 0 -2.25 0.96875q-0.75 0.96875 -0.75 2.90625zm22.987213 5.0l0 -6.5q0 -1.1875 -0.515625 -1.78125q-0.5 -0.59375 -1.578125 -0.59375q-1.40625 0 -2.09375 0.8125q-0.671875 0.796875 -0.671875 2.484375l0 5.578125l-1.5 0l0 -6.5q0 -1.1875 -0.515625 -1.78125q-0.515625 -0.59375 -1.59375 -0.59375q-1.421875 0 -2.09375 0.859375q-0.65625 0.84375 -0.65625 2.78125l0 5.234375l-1.5 0l0 -9.984375l1.21875 0l0.25 1.359375l0.078125 0q0.421875 -0.71875 1.203125 -1.125q0.78125 -0.421875 1.75 -0.421875q2.328125 0 3.0625 1.703125l0.0625 0q0.453125 -0.78125 1.296875 -1.234375q0.84375 -0.46875 1.9375 -0.46875q1.6875 0 2.53125 0.875q0.84375 0.875 0.84375 2.78125l0 6.515625l-1.515625 0zm9.275452 0.1875q-0.96875 0 -1.78125 -0.359375q-0.8125 -0.359375 -1.359375 -1.109375l-0.109375 0q0.109375 0.875 0.109375 1.65625l0 4.109375l-1.5 0l0 -14.46875l1.21875 0l0.21875 1.359375l0.0625 0q0.59375 -0.8125 1.359375 -1.171875q0.78125 -0.375 1.78125 -0.375q1.984375 0 3.0625 1.359375q1.078125 1.359375 1.078125 3.8125q0 2.453125 -1.09375 3.828125q-1.09375 1.359375 -3.046875 1.359375zm-0.21875 -9.0625q-1.53125 0 -2.21875 0.84375q-0.671875 0.84375 -0.703125 2.6875l0 0.34375q0 2.109375 0.703125 3.015625q0.703125 0.90625 2.25 0.90625q1.296875 0 2.03125 -1.046875q0.734375 -1.046875 0.734375 -2.890625q0 -1.875 -0.734375 -2.859375q-0.734375 -1.0 -2.0625 -1.0zm15.619934 3.875q0 2.4375 -1.234375 3.8125q-1.21875 1.375 -3.390625 1.375q-1.34375 0 -2.390625 -0.625q-1.03125 -0.640625 -1.59375 -1.8125q-0.5625 -1.171875 -0.5625 -2.75q0 -2.4375 1.21875 -3.796875q1.21875 -1.375 3.390625 -1.375q2.09375 0 3.328125 1.40625q1.234375 1.390625 1.234375 3.765625zm-7.609375 0q0 1.90625 0.765625 2.921875q0.765625 1.0 2.25 1.0q1.484375 0 2.25 -1.0q0.78125 -1.0 0.78125 -2.921875q0 -1.90625 -0.78125 -2.890625q-0.765625 -0.984375 -2.265625 -0.984375q-1.484375 0 -2.25 0.96875q-0.75 0.96875 -0.75 2.90625zm17.096558 5.0l0 -6.453125q0 -1.21875 -0.5625 -1.8125q-0.546875 -0.609375 -1.734375 -0.609375q-1.5625 0 -2.296875 0.84375q-0.734375 0.84375 -0.734375 2.796875l0 5.234375l-1.5 0l0 -9.984375l1.21875 0l0.25 1.359375l0.078125 0q0.453125 -0.734375 1.296875 -1.140625q0.84375 -0.40625 1.875 -0.40625q1.796875 0 2.703125 0.875q0.921875 0.875 0.921875 2.78125l0 6.515625l-1.515625 0zm8.841278 0.1875q-2.21875 0 -3.5 -1.34375q-1.28125 -1.359375 -1.28125 -3.75q0 -2.421875 1.1875 -3.84375q1.1875 -1.421875 3.1875 -1.421875q1.890625 0 2.96875 1.234375q1.09375 1.234375 1.09375 3.265625l0 0.953125l-6.875 0q0.046875 1.765625 0.890625 2.671875q0.84375 0.90625 2.375 0.90625q1.609375 0 3.1875 -0.671875l0 1.34375q-0.796875 0.34375 -1.515625 0.5q-0.71875 0.15625 -1.71875 0.15625zm-0.421875 -9.09375q-1.203125 0 -1.921875 0.796875q-0.703125 0.78125 -0.828125 2.15625l5.21875 0q0 -1.421875 -0.640625 -2.1875q-0.640625 -0.765625 -1.828125 -0.765625zm13.498047 8.90625l0 -6.453125q0 -1.21875 -0.5625 -1.8125q-0.546875 -0.609375 -1.734375 -0.609375q-1.5625 0 -2.296875 0.84375q-0.734375 0.84375 -0.734375 2.796875l0 5.234375l-1.5 0l0 -9.984375l1.21875 0l0.25 1.359375l0.078125 0q0.453125 -0.734375 1.296875 -1.140625q0.84375 -0.40625 1.875 -0.40625q1.796875 0 2.703125 0.875q0.921875 0.875 0.921875 2.78125l0 6.515625l-1.515625 0zm7.841278 -1.0625q0.40625 0 0.765625 -0.0625q0.375 -0.0625 0.59375 -0.125l0 1.15625q-0.234375 0.125 -0.71875 0.203125q-0.484375 0.078125 -0.859375 0.078125q-2.890625 0 -2.890625 -3.0625l0 -5.9375l-1.4375 0l0 -0.71875l1.4375 -0.640625l0.625 -2.125l0.875 0l0 2.3125l2.90625 0l0 1.171875l-2.90625 0l0 5.875q0 0.90625 0.421875 1.390625q0.4375 0.484375 1.1875 0.484375zm9.804901 -1.65625q0 1.390625 -1.046875 2.15625q-1.03125 0.75 -2.90625 0.75q-1.984375 0 -3.09375 -0.640625l0 -1.390625q0.71875 0.359375 1.53125 0.578125q0.828125 0.203125 1.59375 0.203125q1.1875 0 1.828125 -0.375q0.640625 -0.390625 0.640625 -1.15625q0 -0.578125 -0.515625 -1.0q-0.5 -0.421875 -1.96875 -0.984375q-1.390625 -0.515625 -1.984375 -0.890625q-0.578125 -0.390625 -0.875 -0.875q-0.28125 -0.5 -0.28125 -1.1875q0 -1.21875 0.984375 -1.921875q1.0 -0.71875 2.734375 -0.71875q1.609375 0 3.140625 0.65625l-0.53125 1.234375q-1.5 -0.625 -2.71875 -0.625q-1.078125 0 -1.625 0.34375q-0.546875 0.34375 -0.546875 0.921875q0 0.40625 0.203125 0.6875q0.203125 0.28125 0.65625 0.546875q0.453125 0.25 1.75 0.734375q1.78125 0.640625 2.40625 1.296875q0.625 0.65625 0.625 1.65625z" fill-rule="nonzero"></path><path fill="#ffe599" d="m674.2402 482.6063c2.4505005 0 4.4370117 -1.9865112 4.4370117 -4.4370117l-4.4370117 0c1.2252197 0 2.2185059 -0.9932556 2.2185059 -2.2185059c0 -1.2252197 -0.99328613 -2.2185059 -2.2185059 -2.2185059l4.4370117 0l0 -57.68109l0 0c0 -2.4505005 1.9865112 -4.4370117 4.4370117 -4.4370117l131.88977 0c2.4504395 0 4.4369507 1.9865112 4.4369507 4.4370117c0 2.4505005 -1.9865112 4.4370117 -4.4369507 4.4370117l-4.4370117 0l0 57.68109c0 2.4505005 -1.9865723 4.4370117 -4.4370117 4.4370117zm13.311035 -66.555115l0 0c0 2.4505005 -1.9865723 4.4370117 -4.4370117 4.4370117c-1.2252808 0 -2.2185059 -0.9932556 -2.2185059 -2.2185059c0 -1.2252502 0.9932251 -2.2185059 2.2185059 -2.2185059z" fill-rule="evenodd"></path><path fill="#cbb77a" d="m687.5512 416.05118l0 0c0 2.4505005 -1.9865723 4.4370117 -4.4370117 4.4370117c-1.2252808 0 -2.2185059 -0.9932556 -2.2185059 -2.2185059c0 -1.2252502 0.9932251 -2.2185059 2.2185059 -2.2185059zm-8.874023 62.118103c0 2.4505005 -1.9865112 4.4370117 -4.4370117 4.4370117c-2.4505005 0 -4.4370117 -1.9865112 -4.4370117 -4.4370117c0 -2.45047 1.9865112 -4.4370117 4.4370117 -4.4370117l0 0c1.2252197 0 2.2185059 0.99328613 2.2185059 2.2185059c0 1.2252502 -0.99328613 2.2185059 -2.2185059 2.2185059z" fill-rule="evenodd"></path><path fill="#000000" fill-opacity="0.0" d="m678.6772 473.73227l0 -57.68109l0 0c0 -2.4505005 1.9865112 -4.4370117 4.4370117 -4.4370117l131.88977 0c2.4504395 0 4.4369507 1.9865112 4.4369507 4.4370117c0 2.4505005 -1.9865112 4.4370117 -4.4369507 4.4370117l-4.4370117 0l0 57.68109c0 2.4505005 -1.9865723 4.4370117 -4.4370117 4.4370117l-131.88977 0c-2.4505005 0 -4.4370117 -1.9865112 -4.4370117 -4.4370117c0 -2.45047 1.9865112 -4.4370117 4.4370117 -4.4370117zm4.4370117 -62.118103l0 0c2.4504395 0 4.4370117 1.9865112 4.4370117 4.4370117c0 2.4505005 -1.9865723 4.4370117 -4.4370117 4.4370117c-1.2252808 0 -2.2185059 -0.9932556 -2.2185059 -2.2185059c0 -1.2252502 0.9932251 -2.2185059 2.2185059 -2.2185059l4.4370117 0m123.01575 4.4370117l-127.45276 0m-8.874023 53.24408l0 0c1.2252197 0 2.2185059 0.99328613 2.2185059 2.2185059c0 1.2252502 -0.99328613 2.2185059 -2.2185059 2.2185059l4.4370117 0m-4.4370117 4.4370117c2.4505005 0 4.4370117 -1.9865112 4.4370117 -4.4370117l0 -4.4370117" fill-rule="evenodd"></path><path stroke="#000000" stroke-width="1.0" stroke-linejoin="round" stroke-linecap="butt" d="m678.6772 473.73227l0 -57.68109l0 0c0 -2.4505005 1.9865112 -4.4370117 4.4370117 -4.4370117l131.88977 0c2.4504395 0 4.4369507 1.9865112 4.4369507 4.4370117c0 2.4505005 -1.9865112 4.4370117 -4.4369507 4.4370117l-4.4370117 0l0 57.68109c0 2.4505005 -1.9865723 4.4370117 -4.4370117 4.4370117l-131.88977 0c-2.4505005 0 -4.4370117 -1.9865112 -4.4370117 -4.4370117c0 -2.45047 1.9865112 -4.4370117 4.4370117 -4.4370117zm4.4370117 -62.118103l0 0c2.4504395 0 4.4370117 1.9865112 4.4370117 4.4370117c0 2.4505005 -1.9865723 4.4370117 -4.4370117 4.4370117c-1.2252808 0 -2.2185059 -0.9932556 -2.2185059 -2.2185059c0 -1.2252502 0.9932251 -2.2185059 2.2185059 -2.2185059l4.4370117 0m123.01575 4.4370117l-127.45276 0m-8.874023 53.24408l0 0c1.2252197 0 2.2185059 0.99328613 2.2185059 2.2185059c0 1.2252502 -0.99328613 2.2185059 -2.2185059 2.2185059l4.4370117 0m-4.4370117 4.4370117c2.4505005 0 4.4370117 -1.9865112 4.4370117 -4.4370117l0 -4.4370117" fill-rule="evenodd"></path><path fill="#000000" d="m727.4557 456.24875l-1.65625 -4.234375l-5.34375 0l-1.640625 4.234375l-1.5625 0l5.265625 -13.375l1.296875 0l5.25 13.375l-1.609375 0zm-2.140625 -5.625l-1.546875 -4.125q-0.296875 -0.796875 -0.625 -1.921875q-0.203125 0.875 -0.578125 1.921875l-1.5625 4.125l4.3125 0zm9.993408 5.8125q-0.96875 0 -1.78125 -0.359375q-0.8125 -0.359375 -1.359375 -1.109375l-0.109375 0q0.109375 0.875 0.109375 1.65625l0 4.109375l-1.5 0l0 -14.46875l1.21875 0l0.21875 1.359375l0.0625 0q0.59375 -0.8125 1.359375 -1.171875q0.78125 -0.375 1.78125 -0.375q1.984375 0 3.0625 1.359375q1.078125 1.359375 1.078125 3.8125q0 2.453125 -1.09375 3.828125q-1.09375 1.359375 -3.046875 1.359375zm-0.21875 -9.0625q-1.53125 0 -2.21875 0.84375q-0.671875 0.84375 -0.703125 2.6875l0 0.34375q0 2.109375 0.703125 3.015625q0.703125 0.90625 2.25 0.90625q1.296875 0 2.03125 -1.046875q0.734375 -1.046875 0.734375 -2.890625q0 -1.875 -0.734375 -2.859375q-0.734375 -1.0 -2.0625 -1.0zm11.651184 9.0625q-0.96875 0 -1.78125 -0.359375q-0.8125 -0.359375 -1.359375 -1.109375l-0.109375 0q0.109375 0.875 0.109375 1.65625l0 4.109375l-1.5 0l0 -14.46875l1.21875 0l0.21875 1.359375l0.0625 0q0.59375 -0.8125 1.359375 -1.171875q0.78125 -0.375 1.78125 -0.375q1.984375 0 3.0625 1.359375q1.078125 1.359375 1.078125 3.8125q0 2.453125 -1.09375 3.828125q-1.09375 1.359375 -3.046875 1.359375zm-0.21875 -9.0625q-1.53125 0 -2.21875 0.84375q-0.671875 0.84375 -0.703125 2.6875l0 0.34375q0 2.109375 0.703125 3.015625q0.703125 0.90625 2.25 0.90625q1.296875 0 2.03125 -1.046875q0.734375 -1.046875 0.734375 -2.890625q0 -1.875 -0.734375 -2.859375q-0.734375 -1.0 -2.0625 -1.0zm10.1380005 12.375q-0.859375 0 -1.34375 -0.234375l0 -1.328125q0.640625 0.1875 1.34375 0.1875q0.90625 0 1.375 -0.546875q0.46875 -0.546875 0.46875 -1.578125l0 -13.3125l1.546875 0l0 13.1875q0 1.734375 -0.875 2.671875q-0.875 0.953125 -2.515625 0.953125zm14.436035 -7.046875q0 1.765625 -1.28125 2.75q-1.265625 0.984375 -3.453125 0.984375q-2.375 0 -3.640625 -0.609375l0 -1.5q0.8125 0.34375 1.78125 0.546875q0.96875 0.203125 1.921875 0.203125q1.546875 0 2.328125 -0.578125q0.78125 -0.59375 0.78125 -1.640625q0 -0.703125 -0.28125 -1.140625q-0.28125 -0.4375 -0.9375 -0.8125q-0.640625 -0.375 -1.96875 -0.84375q-1.859375 -0.671875 -2.65625 -1.578125q-0.796875 -0.921875 -0.796875 -2.375q0 -1.546875 1.15625 -2.453125q1.15625 -0.921875 3.0625 -0.921875q1.984375 0 3.65625 0.734375l-0.484375 1.34375q-1.65625 -0.6875 -3.21875 -0.6875q-1.21875 0 -1.921875 0.53125q-0.6875 0.53125 -0.6875 1.46875q0 0.6875 0.25 1.140625q0.265625 0.4375 0.859375 0.8125q0.609375 0.359375 1.859375 0.796875q2.09375 0.75 2.875 1.609375q0.796875 0.859375 0.796875 2.21875z" fill-rule="nonzero"></path><path fill="#000000" fill-opacity="0.0" d="m679.34644 444.47244l-54.141724 0" fill-rule="evenodd"></path><path stroke="#000000" stroke-width="4.0" stroke-linejoin="round" stroke-linecap="butt" d="m679.34644 444.47244l-30.141724 0" fill-rule="evenodd"></path><path fill="#000000" stroke="#000000" stroke-width="4.0" stroke-linecap="butt" d="m649.2047 437.8655l-18.152405 6.6069336l18.152405 6.6069336z" fill-rule="evenodd"></path></g></svg>

