<?xml version="1.0" standalone="yes"?>

<svg version="1.1" viewBox="0.0 0.0 960.0 720.0" fill="none" stroke="none" stroke-linecap="square" stroke-miterlimit="10" xmlns="http://www.w3.org/2000/svg" xmlns:xlink="http://www.w3.org/1999/xlink"><clipPath id="p.0"><path d="m0 0l960.0 0l0 720.0l-960.0 0l0 -720.0z" clip-rule="nonzero"></path></clipPath><g clip-path="url(#p.0)"><path fill="#000000" fill-opacity="0.0" d="m0 0l960.0 0l0 720.0l-960.0 0z" fill-rule="evenodd"></path><path fill="#000000" fill-opacity="0.0" d="m169.7559 402.04724l133.03938 0" fill-rule="evenodd"></path><path stroke="#000000" stroke-width="4.0" stroke-linejoin="round" stroke-linecap="butt" d="m169.7559 402.04724l109.03938 0" fill-rule="evenodd"></path><path fill="#000000" stroke="#000000" stroke-width="4.0" stroke-linecap="butt" d="m278.7953 408.65417l18.152374 -6.6069336l-18.152374 -6.6069336z" fill-rule="evenodd"></path><path fill="#cfe2f3" d="m126.97638 89.78871l0 0c0 -16.530128 25.68428 -29.930443 57.367447 -29.930443c31.683182 0 57.367462 13.400314 57.367462 29.930443l0 119.72179c0 16.530136 -25.68428 29.93045 -57.367462 29.93045c-31.683167 0 -57.367447 -13.400314 -57.367447 -29.93045z" fill-rule="evenodd"></path><path fill="#000000" fill-opacity="0.0" d="m241.71129 89.78871l0 0c0 16.530128 -25.68428 29.93045 -57.367462 29.93045c-31.683167 0 -57.367447 -13.400322 -57.367447 -29.93045" fill-rule="evenodd"></path><path fill="#000000" fill-opacity="0.0" d="m126.97638 89.78871l0 0c0 -16.530128 25.68428 -29.930443 57.367447 -29.930443c31.683182 0 57.367462 13.400314 57.367462 29.930443l0 119.72179c0 16.530136 -25.68428 29.93045 -57.367462 29.93045c-31.683167 0 -57.367447 -13.400314 -57.367447 -29.93045z" fill-rule="evenodd"></path><path stroke="#000000" stroke-width="1.0" stroke-linejoin="round" stroke-linecap="butt" d="m241.71129 89.78871l0 0c0 16.530128 -25.68428 29.93045 -57.367462 29.93045c-31.683167 0 -57.367447 -13.400322 -57.367447 -29.93045" fill-rule="evenodd"></path><path stroke="#000000" stroke-width="1.0" stroke-linejoin="round" stroke-linecap="butt" d="m126.97638 89.78871l0 0c0 -16.530128 25.68428 -29.930443 57.367447 -29.930443c31.683182 0 57.367462 13.400314 57.367462 29.930443l0 119.72179c0 16.530136 -25.68428 29.93045 -57.367462 29.93045c-31.683167 0 -57.367447 -13.400314 -57.367447 -29.93045z" fill-rule="evenodd"></path><path fill="#b6d7a8" d="m671.1555 478.26773l0 0c5.165161 0 9.352356 -4.187195 9.352356 -9.352386l-9.352356 0c2.5825806 0 4.6761475 -2.0935974 4.6761475 -4.676178c0 -2.5825806 -2.093567 -4.676178 -4.6761475 -4.676178l9.352356 0l0 -151.53345l0 0c0 -5.1651917 4.187195 -9.352386 9.352356 -9.352386l112.22833 0c5.165161 0 9.352356 4.187195 9.352356 9.352386c0 5.165161 -4.187195 9.352356 -9.352356 9.352356l-9.352356 0l0 151.53345c0 5.1651917 -4.187195 9.352386 -9.352356 9.352386zm28.057068 -170.23819l0 0c0 5.165161 -4.187195 9.352356 -9.352356 9.352356c-2.5825806 0 -4.6761475 -2.0935974 -4.6761475 -4.676178c0 -2.5825806 2.093567 -4.676178 4.6761475 -4.676178z" fill-rule="evenodd"></path><path fill="#91ab86" d="m699.2126 308.02954l0 0c0 5.165161 -4.187195 9.352356 -9.352356 9.352356c-2.5825806 0 -4.6761475 -2.0935974 -4.6761475 -4.676178c0 -2.5825806 2.093567 -4.676178 4.6761475 -4.676178zm-18.704712 160.8858c0 5.1651917 -4.187195 9.352386 -9.352356 9.352386c-5.165161 0 -9.352356 -4.187195 -9.352356 -9.352386c0 -5.165161 4.187195 -9.352356 9.352356 -9.352356l0 0c2.5825806 0 4.6761475 2.0935974 4.6761475 4.676178c0 2.5825806 -2.093567 4.676178 -4.6761475 4.676178z" fill-rule="evenodd"></path><path fill="#000000" fill-opacity="0.0" d="m680.5079 459.563l0 -151.53345l0 0c0 -5.1651917 4.187195 -9.352386 9.352356 -9.352386l112.22833 0c5.165161 0 9.352356 4.187195 9.352356 9.352386c0 5.165161 -4.187195 9.352356 -9.352356 9.352356l-9.352356 0l0 151.53345c0 5.1651917 -4.187195 9.352386 -9.352356 9.352386l-112.22833 0l0 0c-5.165161 0 -9.352356 -4.187195 -9.352356 -9.352386c0 -5.165161 4.187195 -9.352356 9.352356 -9.352356zm9.352356 -160.88583l0 0c5.165161 0 9.352356 4.187195 9.352356 9.352386c0 5.165161 -4.187195 9.352356 -9.352356 9.352356c-2.5825806 0 -4.6761475 -2.0935974 -4.6761475 -4.676178c0 -2.5825806 2.093567 -4.676178 4.6761475 -4.676178l9.352356 0m93.52362 9.352356l-102.87598 0m-18.704712 142.18109l0 0c2.5825806 0 4.6761475 2.0935974 4.6761475 4.676178c0 2.5825806 -2.093567 4.676178 -4.6761475 4.676178l9.352356 0m-9.352356 9.352386l0 0c5.165161 0 9.352356 -4.187195 9.352356 -9.352386l0 -9.352356" fill-rule="evenodd"></path><path stroke="#000000" stroke-width="1.0" stroke-linejoin="round" stroke-linecap="butt" d="m680.5079 459.563l0 -151.53345l0 0c0 -5.1651917 4.187195 -9.352386 9.352356 -9.352386l112.22833 0c5.165161 0 9.352356 4.187195 9.352356 9.352386c0 5.165161 -4.187195 9.352356 -9.352356 9.352356l-9.352356 0l0 151.53345c0 5.1651917 -4.187195 9.352386 -9.352356 9.352386l-112.22833 0l0 0c-5.165161 0 -9.352356 -4.187195 -9.352356 -9.352386c0 -5.165161 4.187195 -9.352356 9.352356 -9.352356zm9.352356 -160.88583l0 0c5.165161 0 9.352356 4.187195 9.352356 9.352386c0 5.165161 -4.187195 9.352356 -9.352356 9.352356c-2.5825806 0 -4.6761475 -2.0935974 -4.6761475 -4.676178c0 -2.5825806 2.093567 -4.676178 4.6761475 -4.676178l9.352356 0m93.52362 9.352356l-102.87598 0m-18.704712 142.18109l0 0c2.5825806 0 4.6761475 2.0935974 4.6761475 4.676178c0 2.5825806 -2.093567 4.676178 -4.6761475 4.676178l9.352356 0m-9.352356 9.352386l0 0c5.165161 0 9.352356 -4.187195 9.352356 -9.352386l0 -9.352356" fill-rule="evenodd"></path><path fill="#000000" d="m710.9429 400.06863l-1.65625 -4.234375l-5.34375 0l-1.640625 4.234375l-1.5625 0l5.265625 -13.375l1.296875 0l5.25 13.375l-1.609375 0zm-2.140625 -5.625l-1.546875 -4.125q-0.296875 -0.796875 -0.625 -1.921875q-0.203125 0.875 -0.578125 1.921875l-1.5625 4.125l4.3125 0zm9.993408 5.8125q-0.96875 0 -1.78125 -0.359375q-0.8125 -0.359375 -1.359375 -1.109375l-0.109375 0q0.109375 0.875 0.109375 1.65625l0 4.109375l-1.5 0l0 -14.46875l1.21875 0l0.21875 1.359375l0.0625 0q0.59375 -0.8125 1.359375 -1.171875q0.78125 -0.375 1.78125 -0.375q1.984375 0 3.0625 1.359375q1.078125 1.359375 1.078125 3.8125q0 2.453125 -1.09375 3.828125q-1.09375 1.359375 -3.046875 1.359375zm-0.21875 -9.0625q-1.53125 0 -2.21875 0.84375q-0.671875 0.84375 -0.703125 2.6875l0 0.34375q0 2.109375 0.703125 3.015625q0.703125 0.90625 2.25 0.90625q1.296875 0 2.03125 -1.046875q0.734375 -1.046875 0.734375 -2.890625q0 -1.875 -0.734375 -2.859375q-0.734375 -1.0 -2.0625 -1.0zm11.651184 9.0625q-0.96875 0 -1.78125 -0.359375q-0.8125 -0.359375 -1.359375 -1.109375l-0.109375 0q0.109375 0.875 0.109375 1.65625l0 4.109375l-1.5 0l0 -14.46875l1.21875 0l0.21875 1.359375l0.0625 0q0.59375 -0.8125 1.359375 -1.171875q0.78125 -0.375 1.78125 -0.375q1.984375 0 3.0625 1.359375q1.078125 1.359375 1.078125 3.8125q0 2.453125 -1.09375 3.828125q-1.09375 1.359375 -3.046875 1.359375zm-0.21875 -9.0625q-1.53125 0 -2.21875 0.84375q-0.671875 0.84375 -0.703125 2.6875l0 0.34375q0 2.109375 0.703125 3.015625q0.703125 0.90625 2.25 0.90625q1.296875 0 2.03125 -1.046875q0.734375 -1.046875 0.734375 -2.890625q0 -1.875 -0.734375 -2.859375q-0.734375 -1.0 -2.0625 -1.0zm17.778625 -3.25q-2.1875 0 -3.46875 1.46875q-1.265625 1.453125 -1.265625 4.0q0 2.609375 1.21875 4.046875q1.234375 1.421875 3.5 1.421875q1.390625 0 3.171875 -0.5l0 1.34375q-1.375 0.53125 -3.40625 0.53125q-2.9375 0 -4.546875 -1.78125q-1.59375 -1.796875 -1.59375 -5.078125q0 -2.0625 0.765625 -3.609375q0.765625 -1.546875 2.21875 -2.390625q1.453125 -0.84375 3.421875 -0.84375q2.09375 0 3.671875 0.765625l-0.65625 1.328125q-1.515625 -0.703125 -3.03125 -0.703125zm13.58197 8.578125q0 1.765625 -1.28125 2.75q-1.265625 0.984375 -3.453125 0.984375q-2.375 0 -3.640625 -0.609375l0 -1.5q0.8125 0.34375 1.78125 0.546875q0.96875 0.203125 1.921875 0.203125q1.546875 0 2.328125 -0.578125q0.78125 -0.59375 0.78125 -1.640625q0 -0.703125 -0.28125 -1.140625q-0.28125 -0.4375 -0.9375 -0.8125q-0.640625 -0.375 -1.96875 -0.84375q-1.859375 -0.671875 -2.65625 -1.578125q-0.796875 -0.921875 -0.796875 -2.375q0 -1.546875 1.15625 -2.453125q1.15625 -0.921875 3.0625 -0.921875q1.984375 0 3.65625 0.734375l-0.484375 1.34375q-1.65625 -0.6875 -3.21875 -0.6875q-1.21875 0 -1.921875 0.53125q-0.6875 0.53125 -0.6875 1.46875q0 0.6875 0.25 1.140625q0.265625 0.4375 0.859375 0.8125q0.609375 0.359375 1.859375 0.796875q2.09375 0.75 2.875 1.609375q0.796875 0.859375 0.796875 2.21875zm10.239075 0q0 1.765625 -1.28125 2.75q-1.265625 0.984375 -3.453125 0.984375q-2.375 0 -3.640625 -0.609375l0 -1.5q0.8125 0.34375 1.78125 0.546875q0.96875 0.203125 1.921875 0.203125q1.546875 0 2.328125 -0.578125q0.78125 -0.59375 0.78125 -1.640625q0 -0.703125 -0.28125 -1.140625q-0.28125 -0.4375 -0.9375 -0.8125q-0.640625 -0.375 -1.96875 -0.84375q-1.859375 -0.671875 -2.65625 -1.578125q-0.796875 -0.921875 -0.796875 -2.375q0 -1.546875 1.15625 -2.453125q1.15625 -0.921875 3.0625 -0.921875q1.984375 0 3.65625 0.734375l-0.484375 1.34375q-1.65625 -0.6875 -3.21875 -0.6875q-1.21875 0 -1.921875 0.53125q-0.6875 0.53125 -0.6875 1.46875q0 0.6875 0.25 1.140625q0.265625 0.4375 0.859375 0.8125q0.609375 0.359375 1.859375 0.796875q2.09375 0.75 2.875 1.609375q0.796875 0.859375 0.796875 2.21875z" fill-rule="nonzero"></path><path fill="#ffe599" d="m295.41995 239.44095l31.925964 -154.64043l127.70395 0l-31.925995 154.64043z" fill-rule="evenodd"></path><path stroke="#000000" stroke-width="1.0" stroke-linejoin="round" stroke-linecap="butt" d="m295.41995 239.44095l31.925964 -154.64043l127.70395 0l-31.925995 154.64043z" fill-rule="evenodd"></path><path fill="#000000" d="m368.10266 158.04073l-1.65625 -4.234375l-5.34375 0l-1.640625 4.234375l-1.5625 0l5.265625 -13.375l1.296875 0l5.25 13.375l-1.609375 0zm-2.140625 -5.625l-1.546875 -4.125q-0.296875 -0.796875 -0.625 -1.921875q-0.203125 0.875 -0.578125 1.921875l-1.5625 4.125l4.3125 0zm9.993408 5.8125q-0.96875 0 -1.78125 -0.359375q-0.8125 -0.359375 -1.359375 -1.109375l-0.109375 0q0.109375 0.875 0.109375 1.65625l0 4.109375l-1.5 0l0 -14.46875l1.21875 0l0.21875 1.359375l0.0625 0q0.59375 -0.8125 1.359375 -1.171875q0.78125 -0.375 1.78125 -0.375q1.984375 0 3.0625 1.359375q1.078125 1.359375 1.078125 3.8125q0 2.453125 -1.09375 3.828125q-1.09375 1.359375 -3.046875 1.359375zm-0.21875 -9.0625q-1.53125 0 -2.21875 0.84375q-0.671875 0.84375 -0.703125 2.6875l0 0.34375q0 2.109375 0.703125 3.015625q0.703125 0.90625 2.25 0.90625q1.296875 0 2.03125 -1.046875q0.734375 -1.046875 0.734375 -2.890625q0 -1.875 -0.734375 -2.859375q-0.734375 -1.0 -2.0625 -1.0zm11.651154 9.0625q-0.96875 0 -1.78125 -0.359375q-0.8125 -0.359375 -1.359375 -1.109375l-0.109375 0q0.109375 0.875 0.109375 1.65625l0 4.109375l-1.5 0l0 -14.46875l1.21875 0l0.21875 1.359375l0.0625 0q0.59375 -0.8125 1.359375 -1.171875q0.78125 -0.375 1.78125 -0.375q1.984375 0 3.0625 1.359375q1.078125 1.359375 1.078125 3.8125q0 2.453125 -1.09375 3.828125q-1.09375 1.359375 -3.046875 1.359375zm-0.21875 -9.0625q-1.53125 0 -2.21875 0.84375q-0.671875 0.84375 -0.703125 2.6875l0 0.34375q0 2.109375 0.703125 3.015625q0.703125 0.90625 2.25 0.90625q1.296875 0 2.03125 -1.046875q0.734375 -1.046875 0.734375 -2.890625q0 -1.875 -0.734375 -2.859375q-0.734375 -1.0 -2.0625 -1.0z" fill-rule="nonzero"></path><path fill="#000000" d="m367.23462 173.25948q0 3.296875 -1.796875 5.046875q-1.796875 1.734375 -5.15625 1.734375l-3.6875 0l0 -13.3125l4.078125 0q3.109375 0 4.828125 1.71875q1.734375 1.71875 1.734375 4.8125zm-1.640625 0.046875q0 -2.609375 -1.3125 -3.921875q-1.3125 -1.328125 -3.890625 -1.328125l-2.25 0l0 10.640625l1.890625 0q2.765625 0 4.15625 -1.359375q1.40625 -1.359375 1.40625 -4.03125zm10.522339 6.734375l-0.3125 -1.421875l-0.0625 0q-0.75 0.9375 -1.5 1.28125q-0.734375 0.328125 -1.84375 0.328125q-1.484375 0 -2.328125 -0.765625q-0.84375 -0.765625 -0.84375 -2.1875q0 -3.015625 4.828125 -3.171875l1.703125 -0.046875l0 -0.625q0 -1.171875 -0.515625 -1.734375q-0.5 -0.5625 -1.609375 -0.5625q-1.25 0 -2.828125 0.765625l-0.453125 -1.15625q0.734375 -0.390625 1.609375 -0.609375q0.875 -0.234375 1.765625 -0.234375q1.78125 0 2.640625 0.796875q0.859375 0.78125 0.859375 2.53125l0 6.8125l-1.109375 0zm-3.421875 -1.0625q1.40625 0 2.203125 -0.765625q0.8125 -0.78125 0.8125 -2.1875l0 -0.890625l-1.5 0.0625q-1.8125 0.0625 -2.609375 0.5625q-0.796875 0.484375 -0.796875 1.546875q0 0.8125 0.5 1.25q0.5 0.421875 1.390625 0.421875zm10.875732 0q0.40625 0 0.765625 -0.0625q0.375 -0.0625 0.59375 -0.125l0 1.15625q-0.234375 0.125 -0.71875 0.203125q-0.484375 0.078125 -0.859375 0.078125q-2.890625 0 -2.890625 -3.0625l0 -5.9375l-1.4375 0l0 -0.71875l1.4375 -0.640625l0.625 -2.125l0.875 0l0 2.3125l2.90625 0l0 1.171875l-2.90625 0l0 5.875q0 0.90625 0.421875 1.390625q0.4375 0.484375 1.1875 0.484375zm9.508026 1.0625l-0.3125 -1.421875l-0.0625 0q-0.75 0.9375 -1.5 1.28125q-0.734375 0.328125 -1.84375 0.328125q-1.484375 0 -2.328125 -0.765625q-0.84375 -0.765625 -0.84375 -2.1875q0 -3.015625 4.828125 -3.171875l1.703125 -0.046875l0 -0.625q0 -1.171875 -0.515625 -1.734375q-0.5 -0.5625 -1.609375 -0.5625q-1.25 0 -2.828125 0.765625l-0.453125 -1.15625q0.734375 -0.390625 1.609375 -0.609375q0.875 -0.234375 1.765625 -0.234375q1.78125 0 2.640625 0.796875q0.859375 0.78125 0.859375 2.53125l0 6.8125l-1.109375 0zm-3.421875 -1.0625q1.40625 0 2.203125 -0.765625q0.8125 -0.78125 0.8125 -2.1875l0 -0.890625l-1.5 0.0625q-1.8125 0.0625 -2.609375 0.5625q-0.796875 0.484375 -0.796875 1.546875q0 0.8125 0.5 1.25q0.5 0.421875 1.390625 0.421875z" fill-rule="nonzero"></path><path fill="#ffe599" d="m293.76968 478.26773l0 0c5.165161 0 9.352356 -4.187195 9.352356 -9.352386l-9.352356 0c2.5825806 0 4.676178 -2.0935974 4.676178 -4.676178c0 -2.5825806 -2.0935974 -4.676178 -4.676178 -4.676178l9.352356 0l0 -151.53345l0 0c0 -5.1651917 4.187195 -9.352386 9.352356 -9.352386l112.22836 0c5.165161 0 9.352356 4.187195 9.352356 9.352386c0 5.165161 -4.187195 9.352356 -9.352356 9.352356l-9.352356 0l0 151.53345c0 5.1651917 -4.187195 9.352386 -9.352386 9.352386zm28.057098 -170.23819l0 0c0 5.165161 -4.187195 9.352356 -9.352386 9.352356c-2.5825806 0 -4.676178 -2.0935974 -4.676178 -4.676178c0 -2.5825806 2.0935974 -4.676178 4.676178 -4.676178z" fill-rule="evenodd"></path><path fill="#cbb77a" d="m321.82678 308.02954l0 0c0 5.165161 -4.187195 9.352356 -9.352386 9.352356c-2.5825806 0 -4.676178 -2.0935974 -4.676178 -4.676178c0 -2.5825806 2.0935974 -4.676178 4.676178 -4.676178zm-18.704742 160.8858c0 5.1651917 -4.187195 9.352386 -9.352356 9.352386c-5.165161 0 -9.352356 -4.187195 -9.352356 -9.352386c0 -5.165161 4.187195 -9.352356 9.352356 -9.352356l0 0c2.5825806 0 4.676178 2.0935974 4.676178 4.676178c0 2.5825806 -2.0935974 4.676178 -4.676178 4.676178z" fill-rule="evenodd"></path><path fill="#000000" fill-opacity="0.0" d="m303.12204 459.563l0 -151.53345l0 0c0 -5.1651917 4.187195 -9.352386 9.352356 -9.352386l112.22836 0c5.165161 0 9.352356 4.187195 9.352356 9.352386c0 5.165161 -4.187195 9.352356 -9.352356 9.352356l-9.352356 0l0 151.53345c0 5.1651917 -4.187195 9.352386 -9.352386 9.352386l-112.22833 0l0 0c-5.165161 0 -9.352356 -4.187195 -9.352356 -9.352386c0 -5.165161 4.187195 -9.352356 9.352356 -9.352356zm9.352356 -160.88583l0 0c5.1651917 0 9.352386 4.187195 9.352386 9.352386c0 5.165161 -4.187195 9.352356 -9.352386 9.352356c-2.5825806 0 -4.676178 -2.0935974 -4.676178 -4.676178c0 -2.5825806 2.0935974 -4.676178 4.676178 -4.676178l9.352386 0m93.52362 9.352356l-102.87601 0m-18.704712 142.18109l0 0c2.5825806 0 4.676178 2.0935974 4.676178 4.676178c0 2.5825806 -2.0935974 4.676178 -4.676178 4.676178l9.352356 0m-9.352356 9.352386l0 0c5.165161 0 9.352356 -4.187195 9.352356 -9.352386l0 -9.352356" fill-rule="evenodd"></path><path stroke="#000000" stroke-width="1.0" stroke-linejoin="round" stroke-linecap="butt" d="m303.12204 459.563l0 -151.53345l0 0c0 -5.1651917 4.187195 -9.352386 9.352356 -9.352386l112.22836 0c5.165161 0 9.352356 4.187195 9.352356 9.352386c0 5.165161 -4.187195 9.352356 -9.352356 9.352356l-9.352356 0l0 151.53345c0 5.1651917 -4.187195 9.352386 -9.352386 9.352386l-112.22833 0l0 0c-5.165161 0 -9.352356 -4.187195 -9.352356 -9.352386c0 -5.165161 4.187195 -9.352356 9.352356 -9.352356zm9.352356 -160.88583l0 0c5.1651917 0 9.352386 4.187195 9.352386 9.352386c0 5.165161 -4.187195 9.352356 -9.352386 9.352356c-2.5825806 0 -4.676178 -2.0935974 -4.676178 -4.676178c0 -2.5825806 2.0935974 -4.676178 4.676178 -4.676178l9.352386 0m93.52362 9.352356l-102.87601 0m-18.704712 142.18109l0 0c2.5825806 0 4.676178 2.0935974 4.676178 4.676178c0 2.5825806 -2.0935974 4.676178 -4.676178 4.676178l9.352356 0m-9.352356 9.352386l0 0c5.165161 0 9.352356 -4.187195 9.352356 -9.352386l0 -9.352356" fill-rule="evenodd"></path><path fill="#000000" d="m342.06985 400.06863l-1.65625 -4.234375l-5.34375 0l-1.640625 4.234375l-1.5625 0l5.265625 -13.375l1.296875 0l5.25 13.375l-1.609375 0zm-2.140625 -5.625l-1.546875 -4.125q-0.296875 -0.796875 -0.625 -1.921875q-0.203125 0.875 -0.578125 1.921875l-1.5625 4.125l4.3125 0zm9.993408 5.8125q-0.96875 0 -1.78125 -0.359375q-0.8125 -0.359375 -1.359375 -1.109375l-0.109375 0q0.109375 0.875 0.109375 1.65625l0 4.109375l-1.5 0l0 -14.46875l1.21875 0l0.21875 1.359375l0.0625 0q0.59375 -0.8125 1.359375 -1.171875q0.78125 -0.375 1.78125 -0.375q1.984375 0 3.0625 1.359375q1.078125 1.359375 1.078125 3.8125q0 2.453125 -1.09375 3.828125q-1.09375 1.359375 -3.046875 1.359375zm-0.21875 -9.0625q-1.53125 0 -2.21875 0.84375q-0.671875 0.84375 -0.703125 2.6875l0 0.34375q0 2.109375 0.703125 3.015625q0.703125 0.90625 2.25 0.90625q1.296875 0 2.03125 -1.046875q0.734375 -1.046875 0.734375 -2.890625q0 -1.875 -0.734375 -2.859375q-0.734375 -1.0 -2.0625 -1.0zm11.651184 9.0625q-0.96875 0 -1.78125 -0.359375q-0.8125 -0.359375 -1.359375 -1.109375l-0.109375 0q0.109375 0.875 0.109375 1.65625l0 4.109375l-1.5 0l0 -14.46875l1.21875 0l0.21875 1.359375l0.0625 0q0.59375 -0.8125 1.359375 -1.171875q0.78125 -0.375 1.78125 -0.375q1.984375 0 3.0625 1.359375q1.078125 1.359375 1.078125 3.8125q0 2.453125 -1.09375 3.828125q-1.09375 1.359375 -3.046875 1.359375zm-0.21875 -9.0625q-1.53125 0 -2.21875 0.84375q-0.671875 0.84375 -0.703125 2.6875l0 0.34375q0 2.109375 0.703125 3.015625q0.703125 0.90625 2.25 0.90625q1.296875 0 2.03125 -1.046875q0.734375 -1.046875 0.734375 -2.890625q0 -1.875 -0.734375 -2.859375q-0.734375 -1.0 -2.0625 -1.0zm10.138031 12.375q-0.859375 0 -1.34375 -0.234375l0 -1.328125q0.640625 0.1875 1.34375 0.1875q0.90625 0 1.375 -0.546875q0.46875 -0.546875 0.46875 -1.578125l0 -13.3125l1.546875 0l0 13.1875q0 1.734375 -0.875 2.671875q-0.875 0.953125 -2.515625 0.953125zm14.436035 -7.046875q0 1.765625 -1.28125 2.75q-1.265625 0.984375 -3.453125 0.984375q-2.375 0 -3.640625 -0.609375l0 -1.5q0.8125 0.34375 1.78125 0.546875q0.96875 0.203125 1.921875 0.203125q1.546875 0 2.328125 -0.578125q0.78125 -0.59375 0.78125 -1.640625q0 -0.703125 -0.28125 -1.140625q-0.28125 -0.4375 -0.9375 -0.8125q-0.640625 -0.375 -1.96875 -0.84375q-1.859375 -0.671875 -2.65625 -1.578125q-0.796875 -0.921875 -0.796875 -2.375q0 -1.546875 1.15625 -2.453125q1.15625 -0.921875 3.0625 -0.921875q1.984375 0 3.65625 0.734375l-0.484375 1.34375q-1.65625 -0.6875 -3.21875 -0.6875q-1.21875 0 -1.921875 0.53125q-0.6875 0.53125 -0.6875 1.46875q0 0.6875 0.25 1.140625q0.265625 0.4375 0.859375 0.8125q0.609375 0.359375 1.859375 0.796875q2.09375 0.75 2.875 1.609375q0.796875 0.859375 0.796875 2.21875z" fill-rule="nonzero"></path><path fill="#000000" fill-opacity="0.0" d="m241.71129 149.64961l71.086624 0" fill-rule="evenodd"></path><path stroke="#000000" stroke-width="4.0" stroke-linejoin="round" stroke-linecap="butt" d="m241.71129 149.64961l47.086624 0" fill-rule="evenodd"></path><path fill="#000000" stroke="#000000" stroke-width="4.0" stroke-linecap="butt" d="m288.7979 156.25653l18.152374 -6.6069183l-18.152374 -6.6069336z" fill-rule="evenodd"></path><path fill="#000000" fill-opacity="0.0" d="m359.2719 239.44095l-0.03149414 59.24408" fill-rule="evenodd"></path><path stroke="#000000" stroke-width="4.0" stroke-linejoin="round" stroke-linecap="butt" d="m359.2719 239.44095l-0.01876831 35.24408" fill-rule="evenodd"></path><path fill="#000000" stroke="#000000" stroke-width="4.0" stroke-linecap="butt" d="m352.64624 274.68152l6.5972595 18.155914l6.616577 -18.148865z" fill-rule="evenodd"></path><path fill="#000000" fill-opacity="0.0" d="m679.34644 388.47244l-54.141724 0" fill-rule="evenodd"></path><path stroke="#000000" stroke-width="4.0" stroke-linejoin="round" stroke-linecap="butt" d="m679.34644 388.47244l-30.141724 0" fill-rule="evenodd"></path><path fill="#000000" stroke="#000000" stroke-width="4.0" stroke-linecap="butt" d="m649.2047 381.8655l-18.152405 6.6069336l18.152405 6.6069336z" fill-rule="evenodd"></path><path fill="#000000" fill-opacity="0.0" d="m415.34647 388.47244l58.2677 0" fill-rule="evenodd"></path><path stroke="#000000" stroke-width="4.0" stroke-linejoin="round" stroke-linecap="butt" d="m415.34647 388.47244l34.2677 0" fill-rule="evenodd"></path><path fill="#000000" stroke="#000000" stroke-width="4.0" stroke-linecap="butt" d="m449.61417 395.07938l18.152405 -6.6069336l-18.152405 -6.6069336z" fill-rule="evenodd"></path><path fill="#cfe2f3" d="m547.96063 531.8284l56.747192 -44.623444l-4.5186157 59.371185l59.373108 -26.772034l-27.742676 34.53131l89.008545 1.1613159l-78.692444 28.334167l21.911133 19.40326l-32.227234 10.482727l42.577454 34.140747l-72.24695 -13.175354l5.149536 31.037048l-47.09613 -14.747742l-9.685181 29.875732l-29.669556 -15.127991l-19.984253 24.069092l-20.001343 -16.309814l-44.504272 35.713135l-1.9097595 -34.53131l-60.021088 -4.2650146l34.87021 -25.230408l-56.78131 -25.620972l67.09741 -13.206177l-47.11313 -34.140747l71.61606 -4.6555176l-14.834747 -43.08191l69.02423 28.334167l19.984314 -46.195892z" fill-rule="evenodd"></path><path stroke="#000000" stroke-width="1.0" stroke-linejoin="round" stroke-linecap="butt" d="m547.96063 531.8284l56.747192 -44.623444l-4.5186157 59.371185l59.373108 -26.772034l-27.742676 34.53131l89.008545 1.1613159l-78.692444 28.334167l21.911133 19.40326l-32.227234 10.482727l42.577454 34.140747l-72.24695 -13.175354l5.149536 31.037048l-47.09613 -14.747742l-9.685181 29.875732l-29.669556 -15.127991l-19.984253 24.069092l-20.001343 -16.309814l-44.504272 35.713135l-1.9097595 -34.53131l-60.021088 -4.2650146l34.87021 -25.230408l-56.78131 -25.620972l67.09741 -13.206177l-47.11313 -34.140747l71.61606 -4.6555176l-14.834747 -43.08191l69.02423 28.334167l19.984314 -46.195892z" fill-rule="evenodd"></path><path fill="#000000" d="m474.00214 597.80273l-1.65625 -4.234375l-5.34375 0l-1.640625 4.234375l-1.5625 0l5.265625 -13.375l1.296875 0l5.25 13.375l-1.609375 0zm-2.140625 -5.625l-1.546875 -4.125q-0.296875 -0.796875 -0.625 -1.921875q-0.203125 0.875 -0.578125 1.921875l-1.5625 4.125l4.3125 0zm18.071533 5.625l0 -6.5q0 -1.1875 -0.515625 -1.78125q-0.5 -0.59375 -1.578125 -0.59375q-1.40625 0 -2.09375 0.8125q-0.671875 0.796875 -0.671875 2.484375l0 5.578125l-1.5 0l0 -6.5q0 -1.1875 -0.515625 -1.78125q-0.515625 -0.59375 -1.59375 -0.59375q-1.421875 0 -2.09375 0.859375q-0.65625 0.84375 -0.65625 2.78125l0 5.234375l-1.5 0l0 -9.984375l1.21875 0l0.25 1.359375l0.078125 0q0.421875 -0.71875 1.203125 -1.125q0.78125 -0.421875 1.75 -0.421875q2.328125 0 3.0625 1.703125l0.0625 0q0.453125 -0.78125 1.296875 -1.234375q0.84375 -0.46875 1.9375 -0.46875q1.6875 0 2.53125 0.875q0.84375 0.875 0.84375 2.78125l0 6.515625l-1.515625 0zm10.775482 0l-0.3125 -1.421875l-0.0625 0q-0.75 0.9375 -1.5 1.28125q-0.734375 0.328125 -1.84375 0.328125q-1.484375 0 -2.328125 -0.765625q-0.84375 -0.765625 -0.84375 -2.1875q0 -3.015625 4.828125 -3.171875l1.703125 -0.046875l0 -0.625q0 -1.171875 -0.515625 -1.734375q-0.5 -0.5625 -1.609375 -0.5625q-1.25 0 -2.828125 0.765625l-0.453125 -1.15625q0.734375 -0.390625 1.609375 -0.609375q0.875 -0.234375 1.765625 -0.234375q1.78125 0 2.640625 0.796875q0.859375 0.78125 0.859375 2.53125l0 6.8125l-1.109375 0zm-3.421875 -1.0625q1.40625 0 2.203125 -0.765625q0.8125 -0.78125 0.8125 -2.1875l0 -0.890625l-1.5 0.0625q-1.8125 0.0625 -2.609375 0.5625q-0.796875 0.484375 -0.796875 1.546875q0 0.8125 0.5 1.25q0.5 0.421875 1.390625 0.421875zm14.031952 1.0625l-7.234375 0l0 -1.03125l5.4375 -7.78125l-5.109375 0l0 -1.171875l6.78125 0l0 1.171875l-5.375 7.640625l5.5 0l0 1.171875zm3.8519287 0l-1.5 0l0 -9.984375l1.5 0l0 9.984375zm-1.640625 -12.6875q0 -0.515625 0.25 -0.75q0.265625 -0.25 0.65625 -0.25q0.359375 0 0.625 0.25q0.265625 0.234375 0.265625 0.75q0 0.515625 -0.265625 0.765625q-0.265625 0.25 -0.625 0.25q-0.390625 0 -0.65625 -0.25q-0.25 -0.25 -0.25 -0.765625zm11.687439 12.6875l0 -6.453125q0 -1.21875 -0.5625 -1.8125q-0.546875 -0.609375 -1.734375 -0.609375q-1.5625 0 -2.296875 0.84375q-0.734375 0.84375 -0.734375 2.796875l0 5.234375l-1.5 0l0 -9.984375l1.21875 0l0.25 1.359375l0.078125 0q0.453125 -0.734375 1.296875 -1.140625q0.84375 -0.40625 1.875 -0.40625q1.796875 0 2.703125 0.875q0.921875 0.875 0.921875 2.78125l0 6.515625l-1.515625 0zm12.794373 -9.984375l0 0.953125l-1.859375 0.21875q0.265625 0.328125 0.453125 0.84375q0.203125 0.515625 0.203125 1.15625q0 1.46875 -1.0 2.34375q-1.0 0.875 -2.75 0.875q-0.453125 0 -0.84375 -0.078125q-0.953125 0.515625 -0.953125 1.28125q0 0.40625 0.328125 0.609375q0.34375 0.203125 1.15625 0.203125l1.765625 0q1.625 0 2.484375 0.6875q0.875 0.671875 0.875 1.96875q0 1.65625 -1.328125 2.53125q-1.328125 0.875 -3.875 0.875q-1.953125 0 -3.015625 -0.734375q-1.0625 -0.71875 -1.0625 -2.0625q0 -0.90625 0.578125 -1.578125q0.578125 -0.65625 1.640625 -0.890625q-0.375 -0.171875 -0.640625 -0.53125q-0.265625 -0.375 -0.265625 -0.859375q0 -0.546875 0.296875 -0.953125q0.296875 -0.40625 0.921875 -0.796875q-0.78125 -0.3125 -1.265625 -1.078125q-0.484375 -0.765625 -0.484375 -1.75q0 -1.640625 0.984375 -2.53125q0.984375 -0.890625 2.78125 -0.890625q0.78125 0 1.421875 0.1875l3.453125 0zm-7.96875 11.65625q0 0.8125 0.671875 1.234375q0.6875 0.421875 1.96875 0.421875q1.90625 0 2.8125 -0.578125q0.921875 -0.5625 0.921875 -1.53125q0 -0.8125 -0.5 -1.140625q-0.5 -0.3125 -1.890625 -0.3125l-1.8125 0q-1.03125 0 -1.609375 0.484375q-0.5625 0.5 -0.5625 1.421875zm0.8125 -8.453125q0 1.046875 0.59375 1.578125q0.59375 0.53125 1.65625 0.53125q2.21875 0 2.21875 -2.140625q0 -2.25 -2.25 -2.25q-1.0625 0 -1.640625 0.578125q-0.578125 0.5625 -0.578125 1.703125zm25.895264 6.78125l-1.53125 0l-2.6875 -8.921875q-0.1875 -0.59375 -0.421875 -1.484375q-0.234375 -0.90625 -0.25 -1.09375q-0.203125 1.203125 -0.640625 2.640625l-2.609375 8.859375l-1.515625 0l-3.546875 -13.3125l1.640625 0l2.09375 8.21875q0.4375 1.734375 0.640625 3.140625q0.25 -1.671875 0.734375 -3.265625l2.390625 -8.09375l1.625 0l2.515625 8.171875q0.4375 1.40625 0.734375 3.1875q0.171875 -1.296875 0.65625 -3.15625l2.09375 -8.203125l1.640625 0l-3.5625 13.3125zm9.646606 0.1875q-2.21875 0 -3.5 -1.34375q-1.28125 -1.359375 -1.28125 -3.75q0 -2.421875 1.1875 -3.84375q1.1875 -1.421875 3.1875 -1.421875q1.890625 0 2.96875 1.234375q1.09375 1.234375 1.09375 3.265625l0 0.953125l-6.875 0q0.046875 1.765625 0.890625 2.671875q0.84375 0.90625 2.375 0.90625q1.609375 0 3.1875 -0.671875l0 1.34375q-0.796875 0.34375 -1.515625 0.5q-0.71875 0.15625 -1.71875 0.15625zm-0.421875 -9.09375q-1.203125 0 -1.921875 0.796875q-0.703125 0.78125 -0.828125 2.15625l5.21875 0q0 -1.421875 -0.640625 -2.1875q-0.640625 -0.765625 -1.828125 -0.765625zm11.310547 -1.234375q1.96875 0 3.046875 1.34375q1.09375 1.34375 1.09375 3.796875q0 2.453125 -1.09375 3.828125q-1.09375 1.359375 -3.046875 1.359375q-0.96875 0 -1.78125 -0.359375q-0.8125 -0.359375 -1.359375 -1.109375l-0.109375 0l-0.3125 1.28125l-1.078125 0l0 -14.171875l1.5 0l0 3.4375q0 1.15625 -0.0625 2.078125l0.0625 0q1.0625 -1.484375 3.140625 -1.484375zm-0.21875 1.265625q-1.546875 0 -2.234375 0.890625q-0.6875 0.875 -0.6875 2.984375q0 2.109375 0.703125 3.015625q0.703125 0.90625 2.25 0.90625q1.390625 0 2.078125 -1.015625q0.6875 -1.015625 0.6875 -2.921875q0 -1.953125 -0.6875 -2.90625q-0.6875 -0.953125 -2.109375 -0.953125z" fill-rule="nonzero"></path><path fill="#000000" d="m516.00146 619.80273l-1.65625 -4.234375l-5.3437195 0l-1.640625 4.234375l-1.5625 0l5.265625 -13.375l1.2968445 0l5.25 13.375l-1.609375 0zm-2.140625 -5.625l-1.546875 -4.125q-0.296875 -0.796875 -0.6249695 -1.921875q-0.203125 0.875 -0.578125 1.921875l-1.5625 4.125l4.3124695 0zm9.993408 5.8125q-0.96875 0 -1.78125 -0.359375q-0.8125 -0.359375 -1.359375 -1.109375l-0.109375 0q0.109375 0.875 0.109375 1.65625l0 4.109375l-1.5 0l0 -14.46875l1.21875 0l0.21875 1.359375l0.0625 0q0.59375 -0.8125 1.359375 -1.171875q0.78125 -0.375 1.78125 -0.375q1.984375 0 3.0625 1.359375q1.078125 1.359375 1.078125 3.8125q0 2.453125 -1.09375 3.828125q-1.09375 1.359375 -3.046875 1.359375zm-0.21875 -9.0625q-1.53125 0 -2.21875 0.84375q-0.671875 0.84375 -0.703125 2.6875l0 0.34375q0 2.109375 0.703125 3.015625q0.703125 0.90625 2.25 0.90625q1.296875 0 2.03125 -1.046875q0.734375 -1.046875 0.734375 -2.890625q0 -1.875 -0.734375 -2.859375q-0.734375 -1.0 -2.0625 -1.0zm11.651184 9.0625q-0.96875 0 -1.78125 -0.359375q-0.8125 -0.359375 -1.359375 -1.109375l-0.109375 0q0.109375 0.875 0.109375 1.65625l0 4.109375l-1.5 0l0 -14.46875l1.21875 0l0.21875 1.359375l0.0625 0q0.59375 -0.8125 1.359375 -1.171875q0.78125 -0.375 1.78125 -0.375q1.984375 0 3.0625 1.359375q1.078125 1.359375 1.078125 3.8125q0 2.453125 -1.09375 3.828125q-1.09375 1.359375 -3.046875 1.359375zm-0.21875 -9.0625q-1.53125 0 -2.21875 0.84375q-0.671875 0.84375 -0.703125 2.6875l0 0.34375q0 2.109375 0.703125 3.015625q0.703125 0.90625 2.25 0.90625q1.296875 0 2.03125 -1.046875q0.734375 -1.046875 0.734375 -2.890625q0 -1.875 -0.734375 -2.859375q-0.734375 -1.0 -2.0625 -1.0z" fill-rule="nonzero"></path><path fill="#000000" fill-opacity="0.0" d="m527.7559 474.21783l0 68.188965" fill-rule="evenodd"></path><path stroke="#000000" stroke-width="4.0" stroke-linejoin="round" stroke-linecap="butt" d="m527.7559 474.21783l0 44.188965" fill-rule="evenodd"></path><path fill="#000000" stroke="#000000" stroke-width="4.0" stroke-linecap="butt" d="m521.149 518.4068l6.6069336 18.152405l6.6069336 -18.152405z" fill-rule="evenodd"></path><path fill="#ffffff" d="m475.56693 298.67715l149.63779 0l0 154.65042l-24.940125 24.940155l-124.69766 0z" fill-rule="evenodd"></path><path fill="#cbcbcb" d="m600.2646 478.26773l4.988037 -19.952118l19.952087 -4.988037z" fill-rule="evenodd"></path><path fill="#000000" fill-opacity="0.0" d="m600.2646 478.26773l4.988037 -19.952118l19.952087 -4.988037l-24.940125 24.940155l-124.69766 0l0 -179.59058l149.63779 0l0 154.65042" fill-rule="evenodd"></path><path stroke="#000000" stroke-width="1.0" stroke-linejoin="round" stroke-linecap="butt" d="m600.2646 478.26773l4.988037 -19.952118l19.952087 -4.988037l-24.940125 24.940155l-124.69766 0l0 -179.59058l149.63779 0l0 154.65042" fill-rule="evenodd"></path><path fill="#000000" d="m511.1497 360.92236l-4.515625 -11.8125l-0.0625 0q0.125 1.40625 0.125 3.34375l0 8.46875l-1.4375 0l0 -13.3125l2.328125 0l4.21875 10.984375l0.078125 0l4.2499695 -10.984375l2.3125 0l0 13.3125l-1.546875 0l0 -8.578125q0 -1.484375 0.125 -3.203125l-0.0625 0l-4.5625 11.78125l-1.2499695 0zm12.2341 0l-1.5 0l0 -9.984375l1.5 0l0 9.984375zm-1.640625 -12.6875q0 -0.515625 0.25 -0.75q0.265625 -0.25 0.65625 -0.25q0.359375 0 0.625 0.25q0.265625 0.234375 0.265625 0.75q0 0.515625 -0.265625 0.765625q-0.265625 0.25 -0.625 0.25q-0.390625 0 -0.65625 -0.25q-0.25 -0.25 -0.25 -0.765625zm11.687439 12.6875l0 -6.453125q0 -1.21875 -0.5625 -1.8125q-0.546875 -0.609375 -1.734375 -0.609375q-1.5625 0 -2.296875 0.84375q-0.734375 0.84375 -0.734375 2.796875l0 5.234375l-1.5 0l0 -9.984375l1.21875 0l0.25 1.359375l0.078125 0q0.453125 -0.734375 1.296875 -1.140625q0.84375 -0.40625 1.875 -0.40625q1.796875 0 2.703125 0.875q0.921875 0.875 0.921875 2.78125l0 6.515625l-1.515625 0zm6.1224976 0l-1.5 0l0 -9.984375l1.5 0l0 9.984375zm-1.640625 -12.6875q0 -0.515625 0.25 -0.75q0.265625 -0.25 0.65625 -0.25q0.359375 0 0.625 0.25q0.265625 0.234375 0.265625 0.75q0 0.515625 -0.265625 0.765625q-0.265625 0.25 -0.625 0.25q-0.390625 0 -0.65625 -0.25q-0.25 -0.25 -0.25 -0.765625zm17.578125 12.6875l0 -6.5q0 -1.1875 -0.515625 -1.78125q-0.5 -0.59375 -1.578125 -0.59375q-1.40625 0 -2.09375 0.8125q-0.671875 0.796875 -0.671875 2.484375l0 5.578125l-1.5 0l0 -6.5q0 -1.1875 -0.515625 -1.78125q-0.515625 -0.59375 -1.59375 -0.59375q-1.421875 0 -2.09375 0.859375q-0.65625 0.84375 -0.65625 2.78125l0 5.234375l-1.5 0l0 -9.984375l1.21875 0l0.25 1.359375l0.078125 0q0.421875 -0.71875 1.203125 -1.125q0.78125 -0.421875 1.75 -0.421875q2.328125 0 3.0625 1.703125l0.0625 0q0.453125 -0.78125 1.296875 -1.234375q0.84375 -0.46875 1.9375 -0.46875q1.6875 0 2.53125 0.875q0.84375 0.875 0.84375 2.78125l0 6.515625l-1.515625 0zm10.775452 0l-0.3125 -1.421875l-0.0625 0q-0.75 0.9375 -1.5 1.28125q-0.734375 0.328125 -1.84375 0.328125q-1.484375 0 -2.328125 -0.765625q-0.84375 -0.765625 -0.84375 -2.1875q0 -3.015625 4.828125 -3.171875l1.703125 -0.046875l0 -0.625q0 -1.171875 -0.515625 -1.734375q-0.5 -0.5625 -1.609375 -0.5625q-1.25 0 -2.828125 0.765625l-0.453125 -1.15625q0.734375 -0.390625 1.609375 -0.609375q0.875 -0.234375 1.765625 -0.234375q1.78125 0 2.640625 0.796875q0.859375 0.78125 0.859375 2.53125l0 6.8125l-1.109375 0zm-3.421875 -1.0625q1.40625 0 2.203125 -0.765625q0.8125 -0.78125 0.8125 -2.1875l0 -0.890625l-1.5 0.0625q-1.8125 0.0625 -2.609375 0.5625q-0.796875 0.484375 -0.796875 1.546875q0 0.8125 0.5 1.25q0.5 0.421875 1.390625 0.421875zm9.156982 1.0625l-1.5 0l0 -14.171875l1.5 0l0 14.171875zm16.674316 -5.0q0 2.4375 -1.234375 3.8125q-1.21875 1.375 -3.390625 1.375q-1.34375 0 -2.390625 -0.625q-1.03125 -0.640625 -1.59375 -1.8125q-0.5625 -1.171875 -0.5625 -2.75q0 -2.4375 1.21875 -3.796875q1.21875 -1.375 3.390625 -1.375q2.09375 0 3.328125 1.40625q1.234375 1.390625 1.234375 3.765625zm-7.609375 0q0 1.90625 0.765625 2.921875q0.765625 1.0 2.25 1.0q1.484375 0 2.25 -1.0q0.78125 -1.0 0.78125 -2.921875q0 -1.90625 -0.78125 -2.890625q-0.765625 -0.984375 -2.265625 -0.984375q-1.484375 0 -2.25 0.96875q-0.75 0.96875 -0.75 2.90625zm14.815369 -5.171875q0.671875 0 1.1875 0.109375l-0.203125 1.40625q-0.625 -0.140625 -1.09375 -0.140625q-1.203125 0 -2.078125 0.984375q-0.859375 0.984375 -0.859375 2.453125l0 5.359375l-1.5 0l0 -9.984375l1.234375 0l0.1875 1.84375l0.0625 0q0.5625 -0.96875 1.34375 -1.5q0.78125 -0.53125 1.71875 -0.53125z" fill-rule="nonzero"></path><path fill="#000000" d="m503.84842 382.92236l-4.515625 -11.8125l-0.0625 0q0.125 1.40625 0.125 3.34375l0 8.46875l-1.4375 0l0 -13.3125l2.328125 0l4.21875 10.984375l0.078125 0l4.25 -10.984375l2.3125 0l0 13.3125l-1.546875 0l0 -8.578125q0 -1.484375 0.125 -3.203125l-0.0625 0l-4.5625 11.78125l-1.25 0zm14.95285 0.1875q-2.21875 0 -3.5 -1.34375q-1.28125 -1.359375 -1.28125 -3.75q0 -2.421875 1.1875 -3.84375q1.1875 -1.421875 3.1875 -1.421875q1.890625 0 2.96875 1.234375q1.09375 1.234375 1.09375 3.265625l0 0.953125l-6.875 0q0.046875 1.765625 0.890625 2.671875q0.84375 0.90625 2.375 0.90625q1.609375 0 3.1875 -0.671875l0 1.34375q-0.796875 0.34375 -1.515625 0.5q-0.71875 0.15625 -1.71875 0.15625zm-0.421875 -9.09375q-1.203125 0 -1.921875 0.796875q-0.703125 0.78125 -0.828125 2.15625l5.21875 0q0 -1.421875 -0.640625 -2.1875q-0.640625 -0.765625 -1.828125 -0.765625zm12.810547 8.90625l-0.3125 -1.421875l-0.0625 0q-0.75 0.9375 -1.5 1.28125q-0.734375 0.328125 -1.84375 0.328125q-1.484375 0 -2.328125 -0.765625q-0.84375 -0.765625 -0.84375 -2.1875q0 -3.015625 4.828125 -3.171875l1.703125 -0.046875l0 -0.625q0 -1.171875 -0.515625 -1.734375q-0.5 -0.5625 -1.609375 -0.5625q-1.25 0 -2.828125 0.765625l-0.453125 -1.15625q0.734375 -0.390625 1.609375 -0.609375q0.875 -0.234375 1.765625 -0.234375q1.78125 0 2.640625 0.796875q0.859375 0.78125 0.859375 2.53125l0 6.8125l-1.109375 0zm-3.421875 -1.0625q1.40625 0 2.203125 -0.765625q0.8125 -0.78125 0.8125 -2.1875l0 -0.890625l-1.5 0.0625q-1.8125 0.0625 -2.609375 0.5625q-0.796875 0.484375 -0.796875 1.546875q0 0.8125 0.5 1.25q0.5 0.421875 1.390625 0.421875zm14.485107 1.0625l0 -6.453125q0 -1.21875 -0.5625 -1.8125q-0.546875 -0.609375 -1.734375 -0.609375q-1.5625 0 -2.296875 0.84375q-0.734375 0.84375 -0.734375 2.796875l0 5.234375l-1.5 0l0 -9.984375l1.21875 0l0.25 1.359375l0.078125 0q0.453125 -0.734375 1.296875 -1.140625q0.84375 -0.40625 1.875 -0.40625q1.796875 0 2.703125 0.875q0.921875 0.875 0.921875 2.78125l0 6.515625l-1.515625 0zm6.1224976 0l-1.5 0l0 -9.984375l1.5 0l0 9.984375zm-1.640625 -12.6875q0 -0.515625 0.25 -0.75q0.265625 -0.25 0.65625 -0.25q0.359375 0 0.625 0.25q0.265625 0.234375 0.265625 0.75q0 0.515625 -0.265625 0.765625q-0.265625 0.25 -0.625 0.25q-0.390625 0 -0.65625 -0.25q-0.25 -0.25 -0.25 -0.765625zm11.687439 12.6875l0 -6.453125q0 -1.21875 -0.5625 -1.8125q-0.546875 -0.609375 -1.734375 -0.609375q-1.5625 0 -2.296875 0.84375q-0.734375 0.84375 -0.734375 2.796875l0 5.234375l-1.5 0l0 -9.984375l1.21875 0l0.25 1.359375l0.078125 0q0.453125 -0.734375 1.296875 -1.140625q0.84375 -0.40625 1.875 -0.40625q1.796875 0 2.703125 0.875q0.921875 0.875 0.921875 2.78125l0 6.515625l-1.515625 0zm12.794434 -9.984375l0 0.953125l-1.859375 0.21875q0.265625 0.328125 0.453125 0.84375q0.203125 0.515625 0.203125 1.15625q0 1.46875 -1.0 2.34375q-1.0 0.875 -2.75 0.875q-0.453125 0 -0.84375 -0.078125q-0.953125 0.515625 -0.953125 1.28125q0 0.40625 0.328125 0.609375q0.34375 0.203125 1.15625 0.203125l1.765625 0q1.625 0 2.484375 0.6875q0.875 0.671875 0.875 1.96875q0 1.65625 -1.328125 2.53125q-1.328125 0.875 -3.875 0.875q-1.953125 0 -3.015625 -0.734375q-1.0625 -0.71875 -1.0625 -2.0625q0 -0.90625 0.578125 -1.578125q0.578125 -0.65625 1.640625 -0.890625q-0.375 -0.171875 -0.640625 -0.53125q-0.265625 -0.375 -0.265625 -0.859375q0 -0.546875 0.296875 -0.953125q0.296875 -0.40625 0.921875 -0.796875q-0.78125 -0.3125 -1.265625 -1.078125q-0.484375 -0.765625 -0.484375 -1.75q0 -1.640625 0.984375 -2.53125q0.984375 -0.890625 2.78125 -0.890625q0.78125 0 1.421875 0.1875l3.453125 0zm-7.96875 11.65625q0 0.8125 0.671875 1.234375q0.6875 0.421875 1.96875 0.421875q1.90625 0 2.8125 -0.578125q0.921875 -0.5625 0.921875 -1.53125q0 -0.8125 -0.5 -1.140625q-0.5 -0.3125 -1.890625 -0.3125l-1.8125 0q-1.03125 0 -1.609375 0.484375q-0.5625 0.5 -0.5625 1.421875zm0.8125 -8.453125q0 1.046875 0.59375 1.578125q0.59375 0.53125 1.65625 0.53125q2.21875 0 2.21875 -2.140625q0 -2.25 -2.25 -2.25q-1.0625 0 -1.640625 0.578125q-0.578125 0.5625 -0.578125 1.703125zm10.7052 6.78125l-1.5 0l0 -14.171875l1.5 0l0 14.171875zm7.4375 0.1875q-2.21875 0 -3.5 -1.34375q-1.28125 -1.359375 -1.28125 -3.75q0 -2.421875 1.1875 -3.84375q1.1875 -1.421875 3.1875 -1.421875q1.890625 0 2.96875 1.234375q1.09375 1.234375 1.09375 3.265625l0 0.953125l-6.875 0q0.046875 1.765625 0.890625 2.671875q0.84375 0.90625 2.375 0.90625q1.609375 0 3.1875 -0.671875l0 1.34375q-0.796875 0.34375 -1.515625 0.5q-0.71875 0.15625 -1.71875 0.15625zm-0.421875 -9.09375q-1.203125 0 -1.921875 0.796875q-0.703125 0.78125 -0.828125 2.15625l5.21875 0q0 -1.421875 -0.640625 -2.1875q-0.640625 -0.765625 -1.828125 -0.765625zm13.107422 6.1875q0 1.390625 -1.046875 2.15625q-1.03125 0.75 -2.90625 0.75q-1.984375 0 -3.09375 -0.640625l0 -1.390625q0.71875 0.359375 1.53125 0.578125q0.828125 0.203125 1.59375 0.203125q1.1875 0 1.828125 -0.375q0.640625 -0.390625 0.640625 -1.15625q0 -0.578125 -0.515625 -1.0q-0.5 -0.421875 -1.96875 -0.984375q-1.390625 -0.515625 -1.984375 -0.890625q-0.578125 -0.390625 -0.875 -0.875q-0.28125 -0.5 -0.28125 -1.1875q0 -1.21875 0.984375 -1.921875q1.0 -0.71875 2.734375 -0.71875q1.609375 0 3.140625 0.65625l-0.53125 1.234375q-1.5 -0.625 -2.71875 -0.625q-1.078125 0 -1.625 0.34375q-0.546875 0.34375 -0.546875 0.921875q0 0.40625 0.203125 0.6875q0.203125 0.28125 0.65625 0.546875q0.453125 0.25 1.75 0.734375q1.78125 0.640625 2.40625 1.296875q0.625 0.65625 0.625 1.65625zm8.899963 0q0 1.390625 -1.046875 2.15625q-1.03125 0.75 -2.90625 0.75q-1.984375 0 -3.09375 -0.640625l0 -1.390625q0.71875 0.359375 1.53125 0.578125q0.828125 0.203125 1.59375 0.203125q1.1875 0 1.828125 -0.375q0.640625 -0.390625 0.640625 -1.15625q0 -0.578125 -0.515625 -1.0q-0.5 -0.421875 -1.96875 -0.984375q-1.390625 -0.515625 -1.984375 -0.890625q-0.578125 -0.390625 -0.875 -0.875q-0.28125 -0.5 -0.28125 -1.1875q0 -1.21875 0.984375 -1.921875q1.0 -0.71875 2.734375 -0.71875q1.609375 0 3.140625 0.65625l-0.53125 1.234375q-1.5 -0.625 -2.71875 -0.625q-1.078125 0 -1.625 0.34375q-0.546875 0.34375 -0.546875 0.921875q0 0.40625 0.203125 0.6875q0.203125 0.28125 0.65625 0.546875q0.453125 0.25 1.75 0.734375q1.78125 0.640625 2.40625 1.296875q0.625 0.65625 0.625 1.65625z" fill-rule="nonzero"></path><path fill="#000000" d="m537.01715 404.92236l-1.546875 0l0 -6.265625l-7.015625 0l0 6.265625l-1.546875 0l0 -13.3125l1.546875 0l0 5.65625l7.015625 0l0 -5.65625l1.546875 0l0 13.3125zm7.7644653 0l-1.5625 0l0 -11.9375l-4.21875 0l0 -1.375l9.984375 0l0 1.375l-4.203125 0l0 11.9375zm12.102295 0l-4.515625 -11.8125l-0.0625 0q0.125 1.40625 0.125 3.34375l0 8.46875l-1.4375 0l0 -13.3125l2.328125 0l4.21875 10.984375l0.078125 0l4.25 -10.984375l2.3125 0l0 13.3125l-1.546875 0l0 -8.578125q0 -1.484375 0.125 -3.203125l-0.0625 0l-4.5625 11.78125l-1.25 0zm10.95282 0l0 -13.3125l1.546875 0l0 11.90625l5.875 0l0 1.40625l-7.421875 0z" fill-rule="nonzero"></path><path fill="#ffe599" d="m41.8084 451.1181c5.2619247 0 9.527557 -4.265625 9.527557 -9.527557l-9.527557 0c2.6309624 0 4.7637787 -2.1328125 4.7637787 -4.7637634c0 -2.6309814 -2.1328163 -4.763794 -4.7637787 -4.763794l9.527557 0l0 -123.85828l0 0c0 -5.261902 4.2656364 -9.527557 9.527561 -9.527557l128.44095 0c5.2619324 0 9.527557 4.2656555 9.527557 9.527557c0 5.2619324 -4.265625 9.527557 -9.527557 9.527557l-9.527557 0l0 123.85828c0 5.2619324 -4.265625 9.527557 -9.527557 9.527557zm28.582676 -142.91339l0 0c0 5.2619324 -4.2656326 9.527557 -9.527557 9.527557l0 0c-2.6309624 0 -4.7637787 -2.1328125 -4.7637787 -4.7637634c0 -2.630951 2.1328163 -4.763794 4.7637787 -4.763794z" fill-rule="evenodd"></path><path fill="#cbb77a" d="m70.391075 308.2047l0 0c0 5.2619324 -4.2656326 9.527557 -9.527557 9.527557l0 0c-2.6309624 0 -4.7637787 -2.1328125 -4.7637787 -4.7637634c0 -2.630951 2.1328163 -4.763794 4.7637787 -4.763794zm-19.055119 133.38583c0 5.2619324 -4.2656326 9.527557 -9.527557 9.527557c-5.2619247 0 -9.527561 -4.265625 -9.527561 -9.527557c0 -5.2619324 4.2656364 -9.527557 9.527561 -9.527557l0 0c2.6309624 0 4.7637787 2.1328125 4.7637787 4.763794c0 2.630951 -2.1328163 4.7637634 -4.7637787 4.7637634z" fill-rule="evenodd"></path><path fill="#000000" fill-opacity="0.0" d="m51.335957 432.063l0 -123.85828l0 0c0 -5.261902 4.2656364 -9.527557 9.527561 -9.527557l128.44095 0c5.2619324 0 9.527557 4.2656555 9.527557 9.527557c0 5.2619324 -4.265625 9.527557 -9.527557 9.527557l-9.527557 0l0 123.85828c0 5.2619324 -4.265625 9.527557 -9.527557 9.527557l-128.44095 0c-5.2619247 0 -9.527561 -4.265625 -9.527561 -9.527557c0 -5.2619324 4.2656364 -9.527557 9.527561 -9.527557zm9.527561 -133.38583l0 0c5.2619247 0 9.527557 4.2656555 9.527557 9.527557c0 5.2619324 -4.2656326 9.527557 -9.527557 9.527557l0 0c-2.6309624 0 -4.7637787 -2.1328125 -4.7637787 -4.7637634c0 -2.630951 2.1328163 -4.763794 4.7637787 -4.763794l9.527557 0m109.385826 9.527557l-118.91338 0m-19.055119 114.33072l0 0c2.6309624 0 4.7637787 2.1328125 4.7637787 4.763794c0 2.630951 -2.1328163 4.7637634 -4.7637787 4.7637634l9.527557 0m-9.527557 9.527557c5.2619247 0 9.527557 -4.265625 9.527557 -9.527557l0 -9.527557" fill-rule="evenodd"></path><path stroke="#000000" stroke-width="1.0" stroke-linejoin="round" stroke-linecap="butt" d="m51.335957 432.063l0 -123.85828l0 0c0 -5.261902 4.2656364 -9.527557 9.527561 -9.527557l128.44095 0c5.2619324 0 9.527557 4.2656555 9.527557 9.527557c0 5.2619324 -4.265625 9.527557 -9.527557 9.527557l-9.527557 0l0 123.85828c0 5.2619324 -4.265625 9.527557 -9.527557 9.527557l-128.44095 0c-5.2619247 0 -9.527561 -4.265625 -9.527561 -9.527557c0 -5.2619324 4.2656364 -9.527557 9.527561 -9.527557zm9.527561 -133.38583l0 0c5.2619247 0 9.527557 4.2656555 9.527557 9.527557c0 5.2619324 -4.2656326 9.527557 -9.527557 9.527557l0 0c-2.6309624 0 -4.7637787 -2.1328125 -4.7637787 -4.7637634c0 -2.630951 2.1328163 -4.763794 4.7637787 -4.763794l9.527557 0m109.385826 9.527557l-118.91338 0m-19.055119 114.33072l0 0c2.6309624 0 4.7637787 2.1328125 4.7637787 4.763794c0 2.630951 -2.1328163 4.7637634 -4.7637787 4.7637634l9.527557 0m-9.527557 9.527557c5.2619247 0 9.527557 -4.265625 9.527557 -9.527557l0 -9.527557" fill-rule="evenodd"></path><path fill="#000000" d="m98.390076 386.58142l-1.65625 -4.234375l-5.34375 0l-1.640625 4.234375l-1.5625 0l5.265625 -13.375l1.296875 0l5.25 13.375l-1.609375 0zm-2.140625 -5.625l-1.546875 -4.125q-0.296875 -0.796875 -0.625 -1.921875q-0.203125 0.875 -0.578125 1.921875l-1.5625 4.125l4.3125 0zm9.993408 5.8125q-0.96875 0 -1.78125 -0.359375q-0.8125 -0.359375 -1.359375 -1.109375l-0.109375 0q0.109375 0.875 0.109375 1.65625l0 4.109375l-1.5 0l0 -14.46875l1.21875 0l0.21875 1.359375l0.0625 0q0.59375 -0.8125 1.359375 -1.171875q0.78125 -0.375 1.78125 -0.375q1.984375 0 3.0625 1.359375q1.078125 1.359375 1.078125 3.8125q0 2.453125 -1.09375 3.828125q-1.09375 1.359375 -3.046875 1.359375zm-0.21875 -9.0625q-1.53125 0 -2.21875 0.84375q-0.671875 0.84375 -0.703125 2.6875l0 0.34375q0 2.109375 0.703125 3.015625q0.703125 0.90625 2.25 0.90625q1.296875 0 2.03125 -1.046875q0.734375 -1.046875 0.734375 -2.890625q0 -1.875 -0.734375 -2.859375q-0.734375 -1.0 -2.0625 -1.0zm11.651169 9.0625q-0.96875 0 -1.78125 -0.359375q-0.8125 -0.359375 -1.359375 -1.109375l-0.109375 0q0.109375 0.875 0.109375 1.65625l0 4.109375l-1.5 0l0 -14.46875l1.21875 0l0.21875 1.359375l0.0625 0q0.59375 -0.8125 1.359375 -1.171875q0.78125 -0.375 1.78125 -0.375q1.984375 0 3.0625 1.359375q1.078125 1.359375 1.078125 3.8125q0 2.453125 -1.09375 3.828125q-1.09375 1.359375 -3.046875 1.359375zm-0.21875 -9.0625q-1.53125 0 -2.21875 0.84375q-0.671875 0.84375 -0.703125 2.6875l0 0.34375q0 2.109375 0.703125 3.015625q0.703125 0.90625 2.25 0.90625q1.296875 0 2.03125 -1.046875q0.734375 -1.046875 0.734375 -2.890625q0 -1.875 -0.734375 -2.859375q-0.734375 -1.0 -2.0625 -1.0zm10.138046 12.375q-0.859375 0 -1.34375 -0.234375l0 -1.328125q0.640625 0.1875 1.34375 0.1875q0.90625 0 1.375 -0.546875q0.46875 -0.546875 0.46875 -1.578125l0 -13.3125l1.546875 0l0 13.1875q0 1.734375 -0.875 2.671875q-0.875 0.953125 -2.515625 0.953125zm14.43602 -7.046875q0 1.765625 -1.28125 2.75q-1.265625 0.984375 -3.453125 0.984375q-2.375 0 -3.640625 -0.609375l0 -1.5q0.8125 0.34375 1.78125 0.546875q0.96875 0.203125 1.921875 0.203125q1.546875 0 2.328125 -0.578125q0.78125 -0.59375 0.78125 -1.640625q0 -0.703125 -0.28125 -1.140625q-0.28125 -0.4375 -0.9375 -0.8125q-0.640625 -0.375 -1.96875 -0.84375q-1.859375 -0.671875 -2.65625 -1.578125q-0.796875 -0.921875 -0.796875 -2.375q0 -1.546875 1.15625 -2.453125q1.15625 -0.921875 3.0625 -0.921875q1.984375 0 3.65625 0.734375l-0.484375 1.34375q-1.65625 -0.6875 -3.21875 -0.6875q-1.21875 0 -1.921875 0.53125q-0.6875 0.53125 -0.6875 1.46875q0 0.6875 0.25 1.140625q0.265625 0.4375 0.859375 0.8125q0.609375 0.359375 1.859375 0.796875q2.09375 0.75 2.875 1.609375q0.796875 0.859375 0.796875 2.21875z" fill-rule="nonzero"></path><path fill="#ffe599" d="m59.61764 464.69833c5.2619286 0 9.527561 -4.265625 9.527561 -9.527557l-9.527561 0c2.6309662 0 4.7637825 -2.1328125 4.7637825 -4.7637634c0 -2.6309814 -2.1328163 -4.763794 -4.7637825 -4.763794l9.527561 0l0 -123.85828l0 0c0 -5.261902 4.2656326 -9.527557 9.527557 -9.527557l128.44095 0c5.261917 0 9.527557 4.2656555 9.527557 9.527557c0 5.2619324 -4.2656403 9.527588 -9.527557 9.527588l-9.527557 0l0 123.858246c0 5.2619324 -4.2656403 9.527557 -9.527557 9.527557zm28.582676 -142.91339l0 0c0 5.2619324 -4.2656326 9.527588 -9.527557 9.527588l0 0c-2.6309586 0 -4.7637787 -2.132843 -4.7637787 -4.763794c0 -2.630951 2.1328201 -4.763794 4.7637787 -4.763794z" fill-rule="evenodd"></path><path fill="#cbb77a" d="m88.20032 321.78494l0 0c0 5.2619324 -4.2656326 9.527588 -9.527557 9.527588l0 0c-2.6309586 0 -4.7637787 -2.132843 -4.7637787 -4.763794c0 -2.630951 2.1328201 -4.763794 4.7637787 -4.763794zm-19.055115 133.38583c0 5.2619324 -4.2656326 9.527557 -9.527561 9.527557c-5.2619247 0 -9.527557 -4.265625 -9.527557 -9.527557c0 -5.2619324 4.2656326 -9.527557 9.527557 -9.527557l0 0c2.6309662 0 4.7637825 2.1328125 4.7637825 4.763794c0 2.630951 -2.1328163 4.7637634 -4.7637825 4.7637634z" fill-rule="evenodd"></path><path fill="#000000" fill-opacity="0.0" d="m69.1452 445.64322l0 -123.85828l0 0c0 -5.261902 4.2656326 -9.527557 9.527557 -9.527557l128.44095 0c5.261917 0 9.527557 4.2656555 9.527557 9.527557c0 5.2619324 -4.2656403 9.527588 -9.527557 9.527588l-9.527557 0l0 123.858246c0 5.2619324 -4.2656403 9.527557 -9.527557 9.527557l-128.44095 0c-5.2619247 0 -9.527557 -4.265625 -9.527557 -9.527557c0 -5.2619324 4.2656326 -9.527557 9.527557 -9.527557zm9.527557 -133.38583l0 0c5.2619247 0 9.527557 4.2656555 9.527557 9.527557c0 5.2619324 -4.2656326 9.527588 -9.527557 9.527588l0 0c-2.6309586 0 -4.7637787 -2.132843 -4.7637787 -4.763794c0 -2.630951 2.1328201 -4.763794 4.7637787 -4.763794l9.527557 0m109.38583 9.527588l-118.91339 0m-19.055119 114.33069l0 0c2.6309662 0 4.7637825 2.1328125 4.7637825 4.763794c0 2.630951 -2.1328163 4.7637634 -4.7637825 4.7637634l9.527561 0m-9.527561 9.527557c5.2619286 0 9.527561 -4.265625 9.527561 -9.527557l0 -9.527557" fill-rule="evenodd"></path><path stroke="#000000" stroke-width="1.0" stroke-linejoin="round" stroke-linecap="butt" d="m69.1452 445.64322l0 -123.85828l0 0c0 -5.261902 4.2656326 -9.527557 9.527557 -9.527557l128.44095 0c5.261917 0 9.527557 4.2656555 9.527557 9.527557c0 5.2619324 -4.2656403 9.527588 -9.527557 9.527588l-9.527557 0l0 123.858246c0 5.2619324 -4.2656403 9.527557 -9.527557 9.527557l-128.44095 0c-5.2619247 0 -9.527557 -4.265625 -9.527557 -9.527557c0 -5.2619324 4.2656326 -9.527557 9.527557 -9.527557zm9.527557 -133.38583l0 0c5.2619247 0 9.527557 4.2656555 9.527557 9.527557c0 5.2619324 -4.2656326 9.527588 -9.527557 9.527588l0 0c-2.6309586 0 -4.7637787 -2.132843 -4.7637787 -4.763794c0 -2.630951 2.1328201 -4.763794 4.7637787 -4.763794l9.527557 0m109.38583 9.527588l-118.91339 0m-19.055119 114.33069l0 0c2.6309662 0 4.7637825 2.1328125 4.7637825 4.763794c0 2.630951 -2.1328163 4.7637634 -4.7637825 4.7637634l9.527561 0m-9.527561 9.527557c5.2619286 0 9.527561 -4.265625 9.527561 -9.527557l0 -9.527557" fill-rule="evenodd"></path><path fill="#000000" d="m116.19932 400.16165l-1.65625 -4.234375l-5.34375 0l-1.640625 4.234375l-1.5625 0l5.265625 -13.375l1.296875 0l5.25 13.375l-1.609375 0zm-2.140625 -5.625l-1.546875 -4.125q-0.296875 -0.796875 -0.625 -1.921875q-0.203125 0.875 -0.578125 1.921875l-1.5625 4.125l4.3125 0zm9.993408 5.8125q-0.96875 0 -1.78125 -0.359375q-0.8125 -0.359375 -1.359375 -1.109375l-0.109375 0q0.109375 0.875 0.109375 1.65625l0 4.109375l-1.5 0l0 -14.46875l1.21875 0l0.21875 1.359375l0.0625 0q0.59375 -0.8125 1.359375 -1.171875q0.78125 -0.375 1.78125 -0.375q1.984375 0 3.0625 1.359375q1.0781174 1.359375 1.0781174 3.8125q0 2.453125 -1.0937424 3.828125q-1.09375 1.359375 -3.046875 1.359375zm-0.21875 -9.0625q-1.53125 0 -2.21875 0.84375q-0.671875 0.84375 -0.703125 2.6875l0 0.34375q0 2.109375 0.703125 3.015625q0.703125 0.90625 2.25 0.90625q1.296875 0 2.03125 -1.046875q0.734375 -1.046875 0.734375 -2.890625q0 -1.875 -0.734375 -2.859375q-0.734375 -1.0 -2.0625 -1.0zm11.651161 9.0625q-0.96875 0 -1.78125 -0.359375q-0.8125 -0.359375 -1.359375 -1.109375l-0.109375 0q0.109375 0.875 0.109375 1.65625l0 4.109375l-1.5 0l0 -14.46875l1.21875 0l0.21875 1.359375l0.0625 0q0.59375 -0.8125 1.359375 -1.171875q0.78125 -0.375 1.78125 -0.375q1.984375 0 3.0625 1.359375q1.078125 1.359375 1.078125 3.8125q0 2.453125 -1.09375 3.828125q-1.09375 1.359375 -3.046875 1.359375zm-0.21875 -9.0625q-1.53125 0 -2.21875 0.84375q-0.671875 0.84375 -0.703125 2.6875l0 0.34375q0 2.109375 0.703125 3.015625q0.703125 0.90625 2.25 0.90625q1.296875 0 2.03125 -1.046875q0.734375 -1.046875 0.734375 -2.890625q0 -1.875 -0.734375 -2.859375q-0.734375 -1.0 -2.0625 -1.0zm10.138046 12.375q-0.859375 0 -1.34375 -0.234375l0 -1.328125q0.640625 0.1875 1.34375 0.1875q0.90625 0 1.375 -0.546875q0.46875 -0.546875 0.46875 -1.578125l0 -13.3125l1.546875 0l0 13.1875q0 1.734375 -0.875 2.671875q-0.875 0.953125 -2.515625 0.953125zm14.43602 -7.046875q0 1.765625 -1.28125 2.75q-1.265625 0.984375 -3.453125 0.984375q-2.375 0 -3.640625 -0.609375l0 -1.5q0.8125 0.34375 1.78125 0.546875q0.96875 0.203125 1.921875 0.203125q1.546875 0 2.328125 -0.578125q0.78125 -0.59375 0.78125 -1.640625q0 -0.703125 -0.28125 -1.140625q-0.28125 -0.4375 -0.9375 -0.8125q-0.640625 -0.375 -1.96875 -0.84375q-1.859375 -0.671875 -2.65625 -1.578125q-0.796875 -0.921875 -0.796875 -2.375q0 -1.546875 1.15625 -2.453125q1.15625 -0.921875 3.0625 -0.921875q1.984375 0 3.65625 0.734375l-0.484375 1.34375q-1.65625 -0.6875 -3.21875 -0.6875q-1.21875 0 -1.921875 0.53125q-0.6875 0.53125 -0.6875 1.46875q0 0.6875 0.25 1.140625q0.265625 0.4375 0.859375 0.8125q0.609375 0.359375 1.859375 0.796875q2.09375 0.75 2.875 1.609375q0.796875 0.859375 0.796875 2.21875z" fill-rule="nonzero"></path><path fill="#ffe599" d="m77.42689 478.27856c5.2619247 0 9.527557 -4.265625 9.527557 -9.527557l-9.527557 0c2.6309586 0 4.7637787 -2.1328125 4.7637787 -4.7637634c0 -2.6309814 -2.1328201 -4.763794 -4.7637787 -4.763794l9.527557 0l0 -123.858246l0 0c0 -5.2619324 4.2656326 -9.527588 9.527557 -9.527588l128.44095 0c5.2619324 0 9.527573 4.2656555 9.527573 9.527588c0 5.261902 -4.2656403 9.527557 -9.527573 9.527557l-9.527557 0l0 123.858246c0 5.2619324 -4.265625 9.527557 -9.527557 9.527557zm28.58268 -142.91336l0 0c0 5.261902 -4.2656403 9.527557 -9.527565 9.527557l0 0c-2.6309586 0 -4.7637787 -2.132843 -4.7637787 -4.763794c0 -2.630951 2.1328201 -4.7637634 4.7637787 -4.7637634z" fill-rule="evenodd"></path><path fill="#cbb77a" d="m106.00957 335.3652l0 0c0 5.261902 -4.2656403 9.527557 -9.527565 9.527557l0 0c-2.6309586 0 -4.7637787 -2.132843 -4.7637787 -4.763794c0 -2.630951 2.1328201 -4.7637634 4.7637787 -4.7637634zm-19.055122 133.3858c0 5.2619324 -4.2656326 9.527557 -9.527557 9.527557c-5.2619247 0 -9.527557 -4.265625 -9.527557 -9.527557c0 -5.2619324 4.2656326 -9.527557 9.527557 -9.527557l0 0c2.6309586 0 4.7637787 2.1328125 4.7637787 4.763794c0 2.630951 -2.1328201 4.7637634 -4.7637787 4.7637634z" fill-rule="evenodd"></path><path fill="#000000" fill-opacity="0.0" d="m86.954445 459.22345l0 -123.858246l0 0c0 -5.2619324 4.2656326 -9.527588 9.527557 -9.527588l128.44095 0c5.2619324 0 9.527573 4.2656555 9.527573 9.527588c0 5.261902 -4.2656403 9.527557 -9.527573 9.527557l-9.527557 0l0 123.858246c0 5.2619324 -4.265625 9.527557 -9.527557 9.527557l-128.44095 0c-5.2619247 0 -9.527557 -4.265625 -9.527557 -9.527557c0 -5.2619324 4.2656326 -9.527557 9.527557 -9.527557zm9.527557 -133.38583l0 0c5.2619247 0 9.527565 4.2656555 9.527565 9.527588c0 5.261902 -4.2656403 9.527557 -9.527565 9.527557l0 0c-2.6309586 0 -4.7637787 -2.132843 -4.7637787 -4.763794c0 -2.630951 2.1328201 -4.7637634 4.7637787 -4.7637634l9.527565 0m109.38582 9.527557l-118.91338 0m-19.055115 114.33069l0 0c2.6309586 0 4.7637787 2.1328125 4.7637787 4.763794c0 2.630951 -2.1328201 4.7637634 -4.7637787 4.7637634l9.527557 0m-9.527557 9.527557c5.2619247 0 9.527557 -4.265625 9.527557 -9.527557l0 -9.527557" fill-rule="evenodd"></path><path stroke="#000000" stroke-width="1.0" stroke-linejoin="round" stroke-linecap="butt" d="m86.954445 459.22345l0 -123.858246l0 0c0 -5.2619324 4.2656326 -9.527588 9.527557 -9.527588l128.44095 0c5.2619324 0 9.527573 4.2656555 9.527573 9.527588c0 5.261902 -4.2656403 9.527557 -9.527573 9.527557l-9.527557 0l0 123.858246c0 5.2619324 -4.265625 9.527557 -9.527557 9.527557l-128.44095 0c-5.2619247 0 -9.527557 -4.265625 -9.527557 -9.527557c0 -5.2619324 4.2656326 -9.527557 9.527557 -9.527557zm9.527557 -133.38583l0 0c5.2619247 0 9.527565 4.2656555 9.527565 9.527588c0 5.261902 -4.2656403 9.527557 -9.527565 9.527557l0 0c-2.6309586 0 -4.7637787 -2.132843 -4.7637787 -4.763794c0 -2.630951 2.1328201 -4.7637634 4.7637787 -4.7637634l9.527565 0m109.38582 9.527557l-118.91338 0m-19.055115 114.33069l0 0c2.6309586 0 4.7637787 2.1328125 4.7637787 4.763794c0 2.630951 -2.1328201 4.7637634 -4.7637787 4.7637634l9.527557 0m-9.527557 9.527557c5.2619247 0 9.527557 -4.265625 9.527557 -9.527557l0 -9.527557" fill-rule="evenodd"></path><path fill="#000000" d="m107.18285 390.61688q-2.1875 0 -3.46875 1.46875q-1.265625 1.453125 -1.265625 4.0q0 2.609375 1.21875 4.046875q1.234375 1.421875 3.5 1.421875q1.390625 0 3.171875 -0.5l0 1.34375q-1.375 0.53125 -3.40625 0.53125q-2.9375 0 -4.546875 -1.78125q-1.59375 -1.796875 -1.59375 -5.078125q0 -2.0625 0.765625 -3.609375q0.765625 -1.546875 2.21875 -2.390625q1.453125 -0.84375 3.421875 -0.84375q2.09375 0 3.671875 0.765625l-0.65625 1.328125q-1.515625 -0.703125 -3.03125 -0.703125zm14.45697 7.125q0 2.4375 -1.234375 3.8125q-1.21875 1.375 -3.390625 1.375q-1.34375 0 -2.390625 -0.625q-1.03125 -0.640625 -1.59375 -1.8125q-0.5625 -1.171875 -0.5625 -2.75q0 -2.4375 1.21875 -3.796875q1.21875 -1.375 3.390625 -1.375q2.09375 0 3.328125 1.40625q1.234375 1.390625 1.234375 3.765625zm-7.609375 0q0 1.90625 0.765625 2.921875q0.765625 1.0 2.25 1.0q1.484375 0 2.25 -1.0q0.78125 -1.0 0.78125 -2.921875q0 -1.90625 -0.78125 -2.890625q-0.765625 -0.984375 -2.265625 -0.984375q-1.484375 0 -2.25 0.96875q-0.75 0.96875 -0.75 2.90625zm22.987206 5.0l0 -6.5q0 -1.1875 -0.515625 -1.78125q-0.5 -0.59375 -1.578125 -0.59375q-1.40625 0 -2.09375 0.8125q-0.671875 0.796875 -0.671875 2.484375l0 5.578125l-1.5 0l0 -6.5q0 -1.1875 -0.515625 -1.78125q-0.515625 -0.59375 -1.59375 -0.59375q-1.4218826 0 -2.0937576 0.859375q-0.65625 0.84375 -0.65625 2.78125l0 5.234375l-1.5 0l0 -9.984375l1.21875 0l0.25 1.359375l0.078125 0q0.421875 -0.71875 1.203125 -1.125q0.78125 -0.421875 1.7500076 -0.421875q2.328125 0 3.0625 1.703125l0.0625 0q0.453125 -0.78125 1.296875 -1.234375q0.84375 -0.46875 1.9375 -0.46875q1.6875 0 2.53125 0.875q0.84375 0.875 0.84375 2.78125l0 6.515625l-1.515625 0zm9.275467 0.1875q-0.96875 0 -1.78125 -0.359375q-0.8125 -0.359375 -1.359375 -1.109375l-0.109375 0q0.109375 0.875 0.109375 1.65625l0 4.109375l-1.5 0l0 -14.46875l1.21875 0l0.21875 1.359375l0.0625 0q0.59375 -0.8125 1.359375 -1.171875q0.78125 -0.375 1.78125 -0.375q1.984375 0 3.0625 1.359375q1.078125 1.359375 1.078125 3.8125q0 2.453125 -1.09375 3.828125q-1.09375 1.359375 -3.046875 1.359375zm-0.21875 -9.0625q-1.53125 0 -2.21875 0.84375q-0.671875 0.84375 -0.703125 2.6875l0 0.34375q0 2.109375 0.703125 3.015625q0.703125 0.90625 2.25 0.90625q1.296875 0 2.03125 -1.046875q0.734375 -1.046875 0.734375 -2.890625q0 -1.875 -0.734375 -2.859375q-0.734375 -1.0 -2.0625 -1.0zm15.619919 3.875q0 2.4375 -1.234375 3.8125q-1.21875 1.375 -3.390625 1.375q-1.34375 0 -2.390625 -0.625q-1.03125 -0.640625 -1.59375 -1.8125q-0.5625 -1.171875 -0.5625 -2.75q0 -2.4375 1.21875 -3.796875q1.21875 -1.375 3.390625 -1.375q2.09375 0 3.328125 1.40625q1.234375 1.390625 1.234375 3.765625zm-7.609375 0q0 1.90625 0.765625 2.921875q0.765625 1.0 2.25 1.0q1.484375 0 2.25 -1.0q0.78125 -1.0 0.78125 -2.921875q0 -1.90625 -0.78125 -2.890625q-0.765625 -0.984375 -2.265625 -0.984375q-1.484375 0 -2.25 0.96875q-0.75 0.96875 -0.75 2.90625zm17.096573 5.0l0 -6.453125q0 -1.21875 -0.5625 -1.8125q-0.546875 -0.609375 -1.734375 -0.609375q-1.5625 0 -2.296875 0.84375q-0.734375 0.84375 -0.734375 2.796875l0 5.234375l-1.5 0l0 -9.984375l1.21875 0l0.25 1.359375l0.078125 0q0.453125 -0.734375 1.296875 -1.140625q0.84375 -0.40625 1.875 -0.40625q1.796875 0 2.703125 0.875q0.921875 0.875 0.921875 2.78125l0 6.515625l-1.515625 0zm8.841263 0.1875q-2.21875 0 -3.5 -1.34375q-1.28125 -1.359375 -1.28125 -3.75q0 -2.421875 1.1875 -3.84375q1.1875 -1.421875 3.1875 -1.421875q1.890625 0 2.96875 1.234375q1.09375 1.234375 1.09375 3.265625l0 0.953125l-6.875 0q0.046875 1.765625 0.890625 2.671875q0.84375 0.90625 2.375 0.90625q1.609375 0 3.1875 -0.671875l0 1.34375q-0.796875 0.34375 -1.515625 0.5q-0.71875 0.15625 -1.71875 0.15625zm-0.421875 -9.09375q-1.203125 0 -1.921875 0.796875q-0.703125 0.78125 -0.828125 2.15625l5.21875 0q0 -1.421875 -0.640625 -2.1875q-0.640625 -0.765625 -1.828125 -0.765625zm13.498062 8.90625l0 -6.453125q0 -1.21875 -0.5625 -1.8125q-0.546875 -0.609375 -1.734375 -0.609375q-1.5625 0 -2.296875 0.84375q-0.734375 0.84375 -0.734375 2.796875l0 5.234375l-1.5 0l0 -9.984375l1.21875 0l0.25 1.359375l0.078125 0q0.453125 -0.734375 1.296875 -1.140625q0.84375 -0.40625 1.875 -0.40625q1.796875 0 2.703125 0.875q0.921875 0.875 0.921875 2.78125l0 6.515625l-1.515625 0zm7.841263 -1.0625q0.40625 0 0.765625 -0.0625q0.375 -0.0625 0.59375 -0.125l0 1.15625q-0.234375 0.125 -0.71875 0.203125q-0.484375 0.078125 -0.859375 0.078125q-2.890625 0 -2.890625 -3.0625l0 -5.9375l-1.4375 0l0 -0.71875l1.4375 -0.640625l0.625 -2.125l0.875 0l0 2.3125l2.90625 0l0 1.171875l-2.90625 0l0 5.875q0 0.90625 0.421875 1.390625q0.4375 0.484375 1.1875 0.484375z" fill-rule="nonzero"></path><path fill="#000000" d="m122.58188 424.74188l0 -13.3125l1.546875 0l0 11.90625l5.875 0l0 1.40625l-7.421875 0zm10.964645 0l-1.5 0l0 -9.984375l1.5 0l0 9.984375zm-1.640625 -12.6875q0 -0.515625 0.25 -0.75q0.265625 -0.25 0.65625 -0.25q0.359375 0 0.625 0.25q0.265625 0.234375 0.265625 0.75q0 0.515625 -0.265625 0.765625q-0.265625 0.25 -0.625 0.25q-0.390625 0 -0.65625 -0.25q-0.25 -0.25 -0.25 -0.765625zm9.4999695 2.546875q1.96875 0 3.046875 1.34375q1.09375 1.34375 1.09375 3.796875q0 2.453125 -1.09375 3.828125q-1.09375 1.359375 -3.046875 1.359375q-0.96875 0 -1.78125 -0.359375q-0.8125 -0.359375 -1.359375 -1.109375l-0.109375 0l-0.3125 1.28125l-1.078125 0l0 -14.171875l1.5 0l0 3.4375q0 1.15625 -0.0625 2.078125l0.0625 0q1.0625 -1.484375 3.140625 -1.484375zm-0.21875 1.265625q-1.546875 0 -2.234375 0.890625q-0.6875 0.875 -0.6875 2.984375q0 2.109375 0.703125 3.015625q0.703125 0.90625 2.25 0.90625q1.390625 0 2.078125 -1.015625q0.6875 -1.015625 0.6875 -2.921875q0 -1.953125 -0.6875 -2.90625q-0.6875 -0.953125 -2.109375 -0.953125zm11.557419 -1.296875q0.671875 0 1.1875 0.109375l-0.203125 1.40625q-0.625 -0.140625 -1.09375 -0.140625q-1.203125 0 -2.078125 0.984375q-0.859375 0.984375 -0.859375 2.453125l0 5.359375l-1.5 0l0 -9.984375l1.234375 0l0.1875 1.84375l0.0625 0q0.5625 -0.96875 1.34375 -1.5q0.78125 -0.53125 1.71875 -0.53125zm9.20929 10.171875l-0.3125 -1.421875l-0.0625 0q-0.75 0.9375 -1.5 1.28125q-0.734375 0.328125 -1.84375 0.328125q-1.484375 0 -2.328125 -0.765625q-0.84375 -0.765625 -0.84375 -2.1875q0 -3.015625 4.828125 -3.171875l1.703125 -0.046875l0 -0.625q0 -1.171875 -0.515625 -1.734375q-0.5 -0.5625 -1.609375 -0.5625q-1.25 0 -2.828125 0.765625l-0.453125 -1.15625q0.734375 -0.390625 1.609375 -0.609375q0.875 -0.234375 1.765625 -0.234375q1.78125 0 2.640625 0.796875q0.859375 0.78125 0.859375 2.53125l0 6.8125l-1.109375 0zm-3.421875 -1.0625q1.40625 0 2.203125 -0.765625q0.8125 -0.78125 0.8125 -2.1875l0 -0.890625l-1.5 0.0625q-1.8125 0.0625 -2.609375 0.5625q-0.796875 0.484375 -0.796875 1.546875q0 0.8125 0.5 1.25q0.5 0.421875 1.390625 0.421875zm12.203842 -9.109375q0.671875 0 1.1875 0.109375l-0.203125 1.40625q-0.625 -0.140625 -1.09375 -0.140625q-1.203125 0 -2.078125 0.984375q-0.859375 0.984375 -0.859375 2.453125l0 5.359375l-1.5 0l0 -9.984375l1.234375 0l0.1875 1.84375l0.0625 0q0.5625 -0.96875 1.34375 -1.5q0.78125 -0.53125 1.71875 -0.53125zm1.4749146 0.1875l1.625 0l2.1875 5.6875q0.71875 1.953125 0.890625 2.828125l0.078125 0q0.109375 -0.46875 0.484375 -1.59375q0.390625 -1.125 2.484375 -6.921875l1.609375 0l-4.28125 11.375q-0.640625 1.671875 -1.5 2.375q-0.84375 0.71875 -2.078125 0.71875q-0.703125 0 -1.375 -0.15625l0 -1.21875q0.5 0.109375 1.125 0.109375q1.5625 0 2.21875 -1.75l0.5625 -1.421875l-4.03125 -10.03125z" fill-rule="nonzero"></path></g></svg>

