<svg viewBox="-3 0 470.829 260.1" fill="none" stroke-linecap="square" stroke-miterlimit="10" xmlns="http://www.w3.org/2000/svg">
  <clipPath id="a">
    <path d="M0 0h470.83v260.1H0V0z"/>
  </clipPath>
  <g clip-path="url(#a)">
    <path fill="none" d="M0 0h470.83v260.1H0z"/>
    <path fill="#fff2cc" d="M-.001 61.436h199.183V179.33H0z" fill-rule="evenodd"/>
    <path stroke="#000" stroke-width="2" stroke-linejoin="round" stroke-linecap="butt" d="M-.001 61.436h199.183V179.33H0z"/>
    <path fill="#000" d="M81.137 111.306q-3.765 0-5.953 2.516-2.172 2.5-2.172 6.86 0 4.484 2.094 6.937 2.11 2.437 6 2.437 2.39 0 5.453-.86v2.33q-2.375.89-5.86.89-5.046 0-7.796-3.063-2.734-3.062-2.734-8.703 0-3.531 1.312-6.187 1.328-2.657 3.813-4.094 2.5-1.438 5.875-1.438 3.593 0 6.28 1.313l-1.124 2.281q-2.594-1.219-5.188-1.219zm24.891 4.61q0 3.468-2.375 5.343-2.36 1.86-6.766 1.86H94.2v8.984h-2.656V109.26h5.922q8.562 0 8.562 6.657zM94.2 120.838h2.39q3.532 0 5.11-1.141 1.578-1.14 1.578-3.656 0-2.266-1.484-3.375-1.485-1.11-4.625-1.11h-2.97v9.282zm33.86-11.579v14.782q0 3.906-2.36 6.14-2.36 2.235-6.484 2.235-4.125 0-6.391-2.25-2.25-2.25-2.25-6.188V109.26h2.656v14.907q0 2.86 1.563 4.39 1.562 1.532 4.593 1.532 2.891 0 4.454-1.532 1.562-1.547 1.562-4.422V109.26h2.656z"/>
    <path fill="#fff" d="M199.184 132.278l19.989-10.567v5.284h104.494v-5.284l19.99 10.567-19.99 10.567v-5.283H219.173v5.283z" fill-rule="evenodd"/>
    <path stroke="#000" stroke-width="2" stroke-linejoin="round" stroke-linecap="butt" d="M199.184 132.278l19.989-10.567v5.284h104.494v-5.284l19.99 10.567-19.99 10.567v-5.283H219.173v5.283z"/>
    <path fill="#d9d2e9" d="M343.656 9.051h123.281v246.454h-123.28z" fill-rule="evenodd"/>
    <path stroke="#000" stroke-width="2" stroke-linejoin="round" stroke-linecap="butt" d="M343.656 9.051h123.281v246.454h-123.28z"/>
    <path fill="#000" d="M376.633 134.498v9.5h-2.657v-22.844h6.266q4.203 0 6.203 1.61 2.016 1.61 2.016 4.844 0 4.53-4.594 6.125l6.203 10.265h-3.14l-5.532-9.5h-4.765zm0-2.281h3.64q2.813 0 4.125-1.11 1.313-1.124 1.313-3.359 0-2.265-1.344-3.265-1.328-1-4.281-1h-3.453v8.734zm31.484 11.781l-2.844-7.265h-9.156l-2.813 7.265h-2.687l9.031-22.937h2.235l8.984 22.937h-2.75zm-3.672-9.656l-2.656-7.078q-.516-1.344-1.063-3.297-.343 1.5-.984 3.297l-2.688 7.078h7.391zm19.672 9.656l-7.75-20.25h-.125q.219 2.406.219 5.719v14.531h-2.453v-22.844h4l7.234 18.844h.125l7.297-18.844h3.969v22.844h-2.657V129.28q0-2.53.219-5.5h-.125L426.258 144h-2.141z"/>
    <path fill="none" d="M229.357 0h114.3v36.157h-114.3z"/>
    <path fill="#000" d="M253.48 20.326q0-2.36.484-3.797.484-1.453 1.437-2.234.969-.781 2.422-.781 1.078 0 1.89.437.813.422 1.329 1.25.531.813.828 1.985.312 1.156.312 3.14 0 2.36-.484 3.813-.484 1.437-1.453 2.234-.953.781-2.422.781-1.922 0-3.031-1.39-1.313-1.672-1.313-5.438zm1.671 0q0 3.297.766 4.39.781 1.079 1.906 1.079 1.14 0 1.906-1.094t.766-4.375q0-3.297-.766-4.375-.765-1.078-1.922-1.078-1.125 0-1.796.953-.86 1.219-.86 4.5zm8.063 6.594l3.532-5.031-3.266-4.64h2.047l1.484 2.265q.422.64.672 1.078.406-.594.734-1.063l1.641-2.28h1.953l-3.344 4.546 3.594 5.125h-2.015l-1.985-3-.515-.813-2.547 3.813h-1.985zm9.97-6.594q0-2.36.483-3.797.485-1.453 1.438-2.234.969-.781 2.422-.781 1.078 0 1.89.437.813.422 1.329 1.25.53.813.828 1.985.312 1.156.312 3.14 0 2.36-.484 3.813-.485 1.437-1.453 2.234-.953.781-2.422.781-1.922 0-3.031-1.39-1.313-1.672-1.313-5.438zm1.671 0q0 3.297.766 4.39.78 1.079 1.906 1.079 1.14 0 1.906-1.094t.766-4.375q0-3.297-.766-4.375-.766-1.078-1.922-1.078-1.125 0-1.797.953-.859 1.219-.859 4.5zm8.704 0q0-2.36.484-3.797.485-1.453 1.438-2.234.968-.781 2.422-.781 1.078 0 1.89.437.813.422 1.328 1.25.532.813.828 1.985.313 1.156.313 3.14 0 2.36-.484 3.813-.485 1.437-1.454 2.234-.953.781-2.421.781-1.922 0-3.032-1.39-1.312-1.672-1.312-5.438zm1.672 0q0 3.297.765 4.39.782 1.079 1.907 1.079 1.14 0 1.906-1.094.765-1.094.765-4.375 0-3.297-.765-4.375-.766-1.078-1.922-1.078-1.125 0-1.797.953-.86 1.219-.86 4.5zm8.704 0q0-2.36.484-3.797.484-1.453 1.437-2.234.97-.781 2.422-.781 1.078 0 1.89.437.813.422 1.329 1.25.531.813.828 1.985.313 1.156.313 3.14 0 2.36-.485 3.813-.484 1.437-1.453 2.234-.953.781-2.422.781-1.922 0-3.031-1.39-1.312-1.672-1.312-5.438zm1.671 0q0 3.297.766 4.39.781 1.079 1.906 1.079 1.14 0 1.907-1.094.765-1.094.765-4.375 0-3.297-.765-4.375-.766-1.078-1.922-1.078-1.125 0-1.797.953-.86 1.219-.86 4.5zm8.704 0q0-2.36.485-3.797.484-1.453 1.437-2.234.969-.781 2.422-.781 1.078 0 1.89.437.813.422 1.329 1.25.531.813.828 1.985.312 1.156.312 3.14 0 2.36-.484 3.813-.484 1.437-1.453 2.234-.953.781-2.422.781-1.922 0-3.031-1.39-1.313-1.672-1.313-5.438zm1.672 0q0 3.297.766 4.39.781 1.079 1.906 1.079 1.14 0 1.906-1.094t.766-4.375q0-3.297-.766-4.375-.765-1.078-1.922-1.078-1.125 0-1.796.953-.86 1.219-.86 4.5zm8.704 0q0-2.36.484-3.797.485-1.453 1.438-2.234.969-.781 2.422-.781 1.078 0 1.89.437.813.422 1.328 1.25.532.813.829 1.985.312 1.156.312 3.14 0 2.36-.484 3.813-.485 1.437-1.453 2.234-.954.781-2.422.781-1.922 0-3.032-1.39-1.312-1.672-1.312-5.438zm1.672 0q0 3.297.765 4.39.782 1.079 1.907 1.079 1.14 0 1.906-1.094t.766-4.375q0-3.297-.766-4.375-.766-1.078-1.922-1.078-1.125 0-1.797.953-.86 1.219-.86 4.5zm8.704 0q0-2.36.484-3.797.484-1.453 1.438-2.234.968-.781 2.421-.781 1.079 0 1.891.437.813.422 1.328 1.25.531.813.828 1.985.313 1.156.313 3.14 0 2.36-.485 3.813-.484 1.437-1.453 2.234-.953.781-2.422.781-1.921 0-3.03-1.39-1.313-1.672-1.313-5.438zm1.672 0q0 3.297.765 4.39.781 1.079 1.906 1.079 1.141 0 1.907-1.094.765-1.094.765-4.375 0-3.297-.765-4.375-.766-1.078-1.922-1.078-1.125 0-1.797.953-.86 1.219-.86 4.5z"/>
    <path fill="none" d="M311.152 41.294v64.787"/>
    <path stroke="#999" stroke-width="3" stroke-linejoin="round" stroke-linecap="butt" d="M311.152 41.294v46.787"/>
    <path fill="#999" stroke="#999" stroke-width="3" stroke-linecap="butt" d="M306.197 88.081l4.955 13.615 4.955-13.615z" fill-rule="evenodd"/>
  </g>
</svg>