<svg xmlns="http://www.w3.org/2000/svg" width="1066.667" height="1066.667"><defs><clipPath id="a"><path d="M0 800h800V0H0z"/></clipPath></defs><path fill="#b6b2bf" d="M818.262 959.05l-280.387-3.252 41.147-358.23 280.386 3.254z"/><g clip-path="url(#a)" transform="matrix(1.33333 0 0 -1.33333 0 1066.667)"><path fill="#26964b" d="M630.864 655.311s70.195-108-33.652-156zM367.446 475.662s-6.034 4.024-12.518 12.523c1.807-5.19 5.67-9.6 12.518-12.523M385.087 376.81c-.166-.215-.311-.42-.474-.634a94.011 94.011 0 0 1 1.689-5.068c-.828 3.288-1.215 5.702-1.215 5.702"/><path fill="#39c66c" d="M386.302 371.108a93.406 93.406 0 0 0-1.688 5.068c-22.525-29.626-7.917-40.643 15.004-40.54 2.567-.249 5.168.222 7.756 1.266-5.186 5.291-9.73 11.486-13.5 18.011-3.795 3.427-6.248 10.93-7.572 16.195"/><path fill="#26964b" d="M581.404 457.162c21.982-12.913 41.46 11.78 41.46 11.78-33.5-20.37-47 15.37-47 15.37l-149.619 125.5s-86.127-12.74-86.98-71.702c-.339-23.485 7.978-39.85 15.663-49.925-7.34 21.093 19.436 55.126 19.436 55.126-22-65.5 29.805-90 29.805-90-5.932 12.047-10.337 33.26-12.969 48.764 11.647-53.348 47.477-57.269 35.045-97.264-15.446-49.688-25.876-55.763-32.37-49.898 3.77-6.524 8.312-12.72 13.5-18.01 16.464 6.642 32.404 37.34 35.6 65.908 0 0 1.608-43.724-18.084-57.607 0 0-3.07-4.45-7.526-9.297 42.496 2.482 101.566 16.873 141.478 29.747l-1.049 5.156c31.262 15 13.472 52.667 13.472 52.667 18.797-19.678 14.293-38.439 6.187-51.42 10.185 3.77 17.865 7.162 21.911 9.753 32 20.501 21 43.001 10.5 53.501-8.245 8.245-22.65 18.027-28.46 21.851"/><path fill="#26964b" d="M391.2 502.075c-1.86 10.96-2.836 19.068-2.836 19.068.603-7.004 1.581-13.319 2.836-19.068M581.404 457.162c-1.59 1.046-2.54 1.65-2.54 1.65.85-.61 1.696-1.155 2.54-1.65"/><path fill="#1b7737" d="M575.864 484.311l-149.619 125.5s-86.127-12.74-86.98-71.701c-.626-43.299 28.181-62.448 28.181-62.448-28.19 31.478 6.918 67.649 6.918 67.649a115.418 115.418 0 0 1-2.768-9.571c-1.075-28.008 15.816-50.888 30.095-74.643-4.689 12.305-8.24 29.72-10.49 42.978-1.256 5.749-2.234 12.065-2.837 19.069 0 0 .975-8.11 2.836-19.069 3.466-15.874 9.07-27.374 14.91-36.748-9.508 31.448 1.571 66.659 26.754 88.484-5-33-8-65 1-98 7-23 20-55 48-51 36 6 66 28 91 54 3.93 3.93 7.695 8.184 11.288 12.678-5.706 5.988-8.288 12.822-8.288 12.822"/><path fill="#26964b" d="M371.597 533.74c-14.143-58.327 32.572-80.43 32.572-80.43-.86 1.746-1.682 3.702-2.477 5.787-14.28 23.755-31.17 46.635-30.095 74.643"/><path fill="#423e38" d="M454.244 590.636s-33.824-6.149-38.892-11.837c-5.068-5.687-3.507-91.557-2.207-94.06 1.301-2.503 20.03-15.772 49.682 6.76 29.653 22.531 20.29 109.151-8.583 99.137"/><path fill="none" stroke="#393342" stroke-miterlimit="10" stroke-width="3" d="M394.907 549.155l29.984 12.485"/><path fill="#e6e2ed" d="M800 0H0v150.975h800z"/><path fill="#ffe2c3" d="M565.038 468.941s-45.122-77.423-16.52-86.957c5.215-1.738 25.215-7.826 25.215-7.826s-98.26-75.652-118.26-65.217c-20 10.435-38.26 23.48-24.348 36.521 13.913 13.044 55.652 8.522 57.392 73.827z"/><path fill="#e5b8ac" d="M547.331 432.353c7.614 19.266 17.707 36.588 17.707 36.588l-76.52-49.651c-.454-16.965-3.609-29.21-8.27-38.282 19.167 14.733 38.922 29.143 59.616 44.804 2.737 1.954 5.163 4.215 7.467 6.542"/><path fill="#ffe2c3" d="M501.56 676.768c-2.542-.587-99.13 0-80.87-145.218 0 0-7.825-27.826-6.086-40 1.739-12.174 8.695-43.478 59.13-78.261 0 0 25.218-17.391 106.087 59.13 80.87 76.523 23.478 227.827-78.261 204.349"/><path fill="#e5b8ac" d="M501.56 676.768c-2.273-.525-79.804-.13-83.048-104.01 50.974 30.903 102.934 60.124 155.223 88.713-19.356 14.927-44.071 21.782-72.175 15.297"/><path fill="#916e56" d="M486.368 591.271s8.763 39.515 55.232 15.204c0 0-3.832-.853-9.194-2.34-8.133-2.255-42.83-18.112-46.038-12.864M439.35 575.086s-.495 29.424-21.91 15.488c0 0 1.537-.928 3.663-2.44 3.225-2.292 16.48-16.605 18.247-13.048"/><path fill="#1f202d" d="M389.188 342.464s-31.976-34.393-42.411-61.35c-10.435-26.956-66.956-69.564-66.956-69.564v-5.217s-23.479-59.131 26.956-55.652c50.435 3.477 97.392 86.087 97.392 86.087z"/><path fill="#1f202d" d="M239.864 341.849s37.333 23.468 52.667 17.215v-19.208L329.024 214.9s-39.227-65.785-49.476-54.938c-10.249 10.848-28.35 156.183-28.35 156.183z"/><path fill="#393342" d="M239.864 341.849l9.117-20.678c10.336 13.325 21.207 26.116 32.448 38.535-17.429-2.692-41.565-17.857-41.565-17.857M305.96 293.868c-10.727-4.275-20.628-3.356-29.096-16.058-4.346-6.83-13.116-3.96-20.174-2.738 4.014-21.78 6.14-48.059 11.122-70.725 1.573-2.577 8.325-7.042 10.052-9.537 27.334-36.056 40.574 20.771 44.013 44.562zM393.691 345.466c-11.946-7.678-18.219-12.177-16.479-44.351l-.16-20s-46.797-41.74-48.536-48.695c-1.739-6.957-1.739-47.826 38.261-63.478 40-15.653 149.441 34.782 149.441 34.782l57.515 170.434s-98.26-60-114.782-53.912c-16.522 6.087-42.609 15.193 3.913 41.509 0 0-17.152-4.987-36.619-13.684-19.468-8.695-20.608 5.073-32.554-2.605"/><path fill="#1f202d" d="M484.864 240.81c-23-1-38-19-61-25-13-3-27-5-39 0-16.752 8.066-37.352 16.124-56.548 15.591-1.473-9.224.087-47.445 38.461-62.46 40-15.652 149.441 34.782 149.441 34.782l45.304 134.248c-40.934-12.24-51.3-66.166-76.658-97.16"/><path fill="#ffe2c3" d="M372.366 159.218s-8.363 23.647-12.206 25.08c-3.842 1.433-15.932.603-15.932.603s-22.495 11.976-29.006 10.59c-6.51-1.383-8.268-10.642-8.268-10.642l1.025-1.62s-15.92-31.763-8.385-38.83c7.535-7.068 24.13-5.2 41.622-7.91 17.493-2.71 32.622 18.735 31.15 22.729"/><path fill="#e5b8ac" d="M298.703 145.561c.253-.433.54-.833.891-1.163 7.535-7.067 24.13-5.199 41.622-7.909 17.493-2.71 32.622 18.734 31.15 22.728 0 0-.98 2.775-2.425 6.48-17.359-2.57-34.718-5.833-52.077-6.886-7.514-.751-12.77-7.713-19.16-13.25"/><path fill="#393342" d="M594.146 388.447c-4.053.072-52.174-20.376-62.608-63.854-10.435-43.478-38.26-94.783-38.26-94.783l-6.807-10.489-93.195-26.9s-6.087 11.302-15.65 5.215c-9.566-6.086-31.305-19.129-33.044-35.652-1.74-16.52 16.522-28.695 16.522-28.695l20.869 6.087s75.652-17.392 98.26-19.13c22.608-1.739 57.392 6.956 68.695 8.695 11.305 1.74 50.436 134.782 50.436 134.782s29.564 39.131 27.826 58.261c-1.738 19.131-5.217 65.97-33.043 66.463"/><path fill="#1f202d" d="M627.19 321.984c-1.103 12.121-2.905 35.362-11.154 50.894 10.33-29.95 3.823-65.313-18.172-89.068-5 5-8 12-15 15-1-6 0-13-3-19-16-32-23-67-38-99-3-6-15-7-22-2-4-19-38-20-57-24-23-5-44-1-67 2-9 2-12 9-14 17-1-9-7-16-13-19-7.523-3.472-15.38-3.259-23.184-2.27 3.825-11.509 15.423-19.25 15.423-19.25l20.87 6.086s75.652-17.392 98.26-19.13c22.608-1.74 57.392 6.956 68.695 8.695 11.305 1.74 50.436 134.782 50.436 134.782s29.564 39.131 27.826 58.261"/><path fill="#ba9b80" d="M558.082 653.29s5.217-3.479 4.348-6.958c-.87-3.478-8.5-5.217.097-14.782 8.598-9.565 0-6.087 0-6.087s-4.005-16.522-.312-23.478c3.692-6.957 17.605-31.305 18.475-35.653.87-4.347 4.348-38.26 4.348-38.26s23.148 33.77 32.878 28.624c0 0 18.427 10.506 18.427 33.984 0 23.48-46.087 117.392-78.261 62.61"/><path fill="#916e56" d="M590.778 647.04a4.55 4.55 0 0 0 1.661-.182 3.7 3.7 0 0 0 1.175-.555c.708-.428.755-1.364 1.092-2.077.338-.712.648-1.445.933-2.199.276-.76.556-1.517.775-2.32l-.318-.245c-.719.419-1.379.885-2.043 1.347-.655.468-1.283.958-1.884 1.467-.603.51-1.495.796-1.727 1.59-.14.379-.23.795-.233 1.278-.015.475.032.998.252 1.652zM589.992 598.11a4.56 4.56 0 0 0 1.662-.182 3.721 3.721 0 0 0 1.175-.555c.707-.429.755-1.365 1.092-2.077a29.38 29.38 0 0 0 .932-2.2c.276-.76.556-1.517.776-2.32l-.318-.244c-.72.418-1.38.884-2.044 1.346-.654.47-1.282.958-1.883 1.467-.603.51-1.496.796-1.727 1.59a3.71 3.71 0 0 0-.234 1.278c-.014.476.033.998.253 1.652zM596.959 629.774a4.552 4.552 0 0 0 1.661-.18 3.721 3.721 0 0 0 1.175-.556c.707-.429.755-1.365 1.092-2.077.338-.713.648-1.446.932-2.2.276-.76.556-1.517.776-2.32l-.318-.244c-.72.418-1.379.884-2.043 1.346-.655.47-1.283.958-1.884 1.467-.603.51-1.495.796-1.727 1.59a3.71 3.71 0 0 0-.234 1.278c-.014.476.033.998.253 1.652zM596.959 615.911a4.55 4.55 0 0 0 1.661-.182 3.7 3.7 0 0 0 1.175-.555c.707-.428.755-1.364 1.092-2.077.338-.712.648-1.445.932-2.199.276-.76.556-1.517.776-2.32l-.318-.245c-.72.42-1.379.885-2.043 1.347-.655.468-1.283.958-1.884 1.467-.603.51-1.495.796-1.727 1.59a3.71 3.71 0 0 0-.234 1.278c-.014.475.033.998.253 1.652zM593.499 606.085a4.55 4.55 0 0 0 1.661-.182 3.7 3.7 0 0 0 1.175-.555c.708-.428.755-1.364 1.092-2.077a29.54 29.54 0 0 0 .933-2.199c.276-.76.556-1.517.775-2.32l-.318-.245c-.719.42-1.379.885-2.043 1.346-.655.47-1.283.96-1.884 1.468-.603.51-1.495.796-1.727 1.59-.14.38-.229.795-.233 1.278-.015.475.032.997.252 1.652zM580.183 661.207a4.537 4.537 0 0 0 1.662-.182 3.7 3.7 0 0 0 1.175-.555c.707-.428.754-1.364 1.092-2.077a29.18 29.18 0 0 0 .932-2.199c.276-.76.556-1.516.775-2.32l-.317-.245c-.72.42-1.38.885-2.044 1.347a29.57 29.57 0 0 0-1.884 1.467c-.602.51-1.495.796-1.726 1.59a3.71 3.71 0 0 0-.234 1.278c-.014.475.033.998.253 1.652z"/><path fill="#fff" d="M488.864 537.811s11.125 57 69.218 28.5c0 0 2.282-20.909-17.218-32.5-15.012-8.924-33.5-5.5-52 4"/><path fill="#fff" d="M557.71 565.659c-7.301 3.582-13.878 5.846-19.807 7.073 2.754-2.99 6.3-7.524 7.215-11.887 1.253-5.983 4.422-16.82-1.005-25.834 15.595 12.222 13.598 30.648 13.598 30.648M509.044 540.922c-3.168 11.02 2.29 25.328 4.578 30.569-21.99-8.272-27.254-35.207-27.254-35.207 11.328-5.817 22.65-9.424 33.22-9.465-4.848 2.657-8.712 7.732-10.544 14.103"/><path fill="#a31f4f" d="M538.919 531.59c.348.191.7.366 1.046.571a39.019 39.019 0 0 1 4.148 2.85 20.125 20.125 0 0 1 1.79 3.883c-5.098 3.337-10.856 5.498-17.276 6.666 1.82-5.462 5.255-10.117 10.292-13.97"/><path fill="#6b0b30" d="M545.118 560.844c-.083.395-.193.792-.317 1.188-4.032.25-8.118-.357-12.05-2.042-9.71-4.855-20.684-12.886-21.966-23.592 2.087-4.237 5.17-7.587 8.804-9.579 6.827-.027 13.333 1.457 19.33 4.77-5.037 3.854-8.472 8.51-10.292 13.971 6.42-1.168 12.178-3.329 17.276-6.666 2.771 8.076.292 16.806-.785 21.95"/><path fill="#49071d" d="M544.8 562.032c-1.237 3.983-4.392 7.98-6.896 10.7-9.766 2.021-17.76 1.212-24.282-1.242-2.288-5.24-7.746-19.549-4.578-30.568a27.328 27.328 0 0 1 1.74-4.524c1.284 10.706 12.257 18.737 21.966 23.592 3.934 1.685 8.02 2.292 12.05 2.042"/><path fill="#21040d" d="M508.12 546.833c-.569 2.264-.716 4.557-.717 6.842.027 2.286.246 4.573.707 6.831.456 2.256 1.145 4.496 2.201 6.604a16.419 16.419 0 0 0 1.93 2.981c.775.898 1.676 1.736 2.756 2.212-1.273-1.936-1.897-3.975-2.489-6.053-.573-2.077-1.022-4.199-1.459-6.34l-1.308-6.483c-.469-2.18-.94-4.368-1.62-6.593M535.515 575.367c3.328-1.7 6.008-4.573 8.014-7.783 2.034-3.223 3.303-6.906 3.954-10.653l.343-2.832c.094-.944.049-1.894.067-2.839.074-1.896-.231-3.765-.463-5.624-.27-1.854-.818-3.656-1.256-5.455-.64-1.754-1.295-3.49-2.06-5.17.125 1.867.39 3.67.617 5.467l.188 2.708c.034.901.227 1.783.182 2.682-.04 1.791.137 3.565-.053 5.33-.072.878-.046 1.766-.174 2.636l-.35 2.61c-.594 3.451-1.57 6.822-3.042 10.022-1.502 3.182-3.418 6.222-5.967 8.901"/><path d="M486.368 536.284c.524 4.132 1.68 8.192 3.235 12.097a50.242 50.242 0 0 0 6.154 11.085 44.906 44.906 0 0 0 9.04 9.16 45.678 45.678 0 0 0 11.416 6.263c8.096 3.123 17.066 4.272 25.852 3.37a63.289 63.289 0 0 0 12.95-2.748 69.688 69.688 0 0 0 9.214-3.736l2.746-1.375-4.189-7.966-2.705 1.65a68.22 68.22 0 0 1-2.542 1.448 61.737 61.737 0 0 1-5.269 2.518 55.823 55.823 0 0 1-11.176 3.38c-7.667 1.443-15.712 1.136-23.367-1.093a41.407 41.407 0 0 1-20.105-12.388 48.483 48.483 0 0 1-6.926-10.07c-1.883-3.654-3.41-7.538-4.328-11.595"/><path fill="#fff" d="M436.765 551.873c-4.48 3.965-9.536 5.025-14.4-1.354 0 0 3.88-22.447 14.24-27.208 5.089-2.338 8.018-2.536 9.818-1.746-17.543 9.914-12.298 24.937-9.658 30.308M450.85 528.627s-.806 2.131-2.212 5.181c2.242-8.958-1.892-12.028-2.187-12.233 3.079 1.377 2.813 5.674 4.4 7.052M446.429 521.561l.02.015-.026-.012.006-.003"/><path fill="#a31f4f" d="M447.695 522.929c.813 1.189 1.7 3.233 1.597 6.469-1.484.797-2.977 1.584-4.428 2.413 0-3.632 1.582-6.21 2.831-8.882"/><path fill="#6b0b30" d="M445.37 540.266c-1.483.132-2.995-.246-4.506-1.455-2.222-2.222-3.89-4.993-4.204-8.313 1.91-3.157 4.987-6.234 9.763-8.933l.027.01c.102.07.654.489 1.245 1.354-1.249 2.672-2.83 5.25-2.83 8.882 1.45-.83 2.943-1.616 4.427-2.413-.04 1.28-.236 2.743-.654 4.41a97.329 97.329 0 0 1-3.268 6.458"/><path fill="#49071d" d="M436.765 551.873c-1.921-3.91-5.213-12.93-.104-21.375.312 3.32 1.982 6.09 4.204 8.313 1.51 1.209 3.022 1.587 4.505 1.455-2.358 4.24-5.325 8.702-8.605 11.607"/><path d="M440.563 543.54s-1.911-2.871-.18-7.202c1.732-4.331 4.037-7.925 5.367-8.053 1.33-.128 3.957 3.707.903 11.478-3.054 7.772-6.09 3.777-6.09 3.777"/><path fill="#39c66c" d="M621.364 675.311c-28.5 65-61 42.5-61 42.5-6 7.5-67.5 40.5-67.5 40.5-24-2.5-34-33-34-33-32.5-8-36-22-36.5-32s7.5-65.935-32-88c-9.214-5.147-17.078-10.502-23.746-15.692 12.945-2.806 26.295-1.738 38.774 2.355.814.277 1.61.553 2.41.829 100.601 34.75 95.562 60.508 95.562 60.508l54.718-.022s10.032 4.522 13.184 12.272c2.468-4.09 8.598-.25 8.598-.25 20.5-29 34.841-21.429 34.841-21.429-2.34-19.571 15.44-29.458 15.44-29.458l6.198 4.887c24.977 35.5-14.979 56-14.979 56"/><path fill="#26964b" d="M612.333 620.477c3.788.947 7.431 2.134 10.823 3.71 1.677.822 3.313 1.69 4.773 2.776 1.473 1.056 2.822 2.254 3.902 3.647 2.221 2.735 3.44 6.164 3.598 9.828.176 3.665-.451 7.456-1.315 11.268 2.018-3.349 3.385-7.172 3.656-11.257.123-2.034-.049-4.138-.662-6.157a16.544 16.544 0 0 0-2.941-5.561 20.152 20.152 0 0 0-4.654-4.115c-1.745-1.081-3.577-1.973-5.488-2.592-3.799-1.265-7.777-1.834-11.692-1.546M612.202 643.312c1.622.713 2.486 1.977 3.247 3.247.746 1.293 1.28 2.728 1.822 4.185l1.456 4.577c.52 1.562.986 3.161 1.77 4.781.462-1.713.634-3.45.555-5.185-.064-1.734-.395-3.471-.949-5.161-.622-1.672-1.477-3.329-2.818-4.665a7.27 7.27 0 0 0-2.34-1.593c-.889-.322-1.877-.514-2.743-.186M405.393 591.974c-12.48-4.092-25.83-5.161-38.774-2.354-.348-.271-.683-.54-1.023-.81h1.269-1.27l-.383-.302c5.766-5.148 12.673-7.04 19.875-7.202 5.423 4.53 9.278 7.005 9.278 7.005a725.48 725.48 0 0 1 11.028 3.663"/><path fill="#39c66c" d="M335.864 557.311c-32-59.5 12-80 12-80-5 8-5.552 23.5-5.552 23.5 14.45-34.5 33.052-34 33.052-34-51.957 52.744-10.34 97.733 9.723 114.494-7.203.162-14.11 2.055-19.875 7.203-20.886-16.604-29.348-31.197-29.348-31.197"/><path fill="#1b7737" d="M503.364 653.311s9.21-3 12.854-6v5.995s12.646-3.495 14.646-5.995v5.989s19.5-2.489 21.5-5.989c0 0 3.094 8.295 5.718 5.978 2.623-2.317-4.718 28.022-54.718 40.022 0 0 13.5-24.5 0-40"/><path fill="#39c66c" d="M399.364 452.024s-20.446-1.966-20.5-14.713c-.023-5.508 7.512-12.69 16.913-17.955-.226.59-.43 1.192-.619 1.803-10.046 7.68 4.206 30.865 4.206 30.865"/><path fill="#26964b" d="M428.364 441.311l-12.392 10.713s24.864-27.772-5.108-32.713c-7.883-1.3-12.804-.371-15.706 1.848.19-.611.393-1.212.62-1.803 19.134-10.717 45.997-13.493 32.586 21.955"/><path fill="#39c66c" d="M371.568 592.822c-35.182-5.8-16.05 29.144-16.05 29.144s-20.5-1.966-20.5-14.713c0-18.612 92.037-40.295 72.037 12.569 0 0-5.514-22.06-35.487-27"/><path fill="#e58f96" d="M459.152 464.01l6.271-3.902c2-1.21 3.962-2.29 5.863-3.072.476-.168.944-.357 1.401-.537.462-.124.912-.302 1.357-.437.442-.083.881-.255 1.315-.337.216-.03.43-.077.647-.12.207-.041.475-.112.567-.1.508-.112 1.397-.01 2.325.294.941.314 1.916.786 2.88 1.347 1.92 1.15 3.807 2.577 5.634 4.093 1.85 1.503 3.647 3.118 5.406 4.789 3.543 3.32 6.936 6.868 10.261 10.486l.005.006a.351.351 0 0 0 .565-.412c-2.46-4.31-5.228-8.42-8.225-12.417-1.52-1.98-3.1-3.93-4.798-5.82-1.733-1.856-3.556-3.665-5.66-5.328a30.649 30.649 0 0 0-3.462-2.371c-1.298-.714-2.789-1.395-4.738-1.595-3.37-.253-6.329.756-8.773 2.282-2.433 1.537-4.377 3.498-5.954 5.64-1.558 2.162-2.805 4.494-3.463 7.113a.373.373 0 0 0 .558.409z"/><path fill="#e5ae93" d="M477.864 335.532c-.416 1.361-.432 2.725-.275 4.062.174 1.334.547 2.654 1.184 3.9.625 1.236 1.543 2.43 2.818 3.265 1.26.841 3.027 1.106 4.273.385-1.316-.58-2.083-1.317-2.728-2.167-.634-.862-1.168-1.82-1.693-2.85l-1.602-3.208c-.572-1.106-1.168-2.23-1.977-3.387M492.197 346.81c.606.086 1.16.246 1.746.408.578.14 1.155.306 1.732.463l3.461.926c2.312.595 4.622 1.195 6.94 1.75 2.31.59 4.64 1.086 6.956 1.643l6.975 1.54 6.991 1.452c2.341.436 4.662.95 7.008 1.367 4.673.926 9.353 1.717 14.051 2.705-4.306-2.175-8.919-3.626-13.504-4.982-2.294-.691-4.618-1.26-6.933-1.862-2.322-.57-4.656-1.086-6.987-1.612-4.68-.973-9.377-1.859-14.112-2.54-2.364-.36-4.742-.646-7.124-.903-1.196-.103-2.386-.234-3.589-.3-1.196-.066-2.405-.17-3.61-.055M458.864 335.532c-.517.104-.939.437-1.352.713-.41.291-.783.612-1.168.915l-2.152 1.842c-.682.564-1.42 1.134-1.964 1.33-.273.09-.357.05-.256.041.033.016.024-.002-.019-.037a15.167 15.167 0 0 0-.735-.662c-1.02-.727-2.016-1.073-3.013-1.374-.996-.289-1.984-.454-2.974-.562-1.978-.192-3.956-.163-5.927.272 1.84.807 3.655 1.413 5.42 2.032.873.318 1.75.606 2.562.951.802.334 1.612.691 2.15 1.093.114.104.193.168.341.288.3.295.66.601 1.152.767.476.18 1.002.2 1.425.125a3.36 3.36 0 0 0 1.092-.372c1.183-.659 1.826-1.475 2.461-2.284a19.644 19.644 0 0 0 1.575-2.526c.473-.86.811-1.763 1.382-2.552M530.864 395.81c-2.163-4.382-4.69-8.556-7.41-12.596-1.348-2.032-2.789-3.996-4.236-5.959-.714-.989-1.489-1.93-2.248-2.886-.763-.953-1.509-1.916-2.303-2.846-3.145-3.734-6.517-7.304-10.207-10.543-3.682-3.21-7.676-6.26-12.263-8.048 3.95 2.87 7.324 6.277 10.641 9.736a93.952 93.952 0 0 1 2.444 2.636c.798.898 1.634 1.752 2.398 2.682l2.377 2.705 2.317 2.763a259.485 259.485 0 0 1 4.616 5.551l4.59 5.597c3.051 3.747 6.087 7.514 9.284 11.208"/><path fill="#ffe2c3" d="M278.718 356.966c1.726 2.24 7.234 27.155 8.256 29.642 1.022 2.485-1.768 34.362-.044 36.617 1.725 2.255-9.45 5.482-11.24-1.458-1.788-6.94-5.952-21.483-5.952-21.483l-7.05 7.71s-24.117 59.48-27.423 59.052c-3.306-.43 2.254-36.664 11.266-54.318 0 0-27.804 43.494-29.006 45.967-2.661 5.472-13.908-5.892 17.006-52.466 0 0-29.05 31.34-32.167 29.46-3.117-1.88 21.489-34.077 26.63-37.443 5.143-3.367-25.064 13.327-24.635 10.02.429-3.304 7.959-8.543 19.505-19.82 0 0 11.006-28.683 19.814-36.025 8.809-7.342 9.597-13.423 9.597-13.423l29.17 9.967z"/><path fill="#e5ae93" d="M264.53 395.81c-.314-2.609-.898-5.108-1.523-7.588-.641-2.47-1.372-4.908-2.11-7.308-.174-.593-.371-1.196-.523-1.779-.087-.293-.178-.59-.238-.859l-.102-.416c-.032-.139-.032-.207-.058-.315l-.033-.148-.012-.239-.022-.48-.055-.957a68.555 68.555 0 0 0-.143-1.916c-.238-2.554-.552-5.107-1.18-7.66-.628 2.554-.942 5.107-1.18 7.66a64.947 64.947 0 0 0-.142 1.916l-.056.957-.022.48-.012.24.017.326c.015.21.026.462.06.636l.095.521c.06.359.139.678.216 1.002.155.657.345 1.273.522 1.906a61.124 61.124 0 0 0 2.762 7.219c1.082 2.336 2.255 4.633 3.74 6.803M234.53 381.008c1.675 1.992 3.524 3.735 5.413 5.426a96.123 96.123 0 0 0 5.876 4.775 104.851 104.851 0 0 0 6.204 4.32c1.06.688 2.148 1.334 3.23 1.99 1.09.653 2.212 1.238 3.278 1.959-.592-1.192-1.514-2.124-2.348-3.102-.883-.93-1.775-1.85-2.713-2.71a73.428 73.428 0 0 0-5.851-4.855 80.317 80.317 0 0 0-6.28-4.268c-2.176-1.308-4.398-2.554-6.808-3.535M493.104 561.269c-.156 1.64.115 3.22.543 4.742.451 1.516 1.085 2.986 1.955 4.336.871 1.346 1.933 2.603 3.241 3.603 1.317.977 2.877 1.722 4.521 1.807a43.929 43.929 0 0 1-2.85-3.473c-.84-1.154-1.598-2.35-2.382-3.548l-2.342-3.692c-.814-1.25-1.657-2.504-2.686-3.775M422.364 559.803c-.376.75-.338 1.486-.143 2.146a3.451 3.451 0 0 0 1.192 1.68c1.107.88 2.894 1.056 4.007-.151-.549-.652-.939-1.015-1.264-1.384a9.034 9.034 0 0 0-.919-.846 8.124 8.124 0 0 0-1.12-.692 14.51 14.51 0 0 0-1.753-.753"/><path fill="none" stroke="#393342" stroke-miterlimit="10" stroke-width="3" d="M450.688 539.61c5.712-24.003-1.74-44.023-16.646-44.716-14.904-.694-31.617 18.203-37.329 42.206-5.712 24.003 1.741 44.023 16.645 44.716 14.905.693 31.618-18.203 37.33-42.206z"/><path fill="#e5ae93" d="M455.864 538.11c.344-4.355.353-8.677.213-12.981-.142-4.304-.44-8.592-.872-12.864-.425-4.275-.996-8.53-1.696-12.774-.693-4.245-1.535-8.471-2.585-12.677l-1.094 2.653a50.974 50.974 0 0 1 4.367-2.871c1.526-.897 3.095-1.74 4.716-2.436 1.62-.683 3.286-1.341 5.023-1.672 1.735-.363 3.537-.477 5.428-.177-1.594-1.054-3.553-1.591-5.528-1.792-1.993-.203-3.975.037-5.917.39-1.947.368-3.826.958-5.654 1.668a34.77 34.77 0 0 0-2.7 1.167c-.903.428-1.734.846-2.667 1.41a2.394 2.394 0 0 0-1.134 2.363l.04.292c1.124 8.405 2.366 16.842 3.93 25.24a272.68 272.68 0 0 0 2.641 12.573c.99 4.18 2.098 8.348 3.49 12.488"/><path d="M551.017 542.16c1.062 2.16 1.965 4.38 2.77 6.611a66.245 66.245 0 0 1 2.016 6.744 47.843 47.843 0 0 1 1.068 6.716c.144 2.203.06 4.338-.25 6.3l8.999-.105c-.452-2.803-1.23-5.393-2.198-7.82a53.584 53.584 0 0 0-3.463-6.815 69.652 69.652 0 0 0-4.201-6.104c-1.497-1.934-3.062-3.795-4.741-5.527M520.048 576.255c.387.2.93.583 1.386.926a24.182 24.182 0 0 1 3.968 3.732c.802.937 1.488 1.965 2.103 3.066.61 1.104 1.046 2.303 1.38 3.582.167-1.294.222-2.66.055-4.019a20.98 20.98 0 0 0-.896-4.05 27.859 27.859 0 0 0-1.62-3.894 29.14 29.14 0 0 0-1.036-1.87c-.386-.634-.73-1.19-1.272-1.883zM432.19 549.345c-1.106 1.085-2.012 2.149-2.918 3.295a28.958 28.958 0 0 0-2.43 3.586c-.715 1.253-1.345 2.57-1.713 3.973-.376 1.389-.509 2.86-.185 4.218.012-1.4.477-2.69 1.113-3.845.631-1.166 1.483-2.201 2.396-3.161a26.564 26.564 0 0 1 2.953-2.663c1.032-.805 2.16-1.606 3.214-2.225z"/><path d="M428.333 551.387c-1.46.52-2.729 1.103-4.033 1.761a29.128 29.128 0 0 0-3.714 2.23c-1.176.836-2.301 1.766-3.225 2.884-.924 1.103-1.667 2.382-1.942 3.75.599-1.266 1.563-2.239 2.628-3.02 1.062-.793 2.27-1.374 3.502-1.86a26.51 26.51 0 0 1 3.8-1.174c1.275-.296 2.634-.549 3.852-.666zM539.813 576.215c1.303.398 2.78 1.016 4.132 1.65a29.91 29.91 0 0 1 3.971 2.223c1.258.842 2.474 1.781 3.472 2.923 1.003 1.134 1.852 2.457 2.233 4.035.126-1.61-.285-3.29-.965-4.837-.674-1.566-1.64-2.979-2.689-4.31a33.552 33.552 0 0 0-3.457-3.732c-1.262-1.17-2.486-2.237-3.999-3.31zM558.085 572.157c.435-.011 1.096.065 1.66.146a24.214 24.214 0 0 1 5.274 1.367c1.154.437 2.249 1.008 3.317 1.678 1.066.675 2.024 1.518 2.931 2.478-.475-1.214-1.083-2.44-1.882-3.55a20.822 20.822 0 0 0-2.733-3.121 27.945 27.945 0 0 0-3.29-2.638 29.886 29.886 0 0 0-1.808-1.143c-.643-.37-1.21-.692-2.02-1.04zM525.625 562.738s-4.162-3.52-3.543-10.994c.618-7.473 2.429-14.08 4.358-14.9 1.929-.818 7.598 3.851 6.568 17.235-1.031 13.383-7.383 8.66-7.383 8.66"/><path fill="none" stroke="#393342" stroke-miterlimit="10" stroke-width="3" d="M560.982 548.133c2.98-30.037-14.456-54.867-38.945-55.46-24.49-.594-46.759 23.274-49.74 53.311-2.98 30.036 14.456 54.867 38.946 55.46 24.49.594 46.76-23.274 49.74-53.31z"/><path d="M450.58 530.541c-2.11 3.461-4.448 6.737-7.112 9.674a48.094 48.094 0 0 1-4.135 4.175 33.88 33.88 0 0 1-4.52 3.517 21.266 21.266 0 0 1-4.977 2.372 120.077 120.077 0 0 1-5.029 1.537c-1.685.491-3.44.755-5.309.982-1.885.264-3.833.203-6.027.369l-.213.561c3.233 2.987 7.9 4.423 12.535 4.006 2.31-.212 4.556-.948 6.537-2.064 1.98-1.133 3.722-2.53 5.381-3.936a38.548 38.548 0 0 0 4.512-4.592A51.797 51.797 0 0 0 445.88 542a60.23 60.23 0 0 0 2.945-5.483 44.846 44.846 0 0 0 2.3-5.722z"/><path d="M426.907 535.424c-2.104 2.9-4.047 5.947-5.745 9.255-.854 1.656-1.627 3.388-2.252 5.302-.328.944-.569 1.977-.774 3.062-.07.57-.143 1.144-.194 1.737.005.645.026 1.304.066 1.97l8.712-2.257c-.568-.612-.945-2.144-1.114-3.66-.179-1.555-.198-3.249-.105-4.958.173-3.43.677-6.958 1.406-10.45"/><path fill="none" stroke="#393342" stroke-miterlimit="10" stroke-width="3" d="M451.379 536.398s.985 5.861 4.235 5.762c3.25-.099 17.583-5.877 17.583-5.877M558.164 563.547l47.45 19.764"/><path fill="#423e38" d="M616.263 593.519s-33.823-6.15-38.892-11.836c-5.068-5.688-3.506-91.558-2.207-94.061 1.3-2.503 20.03-15.772 49.683 6.759 29.652 22.532 20.289 109.152-8.584 99.138"/><path fill="#b7b1ab" d="M634.073 584.42l8.936-7.87s3.343-57.918-6.258-71.316c0 0-44.718-15.716-46.799-15.716-2.08 0-8.064 4.024-8.064 4.024s.416 55.043-.776 70.005c-.309 3.877 3.416 15.1 7.42 16.744 14.267 5.863 45.541 4.13 45.541 4.13"/><path fill="#423e38" d="M579.864 665.311s25.75-30.5 22.762-55.5l28.238 10.667s-2 35.333-38.75 56.333c0 0-7.528 0-7.207-1.667.32-1.666-5.043-9.833-5.043-9.833"/><path fill="#d8d3ce" d="M597.212 580.806l4.736-8.2 34.488 7.685s2.66 7.52-2.943 40.187h-23.826l-5.637-6.097-1.682-1.82z"/><path fill="#89827c" d="M600.364 569.246c-1.674-2.51-3.432-4.954-5.15-7.428l.09.26c.112-5.974.15-11.945.101-17.915a593.841 593.841 0 0 0-.098-8.955 580.942 580.942 0 0 0-.177-8.953 792.224 792.224 0 0 0-.609-17.901 530.57 530.57 0 0 0-1.084-17.892 533.262 533.262 0 0 0-.37 17.92c-.03 5.972 0 11.943.105 17.912.035 2.985.096 5.969.178 8.953.066 2.984.15 5.968.26 8.952.19 5.967.465 11.932.814 17.896l.01.164.08.096c1.948 2.299 3.858 4.627 5.85 6.89"/><path fill="#26964b" d="M336.864 528.627c.392-4.523 1.206-8.907 2.254-13.22.54-2.15 1.118-4.288 1.808-6.388l1.038-3.146 1.195-3.09c.357-1.047.865-2.032 1.287-3.052.427-1.02.856-2.039 1.365-3.02l1.444-2.993 1.594-2.92c1.011-1.987 2.25-3.835 3.378-5.776.528-.999 1.227-1.873 1.822-2.833a87.804 87.804 0 0 0 1.815-2.878 81.436 81.436 0 0 0-2.462 2.356c-.794.813-1.644 1.59-2.357 2.477-1.43 1.768-2.97 3.483-4.187 5.422-.643.947-1.306 1.886-1.896 2.868l-1.688 3c-.587.99-1.047 2.042-1.53 3.084-.455 1.054-.992 2.075-1.373 3.161a58.908 58.908 0 0 0-3.543 13.287c-.646 4.53-.816 9.175.036 13.661M458.864 725.311c-.279-1.958-.772-3.787-1.32-5.585a81.358 81.358 0 0 0-1.848-5.271 156.246 156.246 0 0 0-2.11-5.12c-.737-1.704-1.505-3.354-2.207-5.191-.549 1.932-.373 3.96-.057 5.856a28.842 28.842 0 0 0 1.578 5.54 35.32 35.32 0 0 0 2.495 5.14c.985 1.637 2.075 3.221 3.47 4.631M560.364 717.811c2.63-.344 5.087-1.498 7.321-2.913a26.934 26.934 0 0 0 5.951-5.273c.81-1.052 1.665-2.079 2.322-3.234.337-.571.692-1.13 1.005-1.712.293-.594.572-1.193.846-1.793.594-1.177.913-2.478 1.335-3.71.328-1.272.568-2.568.72-3.865-.783 1.081-1.379 2.206-2.069 3.277l-1.023 1.598-.494.798-.538.769a59.614 59.614 0 0 0-1.035 1.549l-1.102 1.491-.536.752-.583.715c-.386.478-.748.974-1.147 1.44a59.199 59.199 0 0 1-5.084 5.335 54.283 54.283 0 0 1-5.889 4.776M604.525 704.144c2.517-2.284 4.734-4.829 6.807-7.48a77.435 77.435 0 0 0 5.72-8.331c1.717-2.907 3.27-5.94 4.436-9.159a29.124 29.124 0 0 0 1.357-4.972c.256-1.697.385-3.503-.14-5.141-.148 1.695-.656 3.237-1.28 4.746-.603 1.511-1.34 2.971-2.082 4.426-1.54 2.89-3.19 5.731-4.87 8.571-1.68 2.84-3.399 5.67-5.069 8.548-1.688 2.869-3.354 5.76-4.879 8.792M558.082 653.29c2.362 1.577 4.58 3.09 6.282 5.017a14.331 14.331 0 0 1 3.379 6.586c.545 2.437.554 5.04.251 7.662-.294 2.635-.91 5.27-1.63 8.006 1.838-2.16 3.139-4.764 3.944-7.543.782-2.78 1.029-5.82.36-8.79-.641-2.964-2.337-5.76-4.68-7.622-2.343-1.874-5.124-2.913-7.906-3.317M576.82 665.021c1.687 1.428 3.063 2.953 4.293 4.565 1.23 1.608 2.263 3.317 3.194 5.092.441.904.9 1.799 1.27 2.746.444.916.742 1.895 1.14 2.853.37.966.676 1.966 1.058 2.962.335 1.009.635 2.036 1.09 3.072.211-1.086.3-2.186.366-3.296-.055-1.094-.042-2.218-.226-3.314-.196-1.094-.38-2.202-.759-3.263-.18-.532-.333-1.074-.56-1.592l-.71-1.539c-1.052-2.005-2.44-3.862-4.165-5.345-1.724-1.454-3.758-2.646-5.99-2.941"/><path fill="#26964b" d="M576.82 665.021c.66 1.201 1.248 2.243 1.737 3.252.49 1.007.841 1.963 1.028 2.901.182.937.251 1.889.066 2.948-.013.547-.226 1.071-.308 1.678-.128.596-.349 1.171-.45 1.886a7.56 7.56 0 0 0 1.708-1.12c.458-.5.978-.998 1.274-1.658.73-1.236.961-2.856.65-4.326-.298-1.483-1.094-2.783-2.099-3.734-1.017-.94-2.226-1.637-3.606-1.827M498.234 703.311c3.888-3.668 6.747-8.389 8.766-13.397A44.365 44.365 0 0 0 510.152 674c.03-5.444-.843-10.893-2.647-15.982-1.762-5.101-4.288-9.895-7.487-14.148 2.118 4.88 3.962 9.793 5.243 14.818.351 1.248.557 2.529.857 3.783.21 1.272.47 2.536.59 3.818.366 2.545.478 5.116.446 7.676.018 2.564-.232 5.122-.633 7.655-.37 2.542-.994 5.041-1.72 7.518-1.53 4.929-3.657 9.731-6.567 14.173M430.531 643.311c-.614-3.228-2.072-6.24-3.788-9.026-1.72-2.803-3.826-5.355-6.133-7.692-1.206-1.112-2.375-2.268-3.684-3.258-.65-.5-1.274-1.029-1.947-1.496a74.6 74.6 0 0 0-2.043-1.359c-1.338-.935-2.83-1.637-4.25-2.419a47.001 47.001 0 0 0-4.517-1.865c1.208 1.121 2.493 2.075 3.72 3.103l1.834 1.534c.302.259.616.499.926.745l.893.783c2.415 2.042 4.698 4.192 6.955 6.361a112.917 112.917 0 0 1 6.35 6.922c1.998 2.43 3.925 4.928 5.684 7.667"/><path fill="#7ced89" d="M339.55 555.517c-.257.31-.675.459-1.135.187-2.103-1.24-3.081-4.501-3.883-6.597-.81-2.117-2.48-5.75-1.441-8.003.214-.466.945-.652 1.364-.37 1.42.957 1.605 2.784 2.179 4.304.599 1.587 1.17 3.316 1.83 4.987.21.144.365.374.397.7.017.18.07.349.11.52.409.936.852 1.839 1.363 2.663.465.749-.13 1.546-.784 1.609M341.666 546.205c-1.104-.618-1.273-1.941-1.645-3.038-.103-.305-.032-.641.137-.91.01-.044.014-.088.027-.134.227-.768 1.099-.942 1.675-.451l.193.163c.365.31.4.71.25 1.044.196.379.31.806.325 1.242a.99.99 0 0 1-.046.31c1.11.607.198 2.398-.917 1.774M346.041 544.528a36.67 36.67 0 0 1-1.142-2.332.95.95 0 0 1-.95-.595c-1.13-2.548-1.425-5.305-1.588-8.057-.056-.953 1.131-1.596 1.78-.756.478.618.636 1.461.734 2.321.37-.143.791-.077 1.056.375.715 1.224.44 2.653.702 4.018.292 1.515 1.044 2.937 1.247 4.427.133.974-1.372 1.466-1.839.6M483.923 692.132c-1.038 2.012-4.073 6.737-6.915 4.739-2.783-1.956-1.408-9.881-.153-14.052-.161-3.533-1.962-14.084 1.459-15.661 3.727-1.717 6.363 5.115 7.043 7.518 1.619 5.723 1.34 12.082-1.434 17.456M458.916 668.45c.354 1.003.59 2.434.636 3.835.021.117.022.237.006.357.007.876-.063 1.721-.228 2.427.003.022.016.035.018.06l.011.142c.033.403-.205.808-.53 1.04a1.832 1.832 0 0 1-.135.172 4.684 4.684 0 0 1-.388.67c-.401.552-1.227.376-1.583-.097a4.423 4.423 0 0 1-.635-1.233c-1.106-1.422-1.362-3.81-1.664-5.305-.061-.303-.139-.654-.21-1.028a.764.764 0 0 1-.098-.576c-.151-1.002-.184-2.069.293-2.777.082-.816.466-1.442 1.546-1.267.429.07.777.328 1.076.668 1.003.484 1.546 1.751 1.885 2.911M443.966 666.702a.993.993 0 0 1-.574.278c-1.55 1.923-3.747-1.177-3.772-2.777-.002-.088.028-.157.047-.23-.251-1.048-.18-2.154.635-2.688.262-.17.709-.242.986-.057.25.168.47.372.662.598.537-.016 1.082.275 1.423.755.36.506.52 1.206.737 1.757.31.795.544 1.691-.144 2.364M431.794 660.43c-.187.47-.772.762-1.258.568-.328.36-.868.502-1.325.07-.49-.464-.657-1.023-.614-1.684.059-.926 1.05-1.206 1.713-.68.16.127.697.311.923.427.48.247.773.763.56 1.3M595.82 696.187c-.29 1.585-.786 2.794-2.05 3.88-.383.328-.812.29-1.14.08-.092.11-.176.232-.275.335-.89.93-2.393-.433-1.483-1.341.52-.52.778-1.236 1.151-1.855.382-.635.777-1.223 1.033-1.925.348-.95.35-2.231 1.146-2.93.382-.333 1.083-.356 1.412.079.92 1.215.447 2.36.206 3.677M599.571 693.54c-.517.159-1.08-.277-1.186-.772-.097-.463.13-.82.482-1.04.002-.022.001-.041.01-.077a1.353 1.353 0 0 0-.002-.191c-.033-.54.273-1.052.841-1.138.515-.078 1.082.3 1.137.84.107 1.032-.205 2.047-1.282 2.378M629.321 659.019c-.003.021-.008.041-.01.061-.013.044-.012.099-.03.139-.119.634-.342 1.26-.466 1.883-.157.786-.446 1.476-1.207 1.828-1.157.536-2.154-1.173-.988-1.739.294-.143.312-1.076.382-1.322.131-.464.393-.931.363-1.425-.043-1.283 1.935-1.406 1.996-.115-.003.152-.002.305.003.457.002.088-.026.156-.043.233M637.615 648.61l.002-.882c.002-.541.573-.956 1.08-.914.59.049.9.539.913 1.08.006.206.004.412.003.618-.004 1.284-1.995 1.388-1.998.098M535.555 707.233c-1.615 1.428-3.333 2.855-5.121 4.062-.983.663-1.956 1.192-3.072.734-.095.081-.196.156-.29.238-.964.843-2.385-.56-1.415-1.413 2.268-1.993 4.823-3.648 7.037-5.7 2.148-1.993 3.509-4.828 5.687-6.718.399-.345.998-.46 1.413-.048 2.806 2.79-2.25 7.086-4.24 8.845M551.363 699.358a4.165 4.165 0 0 1-.229.855c-.107.553-.185 1.105-.424 1.624-.238.515-.542 1.005-.808 1.506-.497.937-1.16 1.679-2.038 2.248l-.007.01a.014.014 0 0 1-.003-.004c-.073.048-.137.102-.214.147-.626.366-1.407-.233-1.46-.871-.309-.311-.453-.77-.136-1.175.052-.067.11-.13.164-.196a.014.014 0 0 0-.004-.003c.19-.212.234-.533.452-.75.146-.147.285-.23.441-.3l.261-.301c.19-.325.39-.643.583-.962.588-.972.747-2.178 1.504-3.018.486-.54 1.401-.208 1.626.41.21.168.343.422.292.78M563.621 692.657c.687.655.05 1.517-.705 1.587l-.078.173c-.075.42-.26 1.098-.386 1.5-.007.455-.01.912-.104 1.398-.229 1.172-1.199 2.449-1.954 3.346-.283.336-.74.38-1.122.24-.087.21-.154.415-.176.605-.156 1.282-2.11.879-1.963-.39.161-1.396 1.307-2.83 2.016-4.094a.852.852 0 0 1 .257-.917c.073-.07.093-.162.121-.257.172-.576-.032-1.193.577-1.545.125-.072.248-.107.37-.126.31-1.185 1.013-2.36 1.471-3.404.437-.995 2.103-.72 1.931.457-.067.454-.18.915-.323 1.376.022.019.046.03.068.05M567.238 696.912c-.089.126-.133.29-.164.427-.28 1.254-2.217.698-1.92-.557.191-.814.804-1.707 1.66-1.912.516-.123 1.094.193 1.214.727.017.07.032.141.048.212.128.567-.328 1.014-.838 1.103M400.36 604.358c-1.613 1.16-3.518-.04-5.021-.84-.557-.297-.678-1.15-.205-1.578.202-.183.407-.31.614-.398-.805-.584-1.578-1.184-2.592-1.358-.32-.055-.618-.412-.68-.717l-.081-.411c-.203-1.01.992-1.508 1.604-1.01.048-.146.112-.291.208-.441.237-.374.64-.77 1.107-.793.404-.02.767.215.943.568.24.478.04.95-.345 1.268-.055.045-.048.163-.05.21a.879.879 0 0 1-.057.278c.727.46 1.413 1.014 2.14 1.465 1.03.638 2.213 1.383 2.669 2.565.15.387.12.923-.254 1.192M417.33 610.172c-.194.35-.73.604-1.125.451-3.74-1.452-7.075-4.547-9.555-7.612a1.084 1.084 0 0 1-.203-.386 3.514 3.514 0 0 0-.777-.333c-1.238-.335-.85-2.31.39-1.962.928.26 1.55.72 2.358 1.235.89.567 1.918.833 2.805 1.394.998.631 1.906 1.552 2.834 2.293 1.208.964 4.344 2.991 3.273 4.92M346.572 608.517a3.835 3.835 0 0 0-.81.877.869.869 0 0 1 .062.695c-.159.548-.97 1.01-1.473.58l-.304-.135c-.517-.239-.646-.856-.445-1.343a5.162 5.162 0 0 1 1.554-2.087c.423-.336 1-.414 1.414 0 .35.348.426 1.073.002 1.413"/><path fill="#916e56" d="M563.951 647.659a4.55 4.55 0 0 0 1.661-.182 3.7 3.7 0 0 0 1.175-.555c.708-.428.755-1.364 1.092-2.077.338-.712.648-1.445.933-2.2.276-.76.556-1.516.775-2.32l-.318-.244c-.719.419-1.379.885-2.043 1.347-.655.468-1.283.958-1.884 1.467-.603.51-1.495.796-1.727 1.59-.14.379-.229.795-.233 1.278-.015.475.032.998.252 1.652zM568.607 655.495a4.55 4.55 0 0 0 1.661-.182 3.7 3.7 0 0 0 1.175-.555c.708-.428.755-1.364 1.092-2.077.338-.712.648-1.445.933-2.199.276-.76.556-1.517.775-2.32l-.318-.245c-.719.42-1.379.885-2.043 1.347a29.29 29.29 0 0 0-1.884 1.467c-.603.51-1.495.796-1.727 1.59a3.735 3.735 0 0 0-.233 1.278c-.015.475.032.998.252 1.652zM574.161 641.205a4.552 4.552 0 0 0 1.661-.181 3.722 3.722 0 0 0 1.175-.556c.708-.428.755-1.364 1.092-2.077.338-.712.648-1.445.933-2.2.276-.76.556-1.516.775-2.32l-.318-.244c-.719.419-1.379.885-2.043 1.347-.655.468-1.283.958-1.884 1.467-.603.51-1.495.796-1.727 1.59-.14.379-.229.795-.233 1.278-.015.475.032.998.252 1.652zM585.766 639.88a4.55 4.55 0 0 0 1.66-.181 3.68 3.68 0 0 0 1.176-.555c.708-.428.755-1.364 1.092-2.077.338-.713.649-1.446.933-2.2.276-.76.556-1.516.775-2.32l-.318-.244c-.72.419-1.38.885-2.043 1.346-.654.469-1.283.959-1.884 1.468-.602.51-1.495.796-1.726 1.59a3.71 3.71 0 0 0-.234 1.278c-.015.475.032.997.252 1.652zM576.979 627.825a4.559 4.559 0 0 0 1.662-.182 3.7 3.7 0 0 0 1.175-.555c.707-.428.754-1.364 1.092-2.077.337-.712.648-1.446.932-2.199.276-.76.556-1.517.775-2.32l-.317-.245c-.72.42-1.38.885-2.044 1.347a29.57 29.57 0 0 0-1.884 1.467c-.602.51-1.495.796-1.726 1.59a3.71 3.71 0 0 0-.234 1.278 4.56 4.56 0 0 0 .253 1.652zM587.175 627.825a4.55 4.55 0 0 0 1.66-.182 3.7 3.7 0 0 0 1.176-.555c.708-.428.755-1.364 1.092-2.077.338-.712.648-1.446.933-2.199.276-.76.556-1.517.775-2.32l-.318-.245c-.72.42-1.38.885-2.043 1.347-.655.468-1.283.958-1.884 1.467-.603.51-1.495.796-1.727 1.59-.14.38-.23.795-.233 1.278-.015.475.032.997.252 1.652zM585.766 616.286a4.55 4.55 0 0 0 1.66-.182 3.68 3.68 0 0 0 1.176-.555c.708-.428.755-1.364 1.092-2.077a28.78 28.78 0 0 0 .933-2.2c.276-.76.556-1.516.775-2.32l-.318-.244c-.72.419-1.38.885-2.043 1.347a29.29 29.29 0 0 0-1.884 1.467c-.602.51-1.495.796-1.726 1.59a3.71 3.71 0 0 0-.234 1.278c-.015.475.032.998.252 1.652zM574.032 608.085a4.55 4.55 0 0 0 1.661-.182 3.7 3.7 0 0 0 1.175-.555c.707-.428.755-1.364 1.092-2.077.338-.713.648-1.446.932-2.199.276-.76.556-1.517.776-2.32l-.318-.245c-.72.42-1.379.885-2.043 1.346-.655.47-1.283.96-1.884 1.468-.603.51-1.495.796-1.727 1.59a3.71 3.71 0 0 0-.234 1.278 4.56 4.56 0 0 0 .253 1.652zM575.74 595.759a4.552 4.552 0 0 0 1.661-.181 3.721 3.721 0 0 0 1.175-.555c.707-.43.755-1.365 1.092-2.077.338-.713.648-1.446.932-2.2.276-.76.556-1.517.776-2.32l-.318-.244c-.72.418-1.379.884-2.043 1.346-.655.469-1.283.958-1.884 1.467-.603.51-1.495.796-1.727 1.59a3.71 3.71 0 0 0-.234 1.278c-.014.476.033.998.253 1.652zM583.001 608.085a4.55 4.55 0 0 0 1.661-.182 3.7 3.7 0 0 0 1.175-.555c.708-.428.755-1.364 1.092-2.077a29.54 29.54 0 0 0 .933-2.199c.276-.76.556-1.517.775-2.32l-.318-.245c-.719.42-1.379.885-2.043 1.346-.655.47-1.283.96-1.884 1.468-.603.51-1.495.796-1.727 1.59-.14.38-.23.795-.233 1.278-.015.475.032.997.252 1.652zM571.214 619.985a4.552 4.552 0 0 0 1.66-.181 3.721 3.721 0 0 0 1.176-.555c.708-.43.755-1.365 1.092-2.077.338-.713.649-1.446.933-2.2.276-.76.556-1.517.775-2.32l-.318-.244c-.72.418-1.38.884-2.043 1.346a29.65 29.65 0 0 0-1.884 1.467c-.603.51-1.495.796-1.726 1.59a3.71 3.71 0 0 0-.234 1.278c-.015.476.032.998.252 1.652zM565.665 617.028a4.568 4.568 0 0 0 1.454-.823c.378-.302.649-.63.86-.975.481-.673.154-1.55.182-2.339.028-.788.025-1.585-.012-2.389-.047-.807-.089-1.614-.206-2.438l-.387-.099c-.496.67-.917 1.357-1.345 2.044-.416.69-.8 1.388-1.151 2.093-.352.706-1.058 1.322-.957 2.143.021.403.102.821.29 1.266.174.443.423.904.884 1.418zM566.888 603.098a4.586 4.586 0 0 0 1.5-.736c.395-.28.685-.592.916-.923.52-.643.245-1.54.319-2.324.075-.786.118-1.58.128-2.386 0-.81.006-1.615-.061-2.446l-.381-.121c-.535.639-.996 1.3-1.463 1.96a28.978 28.978 0 0 0-1.272 2.023c-.393.684-1.134 1.257-1.082 2.083-.002.404.054.826.215 1.28.149.453.37.928.8 1.469zM580.183 651.326a4.559 4.559 0 0 0 1.662-.182 3.7 3.7 0 0 0 1.175-.555c.707-.428.754-1.364 1.092-2.077.337-.713.648-1.446.932-2.2.276-.76.556-1.516.775-2.32l-.317-.244c-.72.419-1.38.885-2.044 1.347a29.57 29.57 0 0 0-1.884 1.467c-.602.51-1.495.796-1.726 1.59a3.71 3.71 0 0 0-.234 1.278 4.56 4.56 0 0 0 .253 1.652zM563.951 633.543a4.55 4.55 0 0 0 1.661-.182 3.7 3.7 0 0 0 1.175-.555c.708-.428.755-1.364 1.092-2.077.338-.712.648-1.446.933-2.2.276-.76.556-1.516.775-2.32l-.318-.244c-.719.419-1.379.885-2.043 1.347-.655.468-1.283.958-1.884 1.467-.603.51-1.495.796-1.727 1.59-.14.379-.229.795-.233 1.278-.015.475.032.997.252 1.652z"/><path fill="#13141c" d="M533.132 330.2c-2.096-7.163-4.397-14.256-6.812-21.307-2.395-7.057-4.914-14.07-7.487-21.065-2.61-6.982-5.257-13.949-8.07-20.855-2.798-6.908-5.725-13.779-9.02-20.475 2.578 7 5.01 14.036 7.563 21.033a2565.98 2565.98 0 0 0 7.652 20.991c2.61 6.976 5.206 13.956 7.902 20.903 2.66 6.958 5.448 13.87 8.272 20.774M593.438 297.313c-.012-.36.146-.693.266-1.028.123-.336.258-.668.395-1l.832-1.99c.542-1.333 1.087-2.669 1.581-4.024a80.525 80.525 0 0 0 2.598-8.279c.681-2.822 1.243-5.692 1.407-8.622.164-2.899.054-5.964-1.153-8.647.386 2.876.037 5.685-.398 8.474-.245 1.391-.488 2.784-.816 4.165a90.906 90.906 0 0 1-.98 4.145c-.668 2.766-1.437 5.517-2.142 8.3A151.92 151.92 0 0 0 594 293c-.149.708-.307 1.415-.43 2.131-.094.714-.294 1.452-.132 2.181M376.93 311.809c.218-2.291.322-4.585.383-6.88.06-2.296.065-4.592.036-6.888-.045-2.294-.083-4.591-.207-6.885a192.833 192.833 0 0 0-.423-6.878l-.329-4.296-1.256 4.053a164.33 164.33 0 0 0-1.438 4.879c-.44 1.64-.882 3.28-1.23 4.955.797-1.512 1.502-3.058 2.206-4.604.694-1.55 1.356-3.11 2-4.677l-1.586-.243c-.004 2.292.014 4.582.092 6.87.046 2.29.18 4.576.306 6.864.142 2.287.32 4.574.55 6.862.231 2.287.507 4.576.896 6.868M537.903 215.31c-3.602.408-7.189.854-10.792 1.164-3.596.353-7.194.64-10.786.821-3.588.145-7.195.26-10.694-.112-.86-.137-1.714-.234-2.566-.422-.21-.048-.415-.098-.605-.152-.086-.028-.194-.055-.257-.082-.079-.025-.138-.058-.129-.051.03.025.028-.005.177.186.028.046.03.058.067.138a.726.726 0 0 1 .061.273c-.008.21-.03.293-.09.416-.208.306-.176.186-.132.19.1-.055.307-.135.49-.203 1.623-.546 3.431-1.04 5.152-1.617 3.467-1.173 6.875-2.578 10.122-4.296 3.233-1.736 6.345-3.72 9.19-6.036a55.029 55.029 0 0 0 7.821-7.68c2.302-2.832 4.387-5.833 6.09-9.036-4.11 5.969-9.122 11.23-14.863 15.479-5.75 4.245-12.203 7.447-18.992 9.673-1.704.589-3.389 1.057-5.19 1.679-.239.094-.458.168-.757.33-.15.113-.324.11-.65.61-.08.175-.146.305-.132.576.007.122.033.247.073.356.041.108.07.138.113.208.208.289.308.315.43.405.401.224.62.26.88.345.245.067.481.122.711.173.916.193 1.865.305 2.794.418 3.715.28 7.365.113 10.993-.216 7.252-.652 14.407-1.92 21.471-3.536M525.864 165.696c-1.426 2.857-3.079 5.6-4.644 8.386l-4.67 8.372c-1.52 2.81-3.077 5.601-4.567 8.428a645.604 645.604 0 0 0-4.48 8.471l.262-.312c-1.956 1.565-3.755 3.205-5.57 4.857-1.817 1.642-3.588 3.331-5.36 5.018a278.98 278.98 0 0 0-5.243 5.137c-1.714 1.75-3.453 3.47-5.12 5.268 1.931-1.51 3.8-3.089 5.7-4.63 1.891-1.552 3.757-3.13 5.624-4.709l5.577-4.748c1.86-1.569 3.725-3.169 5.59-4.653l.164-.13.098-.183c1.527-2.81 3.011-5.64 4.478-8.482 1.488-2.829 2.897-5.699 4.335-8.556a413.768 413.768 0 0 0 4.133-8.662c.674-1.452 1.305-2.925 1.947-4.393.625-1.472 1.298-2.935 1.746-4.479"/><path fill="#13141c" d="M514.997 307.953c.778-1.146 1.368-2.35 1.892-3.575a35.602 35.602 0 0 0 2.298-7.599c.244-1.308.417-2.639.402-4.025-.78 1.146-1.372 2.35-1.895 3.574a35.792 35.792 0 0 0-2.294 7.601c-.24 1.308-.417 2.637-.403 4.024M375.556 166.308c-.103 1.554.365 3.087.835 4.558.532 1.459 1.164 2.89 1.938 4.238 1.503 2.728 3.428 5.206 5.57 7.459 1.071 1.129 2.243 2.15 3.412 3.172 1.248.923 2.43 1.934 3.77 2.717 2.571 1.723 5.4 3.022 8.283 4.057-2.513-1.782-5.046-3.417-7.375-5.327-2.352-1.862-4.61-3.83-6.65-6.006a54.432 54.432 0 0 1-5.688-6.89 33.548 33.548 0 0 1-1.228-1.875c-.418-.625-.768-1.284-1.138-1.94-.7-1.323-1.392-2.667-1.729-4.163M541.17 347.151c1.276 2.191 2.719 4.251 4.224 6.26 1.497 2.013 3.089 3.95 4.718 5.856 1.66 1.88 3.342 3.742 5.156 5.491 1.807 1.74 3.672 3.486 5.85 4.808-1.618-1.94-3.11-3.928-4.697-5.859a227.08 227.08 0 0 0-4.8-5.749c-1.65-1.872-3.303-3.747-5.04-5.552-1.726-1.814-3.497-3.592-5.411-5.255M436.66 347.151c-1.44-1.72-2.857-3.46-3.787-5.42-.92-1.949-1.35-4.085-.94-6.11.384-2.032 1.415-3.887 2.765-5.548 1.326-1.692 2.87-3.255 4.515-4.704 3.238-2.964 6.832-5.567 10.53-7.987 1.872-1.168 3.761-2.334 5.738-3.322 1.977-.979 4-1.92 6.223-2.252-2.267-.116-4.496.605-6.617 1.353-2.122.8-4.156 1.8-6.144 2.881-3.95 2.203-7.686 4.797-11.072 7.845-1.68 1.535-3.292 3.17-4.674 5.038-1.368 1.857-2.554 4.054-2.803 6.475-.16 1.196-.05 2.421.232 3.575.297 1.157.802 2.23 1.39 3.226 1.248 1.964 2.901 3.546 4.644 4.95M481.114 317.81c3.833 2.274 7.745 4.38 11.684 6.43 3.931 2.063 7.911 4.023 11.892 5.981 3.997 1.924 8.002 3.83 12.04 5.667 4.03 1.861 8.097 3.62 12.155 5.453-3.656-2.562-7.558-4.725-11.458-6.85-3.906-2.125-7.878-4.11-11.864-6.069-4.003-1.923-8.022-3.808-12.094-5.584-4.067-1.786-8.168-3.5-12.355-5.028M333.914 239.8c-2.968-4.165-4.715-9.01-5.44-13.922-.678-4.932-.269-9.97 1.081-14.757.29-1.211.718-2.384 1.1-3.571.468-1.157.88-2.34 1.42-3.47.962-2.315 2.214-4.5 3.444-6.697 2.546-4.356 5.568-8.446 8.71-12.482-3.754 3.47-7.174 7.35-10.03 11.65-2.842 4.3-5.226 8.99-6.574 14.048-.659 2.522-1.14 5.11-1.254 7.73-.105 2.616.043 5.25.571 7.812 1.045 5.103 3.347 10.012 6.972 13.659M389.114 228.81c-.075-2.263-.208-4.462-.216-6.652-.003-2.185.046-4.357.334-6.488.032-.54.136-1.063.22-1.592.075-.533.172-1.06.305-1.576.125-.517.2-1.055.367-1.56.168-.505.32-1.018.465-1.536.722-2.02 1.705-3.93 2.942-5.839-1.835 1.321-3.327 3.165-4.38 5.232-1.039 2.08-1.603 4.358-1.904 6.635a26.343 26.343 0 0 0 .1 6.84c.307 2.25.884 4.455 1.767 6.536M382.53 288.478c-1.035-1.59-2.3-2.998-3.507-4.441a172.892 172.892 0 0 0-3.767-4.201c-2.548-2.764-5.186-5.437-7.846-8.087-2.686-2.624-5.393-5.225-8.186-7.738-2.783-2.523-5.62-4.992-8.597-7.314 2.396 2.918 4.927 5.697 7.505 8.428 2.569 2.74 5.215 5.4 7.875 8.047 2.686 2.619 5.38 5.23 8.15 7.764 1.372 1.28 2.774 2.53 4.17 3.785 1.402 1.253 2.839 2.46 4.204 3.757M584.864 297.313a88.289 88.289 0 0 0 6.41-7.104c2.014-2.478 3.896-5.076 5.56-7.848 1.617-2.786 3.027-5.797 3.633-9.054.606-3.252.2-6.666-1.103-9.584.498 3.17.405 6.294-.419 9.238-.858 2.936-2.242 5.71-3.836 8.386-1.568 2.696-3.347 5.297-5.087 7.94-1.759 2.63-3.535 5.267-5.158 8.027"/><path fill="#4f4b47" d="M629.803 555.618c-.636 1.64-1.707 2.53-2.99 2.962-.476.774-1.338 1.425-2.143 1.57-5.251.945-12.442-.324-14.147-6.166-.357-1.22-.052-2.326.624-3.132-1.008-.532-1.737-1.542-1.655-3.038l.082.18c0-.625.035-1.23.082-1.88.32-4.44.706-8.702.707-13.165 0-4.105-.774-11.559 4.08-13.38 3.417-1.283 10.17 1.177 12.525 3.654 3.178 3.342 3.104 9.69 3.386 14.005.373 5.725 1.6 12.84-.551 18.39"/><path fill="#b7b1ab" d="M611.864 615.812c-.2-4.975-1.05-9.915-1.43-14.875-.216-2.807-.575-5.485-1.23-8.229-.656-2.75-1.67-5.54-1.839-8.372-.039-.644.96-.693.998-.05.286 4.823 2.476 9.444 2.921 14.293.526 5.736 1.336 11.473 1.58 17.231.027.642-.975.646-1 .002"/><path fill="#4f4b47" d="M357.122 408.247c-9.594 9.48-24.75 9.84-33.676.804l-53.118-75.3s-11.946-12.96-5.202-21.72c14.943-19.406 28.413-3.033 28.413-3.033l64.794 65.585c8.928 9.037 8.383 24.185-1.211 33.664"/><path fill="#938d87" d="M138.8 378.741l-3.499-13.453 114.982-29.899 3.498 13.454z"/><path fill="#938d87" d="M138.8 378.741l-3.499-13.453 114.982-29.899 3.498 13.454z"/><path fill="#7c746d" d="M138.8 378.741l-3.499-13.453 114.982-29.899 3.498 13.454z"/><path fill="#7c746d" d="M138.8 378.741l-3.499-13.453 114.982-29.899 3.498 13.454z"/><path fill="#7c746d" d="M303.66 315.27l-43.365 11.276-7.46 18.659-4.939-18.996 9.245-14.776 45.112-14.12s8.812 1.565 10.47 6.644c1.658 5.081-1.268 9.286-9.064 11.313"/><path fill="#b7b1ab" d="M341.35 387.874c-9.593 9.479-24.748 9.841-33.675.804l-53.118-75.301s-11.946-12.96-5.202-21.719c14.944-19.406 28.413-3.033 28.413-3.033l64.795 65.585c8.928 9.037 8.382 24.185-1.212 33.664"/><path fill="#e0dbd5" d="M336.208 391.791a25.5 25.5 0 0 1-6.455 2.643c-22.96-27.948-44.823-57.357-67.18-86.108a22.828 22.828 0 0 0 4.675-2.658c23.328 28.322 46.425 56.811 68.96 86.123"/><path fill="#b7b1ab" d="M271.838 301.281c23.967 28.068 45.902 57.896 70.545 85.47-.339.378-.667.761-1.033 1.123a25.421 25.421 0 0 1-5.142 3.917c-22.535-29.312-45.632-57.8-68.96-86.123a24.413 24.413 0 0 0 4.59-4.387"/><path fill="#e0dbd5" d="M342.383 386.751c-24.643-27.574-46.578-57.401-70.545-85.47a22.328 22.328 0 0 0 1.601-2.276c23.95 28.236 47.146 56.85 70.964 85.152a25.768 25.768 0 0 1-2.02 2.594"/><path fill="#b7b1ab" d="M273.44 299.005c1.218-1.978 2.073-4.084 2.425-6.194.262-2.49-.002-4.68-.673-6.63 1.64 1.314 2.576 2.444 2.576 2.444l64.795 65.585c7.84 7.937 8.33 20.566 1.84 29.947-23.817-28.302-47.014-56.916-70.963-85.152M262.573 308.326c22.356 28.751 44.22 58.16 67.18 86.107-7.833 1.998-16.27.123-22.079-5.755l-53.118-75.3s-1.575-1.714-3.258-4.31c3.703 1.217 7.647.771 11.275-.742"/><path fill="#9e9790" d="M275.864 292.81c-1.643 9.857-14.079 19.702-24.566 16.258-2.953-4.553-6.239-11.83-1.943-17.41 11.02-14.312 21.231-9.166 25.837-5.477.67 1.95.934 4.141.672 6.63"/><path fill="#938d87" d="M309.251 336.774l-43.364 11.276-15.604-12.66 4.94 18.994 15.272 8.401 46.276-9.644s6.932-5.659 5.906-10.903c-1.026-5.244-5.63-7.49-13.426-5.464"/><path fill="#938d87" d="M138.8 378.741l-3.499-13.453 114.982-29.899 3.498 13.454z"/><path fill="#4f4b47" d="M244.732 355.799l-5.741-22.076 10.17-2.645 5.74 22.076z"/><path fill="#938d87" d="M140.398 362.714l-10.048-3.043 60.27-199.054 10.047 3.042z"/><path fill="#4f4b47" d="M243.212 131.541h-59.257c-10.188 0-18.446 8.259-18.446 18.446 0 10.188 8.258 18.447 18.446 18.447h59.257c10.188 0 18.446-8.259 18.446-18.447 0-10.187-8.258-18.446-18.446-18.446"/><path fill="#2b2723" d="M213.44 148.553c-14.897.412-30.544 4.798-45.307 1.4-.867-.2-1.74-.304-2.606-.333.198-10.015 8.364-18.08 18.428-18.08h59.257c10.187 0 18.446 8.26 18.446 18.448 0 1.047-.108 2.069-.276 3.07-15.883-2.136-31.886-4.948-47.942-4.505"/><path fill="#4f4b47" d="M152.268 376.862l-13.053-36.018-21.699 7.865 13.053 36.017z"/><path fill="#b7b1ab" d="M141.85 371.33c-.001.038-.007.076-.01.114v.001a3.324 3.324 0 0 1-.983 2.116c-.485.471-1.113.784-1.845.787a3.349 3.349 0 0 1-1.97-.662c-.692-.506-1.181-1.266-1.174-2.188 0-.768.099-1.468.565-2.112.555-.766 1.392-1.179 2.32-1.213.943-.034 1.819.324 2.429 1.065a3 3 0 0 1 .639 1.393l.006.425c.009.09.022.181.023.274"/><path fill="#b7b1ab" d="M141.85 371.33c.002-.042.012-.084.012-.127l-.003.231c0-.02-.005-.038-.005-.057-.005.093-.01.114-.014.068.003-.039.009-.076.01-.115M136.505 357.88c-.477.883-1.173 1.465-2.015 1.97-1.105.665-2.651.6-3.624-.261a2.679 2.679 0 0 1-.828-.775c-.017-.027-.03-.056-.046-.082a4.63 4.63 0 0 1-.765-.981c-1.076-1.891-.477-4.317 1.397-5.432 2.009-1.194 4.563-.083 5.679 1.793.656 1.104.83 2.607.202 3.769M355.325 391.926l-.232.03c-3.206.427-6.698.22-9.912-.587.33 1.204.66 2.41.8 3.646.113 1.002.087 2.032.016 3.067.623.136 1.25.26 1.883.365 2.535.418 5.414 1.195 8.208 1.38.132-2.666-.243-5.282-.763-7.901m-9.012 14.8c2.996.572 5.813 1.939 8.884 1.918.086 0 .16.02.223.05-.012-.028-.03-.05-.038-.083-.546-2.422.298-4.935.59-7.353.02-.162.026-.322.042-.483-2.277-.203-4.564-.798-6.909-1.14a48.535 48.535 0 0 1-3.184-.59c-.095 1.068-.21 2.134-.25 3.177a29.986 29.986 0 0 1-.492 4.239c.378.09.758.194 1.134.266m-5.445-8.92c-1.228-.325-2.494-.584-3.683-1.038-.69-.265-1.418-.794-2.159-1.02.008 2.384-.188 4.665-.472 6.969.942.482 1.87.974 2.892 1.319 2.181.734 4.47 1.579 6.745 2.192.311-1.743.485-3.507.507-5.285.008-.717.057-1.43.11-2.141a140.206 140.206 0 0 1-3.94-.995m-6.447 5.998c-.107.813-.22 1.628-.338 2.458-.18 1.265-.523 2.449-.96 3.597 2.912 1.56 5.976 2.752 9.212 2.867.428-1.308.938-2.604 1.292-3.913.156-.577.287-1.157.408-1.74-2.208-.601-4.383-1.287-6.597-1.99-1.056-.335-2.035-.793-3.017-1.28m-4.686-1.871c-1.695-.702-3.176-1.812-4.769-2.711.044 1.299.103 2.64.091 2.848-.043.77-.222 1.509-.455 2.236.89.712 1.746 1.43 2.734 2.058 1.586 1.009 3.22 2.06 4.903 3.01.458-1.227.81-2.494.981-3.848.092-.722.182-1.438.27-2.153-1.246-.562-2.48-.911-3.755-1.44m34.325-10.954c-.112-.236-.199-.481-.29-.725a.399.399 0 0 1-.442.014c-.72-.398-2.228.599-2.968.789-1.26.322-2.66.543-4.004.729.064.333.132.665.205.994.512 2.286.645 4.723.507 7.085 1.59.019 3.133-.191 4.55-.823.582-.26 1.081.607.493.869-1.712.764-3.407.978-5.102.924-.004.042-.004.085-.008.127-.23 2.38-1.213 5.006-.655 7.38.108.463-.388.726-.714.584.126.296-.015.717-.434.717-2.827.003-4.977-1.133-7.694-1.711a60.876 60.876 0 0 1-2.488-.59c-.12.573-.256 1.14-.406 1.702-.328 1.235-.802 2.455-1.219 3.684a13.5 13.5 0 0 0 1.036-.074c.633-.072.85.9.207.979-.57.068-1.086.126-1.576.165-.094.32-.193.64-.266.965.275.18.392.579.032.786-.142.08-.284.163-.426.244-.307.177-.794-.09-.733-.468.081-.498.2-.992.334-1.483-1.065.01-2.099-.113-3.435-.486-2.084-.581-3.908-1.66-5.742-2.748-.459 1.088-.993 2.15-1.559 3.218.251.313-.052.918-.56.79l-.24-.06c-.308-.077-.495-.428-.336-.718.677-1.242 1.306-2.473 1.83-3.74-.145-.084-.288-.17-.433-.252-2.179-1.252-4.52-2.225-6.515-3.796a27.18 27.18 0 0 1-.79-.653c-.317.849-.653 1.695-.88 2.57-.162.623-1.109.308-.95-.313.251-.981.66-1.96 1.011-2.947a15.01 15.01 0 0 0-1.229-.938c-1.057-.707-4.082-3.746-5.052-3.8-.646-.033-.477-1.013.157-.986 1.466.06 2.155 1.422 3.146 2.323.991.9 2.202 1.485 3.266 2.286l.06.045a8.294 8.294 0 0 0 .31-1.604c.088-1.107-.013-2.224-.062-3.337-1.08-.548-2.137-1.056-3.106-1.825-.504-.4.11-1.19.615-.79.754.6 1.595 1.144 2.47 1.656 0-.537.03-1.073.117-1.605.04-.236.211-.38.436-.428l.231-.05c.631-.134.841.852.21.978-.057.012-.055.736-.03 1.654 1.253.693 2.54 1.338 3.72 1.997 1.48.825 3.103 1.123 4.626 1.813.113.05.221.108.332.16.267-2.34.467-4.668.416-7.063a.517.517 0 0 1 .042-.218c.052-.195.205-.351.467-.331.9.065 1.358.47 2.186.875 1.25.608 2.7.874 4.036 1.228 1.373.364 2.738.738 4.114 1.07.092-1.342.141-2.681-.102-4.023-.166-.915-.419-1.813-.667-2.712-.463-.138-.92-.288-1.366-.454-.597-.221-.362-1.193.242-.97.263.098.543.18.815.269-.199-.787-.364-1.58-.433-2.39-.054-.64.942-.763.993-.122.077.96.282 1.904.523 2.842 3.252.894 6.97 1.192 10.241.632-.445-2.25-.765-4.443-1.54-6.6-.15.023-.3.04-.447.07-1.845.359-3.759.616-5.613.223a.525.525 0 0 1-.432-.431l-.054-.255c-.132-.63.858-.803.985-.172.111.55 3.355-.072 5.161-.442a44.795 44.795 0 0 0-3.388-6.507c-.339-.541.458-1.143.802-.596 1.407 2.229 2.617 4.477 3.605 6.895l.09-.017c1.901-.33 3.227-1.092 4.965-1.9.313-.146.617.048.707.356l.044.15c.133.458-.36.736-.695.6-.774.429-1.474 1.005-2.285 1.34-.76.315-1.579.43-2.4.536.032.085.07.164.1.25.732 2.019 1.05 4.18 1.425 6.307l.01-.001c1.868-.443 3.671-.76 5.522-1.252.61-.163 1.176-.373 1.743-.211-.255-.888-.456-1.794-.716-2.677-.55-1.856-1.29-3.725-2.009-5.52-.946-2.365-2.515-4.388-4.029-6.416-.82-1.096-1.89-2.034-2.299-3.366-.189-.616.79-.832.976-.22.493 1.625 2.551 3.6 3.55 4.95.801 1.082 1.577 2.167 2.173 3.378 1.772 3.597 2.242 7.698 3.926 11.28.274.584-.666.913-.94.338"/><path fill="#4f4b47" d="M299.954 350.332a4.614 4.614 0 0 1-3.23 3.669c-.592.175-1.199.214-1.804.191a3.66 3.66 0 0 1-.929.114c.595.008-.417.045-.532.047a6.139 6.139 0 0 1-.909-.037 4.033 4.033 0 0 1-2.722-1.606c-1.157-1.54-.92-3.659.133-5.191 1.74-2.527 5.41-3.413 7.972-1.607 1.37.967 2.3 2.718 2.021 4.42M266.503 298.583c-1.804 1.763-4.391 2.332-6.821 2.456-1.782.092-3.771-.509-4.94-1.758-.737-.56-1.25-1.355-1.29-2.454-.035-.991.368-1.789.984-2.455 1.44-2.334 4.912-3.938 7.337-4.06.936-.046 1.607.35 2.02.932a8.159 8.159 0 0 1 2.04.651c2.785 1.351 2.683 4.72.67 6.688"/></g></svg>