<?xml version="1.0" standalone="no"?>
<!DOCTYPE svg PUBLIC "-//W3C//DTD SVG 20010904//EN"
 "http://www.w3.org/TR/2001/REC-SVG-20010904/DTD/svg10.dtd">
<svg version="1.0" xmlns="http://www.w3.org/2000/svg"
 width="1280.000000pt" height="1280.000000pt" viewBox="0 0 1280.000000 1280.000000"
 preserveAspectRatio="xMidYMid meet">
<g transform="translate(0.000000,1280.000000) scale(0.100000,-0.100000)"
fill="#000000" stroke="none">
<path d="M6347 11102 c-40 -25 -61 -77 -102 -252 -50 -214 -90 -350 -132 -445
-52 -118 -73 -212 -73 -323 0 -124 20 -204 82 -330 37 -74 48 -106 40 -114 -6
-6 -8 -25 -5 -43 4 -23 -4 -53 -27 -105 -18 -41 -47 -130 -64 -199 l-32 -126
-124 -12 c-419 -41 -854 -174 -1290 -393 -231 -117 -321 -176 -657 -427 -350
-262 -513 -364 -695 -433 -77 -29 -95 -27 -103 13 -24 110 -110 184 -227 194
-107 10 -205 -49 -248 -149 -42 -97 -13 -221 66 -286 29 -24 35 -35 31 -54 -4
-13 -242 -509 -530 -1103 -287 -594 -640 -1322 -782 -1618 -235 -486 -263
-538 -288 -545 l-27 -7 36 -54 c51 -75 175 -202 269 -276 379 -296 914 -441
1555 -422 318 10 539 47 799 133 354 117 638 311 818 559 l44 60 -28 7 c-26 7
-90 136 -808 1619 -429 887 -780 1619 -780 1628 0 12 23 20 105 34 213 35 439
119 653 240 102 57 172 103 579 379 295 200 654 356 1039 453 208 53 517 96
545 77 6 -4 16 -80 22 -177 21 -299 63 -509 163 -808 49 -147 58 -182 47 -194
-10 -12 -8 -18 12 -33 l23 -17 -47 -849 c-73 -1325 -96 -1851 -96 -2189 0
-184 3 -222 21 -291 28 -104 26 -128 -16 -176 -65 -77 -81 -172 -45 -278 12
-35 17 -70 14 -88 -3 -17 -1 -32 5 -36 12 -8 15 11 -51 -321 -48 -243 -52
-270 -52 -415 -1 -85 5 -246 13 -357 12 -166 12 -204 2 -217 -12 -14 -55 -16
-341 -16 l-327 0 -61 -31 c-58 -29 -103 -72 -132 -129 -7 -14 -18 -28 -24 -32
-6 -4 -65 -8 -132 -8 -77 0 -138 -5 -171 -15 -61 -18 -132 -71 -170 -127 -25
-37 -35 -43 -88 -55 -80 -18 -136 -53 -180 -112 -54 -75 -88 -98 -183 -127
-48 -15 -103 -35 -124 -45 -38 -20 -78 -63 -78 -85 0 -12 380 -14 2410 -14
2030 0 2410 2 2410 14 0 22 -40 65 -78 85 -21 10 -71 29 -112 41 -103 30 -138
53 -185 116 -51 69 -113 111 -188 126 -55 12 -63 17 -95 61 -75 104 -158 137
-341 137 l-128 0 -36 58 c-20 32 -53 71 -74 85 -82 56 -86 57 -435 57 -178 0
-329 4 -337 9 -12 8 -13 34 -8 147 4 76 12 191 18 254 16 158 6 306 -30 490
-73 362 -81 413 -70 426 6 7 8 26 5 42 -4 16 0 43 8 63 41 98 28 209 -33 287
-49 62 -53 80 -29 154 48 147 36 595 -68 2496 l-48 864 23 17 c20 15 21 21 11
38 -11 16 -7 34 23 116 53 139 104 321 137 486 27 134 39 230 58 481 l7 95 85
-3 c254 -9 677 -117 1005 -257 192 -82 325 -155 530 -294 110 -74 252 -170
315 -212 325 -217 582 -330 875 -384 105 -19 120 -25 118 -41 -1 -10 -170
-365 -375 -789 -206 -423 -556 -1147 -778 -1608 -375 -775 -407 -838 -434
-845 l-28 -8 61 -81 c263 -349 735 -581 1331 -655 139 -17 602 -17 740 0 234
30 444 80 635 155 284 109 541 294 696 500 l61 81 -28 8 c-27 7 -50 51 -306
580 -152 315 -507 1047 -788 1627 -280 580 -510 1062 -510 1071 0 9 13 26 30
38 43 32 81 103 87 164 23 228 -243 365 -415 214 -35 -31 -82 -115 -82 -148 0
-29 -43 -22 -145 22 -189 80 -321 166 -717 463 -137 103 -297 216 -358 252
-468 277 -1033 471 -1510 517 l-134 13 -32 126 c-18 69 -45 152 -59 185 -15
32 -31 88 -35 123 -8 62 -7 65 36 150 57 113 84 219 84 335 0 113 -17 186 -73
318 -44 104 -90 259 -148 508 -29 124 -35 138 -69 173 -42 42 -77 47 -123 19z
m-3381 -3208 c37 -55 -25 -117 -80 -80 -49 31 -24 106 35 106 20 0 34 -8 45
-26z m6958 4 c9 -12 16 -30 16 -40 0 -24 -35 -58 -60 -58 -26 0 -60 34 -60 62
0 53 74 79 104 36z m-7040 -294 c14 -14 16 -175 16 -1623 0 -1236 -3 -1610
-12 -1619 -19 -19 -1597 -17 -1604 1 -6 15 1550 3237 1569 3249 15 10 13 10
31 -8z m7854 -1611 c430 -890 780 -1623 778 -1630 -7 -18 -1586 -19 -1604 -1
-9 9 -12 384 -12 1625 0 1503 1 1613 17 1621 9 6 22 8 28 6 5 -2 362 -732 793
-1621z m-7740 1605 c5 -7 174 -353 375 -768 201 -415 550 -1137 776 -1605 226
-467 409 -855 407 -862 -7 -18 -1586 -19 -1604 -1 -9 9 -12 381 -12 1614 0
881 3 1609 6 1618 7 19 37 21 52 4z m6847 -1618 l0 -1625 -798 -3 c-662 -2
-798 0 -803 11 -3 8 306 657 687 1443 380 786 729 1507 776 1603 92 192 99
203 122 199 15 -3 16 -150 16 -1628z"/>
</g>
</svg>
