<?xml version="1.0" standalone="no"?>
<!DOCTYPE svg PUBLIC "-//W3C//DTD SVG 20010904//EN"
 "http://www.w3.org/TR/2001/REC-SVG-20010904/DTD/svg10.dtd">
<svg version="1.0" xmlns="http://www.w3.org/2000/svg"
 width="1280.000000pt" height="240.000000pt" viewBox="0 0 1280.000000 240.000000"
 preserveAspectRatio="xMidYMid meet">
<metadata>
Created by potrace 1.15, written by Peter Selinger 2001-2017
</metadata>
<g transform="translate(0.000000,440.000000) scale(0.100000,-0.100000)"
fill="#000000" stroke="none">
<path d="M7335 3850 c-88 -10 -140 -27 -229 -73 -85 -44 -175 -120 -231 -197
-43 -58 -132 -251 -186 -404 -22 -61 -49 -125 -59 -143 l-19 -32 32 -4 c24 -3
20 -4 -15 -5 l-48 -2 -1 -42 -2 -43 -6 35 c-5 27 -8 31 -14 17 -4 -10 -11 -15
-17 -12 -16 10 -12 -6 8 -29 17 -21 17 -21 -5 -2 -13 11 -23 26 -23 35 0 26
-49 91 -69 91 -10 0 -25 -9 -32 -21 -12 -17 -18 -19 -42 -10 -16 6 -66 11
-112 11 -66 0 -84 -3 -89 -16 -3 -9 -4 -20 0 -25 3 -5 -7 -9 -21 -9 -33 0 -52
-18 -70 -67 -13 -35 -14 -36 -14 -10 -1 19 -8 31 -26 39 -14 6 -25 18 -25 27
0 14 -2 14 -10 1 -8 -13 -10 -13 -14 0 -3 8 -6 28 -8 45 -3 26 -7 29 -38 30
l-35 0 -3 183 c-2 174 -3 182 -22 182 -13 0 -20 -7 -20 -20 0 -17 -7 -20 -45
-20 -38 0 -45 3 -45 20 0 13 -7 20 -19 20 -17 0 -19 -14 -25 -222 -8 -271 -6
-258 -28 -258 -10 0 -19 -6 -20 -12 -4 -37 -16 179 -17 313 -1 137 -4 164 -25
227 -13 39 -35 87 -49 106 l-24 36 -25 -37 c-49 -74 -66 -154 -73 -338 -4 -93
-10 -188 -14 -209 -7 -45 -31 -62 -31 -22 0 23 -4 26 -35 26 -19 0 -35 -4 -35
-10 0 -5 -9 -10 -20 -10 -18 0 -20 -7 -20 -67 0 -45 -3 -63 -9 -53 -6 8 -8 28
-5 45 3 23 2 26 -4 10 -8 -18 -25 268 -22 360 2 39 -7 105 -14 113 -19 18 -27
-33 -26 -168 2 -174 -10 -320 -26 -320 -22 0 -29 49 -9 64 23 16 16 50 -12 54
-13 2 -23 12 -26 28 -3 20 -1 23 13 19 21 -7 44 19 36 41 -4 11 -14 15 -31 12
-15 -3 -26 0 -29 9 -8 21 -7 43 2 42 23 -4 32 4 32 26 0 20 -5 25 -25 25 -14
0 -25 -6 -25 -12 -1 -7 -7 -2 -14 12 -13 22 -12 25 8 35 26 13 27 34 2 49 -14
9 -20 8 -29 -6 -10 -14 -12 -14 -29 7 -22 28 -23 35 -4 35 16 0 25 19 19 38
-6 17 -42 15 -50 -3 -5 -14 -8 -14 -24 1 -18 16 -18 19 -3 35 14 15 14 21 4
34 -17 21 -39 19 -48 -4 -7 -19 -8 -19 -30 -1 -13 11 -18 21 -12 25 14 9 13
42 -2 48 -21 7 -38 -4 -38 -24 0 -16 -3 -17 -24 -8 -18 8 -24 19 -23 38 2 20
-3 27 -20 29 -21 3 -28 -7 -24 -31 1 -5 -9 -7 -21 -5 -17 2 -23 10 -23 28 0
16 -6 26 -19 28 -21 4 -38 -16 -31 -35 3 -9 -5 -13 -24 -13 -22 0 -27 4 -27
23 1 17 -5 22 -24 22 -19 0 -25 -5 -24 -22 1 -33 -42 -40 -65 -12 -24 30 -56
19 -47 -15 8 -33 -19 -41 -45 -15 -20 20 -22 20 -37 5 -13 -13 -14 -20 -5 -34
9 -15 7 -21 -10 -31 -17 -11 -21 -11 -29 3 -11 20 -32 21 -47 2 -9 -11 -8 -18
5 -31 15 -15 15 -18 1 -32 -14 -14 -17 -14 -32 0 -8 9 -22 14 -30 11 -19 -8
-19 -52 -1 -56 13 -3 13 -6 1 -22 -12 -16 -17 -17 -30 -6 -12 10 -18 10 -30 0
-21 -17 -19 -41 4 -47 16 -4 18 -9 9 -27 -7 -17 -16 -22 -34 -18 -16 3 -26 -1
-30 -12 -7 -18 13 -49 27 -40 10 6 12 -7 3 -29 -3 -8 -13 -13 -23 -10 -26 7
-47 -22 -31 -42 7 -8 19 -15 26 -15 8 0 14 -9 14 -20 0 -21 -10 -24 -46 -14
-18 5 -20 11 -16 59 4 46 1 58 -19 82 -13 16 -30 57 -38 91 -8 35 -17 60 -22
55 -4 -4 -15 -35 -23 -67 -9 -33 -25 -70 -37 -82 -18 -19 -21 -32 -17 -81 4
-57 3 -58 -22 -58 -24 0 -25 -2 -31 -85 l-5 -85 -2 67 c-2 63 -4 68 -26 74
-21 5 -25 13 -28 47 -3 36 -6 41 -30 44 -27 4 -28 2 -28 -40 0 -40 -3 -45 -26
-50 -17 -3 -28 0 -31 10 -10 26 -43 -27 -43 -69 0 -37 -1 -38 -37 -38 -20 0
-34 3 -30 6 11 11 -37 54 -60 54 -13 0 -23 3 -23 8 0 16 -64 34 -128 35 l-67
2 1 -32 c0 -19 -5 -33 -12 -33 -6 0 -18 -24 -27 -52 l-15 -53 -1 58 c-1 44 -8
70 -27 104 -22 36 -55 63 -79 63 -2 0 -17 -23 -34 -50 -24 -39 -31 -62 -31
-101 0 -31 -4 -48 -10 -44 -5 3 -10 26 -10 51 0 37 -3 44 -20 44 -16 0 -20 7
-20 30 0 17 -4 30 -10 30 -5 0 -10 -13 -10 -30 0 -25 -4 -30 -24 -30 -14 0
-31 7 -40 15 -8 8 -32 15 -56 15 -27 0 -42 -5 -45 -15 -15 -47 -19 -48 -23 -7
l-3 42 -50 0 c-34 0 -49 -4 -49 -13 0 -8 -7 -14 -15 -14 -8 0 -15 9 -15 19 0
15 -8 18 -45 18 -38 0 -45 -3 -45 -20 0 -11 -4 -20 -10 -20 -5 0 -11 -19 -11
-42 -2 -30 -3 -35 -6 -15 -2 15 -11 27 -19 27 -9 0 -14 10 -14 28 0 16 -9 55
-20 87 -11 32 -20 70 -21 84 0 27 -35 -87 -45 -151 -4 -23 -12 -38 -20 -38 -8
0 -14 -5 -14 -12 0 -6 -7 -3 -15 8 -13 16 -16 17 -25 4 -7 -12 -10 -8 -10 18
0 31 -2 32 -40 32 -29 0 -40 -4 -40 -15 0 -8 -4 -15 -9 -15 -6 0 -12 -15 -14
-32 -3 -23 -4 -16 -5 20 l-2 52 -52 0 c-29 0 -70 -3 -90 -6 -32 -6 -38 -11
-38 -30 0 -19 -5 -24 -24 -24 -13 0 -31 -3 -40 -6 -13 -5 -16 1 -16 30 l0 36
-45 0 c-25 0 -45 -3 -45 -7 0 -5 -34 -7 -75 -5 l-75 4 0 -36 c0 -20 -4 -36
-10 -36 -5 0 -10 11 -10 25 0 15 -7 29 -17 33 -10 4 -18 13 -19 20 -1 6 -2 24
-3 38 -1 21 -5 25 -29 22 -23 -3 -28 -8 -32 -43 -3 -27 -10 -40 -20 -40 -9 0
-17 -12 -20 -29 -4 -24 -7 -27 -17 -14 -8 9 -15 77 -20 189 -7 144 -11 174
-23 174 -12 0 -16 -17 -18 -84 -3 -78 -4 -83 -18 -63 -8 12 -22 22 -30 22 -9
0 -14 10 -14 29 0 16 -6 34 -13 40 -11 8 -16 5 -25 -15 -7 -14 -12 -31 -12
-39 0 -8 -6 -15 -13 -15 -8 0 -19 -10 -25 -22 -9 -19 -11 -9 -11 52 -1 86 -11
111 -35 91 -13 -11 -16 -39 -16 -167 0 -142 -1 -153 -19 -159 -11 -3 -21 -16
-23 -28 -2 -18 -9 -22 -43 -22 -33 0 -42 -5 -53 -25 l-13 -25 4 25 c3 24 1 25
-37 23 l-41 -2 35 8 35 7 -37 5 c-28 4 -38 1 -42 -11 -2 -8 -4 -3 -5 11 -2 39
-48 56 -90 35 -28 -15 -31 -22 -33 -64 l-1 -47 -7 45 c-4 25 -8 39 -8 31 -2
-9 -13 -12 -37 -9 -25 3 -35 0 -39 -12 -2 -9 -4 -6 -5 8 -1 20 -6 22 -51 22
l-50 0 -2 -42 c-1 -37 -2 -34 -7 17 -5 51 -9 60 -26 60 -16 0 -21 8 -23 43 -3
39 -5 42 -33 42 -27 0 -29 -2 -29 -40 0 -29 -4 -40 -15 -40 -10 0 -15 -10 -15
-30 0 -16 -4 -30 -10 -30 -5 0 -10 16 -10 36 l0 37 -59 -6 c-33 -3 -64 -8 -70
-12 -6 -3 -12 -30 -13 -58 -1 -49 -2 -48 -7 17 l-6 69 -43 1 -42 1 0 -37 c0
-26 -4 -38 -14 -38 -9 0 -16 -13 -19 -32 l-4 -33 -1 31 c-1 18 -9 34 -17 38
-12 4 -15 -3 -17 -32 -1 -26 -3 -19 -7 23 -6 57 -8 60 -36 66 -16 4 -58 7 -92
8 l-63 1 -2 -82 c-2 -77 -2 -78 -5 -20 l-4 62 -39 0 -40 0 0 -330 0 -330 6398
2 6397 3 3 333 2 332 -33 0 -34 0 -6 -72 c-3 -39 -10 -74 -16 -77 -5 -3 -11
-20 -14 -36 -4 -30 -4 -30 -7 5 -3 30 -4 26 -10 -20 -6 -48 -7 -43 -8 43 l-2
97 -35 0 c-31 0 -35 -3 -35 -25 0 -26 -6 -28 -62 -28 -22 1 -28 -4 -29 -21 -1
-47 -18 19 -18 76 -1 54 -2 57 -28 60 -26 3 -28 7 -34 63 -6 61 -29 127 -47
139 -17 10 -56 -85 -60 -146 -4 -49 -7 -58 -23 -58 -15 0 -19 -8 -19 -37 0
-21 -5 -45 -10 -53 -7 -11 -10 3 -10 48 0 63 -11 77 -38 50 -9 -9 -12 31 -12
181 0 106 -4 191 -8 189 -4 -1 -40 -23 -80 -48 l-72 -45 0 -121 c0 -137 -7
-184 -25 -184 -9 0 -15 -22 -20 -67 -3 -38 -10 -81 -14 -98 -7 -25 -9 -18 -10
37 -1 42 -5 68 -13 70 -8 3 -14 39 -16 106 -4 94 -6 101 -26 104 -25 4 -24 23
1 23 19 0 24 41 11 83 -4 12 -4 22 1 22 5 0 7 9 4 20 -5 20 -23 28 -23 10 0
-5 -4 -10 -10 -10 -23 0 -8 29 18 32 l27 4 -27 14 c-35 17 -36 30 -2 30 22 0
24 3 15 14 -9 11 -9 15 0 18 8 3 12 35 13 97 1 75 -2 94 -15 101 -11 6 -15 18
-12 34 4 20 0 25 -18 28 -13 2 -23 7 -21 13 2 5 -5 12 -15 16 -17 7 -17 8 0 8
24 1 22 21 -3 21 -16 0 -20 -7 -20 -30 0 -24 -4 -30 -21 -30 -15 0 -20 -5 -17
-22 2 -13 -3 -28 -11 -34 -14 -11 -19 -92 -12 -186 3 -38 8 -48 22 -48 19 0
35 -17 25 -28 -4 -3 -16 -1 -26 6 -17 10 -20 10 -20 -7 0 -12 8 -21 22 -23 12
-2 24 -10 26 -18 4 -13 3 -13 -10 -2 -12 10 -18 10 -23 1 -6 -8 -10 -8 -16 2
-4 7 -11 10 -15 6 -10 -10 16 -37 37 -37 10 0 21 -5 25 -12 5 -7 2 -9 -9 -5
-9 3 -18 1 -21 -6 -5 -9 -7 -9 -12 1 -8 17 -24 15 -24 -3 0 -9 12 -18 30 -22
17 -3 33 -10 37 -16 4 -6 0 -8 -9 -4 -9 3 -21 0 -27 -6 -8 -8 -11 -8 -11 1 0
7 -4 12 -10 12 -5 0 -10 -6 -10 -14 0 -14 24 -29 47 -31 25 -1 17 -20 -9 -23
-19 -2 -28 -9 -28 -22 0 -10 -6 -20 -14 -23 -8 -3 -27 -28 -43 -56 -23 -42
-33 -51 -55 -51 -24 0 -28 4 -28 30 0 29 -1 30 -50 30 l-50 0 -1 -127 c0 -81
-4 -121 -9 -108 -5 11 -9 62 -9 113 -1 85 -2 92 -21 92 -18 0 -20 7 -20 64 0
259 -69 570 -154 699 -47 71 -67 72 -112 5 -83 -123 -154 -425 -154 -650 l0
-68 -60 0 -60 0 0 -55 c0 -46 -3 -55 -18 -55 -14 0 -22 13 -32 53 l-13 52 -13
-35 c-7 -19 -13 -29 -13 -22 -1 6 -10 12 -21 12 -16 0 -20 7 -20 30 0 29 -2
30 -44 30 l-43 0 -9 -52 c-8 -52 -8 -52 -12 -15 l-3 37 -53 0 c-52 0 -54 -1
-60 -31 -3 -17 -6 -69 -6 -115 0 -46 -4 -84 -9 -84 -5 0 -11 39 -14 88 -9 124
-12 137 -30 140 -13 3 -17 14 -17 43 0 37 -2 39 -30 39 -28 0 -30 -2 -30 -39
0 -30 -4 -40 -19 -44 -17 -4 -21 -15 -23 -66 l-3 -60 -25 13 c-14 7 -24 18
-23 24 2 6 -6 13 -16 17 -12 4 -20 18 -24 45 -7 55 -45 130 -72 142 -24 11
-52 78 -41 96 3 6 2 13 -3 17 -5 3 -10 13 -10 23 0 9 -4 35 -9 57 l-8 40 -6
-45 c-20 -143 -27 -163 -62 -192 -33 -27 -76 -115 -76 -156 0 -14 -10 -17 -62
-17 l-63 0 -6 -65 c-3 -36 -6 -58 -8 -50 -1 12 -4 12 -15 -2 -20 -27 -46 -23
-46 7 0 24 -2 25 -69 25 -76 0 -81 5 -81 76 0 23 -5 33 -20 37 -15 4 -20 14
-20 41 0 33 -2 36 -30 36 -27 0 -30 -3 -30 -34 0 -18 -7 -39 -15 -46 -11 -9
-15 -37 -17 -114 -1 -78 -3 -91 -8 -56 -6 37 -7 39 -9 15 -4 -49 -9 -17 -16
98 l-7 109 -34 -4 c-21 -2 -33 0 -31 6 2 6 -7 22 -20 36 -13 14 -23 35 -23 47
0 13 -4 23 -10 23 -5 0 -10 -9 -10 -21 0 -26 -47 -88 -64 -85 -23 3 -45 27
-39 42 3 8 0 14 -6 14 -6 0 -11 -8 -11 -18 0 -11 -9 -27 -21 -38 -13 -12 -18
-25 -15 -40 4 -16 1 -24 -11 -26 -28 -6 -53 3 -53 18 0 10 -13 14 -45 14 -25
0 -45 5 -45 10 0 6 -11 16 -25 22 -16 7 -25 19 -25 35 0 12 -5 23 -11 23 -6 0
-9 -7 -5 -15 3 -8 -6 -28 -20 -45 -15 -17 -24 -37 -21 -44 3 -8 -2 -16 -14
-19 -24 -7 -34 13 -26 52 5 23 0 35 -19 54 -14 14 -24 31 -23 39 1 7 1 20 0
28 -1 13 -3 13 -10 1 -5 -8 -7 -20 -4 -28 3 -7 -7 -25 -21 -38 -20 -19 -25
-31 -20 -49 3 -14 3 -34 -1 -45 -5 -18 -14 -21 -61 -21 -53 0 -54 -1 -54 -29
0 -25 -3 -28 -25 -24 -13 3 -27 14 -30 24 -5 14 -16 19 -45 19 l-39 0 -4 -107
-3 -108 -2 123 -2 122 -50 0 -50 0 -1 -82 c0 -60 -3 -77 -9 -60 -13 31 -38 28
-43 -5 -2 -16 -5 0 -6 34 -1 78 -47 163 -86 163 -17 0 -31 -13 -54 -50 -17
-28 -31 -59 -31 -70 0 -14 -7 -20 -24 -20 -21 0 -24 6 -30 49 -9 68 -105 345
-160 464 -54 116 -86 165 -151 229 -141 141 -334 209 -530 188z m-2625 -340
c3 -1 9 -2 14 -1 5 1 32 -3 60 -10 145 -33 330 -196 295 -260 -11 -21 -34 -26
-26 -6 3 7 -4 19 -15 26 -11 7 -18 15 -15 18 3 2 -3 13 -14 24 -11 11 -17 24
-14 30 4 5 3 8 -2 7 -5 -2 -22 9 -38 24 -67 62 -205 113 -300 110 -80 -2 -221
-47 -233 -74 -2 -5 -7 -8 -11 -8 -5 0 -41 -31 -82 -70 -40 -38 -74 -68 -76
-66 -6 6 28 66 38 66 5 0 9 5 9 11 0 6 17 29 39 50 21 22 44 39 50 39 6 0 11
4 11 8 0 21 139 74 220 85 25 3 81 1 90 -3z m31 -60 c160 -30 300 -167 327
-320 7 -39 5 -53 -20 -102 -21 -43 -28 -73 -29 -120 l-1 -63 -17 54 c-9 30
-22 56 -29 59 -6 2 -12 17 -12 33 l0 29 -70 0 c-75 0 -130 -19 -130 -45 0 -8
-15 -18 -32 -23 -32 -8 -33 -7 -40 25 -6 24 -3 41 7 57 14 21 14 25 0 40 -35
34 -77 4 -56 -40 6 -14 9 -30 6 -35 -10 -16 -33 -10 -40 11 -8 25 -21 26 -34
3 -6 -10 -11 -12 -11 -5 0 6 -9 12 -20 12 -17 0 -20 7 -20 46 0 44 -1 45 -27
42 -25 -3 -28 -8 -31 -45 -3 -34 -7 -42 -27 -47 -19 -5 -25 -14 -28 -44 -2
-20 -4 31 -5 114 l-2 152 -30 33 -31 32 37 38 c44 45 113 84 185 103 66 18
109 19 180 6z m7179 -195 c0 -8 -4 -15 -10 -15 -5 0 -10 7 -10 15 0 8 5 15 10
15 6 0 10 -7 10 -15z m-7674 -61 c1 -34 -2 -44 -13 -40 -10 4 -11 1 -3 -14 14
-26 13 -30 -7 -30 -15 0 -16 -2 -3 -10 8 -5 12 -10 8 -10 -3 0 -14 -3 -24 -7
-12 -4 -15 -3 -10 6 4 7 9 24 11 38 1 15 10 32 19 39 10 6 13 14 7 15 -10 4
-3 59 8 59 4 0 7 -20 7 -46z m873 -3 c17 -53 15 -64 -11 -50 -33 17 -33 17
-12 40 19 22 19 22 -3 11 -28 -15 -37 5 -15 31 18 20 25 15 41 -32z m6797 2
c-10 -10 -19 5 -10 18 6 11 8 11 12 0 2 -7 1 -15 -2 -18z m-6792 -69 c23 -9
19 -34 -5 -34 -18 0 -19 2 -9 15 11 13 10 14 -4 9 -9 -3 -16 -1 -16 5 0 12 11
14 34 5z m-904 -64 c-24 -15 -36 -11 -14 4 10 8 21 12 24 10 2 -3 -2 -9 -10
-14z m3927 -82 c-3 -7 -5 -2 -5 12 0 14 2 19 5 13 2 -7 2 -19 0 -25z m-3987
-14 c0 -8 -7 -22 -15 -30 -13 -14 -15 -12 -15 15 0 21 5 31 15 31 8 0 15 -7
15 -16z m1297 -91 c-2 -16 -4 -5 -4 22 0 28 2 40 4 28 2 -13 2 -35 0 -50z
m-254 2 c-3 -9 -8 -14 -10 -11 -3 3 -2 9 2 15 9 16 15 13 8 -4z"/>
<path d="M11840 3780 c0 -5 11 -10 25 -10 14 0 25 5 25 10 0 6 -11 10 -25 10
-14 0 -25 -4 -25 -10z"/>
<path d="M11850 3747 c0 -7 9 -13 20 -13 11 0 20 6 20 13 0 7 -9 13 -20 13
-11 0 -20 -6 -20 -13z"/>
<path d="M8184 2990 c3 -14 6 -33 6 -42 0 -10 7 -18 15 -18 20 0 19 14 -6 52
-18 29 -20 30 -15 8z"/>
<path d="M1233 2963 c9 -2 23 -2 30 0 6 3 -1 5 -18 5 -16 0 -22 -2 -12 -5z"/>
<path d="M3645 2940 c-19 -8 -19 -9 3 -9 12 -1 22 4 22 9 0 6 -1 10 -2 9 -2 0
-12 -4 -23 -9z"/>
<path d="M9840 2870 c0 -5 5 -10 11 -10 5 0 7 5 4 10 -3 6 -8 10 -11 10 -2 0
-4 -4 -4 -10z"/>
</g>
</svg>
