<?xml version="1.0" encoding="iso-8859-1"?>
<!-- Generator: Adobe Illustrator 23.0.4, SVG Export Plug-In . SVG Version: 6.00 Build 0)  -->
<svg version="1.1" xmlns="http://www.w3.org/2000/svg" xmlns:xlink="http://www.w3.org/1999/xlink" x="0px" y="0px"
	 viewBox="0 0 1920 1080" style="enable-background:new 0 0 1920 1080;" xml:space="preserve">
<g id="Layer_1">
</g>
<g id="Layer_2">
	<g>
		<path style="fill:#F48E9A;" d="M-0.386,847.282v232.978h1662.303l-151.203-103.632L-0.386,847.282z"/>
		<path style="fill:#6965AD;" d="M-0.386,816.864v263.396h1637.325l-193.24-94.439l-987.537-54.916L-0.386,816.864z"/>
		<path style="fill:#FBD9E8;" d="M992.557,1081H1920V858.727l-416.227,117.459L992.557,1081z"/>
		<path style="fill:#AF7CB6;" d="M992.557,1081H1920V858.727l-328.275,127.716L992.557,1081z"/>
	</g>
	<polygon style="fill:none;stroke:#FBD9E8;stroke-width:3;stroke-miterlimit:10;" points="157.723,992.208 157.723,933.622 
		108.715,904.33 59.706,933.622 59.706,992.207 108.714,1021.5 	"/>
	<polygon style="fill:none;stroke:#FBD9E8;stroke-width:3;stroke-miterlimit:10;" points="252.963,995.931 252.963,967.139 
		228.877,952.743 204.792,967.139 204.792,995.931 228.877,1010.327 	"/>
	<polygon style="fill:none;stroke:#FBD9E8;stroke-width:3;stroke-miterlimit:10;" points="1875.1,1003.08 1875.101,979.005 
		1854.96,966.967 1834.82,979.005 1834.82,1003.08 1854.96,1015.118 	"/>
	<polygon style="fill:none;stroke:#FBD9E8;stroke-width:3;stroke-miterlimit:10;" points="1768.867,1027.433 1768.867,984.744 
		1733.156,963.399 1697.444,984.743 1697.444,1027.433 1733.156,1048.778 	"/>
	<polygon style="fill:none;stroke:#FBD9E8;stroke-width:3;stroke-miterlimit:10;" points="184.493,942.415 184.493,969.805 
		207.405,983.5 230.318,969.805 230.318,942.415 207.405,928.72 	"/>
	<polygon style="fill:none;stroke:#FBD9E8;stroke-width:3;stroke-miterlimit:10;" points="290.294,1023.778 290.294,1009.335 
		278.212,1002.113 266.129,1009.334 266.129,1023.778 278.212,1031 	"/>
	<polygon style="fill:none;stroke:#FBD9E8;stroke-width:3;stroke-miterlimit:10;" points="1810.937,953.383 1810.937,941.305 
		1800.834,935.266 1790.73,941.305 1790.73,953.383 1800.834,959.422 	"/>
</g>
</svg>
