<?xml version="1.0" encoding="UTF-8" standalone="no"?>
<svg
   xmlns:dc="http://purl.org/dc/elements/1.1/"
   xmlns:cc="http://creativecommons.org/ns#"
   xmlns:rdf="http://www.w3.org/1999/02/22-rdf-syntax-ns#"
   xmlns:svg="http://www.w3.org/2000/svg"
   xmlns="http://www.w3.org/2000/svg"
   id="svg8"
   version="1.1"
   viewBox="0 0 202.02711 159.44977"
   height="159.44977mm"
   width="202.02713mm">
  <defs
     id="defs2">
    <marker
       style="overflow:visible"
       id="Arrow1Mstart"
       refX="0"
       refY="0"
       orient="auto">
      <path
         transform="matrix(0.4,0,0,0.4,4,0)"
         style="fill:#000000;fill-opacity:1;fill-rule:evenodd;stroke:#000000;stroke-width:1.00000003pt;stroke-opacity:1"
         d="M 0,0 5,-5 -12.5,0 5,5 Z"
         id="path4533" />
    </marker>
  </defs>
  <metadata
     id="metadata5">
    <rdf:RDF>
      <cc:Work
         rdf:about="">
        <dc:format>image/svg+xml</dc:format>
        <dc:type
           rdf:resource="http://purl.org/dc/dcmitype/StillImage" />
        <dc:title></dc:title>
      </cc:Work>
    </rdf:RDF>
  </metadata>
  <g
     transform="translate(17.446457,-4.3659574)"
     id="layer1">
    <path
       d="m 41.545293,136.61067 c 0,0 -7.563029,1.88993 -15.033203,4.25391 -3.735086,1.18199 -7.445651,2.48204 -10.183593,3.72656 -1.368972,0.62226 -2.495031,1.22948 -3.263672,1.8086 -0.384321,0.28955 -0.680474,0.57206 -0.873047,0.85351 -0.192574,0.28146 -0.282541,0.56972 -0.226563,0.84961 0.104722,0.52361 0.526444,1.08914 1.177735,1.70899 0.65129,0.61984 1.538314,1.29061 2.599609,1.99023 2.12259,1.39925 4.937628,2.91282 7.917969,4.33203 5.96068,2.83842 12.562554,5.29786 15.632812,5.68164 l 0.0332,-0.26172 c -2.977359,-0.37217 -9.605211,-2.82698 -15.550781,-5.6582 -2.972785,-1.41561 -5.7807,-2.92613 -7.886719,-4.31445 -1.053009,-0.69417 -1.931215,-1.35827 -2.564453,-1.96094 -0.633238,-0.60267 -1.015343,-1.14703 -1.099609,-1.56836 -0.03852,-0.19258 0.01823,-0.40585 0.185547,-0.65039 0.167315,-0.24454 0.444298,-0.51213 0.814453,-0.79102 0.74031,-0.55777 1.853346,-1.16132 3.21289,-1.77929 2.719089,-1.23595 6.424354,-2.53449 10.154297,-3.71485 7.459887,-2.36072 15.017579,-4.25 15.017579,-4.25 z m 50.054687,-95.150383 -0.25976,0.05469 c 0,0 4.34507,20.782837 6.51757,43.546877 1.08625,11.38201 1.63035,23.260346 0.81641,33.275386 -0.81394,10.01504 -2.99682,18.15946 -7.29297,22.08203 -4.31319,3.93813 -11.425961,6.34862 -19.669921,7.72851 -8.24396,1.37989 -17.617109,1.73346 -26.447266,1.5918 -17.660312,-0.28332 -33.15039,-2.54883 -33.15039,-2.54883 l -0.03711,0.26172 c 0,0 15.503133,2.26909 33.183594,2.55274 8.840231,0.14182 18.225262,-0.21165 26.494142,-1.59571 8.26887,-1.38406 15.424421,-3.79555 19.804691,-7.79492 4.3973,-4.01493 6.56282,-12.21454 7.3789,-22.25586 0.81608,-10.04132 0.27071,-21.931216 -0.8164,-33.322256 -2.17423,-22.78209 -6.52149,-43.576175 -6.52149,-43.576175 z"
       style="color:#000000;font-style:normal;font-variant:normal;font-weight:normal;font-stretch:normal;font-size:medium;line-height:normal;font-family:sans-serif;font-variant-ligatures:normal;font-variant-position:normal;font-variant-caps:normal;font-variant-numeric:normal;font-variant-alternates:normal;font-feature-settings:normal;text-indent:0;text-align:start;text-decoration:none;text-decoration-line:none;text-decoration-style:solid;text-decoration-color:#000000;letter-spacing:normal;word-spacing:normal;text-transform:none;writing-mode:lr-tb;direction:ltr;text-orientation:mixed;dominant-baseline:auto;baseline-shift:baseline;text-anchor:start;white-space:normal;shape-padding:0;clip-rule:nonzero;display:inline;overflow:visible;visibility:visible;opacity:1;isolation:auto;mix-blend-mode:normal;color-interpolation:sRGB;color-interpolation-filters:linearRGB;solid-color:#000000;solid-opacity:1;vector-effect:none;fill:none;fill-opacity:1;fill-rule:nonzero;stroke:#000000;stroke-width:4;stroke-linecap:round;stroke-linejoin:round;stroke-miterlimit:4;stroke-dasharray:none;stroke-dashoffset:0;stroke-opacity:1;color-rendering:auto;image-rendering:auto;shape-rendering:auto;text-rendering:auto;enable-background:accumulate"
       id="path12" />
    <g
       id="flowRoot4867"
       style="font-style:normal;font-variant:normal;font-weight:normal;font-stretch:normal;font-size:96px;line-height:1.25;font-family:Chilanka;-inkscape-font-specification:'Chilanka, Normal';font-variant-ligatures:normal;font-variant-caps:normal;font-variant-numeric:normal;font-feature-settings:normal;text-align:start;letter-spacing:0px;word-spacing:0px;writing-mode:lr-tb;text-anchor:start;fill:none;fill-opacity:1;stroke:#000000;stroke-width:7.55905533;stroke-linecap:round;stroke-linejoin:round;stroke-miterlimit:4;stroke-dasharray:none;stroke-opacity:1"
       transform="matrix(0.37519165,0.03282502,-0.03603802,0.41191641,-30.697106,-26.430596)"
       aria-label="What's This?">
      <path
         id="path4946"
         style="fill:none;stroke:#000000;stroke-width:7.55905533;stroke-linecap:round;stroke-linejoin:round;stroke-miterlimit:4;stroke-dasharray:none;stroke-opacity:1"
         d="m 48.388672,75.517578 q 0.890625,-0.9375 2.109375,-0.984375 1.265625,-0.04687 2.15625,0.84375 0.9375,0.890625 0.984375,2.109375 0.5625,18.796875 2.296875,31.921872 3.046875,22.54688 8.625,26.48438 0.75,0.51562 1.21875,0.51562 0.46875,-0.0469 1.359375,-0.79687 2.625,-2.10938 5.390625,-7.40625 2.8125,-5.34375 5.109375,-13.17188 5.15625,-17.437497 5.671875,-37.968747 0.04687,-1.21875 0.9375,-2.109375 0.9375,-0.890625 2.15625,-0.84375 1.265625,0.04687 2.109375,0.984375 0.84375,0.890625 0.890625,1.921875 1.359375,32.390622 8.484375,49.406252 2.0625,4.82812 4.124998,7.5 2.10938,2.67187 3.42188,3.14062 1.35937,0.42188 2.25,0.375 1.78125,-0.0937 3.9375,-3.1875 5.0625,-7.21875 6.28125,-22.59375 1.21875,-15.421872 -0.70313,-32.999997 -0.14062,-1.21875 0.65625,-2.203125 0.79688,-1.03125 2.01563,-1.171875 1.26562,-0.140625 2.25,0.65625 1.03125,0.796875 1.125,2.0625 2.01562,18.140625 0.70312,34.640627 -1.3125,16.5 -7.3125,25.07812 -2.48437,3.5625 -5.8125,5.01563 -3.32812,1.45312 -6.9375,0.1875 -3.60937,-1.21875 -6.374998,-4.73438 -2.765625,-3.5625 -5.953125,-11.10937 -3.1875,-7.54688 -5.4375,-20.8125 -3.1875,15.28125 -8.25,24.89062 -8.109375,15.42188 -16.734375,9.75 -3.890625,-2.71875 -6.609375,-9.75 -5.859375,-15.04687 -6.984375,-53.484372 -0.04687,-1.265625 0.84375,-2.15625 z" />
      <path
         id="path4948"
         style="fill:none;stroke:#000000;stroke-width:7.55905533;stroke-linecap:round;stroke-linejoin:round;stroke-miterlimit:4;stroke-dasharray:none;stroke-opacity:1"
         d="m 133.93555,129.4707 -0.14063,-53.531247 q 0,-1.21875 0.89063,-2.109375 0.89062,-0.9375 2.10937,-0.9375 1.26563,0 2.15625,0.9375 0.9375,0.890625 0.9375,2.109375 l 0.0469,27.937497 q 5.34375,-9.281247 13.26562,-10.218747 7.96875,-0.984375 14.39063,4.59375 6.46875,5.578127 8.53125,15.140627 2.76562,12.9375 -4.125,26.85937 -0.51563,1.07813 -1.73438,1.5 -1.21875,0.42188 -2.34375,-0.14062 -1.07812,-0.5625 -1.5,-1.73438 -0.42187,-1.21875 0.14063,-2.34375 5.95312,-12 3.60937,-22.875 -1.64062,-7.54687 -6.28125,-11.57812 -4.64062,-4.031252 -9.65625,-3.421877 -5.01562,0.609377 -8.76562,6.890627 -4.875,8.15625 -5.4375,23.0625 v 9.1875 q 0,1.125 -0.84375,2.0625 -0.84375,0.9375 -2.10938,0.98437 -1.21875,0.0469 -2.15625,-0.79687 -0.9375,-0.89063 -0.98437,-2.10938 -0.1875,-4.96875 0,-9.46875 z" />
      <path
         id="path4950"
         style="fill:none;stroke:#000000;stroke-width:7.55905533;stroke-linecap:round;stroke-linejoin:round;stroke-miterlimit:4;stroke-dasharray:none;stroke-opacity:1"
         d="m 227.7793,108.79883 q 0.375,1.40625 -0.28125,3.5625 -1.6875,17.76562 0.65625,26.39062 0.32812,1.21875 -0.32813,2.29688 -0.60937,1.07812 -1.82812,1.40625 -1.17188,0.32812 -2.29688,-0.32813 -1.07812,-0.60937 -1.40625,-1.82812 -1.45312,-5.4375 -1.54687,-13.6875 -4.5,7.21875 -9.5625,11.29687 -3.09375,2.48438 -6.375,2.8125 -3.375,0.98438 -6.70313,0.23438 -3.28125,-0.75 -5.8125,-3.14063 -4.92187,-4.64062 -5.85937,-13.5 -0.89063,-8.90625 3.1875,-16.92187 4.875,-9.562502 14.8125,-12.750002 8.71875,-2.859375 15.5625,0.796875 6.89062,3.65625 7.78125,13.359377 z m -6.09375,0.42187 q -0.60938,-6.32812 -4.875,-8.57812 -4.21875,-2.250002 -10.5,-0.1875 -7.5,2.39062 -11.01563,9.28125 -3.51562,6.84375 -2.8125,13.73437 0.70313,6.84375 3.70313,9.70313 3.04687,2.8125 7.21875,1.59375 0.375,-0.0937 1.125,-0.14063 0.79687,-0.0469 3.1875,-1.92187 6.32812,-4.96875 11.76562,-16.6875 1.40625,-3.04688 2.01563,-4.875 0.0937,-0.9375 0.1875,-1.92188 z" />
      <path
         id="path4952"
         style="fill:none;stroke:#000000;stroke-width:7.55905533;stroke-linecap:round;stroke-linejoin:round;stroke-miterlimit:4;stroke-dasharray:none;stroke-opacity:1"
         d="m 230.87305,100.54883 q -0.89063,-0.937502 -0.89063,-2.156252 0,-1.265625 0.89063,-2.15625 0.9375,-0.890625 2.15625,-0.890625 l 9.42187,0.04687 q 0.0469,-1.03125 0.28125,-7.265625 0.28125,-6.28125 0.0937,-11.34375 -0.0469,-1.265625 0.84375,-2.15625 0.89063,-0.9375 2.10938,-0.984375 1.26562,-0.04687 2.15625,0.84375 0.9375,0.84375 0.98437,2.109375 0.1875,5.25 -0.0937,11.578125 -0.23437,6.328125 -0.28125,7.265625 l 7.07813,0.04687 q 1.26562,0 2.15625,0.9375 0.89062,0.890625 0.89062,2.15625 0,1.21875 -0.9375,2.109372 -0.89062,0.89063 -2.10937,0.89063 -3.65625,0 -7.26563,-0.0469 -0.65625,23.48438 2.20313,31.82813 1.03125,3.09375 2.20312,3.75 1.21875,0.60937 1.59375,1.82812 0.375,1.21875 -0.23437,2.34375 -0.5625,1.07813 -1.78125,1.45313 -1.21875,0.375 -2.34375,-0.1875 -6,-3.23438 -7.3125,-17.67188 -0.79688,-9.42187 -0.42188,-23.39062 -4.64062,0 -9.23437,-0.0469 -1.26563,0 -2.15625,-0.89062 z" />
      <path
         id="path4954"
         style="fill:none;stroke:#000000;stroke-width:7.55905533;stroke-linecap:round;stroke-linejoin:round;stroke-miterlimit:4;stroke-dasharray:none;stroke-opacity:1"
         d="m 274.32617,94.830078 q -0.32812,1.21875 -1.45312,1.828125 -1.07813,0.609375 -2.57813,0.234375 -1.45312,-0.421875 -2.01562,-2.671875 -2.57813,-10.6875 -0.1875,-15.421875 1.92187,-3.796875 5.34375,-1.875 5.15625,2.8125 0.89062,17.90625 z" />
      <path
         id="path4956"
         style="fill:none;stroke:#000000;stroke-width:7.55905533;stroke-linecap:round;stroke-linejoin:round;stroke-miterlimit:4;stroke-dasharray:none;stroke-opacity:1"
         d="m 324.62305,104.39258 q 0.0469,1.26562 -0.84375,2.20312 -0.84375,0.89063 -2.10938,0.9375 -1.26562,0 -2.15625,-0.84375 -3.32812,-3.1875 -7.92187,-4.96875 -4.54688,-1.828122 -8.25,-1.874997 -9.84375,-0.09375 -11.625,5.249997 -1.35938,4.07813 2.25,7.35938 3.60937,3.28125 13.17187,2.53125 7.40625,-0.23438 11.29688,1.78125 3.89062,2.01562 5.71875,5.71875 1.875,3.70312 1.03125,7.35937 -1.54688,6.84375 -8.48438,9.98438 -5.34375,2.4375 -11.25,1.92187 -11.15625,-1.07812 -18.46875,-7.5 -0.9375,-0.79687 -1.03125,-2.0625 -0.0469,-1.3125 0.75,-2.25 0.84375,-0.9375 2.10938,-0.98437 1.26562,-0.0937 2.20312,0.70312 5.85938,5.10938 14.10938,5.90625 8.29687,0.79688 12.375,-3.60937 2.95312,-3.23438 1.21875,-6.79688 -2.20313,-4.40625 -10.45313,-4.03125 -8.20312,0.32813 -11.95312,-0.65625 -3.70313,-1.03125 -6.5625,-3.60937 -2.85938,-2.625 -3.9375,-6.28125 -1.07813,-3.70313 0.14062,-7.40625 1.21875,-3.703127 4.07813,-5.859377 4.875,-3.65625 11.53125,-3.5625 13.35937,0.140625 22.125,8.531247 0.89062,0.84375 0.9375,2.10938 z" />
      <path
         id="path4958"
         style="fill:none;stroke:#000000;stroke-width:7.55905533;stroke-linecap:round;stroke-linejoin:round;stroke-miterlimit:4;stroke-dasharray:none;stroke-opacity:1"
         d="m 361.93555,78.751953 q -0.89063,-0.9375 -0.89063,-2.15625 0,-1.265625 0.89063,-2.15625 0.9375,-0.890625 2.15625,-0.890625 l 49.6875,0.1875 q 1.21875,0 2.10937,0.9375 0.9375,0.890625 0.89063,2.15625 0,1.21875 -0.89063,2.109375 -0.89062,0.890625 -2.15625,0.890625 -10.5,-0.04687 -21.04687,-0.04687 v 59.765622 q 0,1.26562 -0.9375,2.15625 -0.89063,0.89062 -2.15625,0.89062 -1.21875,0 -2.10938,-0.89062 -0.89062,-0.89063 -0.89062,-2.15625 v -59.765622 -0.04687 l -22.5,-0.09375 q -1.26563,0 -2.15625,-0.890625 z" />
      <path
         id="path4960"
         style="fill:none;stroke:#000000;stroke-width:7.55905533;stroke-linecap:round;stroke-linejoin:round;stroke-miterlimit:4;stroke-dasharray:none;stroke-opacity:1"
         d="m 418.56055,129.4707 -0.14063,-53.531247 q 0,-1.21875 0.89063,-2.109375 0.89062,-0.9375 2.10937,-0.9375 1.26563,0 2.15625,0.9375 0.9375,0.890625 0.9375,2.109375 l 0.0469,27.937497 q 5.34375,-9.281247 13.26562,-10.218747 7.96875,-0.984375 14.39063,4.59375 6.46875,5.578127 8.53125,15.140627 2.76562,12.9375 -4.125,26.85937 -0.51563,1.07813 -1.73438,1.5 -1.21875,0.42188 -2.34375,-0.14062 -1.07812,-0.5625 -1.5,-1.73438 -0.42187,-1.21875 0.14063,-2.34375 5.95312,-12 3.60937,-22.875 -1.64062,-7.54687 -6.28125,-11.57812 -4.64062,-4.031252 -9.65625,-3.421877 -5.01562,0.609377 -8.76562,6.890627 -4.875,8.15625 -5.4375,23.0625 v 9.1875 q 0,1.125 -0.84375,2.0625 -0.84375,0.9375 -2.10938,0.98437 -1.21875,0.0469 -2.15625,-0.79687 -0.9375,-0.89063 -0.98437,-2.10938 -0.1875,-4.96875 0,-9.46875 z" />
      <path
         id="path4962"
         style="fill:none;stroke:#000000;stroke-width:7.55905533;stroke-linecap:round;stroke-linejoin:round;stroke-miterlimit:4;stroke-dasharray:none;stroke-opacity:1"
         d="m 477.62305,77.486328 q 1.82812,0.04687 3.09375,1.125 2.8125,2.4375 2.01562,5.53125 -0.75,3.046875 -3.84375,4.125 -5.15625,2.578125 -7.26562,-1.265625 -1.64063,-3.046875 0.65625,-6.328125 2.29687,-3.28125 5.34375,-3.1875 z m -2.34375,64.312502 q -1.21875,0.375 -2.34375,-0.23438 -1.07813,-0.60937 -1.45313,-1.78125 -0.32812,-1.17187 0.0469,-2.15625 0.9375,-2.10937 1.17187,-15.75 0.28125,-13.64062 0.14063,-24.656247 0,-1.265625 0.84375,-2.15625 0.89062,-0.9375 2.10937,-0.9375 1.26563,-0.04687 2.15625,0.84375 0.9375,0.890625 0.9375,2.15625 0.1875,11.109377 0.0469,18.562497 -0.14063,7.45313 -0.1875,10.59375 -0.0469,3.14063 -0.23438,7.45313 -0.28125,7.17187 -3.23437,8.0625 z" />
      <path
         id="path4964"
         style="fill:none;stroke:#000000;stroke-width:7.55905533;stroke-linecap:round;stroke-linejoin:round;stroke-miterlimit:4;stroke-dasharray:none;stroke-opacity:1"
         d="m 531.62305,104.39258 q 0.0469,1.26562 -0.84375,2.20312 -0.84375,0.89063 -2.10938,0.9375 -1.26562,0 -2.15625,-0.84375 -3.32812,-3.1875 -7.92187,-4.96875 -4.54688,-1.828122 -8.25,-1.874997 -9.84375,-0.09375 -11.625,5.249997 -1.35938,4.07813 2.25,7.35938 3.60937,3.28125 13.17187,2.53125 7.40625,-0.23438 11.29688,1.78125 3.89062,2.01562 5.71875,5.71875 1.875,3.70312 1.03125,7.35937 -1.54688,6.84375 -8.48438,9.98438 -5.34375,2.4375 -11.25,1.92187 -11.15625,-1.07812 -18.46875,-7.5 -0.9375,-0.79687 -1.03125,-2.0625 -0.0469,-1.3125 0.75,-2.25 0.84375,-0.9375 2.10938,-0.98437 1.26562,-0.0937 2.20312,0.70312 5.85938,5.10938 14.10938,5.90625 8.29687,0.79688 12.375,-3.60937 2.95312,-3.23438 1.21875,-6.79688 -2.20313,-4.40625 -10.45313,-4.03125 -8.20312,0.32813 -11.95312,-0.65625 -3.70313,-1.03125 -6.5625,-3.60937 -2.85938,-2.625 -3.9375,-6.28125 -1.07813,-3.70313 0.14062,-7.40625 1.21875,-3.703127 4.07813,-5.859377 4.875,-3.65625 11.53125,-3.5625 13.35937,0.140625 22.125,8.531247 0.89062,0.84375 0.9375,2.10938 z" />
      <path
         id="path4966"
         style="fill:none;stroke:#000000;stroke-width:7.55905533;stroke-linecap:round;stroke-linejoin:round;stroke-miterlimit:4;stroke-dasharray:none;stroke-opacity:1"
         d="m 547.88867,94.548828 q -0.70312,1.03125 -1.92187,1.3125 -1.21875,0.234375 -2.29688,-0.421875 -1.03125,-0.703125 -1.3125,-1.921875 -1.92187,-9.046875 2.53125,-13.78125 6.46875,-6.84375 19.125,-2.765625 12.65625,4.03125 14.34375,10.875 1.5,6.140625 -9.04687,14.765627 -4.64063,3.79687 -6.60938,6.70312 -1.92187,2.85938 -1.82812,6.04688 0.0469,5.25 3.28125,9.46875 0.75,1.03125 0.5625,2.29687 -0.14063,1.21875 -1.17188,2.01563 -0.98437,0.75 -2.25,0.5625 -1.26562,-0.1875 -2.01562,-1.17188 -4.40625,-5.8125 -4.5,-13.07812 -0.0937,-5.10938 3.42187,-10.35938 1.92188,-2.8125 6.60938,-6.656247 4.6875,-3.84375 7.03125,-7.078125 1.03125,-1.21875 0.79687,-2.203125 -0.375,-1.546875 -3.75,-3.421875 -3.375,-1.875 -6.98437,-3.046875 -8.76563,-2.8125 -12.5625,1.21875 -2.25,2.390625 -0.98438,8.34375 0.23438,1.21875 -0.46875,2.296875 z m 9.98438,51.140622 q -1.45313,-1.82812 -1.45313,-4.40625 0,-2.57812 1.45313,-4.40625 1.45312,-1.82812 3.46875,-1.82812 2.0625,0 3.51562,1.82812 1.45313,1.82813 1.45313,4.40625 0,2.57813 -1.45313,4.40625 -1.45312,1.82813 -3.51562,1.82813 -2.01563,0 -3.46875,-1.82813 z" />
    </g>
  </g>
</svg>
