<svg xmlns="http://www.w3.org/2000/svg" width="763.567" height="602.645" viewBox="0 0 202.027 159.45">
  <g fill="none" stroke="#000" stroke-linecap="round" stroke-linejoin="round" font-weight="400">
    <g stroke-width="7.559" aria-label="What's This?" font-family="Chilanka" font-size="96" letter-spacing="0" word-spacing="0" style="line-height:1.25;-inkscape-font-specification:'Chilanka, Normal';font-variant-ligatures:normal;font-variant-caps:normal;font-variant-numeric:normal;font-feature-settings:normal;text-align:start">
      <path d="M48.389 75.518q.89-.938 2.109-.985 1.266-.047 2.156.844.938.89.985 2.11.562 18.796 2.297 31.921 3.046 22.547 8.625 26.485.75.515 1.218.515.469-.047 1.36-.797 2.625-2.109 5.39-7.406 2.813-5.344 5.11-13.172 5.156-17.437 5.672-37.969.046-1.218.937-2.109.938-.89 2.156-.844 1.266.047 2.11.985.843.89.89 1.922 1.36 32.39 8.485 49.406 2.062 4.828 4.125 7.5 2.11 2.672 3.422 3.14 1.359.422 2.25.375 1.78-.093 3.937-3.187 5.063-7.219 6.281-22.594 1.22-15.422-.703-33-.14-1.219.656-2.203.797-1.031 2.016-1.172 1.266-.14 2.25.656 1.031.797 1.125 2.063 2.016 18.14.703 34.64-1.312 16.5-7.312 25.079-2.485 3.562-5.813 5.015-3.328 1.453-6.937.188-3.61-1.219-6.375-4.735-2.766-3.562-5.953-11.109-3.188-7.547-5.438-20.812-3.187 15.28-8.25 24.89-8.11 15.422-16.734 9.75-3.891-2.719-6.61-9.75-5.86-15.047-6.984-53.484-.047-1.266.844-2.156z" transform="matrix(.3752 .03283 -.03604 .41192 -13.25 -30.797)"/>
      <path d="M133.936 129.47l-.141-53.53q0-1.22.89-2.11.891-.937 2.11-.937 1.266 0 2.156.937.938.89.938 2.11l.047 27.937q5.343-9.281 13.265-10.219 7.969-.984 14.39 4.594 6.47 5.578 8.532 15.14 2.766 12.938-4.125 26.86-.516 1.078-1.734 1.5-1.22.422-2.344-.14-1.078-.563-1.5-1.735-.422-1.219.14-2.344 5.954-12 3.61-22.875-1.64-7.547-6.281-11.578-4.64-4.031-9.657-3.422-5.015.61-8.765 6.89-4.875 8.157-5.438 23.063v9.188q0 1.125-.843 2.062-.844.938-2.11.985-1.219.047-2.156-.797-.938-.89-.984-2.11-.188-4.968 0-9.468z" transform="matrix(.3752 .03283 -.03604 .41192 -13.25 -30.797)"/>
      <path d="M227.78 108.799q.374 1.406-.282 3.562-1.687 17.766.656 26.39.328 1.22-.328 2.298-.61 1.078-1.828 1.406-1.172.328-2.297-.328-1.078-.61-1.406-1.828-1.453-5.438-1.547-13.688-4.5 7.22-9.562 11.297-3.094 2.485-6.375 2.813-3.375.984-6.704.234-3.28-.75-5.812-3.14-4.922-4.641-5.86-13.5-.89-8.907 3.188-16.922 4.875-9.563 14.813-12.75 8.718-2.86 15.562.796 6.89 3.657 7.781 13.36zm-6.094.422q-.61-6.328-4.875-8.578-4.22-2.25-10.5-.188-7.5 2.39-11.016 9.281-3.516 6.844-2.813 13.735.704 6.843 3.704 9.703 3.046 2.812 7.218 1.594.375-.094 1.125-.141.797-.047 3.188-1.922 6.328-4.969 11.765-16.687 1.407-3.047 2.016-4.875.094-.938.188-1.922z" transform="matrix(.3752 .03283 -.03604 .41192 -13.25 -30.797)"/>
      <path d="M230.873 100.549q-.89-.938-.89-2.156 0-1.266.89-2.157.938-.89 2.156-.89l9.422.047q.047-1.032.281-7.266.282-6.281.094-11.344-.047-1.265.844-2.156.89-.938 2.11-.984 1.265-.047 2.156.843.937.844.984 2.11.187 5.25-.094 11.578-.234 6.328-.281 7.265l7.078.047q1.266 0 2.156.938.89.89.89 2.156 0 1.219-.937 2.11-.89.89-2.109.89-3.656 0-7.266-.047-.656 23.485 2.204 31.828 1.03 3.094 2.203 3.75 1.218.61 1.593 1.828.375 1.22-.234 2.344-.562 1.078-1.781 1.453-1.219.375-2.344-.187-6-3.235-7.312-17.672-.797-9.422-.422-23.39-4.64 0-9.235-.048-1.265 0-2.156-.89z" transform="matrix(.3752 .03283 -.03604 .41192 -13.25 -30.797)"/>
      <path d="M274.326 94.83q-.328 1.219-1.453 1.828-1.078.61-2.578.235-1.453-.422-2.016-2.672-2.578-10.688-.187-15.422 1.922-3.797 5.344-1.875 5.156 2.812.89 17.906z" transform="matrix(.3752 .03283 -.03604 .41192 -13.25 -30.797)"/>
      <path d="M324.623 104.393q.047 1.265-.844 2.203-.843.89-2.11.937-1.265 0-2.155-.844-3.328-3.187-7.922-4.968-4.547-1.828-8.25-1.875-9.844-.094-11.625 5.25-1.36 4.078 2.25 7.36 3.61 3.28 13.172 2.53 7.406-.234 11.297 1.782 3.89 2.015 5.718 5.718 1.875 3.703 1.032 7.36-1.547 6.843-8.485 9.984-5.344 2.438-11.25 1.922-11.156-1.078-18.469-7.5-.937-.797-1.03-2.063-.048-1.312.75-2.25.843-.937 2.109-.984 1.265-.094 2.203.703 5.859 5.11 14.109 5.906 8.297.797 12.375-3.609 2.953-3.234 1.219-6.797-2.203-4.406-10.453-4.031-8.203.328-11.953-.656-3.704-1.032-6.563-3.61-2.86-2.625-3.937-6.28-1.079-3.704.14-7.407 1.219-3.703 4.078-5.86 4.875-3.656 11.532-3.562 13.359.14 22.125 8.531.89.844.937 2.11z" transform="matrix(.3752 .03283 -.03604 .41192 -13.25 -30.797)"/>
      <path d="M361.936 78.752q-.891-.938-.891-2.156 0-1.266.89-2.157.938-.89 2.157-.89l49.687.187q1.219 0 2.11.938.937.89.89 2.156 0 1.219-.89 2.11-.891.89-2.157.89-10.5-.047-21.046-.047v59.766q0 1.265-.938 2.156-.89.89-2.156.89-1.219 0-2.11-.89-.89-.89-.89-2.156V79.736l-22.5-.093q-1.266 0-2.156-.891z" transform="matrix(.3752 .03283 -.03604 .41192 -13.25 -30.797)"/>
      <path d="M418.56 129.47l-.14-53.53q0-1.22.89-2.11.891-.937 2.11-.937 1.266 0 2.156.937.938.89.938 2.11l.047 27.937q5.343-9.281 13.265-10.219 7.969-.984 14.39 4.594 6.47 5.578 8.532 15.14 2.766 12.938-4.125 26.86-.516 1.078-1.734 1.5-1.22.422-2.344-.14-1.078-.563-1.5-1.735-.422-1.219.14-2.344 5.954-12 3.61-22.875-1.64-7.547-6.281-11.578-4.64-4.031-9.657-3.422-5.015.61-8.765 6.89-4.875 8.157-5.438 23.063v9.188q0 1.125-.843 2.062-.844.938-2.11.985-1.219.047-2.156-.797-.938-.89-.984-2.11-.188-4.968 0-9.468z" transform="matrix(.3752 .03283 -.03604 .41192 -13.25 -30.797)"/>
      <path d="M477.623 77.486q1.828.047 3.094 1.125 2.812 2.438 2.015 5.532-.75 3.046-3.843 4.125-5.157 2.578-7.266-1.266-1.64-3.047.656-6.328 2.297-3.281 5.344-3.188zM475.28 141.8q-1.218.375-2.343-.235-1.079-.609-1.454-1.78-.328-1.173.047-2.157.938-2.11 1.172-15.75.281-13.64.14-24.656 0-1.266.845-2.157.89-.937 2.109-.937 1.266-.047 2.156.844.938.89.938 2.156.187 11.11.047 18.562-.141 7.454-.188 10.594-.047 3.14-.234 7.453-.282 7.172-3.235 8.063z" transform="matrix(.3752 .03283 -.03604 .41192 -13.25 -30.797)"/>
      <path d="M531.623 104.393q.047 1.265-.844 2.203-.843.89-2.11.937-1.265 0-2.155-.844-3.328-3.187-7.922-4.968-4.547-1.828-8.25-1.875-9.844-.094-11.625 5.25-1.36 4.078 2.25 7.36 3.61 3.28 13.172 2.53 7.406-.234 11.297 1.782 3.89 2.015 5.718 5.718 1.875 3.703 1.032 7.36-1.547 6.843-8.485 9.984-5.344 2.438-11.25 1.922-11.156-1.078-18.469-7.5-.937-.797-1.03-2.063-.048-1.312.75-2.25.843-.937 2.109-.984 1.265-.094 2.203.703 5.86 5.11 14.11 5.906 8.296.797 12.374-3.609 2.953-3.234 1.219-6.797-2.203-4.406-10.453-4.031-8.203.328-11.953-.656-3.704-1.032-6.563-3.61-2.86-2.625-3.937-6.28-1.079-3.704.14-7.407 1.219-3.703 4.078-5.86 4.875-3.656 11.532-3.562 13.359.14 22.125 8.531.89.844.937 2.11z" transform="matrix(.3752 .03283 -.03604 .41192 -13.25 -30.797)"/>
      <path d="M547.889 94.549q-.703 1.031-1.922 1.312-1.219.235-2.297-.422-1.031-.703-1.313-1.921-1.921-9.047 2.532-13.782 6.468-6.843 19.125-2.765 12.656 4.031 14.343 10.875 1.5 6.14-9.046 14.765-4.641 3.797-6.61 6.703-1.922 2.86-1.828 6.047.047 5.25 3.281 9.47.75 1.03.563 2.296-.14 1.219-1.172 2.016-.984.75-2.25.562-1.266-.187-2.016-1.172-4.406-5.812-4.5-13.078-.093-5.11 3.422-10.36 1.922-2.812 6.61-6.656 4.687-3.843 7.03-7.078 1.032-1.218.798-2.203-.375-1.547-3.75-3.422-3.375-1.875-6.985-3.047-8.765-2.812-12.562 1.22-2.25 2.39-.985 8.343.235 1.219-.468 2.297zm9.984 51.14q-1.453-1.828-1.453-4.406 0-2.578 1.453-4.406 1.453-1.828 3.469-1.828 2.062 0 3.515 1.828 1.454 1.828 1.454 4.406 0 2.578-1.454 4.406-1.453 1.829-3.515 1.829-2.016 0-3.469-1.829z" transform="matrix(.3752 .03283 -.03604 .41192 -13.25 -30.797)"/>
    </g>
    <path stroke-width="4" style="line-height:normal;font-variant-ligatures:normal;font-variant-position:normal;font-variant-caps:normal;font-variant-numeric:normal;font-variant-alternates:normal;font-feature-settings:normal;text-indent:0;text-align:start;text-decoration-line:none;text-decoration-style:solid;text-decoration-color:#000;text-transform:none;text-orientation:mixed;shape-padding:0;isolation:auto;mix-blend-mode:normal" d="M58.992 132.245s-7.563 1.89-15.033 4.254c-3.736 1.182-7.446 2.482-10.184 3.726-1.369.622-2.495 1.23-3.264 1.809-.384.29-.68.572-.873.853-.192.282-.282.57-.226.85.104.524.526 1.089 1.177 1.709.652.62 1.539 1.29 2.6 1.99 2.123 1.4 4.938 2.913 7.918 4.332 5.96 2.839 12.563 5.298 15.633 5.682l.033-.262c-2.977-.372-9.605-2.827-15.55-5.658-2.974-1.416-5.781-2.926-7.888-4.315-1.053-.694-1.93-1.358-2.564-1.96-.633-.603-1.015-1.148-1.1-1.569-.038-.192.019-.406.186-.65.167-.245.444-.512.814-.791.74-.558 1.854-1.162 3.213-1.78 2.72-1.236 6.425-2.534 10.155-3.714 7.46-2.361 15.017-4.25 15.017-4.25zm50.054-95.15l-.26.054s4.346 20.783 6.518 43.547c1.086 11.382 1.63 23.26.817 33.275-.814 10.015-2.997 18.16-7.293 22.082-4.314 3.938-11.426 6.349-19.67 7.729-8.244 1.38-17.617 1.733-26.447 1.592-17.66-.284-33.15-2.55-33.15-2.55l-.038.263s15.503 2.269 33.184 2.552c8.84.142 18.225-.211 26.494-1.595 8.269-1.385 15.424-3.796 19.804-7.795 4.398-4.015 6.563-12.215 7.38-22.256.815-10.042.27-21.931-.817-33.322-2.174-22.783-6.522-43.577-6.522-43.577z" color="#000" font-family="sans-serif" overflow="visible" white-space="normal"/>
  </g>
</svg>
