<svg xmlns="http://www.w3.org/2000/svg" width="482.814" height="429.205" viewBox="0 0 127.745 113.561">
  <g fill="none" stroke="#000">
    <g stroke-width="5.669" aria-label="Who's this?" font-family="Chilanka" font-size="96" font-weight="400" letter-spacing="0" style="line-height:1.25;-inkscape-font-specification:'Chilanka, Normal';font-variant-ligatures:normal;font-variant-caps:normal;font-variant-numeric:normal;font-feature-settings:normal;text-align:start" word-spacing="0">
      <path stroke-width="1.4999040199999998" d="M.224.695Q.46.446.782.435q.335-.013.57.222.249.236.26.558.15 4.974.609 8.446.806 5.966 2.282 7.008.198.136.322.136.124-.012.36-.21.694-.559 1.426-1.96.744-1.414 1.352-3.485 1.364-4.614 1.5-10.046.013-.323.249-.558.248-.236.57-.224.335.013.558.26.224.237.236.51.36 8.57 2.245 13.071.545 1.278 1.091 1.985.558.707.906.83.36.112.595.1.471-.025 1.042-.843 1.34-1.91 1.662-5.978.322-4.08-.186-8.732-.038-.322.173-.582.211-.273.533-.31.335-.038.596.173.273.211.297.546.534 4.8.186 9.165-.347 4.366-1.934 6.635-.658.943-1.538 1.327-.88.385-1.836.05-.955-.322-1.686-1.253-.732-.942-1.576-2.939-.843-1.997-1.438-5.507-.844 4.044-2.183 6.586-2.146 4.08-4.428 2.58-1.03-.72-1.748-2.58Q.299 11.435 0 1.265-.012.93.224.695z"/>
      <path stroke-width="1.4999040199999998" d="M22.858 14.97L22.821.806q0-.322.236-.558.235-.248.558-.248.335 0 .57.248.248.236.248.558l.013 7.392q1.414-2.456 3.51-2.704 2.108-.26 3.807 1.216 1.712 1.476 2.257 4.006.732 3.423-1.091 7.106-.137.285-.459.397-.322.112-.62-.037-.285-.149-.397-.46-.112-.322.037-.62 1.575-3.174.955-6.052-.434-1.996-1.662-3.063-1.228-1.066-2.555-.905-1.327.161-2.319 1.823-1.29 2.158-1.439 6.102v2.43q0 .298-.223.546-.223.248-.558.26-.322.013-.57-.21-.248-.236-.26-.558-.05-1.315 0-2.505z"/>
      <path stroke-width="1.4999040199999998" d="M43.074 5.259q3.088.186 5.06 3.05.992 1.44 1.092 3.46.099 2.022-.968 3.684-.682 1.067-1.773 1.761-1.08.695-2.32.918-1.86.347-3.609-.347-1.736-.707-2.79-2.332-1.327-2.046-.98-4.514.347-2.468 2.071-4.043 1.724-1.575 3.92-1.675.148-.012.297.038zm-.285 1.575q-1.575.099-2.865 1.265-1.278 1.166-1.55 3.05-.261 1.886.632 3.263.893 1.364 2.183 1.885 1.29.52 2.455.297 2.233-.409 3.25-2.009.794-1.228.72-2.766-.075-1.537-.832-2.641-1.488-2.158-3.795-2.307-.1 0-.198-.037z"/>
      <path stroke-width="1.4999040199999998" d="M53.356 5.804q-.087.323-.385.484-.285.161-.682.062-.385-.112-.533-.707-.683-2.828-.05-4.08.508-1.005 1.414-.496 1.364.744.236 4.737z"/>
      <path stroke-width="1.4999040199999998" d="M66.663 8.334q.013.335-.223.583-.223.236-.558.248-.335 0-.57-.223-.881-.843-2.097-1.315-1.203-.483-2.182-.496-2.605-.024-3.076 1.39-.36 1.078.595 1.947.955.868 3.485.67 1.96-.063 2.99.47 1.029.534 1.512 1.514.496.98.273 1.947-.41 1.81-2.245 2.642-1.414.644-2.976.508-2.952-.285-4.887-1.984-.248-.211-.273-.546-.012-.347.199-.595.223-.248.558-.26.335-.026.583.185 1.55 1.352 3.733 1.563 2.195.21 3.274-.955.781-.856.323-1.798-.583-1.166-2.766-1.067-2.17.087-3.163-.174-.98-.272-1.736-.955-.757-.694-1.042-1.662-.285-.98.037-1.96.323-.979 1.08-1.55 1.29-.967 3.05-.942 3.535.037 5.854 2.257.236.224.248.558z"/>
      <path stroke-width="1.4999040199999998" d="M76.535 7.317q-.235-.248-.235-.57 0-.335.235-.57.249-.236.571-.236l2.493.012q.012-.273.074-1.922.075-1.662.025-3.002-.012-.334.223-.57.236-.248.558-.26.335-.013.57.223.249.223.261.558.05 1.389-.024 3.063-.062 1.674-.075 1.923l1.873.012q.335 0 .57.248.236.236.236.57 0 .323-.248.559-.236.235-.558.235-.967 0-1.922-.012-.174 6.213.582 8.421.273.819.583.992.323.161.422.484.1.322-.062.62-.149.285-.471.384-.323.1-.62-.05-1.588-.855-1.935-4.675-.211-2.493-.112-6.189-1.228 0-2.443-.012-.335 0-.57-.236z"/>
      <path stroke-width="1.4999040199999998" d="M85.416 14.97L85.378.806q0-.322.236-.558Q85.85 0 86.172 0q.335 0 .57.248.249.236.249.558l.012 7.392q1.414-2.456 3.51-2.704 2.108-.26 3.807 1.216 1.712 1.476 2.258 4.006.731 3.423-1.092 7.106-.136.285-.459.397-.322.112-.62-.037-.285-.149-.397-.46-.111-.322.038-.62 1.575-3.174.955-6.052-.435-1.996-1.662-3.063-1.228-1.066-2.555-.905-1.327.161-2.32 1.823-1.29 2.158-1.438 6.102v2.43q0 .298-.223.546-.224.248-.558.26-.323.013-.571-.21-.248-.236-.26-.558-.05-1.315 0-2.505z"/>
      <path stroke-width="1.4999040199999998" d="M101.043 1.215q.483.013.818.298.744.645.533 1.464-.198.806-1.017 1.091-1.364.682-1.922-.335-.434-.806.174-1.674.607-.868 1.414-.844zm-.62 17.016q-.323.1-.62-.062-.286-.16-.385-.47-.087-.31.012-.571.248-.558.31-4.168.075-3.609.037-6.523 0-.335.224-.57.235-.249.558-.249.335-.012.57.224.248.235.248.57.05 2.94.013 4.911-.037 1.972-.05 2.803-.012.831-.062 1.972-.074 1.898-.856 2.133z"/>
      <path stroke-width="1.4999040199999998" d="M115.33 8.334q.012.335-.223.583-.223.236-.558.248-.335 0-.57-.223-.881-.843-2.097-1.315-1.203-.483-2.183-.496-2.604-.024-3.075 1.39-.36 1.078.595 1.947.955.868 3.485.67 1.96-.063 2.989.47 1.03.534 1.513 1.514.496.98.273 1.947-.41 1.81-2.245 2.642-1.414.644-2.977.508-2.951-.285-4.886-1.984-.248-.211-.273-.546-.012-.347.199-.595.223-.248.558-.26.334-.026.583.185 1.55 1.352 3.733 1.563 2.195.21 3.274-.955.781-.856.322-1.798-.583-1.166-2.765-1.067-2.17.087-3.163-.174-.98-.272-1.736-.955-.757-.694-1.042-1.662-.285-.98.037-1.96.323-.979 1.08-1.55 1.289-.967 3.05-.942 3.535.037 5.854 2.257.236.224.248.558z"/>
      <path stroke-width="1.4999040199999998" d="M119.634 5.73q-.186.273-.509.347-.322.062-.608-.111-.272-.187-.347-.509-.508-2.394.67-3.646Q120.55 0 123.9 1.079q3.349 1.067 3.795 2.877.397 1.625-2.394 3.907-1.227 1.005-1.748 1.774-.509.756-.484 1.6.012 1.389.868 2.505.199.273.15.608-.038.322-.311.533-.26.198-.595.149-.335-.05-.534-.31-1.165-1.538-1.19-3.46-.025-1.353.905-2.742.509-.744 1.749-1.76 1.24-1.018 1.86-1.873.273-.323.211-.583-.1-.41-.992-.906-.893-.496-1.848-.806-2.32-.744-3.324.323-.595.632-.26 2.207.062.323-.124.608zm2.641 13.53q-.384-.483-.384-1.165t.384-1.166q.385-.483.918-.483.546 0 .93.483.385.484.385 1.166 0 .682-.385 1.166-.384.484-.93.484-.533 0-.918-.484z"/>
    </g>
    <path stroke-linecap="round" stroke-linejoin="round" stroke-width="2" d="M74.076 76.202s-2.268 34.774.756 36.285c3.024 1.512 27.97-24.946 33.262-20.41M71.808 26.309c20.915 8.567 31.246 57.956 3.78 84.667"/>
  </g>
</svg>
