<svg xmlns="http://www.w3.org/2000/svg" width="89.791" height="65.995" viewBox="0 0 23.757 17.461">
  <g stroke-width=".265">
    <g fill="none" stroke="#000" aria-label="XR" font-family="Uroob" font-size="25.4" font-weight="400" letter-spacing="0" style="line-height:1.25;-inkscape-font-specification:'Chilanka, Normal';font-variant-ligatures:normal;font-variant-caps:normal;font-variant-numeric:normal;font-feature-settings:normal;text-align:start" word-spacing="0">
      <path d="M11.858 16.07H9.24l-3.2-5.543-3.2 5.544H.224l4.502-7.838Q3.734 6.472 2.643 4.66 1.563 2.85 1.018 1.82.485.79.41.667.348.531.41.394.572.06 1.204.097h1.488L6.041 5.95 9.39.097h1.55q.583 0 .72.235.136.224.061.372-.074.15-.397.707-.322.558-.868 1.489-.533.917-1.079 1.848-.533.93-1.054 1.823-.52.88-.967 1.662z" style="-inkscape-font-specification:Uroob"/>
      <path d="M22.35 16.12h-2.332l-3.286-6.87h-1.774v6.87h-2.257V.22h6.127q1.215 0 2.071.794.88.807.88 2.034V6.77q0 1.774-1.513 2.307-.47.174-1.041.174zm-2.815-9.884V3.458q0-.831-.645-1.203-.199-.112-.46-.112h-3.472v5.16h3.845q.645 0 .707-.683.025-.186.025-.384z" style="-inkscape-font-specification:Uroob"/>
    </g>
    <path fill-opacity=".3" stroke="#000" d="M3.38 1.305l2.66 4.651.257-.45-2.403-4.201zm8.006 0c-.03.052-.028.053-.063.112-.215.372-.504.868-.868 1.488-.355.612-.715 1.228-1.079 1.848-.355.62-.707 1.228-1.054 1.823-.347.587-.67 1.141-.967 1.662l4.502 7.839H9.748l.694 1.202h2.617L8.557 9.441c.298-.521.62-1.075.968-1.662.347-.595.698-1.203 1.054-1.823.364-.62.723-1.236 1.079-1.848.364-.62.653-1.116.868-1.488.094-.164.112-.2.174-.31v-.904c-.127-.065-.308-.101-.559-.101zm10.097.476c.195.379.296.802.296 1.273v3.72c0 1.183-.505 1.952-1.513 2.308a2.994 2.994 0 0 1-1.042.173l3.125 6.871h-1.704l.575 1.203h2.332l-3.126-6.871c.38 0 .728-.058 1.042-.174 1.009-.355 1.513-1.124 1.513-2.307v-3.72c0-.819-.293-1.497-.88-2.034a2.992 2.992 0 0 0-.618-.442zm-6.526.368v5.16h1.203V3.35h3.368c-.028-.495-.24-.86-.64-1.09a.92.92 0 0 0-.458-.112zm0 7.106v6.871h-1.054v1.203h2.257v-6.871h1.146l-.575-1.203zM6.04 10.533l-3.2 5.544h-.723l-.691 1.202h2.617l2.945-5.103z" font-family="Chilanka" font-size="25.4" font-weight="400" letter-spacing="0" style="line-height:1.25;-inkscape-font-specification:'Chilanka, Normal';font-variant-ligatures:normal;font-variant-caps:normal;font-variant-numeric:normal;font-feature-settings:normal;text-align:start" word-spacing="0"/>
    <path fill="none" stroke="#000" d="M.094 16.103l1.196 1.212"/>
    <path fill="none" stroke="#000" d="M2.84 16.077l1.196 1.211"/>
    <path fill="none" stroke="#000" d="M9.247 16.067l1.195 1.212"/>
    <path fill="none" stroke="#000" d="M11.864 16.067l1.195 1.212"/>
    <path fill="none" stroke="#000" d="M2.698.093l1.196 1.212"/>
    <path fill="none" stroke="#000" d="M11.593.253L12.7 1.406"/>
    <path fill="none" stroke="#000" d="M12.707 16.117l1.196 1.212"/>
    <path fill="none" stroke="#000" d="M14.957 16.126l1.196 1.212"/>
    <path fill="none" stroke="#000" d="M20.024 16.117l1.196 1.212"/>
    <path fill="none" stroke="#000" d="M22.356 16.117l1.196 1.212"/>
    <path fill="none" stroke="#000" d="M19.224 9.255l1.195 1.212"/>
  </g>
</svg>
